<svg xmlns="http://www.w3.org/2000/svg" width="120" height="120" viewBox="0 0 120 120">
  <g id="_11to" data-name="11to" transform="translate(12.259 27.82)">
    <path id="Path_71" data-name="Path 71" d="M0,0H120V120H0Z" transform="translate(-12.259 -27.82)" fill="none"/>
    <g id="Group_205" data-name="Group 205" transform="translate(-144.983 -75.45)">
      <g id="Group_138" data-name="Group 138" transform="translate(158.752 93.913)">
        <g id="Group_137" data-name="Group 137" transform="translate(0 0)">
          <path id="Path_102" data-name="Path 102" d="M65.22-13.5H6.281q-2.3-.383-2.529-1.533,0-1.533,2.529-1.533H65.22A23.635,23.635,0,0,1,57.4-26.453l-.077-.077a5.386,5.386,0,0,1-.383-1.226q0-.92,1.15-.92.843,0,1.3,1.073a22.293,22.293,0,0,0,10.424,11.19H69.9l.077.077h.077a10.5,10.5,0,0,0,1.073.537q.307,0,.536.766a1.093,1.093,0,0,1-.69.92.745.745,0,0,0-.383.153,22.391,22.391,0,0,0-11.113,11.5h0a.832.832,0,0,0-.153.307,1.282,1.282,0,0,1-1.226.766q-1.15,0-1.15-.92,0-1.15,2.223-4.6A24.226,24.226,0,0,1,65.22-13.5Z" transform="translate(-3.752 28.676)"/>
        </g>
      </g>
    </g>
  </g>
</svg>
