<svg xmlns="http://www.w3.org/2000/svg" width="120" height="120" viewBox="0 0 120 120">
  <g id="_15implies" data-name="15implies" transform="translate(0)">
    <path id="Path_71" data-name="Path 71" d="M0,120H120V0H0Z" transform="translate(0)" fill="none"/>
    <g id="Group_206" data-name="Group 206" transform="translate(166.736 -115.44) rotate(90)">
      <g id="Group_158" data-name="Group 158">
        <g id="Group_157" data-name="Group 157" transform="translate(155 123.498)">
          <path id="Path_116" data-name="Path 116" d="M28.274-28.81v39.6q0,2.144-1.34,2.211-1.34,0-1.34-2.278V-31.892a30.416,30.416,0,0,1-5.159-8.442,34.8,34.8,0,0,1-5.159,8.442V10.72q0,2.144-1.34,2.278-1.34,0-1.34-2.211v-39.6a34.593,34.593,0,0,1-8.643,6.231,3.416,3.416,0,0,1-1.139.469q-.8,0-.8-1.34a1.462,1.462,0,0,1,.536-1.34A32.379,32.379,0,0,0,18.827-43.014l.8-2.613q.268-.871.8-.871t.8.871A32.08,32.08,0,0,0,37.654-25.058q1.072.6,1.139.938a2.351,2.351,0,0,1,.067.67q0,1.34-.8,1.34-.938,0-4.958-2.814A31.534,31.534,0,0,1,28.274-28.81Z"/>
        </g>
      </g>
    </g>
  </g>
</svg>
