<svg xmlns="http://www.w3.org/2000/svg" width="120" height="120" viewBox="0 0 120 120">
  <g id="_18Downarrow" data-name="18Downarrow" transform="translate(0 120) rotate(-90)">
    <path id="Path_71" data-name="Path 71" d="M120,0H0V120H120Z" transform="translate(0 0)" fill="none"/>
    <g id="Group_206" data-name="Group 206" transform="translate(30.264 78.43) rotate(-90)">
      <g id="Group_158" data-name="Group 158" transform="translate(0 0)">
        <g id="Group_157" data-name="Group 157" transform="translate(0)">
          <path id="Path_116" data-name="Path 116" d="M26.264,17.688v39.6q0,2.144-1.34,2.211-1.34,0-1.34-2.278V14.606a30.416,30.416,0,0,1-5.159-8.442,34.8,34.8,0,0,1-5.159,8.442V57.218q0,2.144-1.34,2.278-1.34,0-1.34-2.211v-39.6a34.593,34.593,0,0,1-8.643,6.231A3.416,3.416,0,0,1,.8,24.388q-.8,0-.8-1.34a1.462,1.462,0,0,1,.536-1.34A32.379,32.379,0,0,0,16.817,3.484l.8-2.613q.268-.871.8-.871t.8.871A32.08,32.08,0,0,0,35.644,21.44q1.072.6,1.139.938a2.351,2.351,0,0,1,.067.67q0,1.34-.8,1.34-.938,0-4.958-2.814A31.534,31.534,0,0,1,26.264,17.688Z"/>
        </g>
      </g>
    </g>
  </g>
</svg>
