<svg id="_21leftrightarrow" data-name="21leftrightarrow" xmlns="http://www.w3.org/2000/svg" width="120" height="120" viewBox="0 0 120 120">
  <path id="Path_71" data-name="Path 71" d="M120,0H0V120H120Z" transform="translate(0 0)" fill="none"/>
  <g id="Group_207" data-name="Group 207" transform="translate(-128.555 -46)">
    <g id="Group_164" data-name="Group 164" transform="translate(158.819 93.913)">
      <g id="Group_163" data-name="Group 163" transform="translate(0 0)">
        <path id="Path_120" data-name="Path 120" d="M57.988-15.41H9.5a20.694,20.694,0,0,1,6.9,8.643A3.746,3.746,0,0,1,16.8-5.628q0,.8-1.014.8-.744,0-1.15-.938a19.936,19.936,0,0,0-8.453-9.313l-1.555-.8q-.812-.469-.812-.871t.676-.8l.271-.134a19.768,19.768,0,0,0,9.941-10.318,1.132,1.132,0,0,1,1.082-.67q1.014,0,1.014.8,0,1.005-1.961,4.02A21.254,21.254,0,0,1,9.5-18.09H57.988a20.694,20.694,0,0,1-6.9-8.643l-.068-.067a4.676,4.676,0,0,1-.338-1.072q0-.8,1.014-.8.744,0,1.15.938a19.562,19.562,0,0,0,9.2,9.782h.068l.068.067h.068a9.3,9.3,0,0,0,.947.469q.271,0,.473.67,0,.469-.609.8a.661.661,0,0,0-.338.134,19.657,19.657,0,0,0-9.806,10.05h0a.725.725,0,0,0-.135.268,1.132,1.132,0,0,1-1.082.67q-1.014,0-1.014-.8,0-1.005,1.961-4.02A21.254,21.254,0,0,1,57.988-15.41Z" transform="translate(-3.819 28.676)"/>
      </g>
    </g>
  </g>
</svg>
