<svg id="_22iff" data-name="22iff" xmlns="http://www.w3.org/2000/svg" width="120" height="120" viewBox="0 0 120 120">
  <path id="Path_71" data-name="Path 71" d="M120,0H0V120H120Z" transform="translate(0 0)" fill="none"/>
  <g id="Group_208" data-name="Group 208" transform="translate(-155.43 -41.854)">
    <g id="Group_168" data-name="Group 168" transform="translate(177.43 83.414)">
      <g id="Group_166" data-name="Group 166" transform="translate(0 0)">
        <path id="Path_122" data-name="Path 122" d="M60.97-8.911H21.44q5.36,5.9,6.7,9.782,0,.8-1.34.8a1.78,1.78,0,0,1-1.005-.2L24.924,0A31.526,31.526,0,0,0,4.891-15.879q-1-.268-1.072-.871,0-.6,1.139-.871A31.585,31.585,0,0,0,25.125-33.9q.67-1.139,1-1.206a2.351,2.351,0,0,1,.67-.067q1.34,0,1.34.8,0,.871-2.144,4.02a47.3,47.3,0,0,1-4.556,5.762H60.97q2.144,0,2.211,1.34,0,1.34-2.278,1.34H19.631a3.1,3.1,0,0,0-1.809.469l-.2.2a39.851,39.851,0,0,1-7.7,4.489,38.509,38.509,0,0,1,7.638,4.489,4.174,4.174,0,0,0,2.077.67H60.9q2.144,0,2.278,1.34Q63.181-8.911,60.97-8.911Z" transform="translate(-3.819 35.175)"/>
      </g>
      <g id="Group_167" data-name="Group 167" transform="translate(16.694 0)">
        <path id="Path_123" data-name="Path 123" d="M47.3-21.909H6.03q-2.144,0-2.278-1.34,0-1.34,2.211-1.34h39.53q-5.36-5.9-6.7-9.782,0-.8,1.34-.8a1.78,1.78,0,0,1,1.005.2l.871,1.474A31.526,31.526,0,0,0,62.042-17.621q1,.268,1.072.871,0,.6-1.139.871A31.585,31.585,0,0,0,41.808.4q-.67,1.139-1.005,1.206l-.067.067h-.6q-1.34,0-1.34-.8,0-.871,2.144-4.02a47.3,47.3,0,0,1,4.556-5.762H5.963q-2.144,0-2.211-1.34,0-1.34,2.278-1.34H47.3a3.1,3.1,0,0,0,1.809-.469l.067-.067.134-.134a39.851,39.851,0,0,1,7.705-4.489,38.509,38.509,0,0,1-7.638-4.489A3.307,3.307,0,0,0,47.3-21.909Z" transform="translate(-3.752 35.175)"/>
      </g>
    </g>
  </g>
</svg>
