<svg id="_34xLeftarrow" data-name="34xLeftarrow" xmlns="http://www.w3.org/2000/svg" width="120" height="120" viewBox="0 0 120 120">
  <path id="Path_71" data-name="Path 71" d="M120,0H0V120H120Z" transform="translate(0 0)" fill="none"/>
  <g id="Group_209" data-name="Group 209" transform="translate(-137 -48)">
    <g id="Group_174" data-name="Group 174">
      <g id="Group_170" data-name="Group 170" transform="translate(183.549 92.214)">
        <path id="Path_125" data-name="Path 125" d="M14.515-18.3a1.744,1.744,0,0,1,1.177-1.594,1.114,1.114,0,0,1,.417-.076,1.009,1.009,0,0,1,1.1,1.025,8.431,8.431,0,0,1-.266,1.29l-1.366,5.314q-.569,2.391-.835,3.416a13.481,13.481,0,0,0-.493,2.809q0,1.746,1.139,1.746,1.442,0,2.429-3.036.19-.645.455-1.67.3-.645.531-.683.455,0,.455.38a12.125,12.125,0,0,1-.683,2.657,9.734,9.734,0,0,1-.455,1.1,3.176,3.176,0,0,1-2.809,2.088,3.217,3.217,0,0,1-3.074-1.822,3.3,3.3,0,0,1-.38-1.025Q9.467-3.536,6.924-3.536A4.475,4.475,0,0,1,2.711-6.117a7.127,7.127,0,0,1-.835-3.492A11.769,11.769,0,0,1,4.723-17.2a8.7,8.7,0,0,1,5.769-3.492,3.753,3.753,0,0,1,.531-.038A3.744,3.744,0,0,1,14.515-18.3M12.048-8.47h0l1.9-7.439q.114-.569.114-.645a3.969,3.969,0,0,0-.683-1.936,2.578,2.578,0,0,0-2.315-1.4q-1.974,0-3.758,2.581a10.764,10.764,0,0,0-.645,1.063A24.6,24.6,0,0,0,4.8-9.989a12.476,12.476,0,0,0-.228,2.05q0,2.581,1.442,3.34A2.031,2.031,0,0,0,7-4.371q2.125,0,4.289-2.695a3.348,3.348,0,0,0,.721-1.253v-.038A.291.291,0,0,0,12.048-8.47Z" transform="translate(3.048 -10.974)"/>
      </g>
      <g id="Group_173" data-name="Group 173" transform="translate(167.237 89.561)">
        <g id="Group_206" data-name="Group 206" transform="translate(59.499) rotate(90)">
          <g id="Group_158" data-name="Group 158">
            <g id="Group_157" data-name="Group 157" transform="translate(0 0)">
              <path id="Path_116" data-name="Path 116" d="M26.273,41.811V2.211q0-2.144-1.34-2.211-1.34,0-1.34,2.278V44.893a30.416,30.416,0,0,0-5.159,8.442,34.8,34.8,0,0,0-5.159-8.442V2.281q0-2.144-1.34-2.278Q10.6,0,10.6,2.214v39.6a34.593,34.593,0,0,0-8.643-6.231,3.416,3.416,0,0,0-1.139-.469q-.8,0-.8,1.34a1.462,1.462,0,0,0,.536,1.34A32.379,32.379,0,0,1,16.826,56.015l.8,2.613q.268.871.8.871t.8-.871A32.08,32.08,0,0,1,35.653,38.059q1.072-.6,1.139-.938a2.351,2.351,0,0,0,.067-.67q0-1.34-.8-1.34-.938,0-4.958,2.814a31.534,31.534,0,0,0-4.828,3.886Z"/>
            </g>
          </g>
        </g>
      </g>
    </g>
  </g>
</svg>
