<svg id="_35tofrom" data-name="35tofrom" xmlns="http://www.w3.org/2000/svg" width="120" height="120" viewBox="0 0 120 120">
  <path id="Path_71" data-name="Path 71" d="M120,0H0V120H120Z" fill="none"/>
  <g id="Group_209" data-name="Group 209" transform="translate(-137 -48)">
    <g id="Group_174" data-name="Group 174">
      <g id="Group_170" data-name="Group 170" transform="translate(183.549 92.214)">
        <path id="Path_125" data-name="Path 125" d="M14.515-18.3a1.744,1.744,0,0,1,1.177-1.594,1.114,1.114,0,0,1,.417-.076,1.009,1.009,0,0,1,.779.267,1.009,1.009,0,0,1,.321.758,8.431,8.431,0,0,1-.266,1.29l-1.366,5.314q-.569,2.391-.835,3.416a13.481,13.481,0,0,0-.493,2.809q0,1.746,1.139,1.746,1.442,0,2.429-3.036.19-.645.455-1.67.3-.645.531-.683.455,0,.455.38a12.125,12.125,0,0,1-.683,2.657,9.734,9.734,0,0,1-.455,1.1,3.176,3.176,0,0,1-2.809,2.088,3.217,3.217,0,0,1-3.074-1.822,3.3,3.3,0,0,1-.38-1.025Q9.467-3.536,6.924-3.536A4.475,4.475,0,0,1,2.711-6.117a7.127,7.127,0,0,1-.835-3.492A11.769,11.769,0,0,1,4.723-17.2a8.7,8.7,0,0,1,5.769-3.492,3.753,3.753,0,0,1,.531-.038,3.744,3.744,0,0,1,3.492,2.43M12.048-8.47h0l1.9-7.439q.114-.569.114-.645a3.969,3.969,0,0,0-.683-1.936,2.578,2.578,0,0,0-2.315-1.4q-1.974,0-3.758,2.581a10.764,10.764,0,0,0-.645,1.063A24.6,24.6,0,0,0,4.8-9.989a12.476,12.476,0,0,0-.228,2.05q0,2.581,1.442,3.34A2.031,2.031,0,0,0,7-4.371q2.125,0,4.289-2.695a3.348,3.348,0,0,0,.721-1.253v-.038a.291.291,0,0,0,.038-.113Z" transform="translate(3.048 -10.974)"/>
      </g>
      <g id="Group_173" data-name="Group 173" transform="translate(162.444 124.239)">
        <path id="Path_126" data-name="Path 126" d="M66.953-15.41q2.01-.335,2.211-1.34,0-1.34-2.211-1.34H9.38a20.662,20.662,0,0,0,6.834-8.643l.067-.067a4.709,4.709,0,0,0,.335-1.072q0-.8-1-.8-.737,0-1.139.938A19.488,19.488,0,0,1,5.36-17.956H5.293l-.067.067H5.159a9.182,9.182,0,0,1-.938.469q-.268,0-.469.67a.955.955,0,0,0,.6.8.651.651,0,0,1,.335.134A19.573,19.573,0,0,1,14.4-5.762h0a.727.727,0,0,1,.134.268,1.12,1.12,0,0,0,1.072.67q1,0,1-.8,0-1.005-1.943-4.02A21.178,21.178,0,0,0,9.38-15.41Z" transform="translate(0 10)"/>
        <path id="Path_126-2" data-name="Path 126" d="M5.963-15.41q-2.01-.335-2.211-1.34,0-1.34,2.211-1.34H63.536A20.662,20.662,0,0,1,56.7-26.733l-.067-.067a4.709,4.709,0,0,1-.335-1.072q0-.8,1-.8.737,0,1.139.938a19.488,19.488,0,0,0,9.117,9.778h.067l.067.067h.067a9.182,9.182,0,0,0,.938.469q.268,0,.469.67a.955.955,0,0,1-.6.8.651.651,0,0,0-.335.134A19.573,19.573,0,0,0,58.516-5.762h0a.727.727,0,0,0-.134.268,1.12,1.12,0,0,1-1.072.67q-1,0-1-.8,0-1.005,1.943-4.02a21.178,21.178,0,0,1,5.283-5.766Z" transform="translate(0 -10)"/>
        <g id="Group_172" data-name="Group 172" transform="translate(-162.444 -124.239)">
          <g id="Group_171" data-name="Group 171" transform="translate(185.894 165.355)">
            <path id="Path_127" data-name="Path 127" d="M8.92-32.164,6.332-21.636a5.8,5.8,0,0,1,4.092-2.1,4.19,4.19,0,0,1,3.917,2.413,6.744,6.744,0,0,1,.735,3.183,10.844,10.844,0,0,1-2.588,6.925,8.029,8.029,0,0,1-5.317,3.29,4.243,4.243,0,0,1-.525.035A3.981,3.981,0,0,1,2.9-10.233a6.671,6.671,0,0,1-.7-3.148,16.731,16.731,0,0,1,.56-3.533l2.868-11.4q.49-2.064.49-2.169,0-.385-.49-.49h0a5.593,5.593,0,0,0-1.259-.1q-.769,0-.839-.42,0-.6.665-.7l4.267-.35q.455,0,.455.385M5.632-18.943l-.769,3.218a15.161,15.161,0,0,0-.56,3.533q0,3.008,1.819,3.463a1.9,1.9,0,0,0,.525.07q1.854,0,3.463-2.448a10.731,10.731,0,0,0,.665-1.154,22.475,22.475,0,0,0,1.574-5.386,12.438,12.438,0,0,0,.21-2.029q0-2.8-1.714-3.218l-.035-.035a2.77,2.77,0,0,0-.455-.035q-2.1,0-4.2,2.8A3.631,3.631,0,0,0,5.632-18.943Z" transform="translate(4.194 -0.797)"/>
          </g>
        </g>
      </g>
    </g>
  </g>
</svg>
