<svg id="_36leftright" data-name="36leftright" xmlns="http://www.w3.org/2000/svg" width="120" height="120" viewBox="0 0 120 120">
  <path id="Path_71" data-name="Path 71" d="M120,0H0V120H120Z" fill="none"/>
  <g id="Group_207" data-name="Group 207" transform="translate(-128.555 -46)">
    <g id="Group_164" data-name="Group 164" transform="translate(158.819 93.913)">
      <g id="Group_163" data-name="Group 163">
        <path id="Path_120" data-name="Path 120" d="M57.988-15.41H9.5a20.694,20.694,0,0,1,6.9,8.643,3.746,3.746,0,0,1,.4,1.139q0,.8-1.014.8-.744,0-1.15-.938a19.936,19.936,0,0,0-8.453-9.313l-1.555-.8q-.812-.469-.812-.871t.676-.8l.271-.134A19.768,19.768,0,0,0,14.7-28a1.132,1.132,0,0,1,1.082-.67q1.014,0,1.014.8,0,1.005-1.961,4.02A21.254,21.254,0,0,1,9.5-18.09H57.988a20.694,20.694,0,0,1-6.9-8.643L51.02-26.8a4.676,4.676,0,0,1-.338-1.072q0-.8,1.014-.8.744,0,1.15.938a19.562,19.562,0,0,0,9.2,9.782h.068l.068.067h.068a9.3,9.3,0,0,0,.947.469q.271,0,.473.67,0,.469-.609.8a.661.661,0,0,0-.338.134,19.657,19.657,0,0,0-9.806,10.05h0a.725.725,0,0,0-.135.268,1.132,1.132,0,0,1-1.082.67q-1.014,0-1.014-.8,0-1.005,1.961-4.02a21.254,21.254,0,0,1,5.341-5.766Z" transform="translate(-3.819 28.676)"/>
      </g>
    </g>
    <g id="Group_209" data-name="Group 209" transform="translate(-8.445 -2)">
      <g id="Group_174" data-name="Group 174">
        <g id="Group_210" data-name="Group 210" transform="translate(169.623 60.755)">
          <path id="Path_143" data-name="Path 143" d="M14.394-18.324A1.727,1.727,0,0,1,15.559-19.9a1.1,1.1,0,0,1,.413-.075,1,1,0,0,1,.772.264,1,1,0,0,1,.318.751,8.35,8.35,0,0,1-.263,1.278l-1.353,5.263q-.564,2.368-.827,3.383a13.351,13.351,0,0,0-.489,2.782q0,1.729,1.128,1.729,1.428,0,2.406-3.007.188-.639.451-1.654.3-.639.526-.677.451,0,.451.376a12.009,12.009,0,0,1-.677,2.631,9.641,9.641,0,0,1-.451,1.09A3.145,3.145,0,0,1,15.183-3.7a3.186,3.186,0,0,1-3.045-1.8,3.271,3.271,0,0,1-.376-1.015Q9.394-3.7,6.876-3.7A4.432,4.432,0,0,1,2.7-6.258a7.059,7.059,0,0,1-.827-3.458A11.656,11.656,0,0,1,4.7-17.234a8.613,8.613,0,0,1,5.714-3.458,3.717,3.717,0,0,1,.526-.038A3.708,3.708,0,0,1,14.4-18.324M11.95-8.588h0l1.88-7.368q.113-.564.113-.639a3.93,3.93,0,0,0-.677-1.917A2.553,2.553,0,0,0,10.973-19.9q-1.955,0-3.721,2.556a10.66,10.66,0,0,0-.639,1.053,24.363,24.363,0,0,0-1.842,6.2,12.356,12.356,0,0,0-.226,2.03q0,2.556,1.428,3.308a2.011,2.011,0,0,0,.977.226q2.1,0,4.248-2.669a3.316,3.316,0,0,0,.714-1.24v-.038a.289.289,0,0,0,.038-.114Z" transform="translate(-1.876 20.73)"/>
        </g>
        <g id="Group_211" data-name="Group 211" transform="translate(189.771 51.282)">
          <path id="Path_144" data-name="Path 144" d="M9.422-32.135,6.64-20.82a6.232,6.232,0,0,1,4.4-2.255,4.5,4.5,0,0,1,4.21,2.594,7.248,7.248,0,0,1,.789,3.421,11.654,11.654,0,0,1-2.782,7.443A8.628,8.628,0,0,1,7.542-6.085a4.56,4.56,0,0,1-.564.038A4.278,4.278,0,0,1,2.956-8.566,7.17,7.17,0,0,1,2.2-11.949a17.982,17.982,0,0,1,.6-3.8L5.888-28q.526-2.218.526-2.331,0-.413-.526-.526h0a6.011,6.011,0,0,0-1.353-.113q-.827,0-.9-.451,0-.639.714-.752l4.586-.376q.489,0,.489.413M5.888-17.926l-.827,3.458a16.294,16.294,0,0,0-.6,3.8q0,3.233,1.955,3.721a2.044,2.044,0,0,0,.564.075q1.992,0,3.721-2.631a11.533,11.533,0,0,0,.714-1.24,24.155,24.155,0,0,0,1.692-5.789,13.367,13.367,0,0,0,.226-2.18q0-3.007-1.842-3.458l-.038-.038a2.977,2.977,0,0,0-.489-.038q-2.255,0-4.511,3.007a3.9,3.9,0,0,0-.565,1.313Z" transform="translate(-2.204 32.549)"/>
        </g>
        <g id="Group_212" data-name="Group 212" transform="translate(205.672 60.755)">
          <path id="Path_145" data-name="Path 145" d="M15.267-18.4h0a4.234,4.234,0,0,0-3.233-1.5A5.681,5.681,0,0,0,7.6-17.422a8.8,8.8,0,0,0-.865,1.278A17.8,17.8,0,0,0,4.78-9.678,8.623,8.623,0,0,0,4.7-8.626q0,3.082,2.1,3.872a3.24,3.24,0,0,0,1.278.226,9.265,9.265,0,0,0,6.09-2.255A8.8,8.8,0,0,0,15.606-8.25q.263-.376.489-.376.338,0,.451.489,0,.413-1.278,1.616A10.487,10.487,0,0,1,8.013-3.7,5.517,5.517,0,0,1,2.825-6.558a6.79,6.79,0,0,1-.9-3.5,10.448,10.448,0,0,1,2.932-7.1,9.7,9.7,0,0,1,6.466-3.533A6.122,6.122,0,0,1,12-20.73q2.894,0,4.022,1.767a2.76,2.76,0,0,1,.413,1.466,2.25,2.25,0,0,1-1.316,2.255,2.106,2.106,0,0,1-.789.15,1.218,1.218,0,0,1-1.353-.977,1.4,1.4,0,0,1-.038-.338,1.965,1.965,0,0,1,.677-1.466,2.259,2.259,0,0,1,1.651-.527Z" transform="translate(-1.923 20.73)"/>
        </g>
      </g>
    </g>
  </g>
</svg>
