<svg id="_37lefftrigght" data-name="37lefftrigght" xmlns="http://www.w3.org/2000/svg" width="120" height="120" viewBox="0 0 120 120">
  <path id="Path_71" data-name="Path 71" d="M120,0H0V120H120Z" transform="translate(0 0)" fill="none"/>
  <g id="Group_209" data-name="Group 209" transform="translate(-137 -48)">
    <g id="Group_174" data-name="Group 174">
      <g id="Group_210" data-name="Group 210" transform="translate(171.623 60.755)">
        <path id="Path_143" data-name="Path 143" d="M14.394-18.324A1.727,1.727,0,0,1,15.559-19.9a1.1,1.1,0,0,1,.413-.075,1,1,0,0,1,1.09,1.015,8.35,8.35,0,0,1-.263,1.278l-1.353,5.263q-.564,2.368-.827,3.383a13.351,13.351,0,0,0-.489,2.782q0,1.729,1.128,1.729,1.428,0,2.406-3.007.188-.639.451-1.654.3-.639.526-.677.451,0,.451.376a12.009,12.009,0,0,1-.677,2.631,9.641,9.641,0,0,1-.451,1.09A3.145,3.145,0,0,1,15.183-3.7a3.186,3.186,0,0,1-3.045-1.8,3.271,3.271,0,0,1-.376-1.015Q9.394-3.7,6.876-3.7A4.432,4.432,0,0,1,2.7-6.258a7.059,7.059,0,0,1-.827-3.458A11.656,11.656,0,0,1,4.7-17.234a8.613,8.613,0,0,1,5.714-3.458,3.717,3.717,0,0,1,.526-.038,3.708,3.708,0,0,1,3.458,2.406M11.95-8.588h0l1.88-7.368q.113-.564.113-.639a3.93,3.93,0,0,0-.677-1.917A2.553,2.553,0,0,0,10.973-19.9q-1.955,0-3.721,2.556a10.66,10.66,0,0,0-.639,1.053,24.363,24.363,0,0,0-1.842,6.2,12.356,12.356,0,0,0-.226,2.03q0,2.556,1.428,3.308a2.011,2.011,0,0,0,.977.226q2.105,0,4.248-2.669a3.316,3.316,0,0,0,.714-1.24v-.038A.289.289,0,0,0,11.95-8.588Z" transform="translate(-1.876 20.73)"/>
      </g>
      <g id="Group_211" data-name="Group 211" transform="translate(191.771 51.282)">
        <path id="Path_144" data-name="Path 144" d="M9.422-32.135,6.64-20.82a6.232,6.232,0,0,1,4.4-2.255,4.5,4.5,0,0,1,4.21,2.594,7.248,7.248,0,0,1,.789,3.421,11.654,11.654,0,0,1-2.782,7.443A8.628,8.628,0,0,1,7.542-6.085a4.56,4.56,0,0,1-.564.038A4.278,4.278,0,0,1,2.956-8.566,7.17,7.17,0,0,1,2.2-11.949a17.982,17.982,0,0,1,.6-3.8L5.888-28q.526-2.218.526-2.331,0-.413-.526-.526h0a6.011,6.011,0,0,0-1.353-.113q-.827,0-.9-.451,0-.639.714-.752l4.586-.376q.489,0,.489.413M5.888-17.926l-.827,3.458a16.294,16.294,0,0,0-.6,3.8q0,3.233,1.955,3.721a2.044,2.044,0,0,0,.564.075q1.992,0,3.721-2.631a11.533,11.533,0,0,0,.714-1.24,24.155,24.155,0,0,0,1.692-5.789,13.367,13.367,0,0,0,.226-2.18q0-3.007-1.842-3.458l-.038-.038a2.977,2.977,0,0,0-.489-.038q-2.255,0-4.511,3.007A3.9,3.9,0,0,0,5.888-17.926Z" transform="translate(-2.204 32.549)"/>
      </g>
      <g id="Group_212" data-name="Group 212" transform="translate(207.672 60.755)">
        <path id="Path_145" data-name="Path 145" d="M15.267-18.4h0a4.234,4.234,0,0,0-3.233-1.5A5.681,5.681,0,0,0,7.6-17.422a8.8,8.8,0,0,0-.865,1.278A17.8,17.8,0,0,0,4.78-9.678,8.623,8.623,0,0,0,4.7-8.626q0,3.082,2.105,3.872a3.24,3.24,0,0,0,1.278.226,9.265,9.265,0,0,0,6.09-2.255A8.8,8.8,0,0,0,15.606-8.25q.263-.376.489-.376.338,0,.451.489,0,.413-1.278,1.616A10.487,10.487,0,0,1,8.013-3.7,5.517,5.517,0,0,1,2.825-6.558a6.79,6.79,0,0,1-.9-3.5,10.448,10.448,0,0,1,2.932-7.1,9.7,9.7,0,0,1,6.466-3.533A6.122,6.122,0,0,1,12-20.73q2.894,0,4.022,1.767a2.76,2.76,0,0,1,.413,1.466,2.25,2.25,0,0,1-1.316,2.255,2.106,2.106,0,0,1-.789.15,1.218,1.218,0,0,1-1.353-.977,1.4,1.4,0,0,1-.038-.338,1.965,1.965,0,0,1,.677-1.466A2.259,2.259,0,0,1,15.267-18.4Z" transform="translate(-1.923 20.73)"/>
      </g>
      <g id="Group_168" data-name="Group 168" transform="translate(159 89.56)">
        <g id="Group_166" data-name="Group 166">
          <path id="Path_122" data-name="Path 122" d="M60.97-8.911H21.44q5.36,5.9,6.7,9.782,0,.8-1.34.8a1.78,1.78,0,0,1-1-.2L24.924,0A31.526,31.526,0,0,0,4.891-15.879q-1-.268-1.072-.871,0-.6,1.139-.871A31.585,31.585,0,0,0,25.125-33.9q.67-1.139,1-1.206a2.351,2.351,0,0,1,.67-.067q1.34,0,1.34.8,0,.871-2.144,4.02a47.3,47.3,0,0,1-4.556,5.762H60.97q2.144,0,2.211,1.34,0,1.34-2.278,1.34H19.631a3.1,3.1,0,0,0-1.809.469l-.2.2a39.851,39.851,0,0,1-7.7,4.489,38.509,38.509,0,0,1,7.638,4.489,4.174,4.174,0,0,0,2.077.67H60.9q2.144,0,2.278,1.34Q63.181-8.911,60.97-8.911Z" transform="translate(-3.819 35.175)"/>
        </g>
        <g id="Group_167" data-name="Group 167" transform="translate(16.694)">
          <path id="Path_123" data-name="Path 123" d="M47.3-21.909H6.03q-2.144,0-2.278-1.34,0-1.34,2.211-1.34h39.53q-5.36-5.9-6.7-9.782,0-.8,1.34-.8a1.78,1.78,0,0,1,1.005.2l.871,1.474A31.526,31.526,0,0,0,62.042-17.621q1,.268,1.072.871,0,.6-1.139.871A31.585,31.585,0,0,0,41.808.4q-.67,1.139-1.005,1.206l-.067.067h-.6q-1.34,0-1.34-.8,0-.871,2.144-4.02A47.3,47.3,0,0,1,45.5-8.909H5.963q-2.144,0-2.211-1.34,0-1.34,2.278-1.34H47.3a3.1,3.1,0,0,0,1.809-.469l.067-.067.134-.134a39.851,39.851,0,0,1,7.7-4.489,38.509,38.509,0,0,1-7.638-4.489,3.307,3.307,0,0,0-2.077-.672Z" transform="translate(-3.752 35.175)"/>
        </g>
      </g>
    </g>
  </g>
</svg>
