<svg version="1.1" xmlns="http://www.w3.org/2000/svg" xmlns:xlink="http://www.w3.org/1999/xlink" width="101" height="104"><defs><clipPath id="rOvFnUxcOmfq"><path fill="none" stroke="none" d=" M 0 0 L 101 0 L 101 104 L 0 104 L 0 0 Z"/></clipPath></defs><g transform="scale(1,1)" clip-path="url(#rOvFnUxcOmfq)"><g transform="translate(-136,-56)"><g transform="scale(67,67)"><g transform="translate(2.3134328358208953,1.804134328358209)"><path fill="rgb(0,0,0)" stroke="none" paint-order="stroke fill markers" d=" M 0.508 -0.272 Q 0.5670000000000001 -0.372 0.652 -0.41600000000000004 Q 0.7020000000000001 -0.442 0.754 -0.442 Q 0.85 -0.442 0.905 -0.353 Q 0.9430000000000001 -0.292 0.9430000000000001 -0.216 Q 0.9430000000000001 -0.112 0.879 -0.045 Q 0.8260000000000001 0.011 0.751 0.011 Q 0.663 0.011 0.581 -0.058 Q 0.559 -0.077 0.514 -0.131 L 0.491 -0.159 Q 0.432 -0.059000000000000004 0.34700000000000003 -0.015 Q 0.297 0.011 0.245 0.011 Q 0.149 0.011 0.094 -0.078 Q 0.056 -0.139 0.056 -0.215 Q 0.056 -0.319 0.12 -0.386 Q 0.17300000000000001 -0.442 0.248 -0.442 Q 0.336 -0.442 0.418 -0.373 Q 0.44 -0.354 0.485 -0.3 L 0.489 -0.295 Q 0.495 -0.28700000000000003 0.508 -0.272 M 0.534 -0.23700000000000002 L 0.63 -0.114 Q 0.631 -0.114 0.631 -0.113 L 0.635 -0.109 Q 0.7010000000000001 -0.037 0.767 -0.037 Q 0.839 -0.037 0.886 -0.10200000000000001 Q 0.921 -0.151 0.921 -0.216 Q 0.921 -0.304 0.868 -0.362 Q 0.8290000000000001 -0.405 0.773 -0.41000000000000003 L 0.761 -0.41000000000000003 Q 0.635 -0.41000000000000003 0.539 -0.246 Q 0.537 -0.242 0.534 -0.23700000000000002 M 0.465 -0.194 L 0.465 -0.194 L 0.369 -0.317 L 0.368 -0.318 L 0.364 -0.322 Q 0.298 -0.394 0.232 -0.394 Q 0.16 -0.394 0.113 -0.329 Q 0.078 -0.28 0.078 -0.215 Q 0.078 -0.127 0.131 -0.069 Q 0.17400000000000002 -0.021 0.23800000000000002 -0.021 Q 0.364 -0.021 0.46 -0.185 Q 0.462 -0.189 0.465 -0.194 Z"/></g></g></g></g></svg>