<svg version="1.1" xmlns="http://www.w3.org/2000/svg" xmlns:xlink="http://www.w3.org/1999/xlink" width="79" height="104"><defs><clipPath id="TtTyzPlxWusG"><path fill="none" stroke="none" d=" M 0 0 L 79 0 L 79 104 L 0 104 L 0 0 Z"/></clipPath></defs><g transform="scale(1,1)" clip-path="url(#TtTyzPlxWusG)"><g transform="translate(-136,-56)"><g transform="scale(67,67)"><g transform="translate(2.3134328358208953,1.9367313432835822)"><path fill="rgb(0,0,0)" stroke="none" paint-order="stroke fill markers" d=" M 0.398 -0.6960000000000001 L 0.614 -0.07100000000000001 Q 0.624 -0.042 0.646 -0.036000000000000004 Q 0.666 -0.031 0.6990000000000001 -0.031 L 0.717 -0.031 L 0.717 0 Q 0.654 -0.003 0.586 -0.003 Q 0.47800000000000004 -0.003 0.442 0 L 0.442 -0.031 Q 0.525 -0.031 0.525 -0.061 Q 0.525 -0.063 0.522 -0.075 L 0.46900000000000003 -0.228 L 0.222 -0.228 L 0.176 -0.097 Q 0.17400000000000002 -0.093 0.17400000000000002 -0.082 Q 0.17400000000000002 -0.049 0.213 -0.036000000000000004 L 0.214 -0.036000000000000004 Q 0.229 -0.031 0.249 -0.031 L 0.249 0 Q 0.153 -0.003 0.134 -0.003 Q 0.101 -0.003 0.032 0 L 0.032 -0.031 Q 0.117 -0.033 0.14100000000000001 -0.091 Q 0.14300000000000002 -0.095 0.14400000000000002 -0.098 L 0.35100000000000003 -0.6960000000000001 Q 0.357 -0.713 0.367 -0.715 Q 0.37 -0.716 0.375 -0.716 Q 0.39 -0.716 0.396 -0.7020000000000001 L 0.396 -0.7010000000000001 L 0.396 -0.7000000000000001 L 0.398 -0.6960000000000001 M 0.34500000000000003 -0.584 L 0.233 -0.259 L 0.458 -0.259 L 0.34500000000000003 -0.584 Z"/></g></g></g></g></svg>