<svg version="1.1" xmlns="http://www.w3.org/2000/svg" xmlns:xlink="http://www.w3.org/1999/xlink" width="79" height="104"><defs><clipPath id="mrkwJexRdLPc"><path fill="none" stroke="none" d=" M 0 0 L 79 0 L 79 104 L 0 104 L 0 0 Z"/></clipPath></defs><g transform="scale(1,1)" clip-path="url(#mrkwJexRdLPc)"><g transform="translate(-136,-56)"><g transform="scale(67,67)"><g transform="translate(2.3134328358208953,1.9367313432835822)"><path fill="rgb(0,0,0)" stroke="none" paint-order="stroke fill markers" d=" M 0.222 -0.366 L 0.367 -0.366 Q 0.464 -0.366 0.507 -0.441 Q 0.527 -0.47600000000000003 0.527 -0.514 Q 0.527 -0.5750000000000001 0.485 -0.617 Q 0.45 -0.652 0.395 -0.652 L 0.271 -0.652 Q 0.232 -0.652 0.225 -0.64 L 0.225 -0.639 L 0.225 -0.639 L 0.225 -0.638 Q 0.222 -0.632 0.222 -0.612 L 0.222 -0.366 M 0.458 -0.357 L 0.458 -0.357 Q 0.56 -0.34600000000000003 0.616 -0.277 Q 0.651 -0.234 0.651 -0.183 Q 0.651 -0.10400000000000001 0.581 -0.05 Q 0.518 0 0.428 0 L 0.036000000000000004 0 L 0.036000000000000004 -0.031 L 0.06 -0.031 Q 0.125 -0.031 0.135 -0.048 Q 0.139 -0.055 0.139 -0.078 L 0.139 -0.605 Q 0.139 -0.635 0.127 -0.643 Q 0.113 -0.652 0.06 -0.652 L 0.036000000000000004 -0.652 L 0.036000000000000004 -0.683 L 0.402 -0.683 Q 0.513 -0.683 0.58 -0.615 Q 0.624 -0.5690000000000001 0.624 -0.514 Q 0.624 -0.441 0.549 -0.393 Q 0.509 -0.367 0.458 -0.357 M 0.396 -0.031 Q 0.486 -0.031 0.529 -0.105 Q 0.551 -0.14200000000000002 0.551 -0.184 Q 0.551 -0.256 0.505 -0.304 Q 0.468 -0.34400000000000003 0.41000000000000003 -0.34400000000000003 L 0.222 -0.34400000000000003 L 0.222 -0.07100000000000001 Q 0.222 -0.041 0.233 -0.036000000000000004 L 0.234 -0.036000000000000004 Q 0.243 -0.031 0.271 -0.031 L 0.396 -0.031 Z"/></g></g></g></g></svg>