<svg version="1.1" xmlns="http://www.w3.org/2000/svg" xmlns:xlink="http://www.w3.org/1999/xlink" width="71" height="104"><defs><clipPath id="lbTLPbPzpptn"><path fill="none" stroke="none" d=" M 0 0 L 71 0 L 71 104 L 0 104 L 0 0 Z"/></clipPath></defs><g transform="scale(1,1)" clip-path="url(#lbTLPbPzpptn)"><g transform="translate(-136,-56)"><g transform="scale(67,67)"><g transform="translate(2.3134328358208953,1.9367313432835822)"><path fill="rgb(0,0,0)" stroke="none" paint-order="stroke fill markers" d=" M 0.554 -0.68 L 0.582 -0.455 L 0.557 -0.455 Q 0.544 -0.5650000000000001 0.515 -0.602 Q 0.47900000000000004 -0.649 0.377 -0.649 L 0.274 -0.649 Q 0.23500000000000001 -0.649 0.228 -0.637 L 0.228 -0.636 L 0.228 -0.636 L 0.228 -0.635 Q 0.225 -0.629 0.225 -0.609 L 0.225 -0.079 Q 0.225 -0.05 0.23700000000000002 -0.042 Q 0.253 -0.031 0.32 -0.031 L 0.353 -0.031 L 0.353 0 Q 0.317 -0.003 0.185 -0.003 Q 0.068 -0.003 0.033 0 L 0.033 -0.031 L 0.057 -0.031 Q 0.122 -0.031 0.132 -0.048 Q 0.136 -0.055 0.136 -0.078 L 0.136 -0.602 Q 0.136 -0.632 0.124 -0.64 Q 0.11 -0.649 0.057 -0.649 L 0.033 -0.649 L 0.033 -0.68 L 0.554 -0.68 Z"/></g></g></g></g></svg>