<svg version="1.1" xmlns="http://www.w3.org/2000/svg" xmlns:xlink="http://www.w3.org/1999/xlink" width="83" height="104"><defs><clipPath id="SSNUViugBNvw"><path fill="none" stroke="none" d=" M 0 0 L 83 0 L 83 104 L 0 104 L 0 0 Z"/></clipPath></defs><g transform="scale(1,1)" clip-path="url(#SSNUViugBNvw)"><g transform="translate(-136,-56)"><g transform="scale(67,67)"><g transform="translate(2.3134328358208953,1.9367313432835822)"><path fill="rgb(0,0,0)" stroke="none" paint-order="stroke fill markers" d=" M 0.399 -0.135 L 0.399 -0.079 Q 0.399 -0.05 0.41100000000000003 -0.042 L 0.41100000000000003 -0.042 L 0.41100000000000003 -0.042 L 0.41200000000000003 -0.041 Q 0.429 -0.031 0.494 -0.031 L 0.527 -0.031 L 0.527 0 Q 0.491 -0.003 0.357 -0.003 Q 0.224 -0.003 0.188 0 L 0.188 -0.031 L 0.221 -0.031 Q 0.3 -0.031 0.312 -0.05 Q 0.314 -0.054 0.315 -0.06 Q 0.316 -0.066 0.316 -0.079 L 0.316 -0.135 Q 0.184 -0.148 0.108 -0.225 Q 0.056 -0.278 0.056 -0.342 Q 0.056 -0.424 0.14 -0.485 Q 0.212 -0.538 0.316 -0.548 L 0.316 -0.604 Q 0.316 -0.633 0.304 -0.641 L 0.304 -0.641 L 0.304 -0.641 L 0.303 -0.642 Q 0.28600000000000003 -0.652 0.221 -0.652 L 0.188 -0.652 L 0.188 -0.683 Q 0.224 -0.68 0.358 -0.68 Q 0.491 -0.68 0.527 -0.683 L 0.527 -0.652 L 0.494 -0.652 Q 0.41500000000000004 -0.652 0.403 -0.633 Q 0.399 -0.626 0.399 -0.604 L 0.399 -0.548 Q 0.531 -0.538 0.609 -0.461 Q 0.665 -0.40700000000000003 0.665 -0.341 Q 0.665 -0.259 0.581 -0.198 Q 0.506 -0.14300000000000002 0.399 -0.135 M 0.316 -0.158 L 0.316 -0.525 Q 0.156 -0.504 0.156 -0.341 Q 0.156 -0.179 0.316 -0.158 M 0.399 -0.526 L 0.399 -0.157 Q 0.5650000000000001 -0.177 0.5650000000000001 -0.342 Q 0.5650000000000001 -0.507 0.399 -0.526 Z"/></g></g></g></g></svg>