<svg version="1.1" xmlns="http://www.w3.org/2000/svg" xmlns:xlink="http://www.w3.org/1999/xlink" width="101" height="104"><defs><clipPath id="wzTnlESZfnCw"><path fill="none" stroke="none" d=" M 0 0 L 101 0 L 101 104 L 0 104 L 0 0 Z"/></clipPath></defs><g transform="scale(1,1)" clip-path="url(#wzTnlESZfnCw)"><g transform="translate(-136,-56)"><g transform="scale(67,67)"><g transform="translate(2.3134328358208953,2.08955223880597)"><path fill="rgb(0,0,0)" stroke="none" paint-order="stroke fill markers" d=" M 0.677 -0.162 L 0.677 -0.162 L 0.644 0 L 0.485 0 Q 0.463 0 0.46 -0.007 Q 0.459 -0.011 0.459 -0.021 Q 0.459 -0.09 0.506 -0.222 Q 0.555 -0.36 0.561 -0.425 Q 0.562 -0.44 0.562 -0.455 Q 0.562 -0.587 0.47000000000000003 -0.649 Q 0.42 -0.683 0.36 -0.683 Q 0.275 -0.683 0.216 -0.62 L 0.216 -0.619 Q 0.159 -0.557 0.159 -0.455 Q 0.159 -0.378 0.20800000000000002 -0.243 Q 0.262 -0.093 0.262 -0.021 Q 0.262 -0.004 0.255 -0.001 L 0.255 -0.001 L 0.254 -0.001 Q 0.25 0 0.23700000000000002 0 L 0.077 0 L 0.044 -0.162 L 0.069 -0.162 Q 0.079 -0.11 0.08700000000000001 -0.088 Q 0.092 -0.073 0.105 -0.069 Q 0.11800000000000001 -0.065 0.153 -0.065 L 0.233 -0.065 Q 0.22 -0.12 0.159 -0.212 L 0.153 -0.222 Q 0.15 -0.226 0.14400000000000002 -0.23500000000000001 Q 0.07200000000000001 -0.343 0.06 -0.41200000000000003 Q 0.056 -0.433 0.056 -0.454 Q 0.056 -0.558 0.145 -0.631 Q 0.233 -0.705 0.361 -0.705 Q 0.496 -0.705 0.586 -0.623 Q 0.665 -0.552 0.665 -0.454 Q 0.665 -0.373 0.595 -0.262 L 0.595 -0.262 L 0.594 -0.261 L 0.593 -0.26 L 0.577 -0.23500000000000001 Q 0.509 -0.135 0.493 -0.083 Q 0.49 -0.074 0.488 -0.065 L 0.5680000000000001 -0.065 Q 0.623 -0.065 0.631 -0.08 L 0.634 -0.089 Q 0.642 -0.111 0.652 -0.162 L 0.677 -0.162 Z"/></g></g></g></g></svg>