<svg version="1.1" xmlns="http://www.w3.org/2000/svg" xmlns:xlink="http://www.w3.org/1999/xlink" width="76" height="104"><defs><clipPath id="TApfpGtJaxMT"><path fill="none" stroke="none" d=" M 0 0 L 76 0 L 76 104 L 0 104 L 0 0 Z"/></clipPath></defs><g transform="scale(1,1)" clip-path="url(#TApfpGtJaxMT)"><g transform="translate(-136,-56)"><g transform="scale(67,67)"><g transform="translate(2.3134328358208953,1.7145820895522388)"><path fill="rgb(0,0,0)" stroke="none" paint-order="stroke fill markers" d=" M 0.583 -0.403 L 0.583 -0.403 L 0.34500000000000003 -0.136 Q 0.436 0.183 0.486 0.183 Q 0.514 0.183 0.532 0.156 Q 0.535 0.152 0.537 0.147 L 0.539 0.14300000000000002 Q 0.543 0.13 0.553 0.129 Q 0.5650000000000001 0.129 0.5650000000000001 0.14 Q 0.5650000000000001 0.157 0.542 0.18 L 0.541 0.181 Q 0.515 0.20500000000000002 0.48 0.20500000000000002 Q 0.394 0.20500000000000002 0.362 0.137 Q 0.359 0.133 0.356 0.125 Q 0.332 0.069 0.28800000000000003 -0.074 L 0.059000000000000004 0.183 Q 0.048 0.194 0.043000000000000003 0.194 Q 0.033 0.194 0.031 0.182 Q 0.031 0.177 0.042 0.166 L 0.272 -0.091 Q 0.28 -0.099 0.28 -0.10200000000000001 Q 0.28 -0.115 0.242 -0.227 Q 0.228 -0.269 0.216 -0.3 Q 0.17 -0.42 0.139 -0.42 Q 0.112 -0.42 0.094 -0.392 L 0.093 -0.392 L 0.093 -0.391 Q 0.089 -0.384 0.08600000000000001 -0.377 Q 0.082 -0.366 0.073 -0.366 Q 0.061 -0.366 0.061 -0.376 Q 0.061 -0.395 0.084 -0.417 Q 0.11 -0.442 0.145 -0.442 Q 0.23 -0.442 0.263 -0.376 L 0.263 -0.375 L 0.264 -0.374 L 0.264 -0.373 Q 0.263 -0.374 0.266 -0.369 Q 0.289 -0.315 0.337 -0.164 L 0.5660000000000001 -0.419 Q 0.5760000000000001 -0.431 0.582 -0.431 Q 0.594 -0.431 0.594 -0.419 Q 0.594 -0.41400000000000003 0.583 -0.403 Z"/></g></g></g></g></svg>