<svg version="1.1" xmlns="http://www.w3.org/2000/svg" xmlns:xlink="http://www.w3.org/1999/xlink" width="83" height="104"><defs><clipPath id="HatwTNJTdHmp"><path fill="none" stroke="none" d=" M 0 0 L 83 0 L 83 104 L 0 104 L 0 0 Z"/></clipPath></defs><g transform="scale(1,1)" clip-path="url(#HatwTNJTdHmp)"><g transform="translate(-136,-56)"><g transform="scale(67,67)"><g transform="translate(2.3134328358208953,1.9367313432835822)"><path fill="rgb(0,0,0)" stroke="none" paint-order="stroke fill markers" d=" M 0.447 -0.325 L 0.447 -0.325 L 0.131 -0.041 L 0.403 -0.041 Q 0.537 -0.041 0.594 -0.076 Q 0.649 -0.111 0.6930000000000001 -0.215 L 0.6950000000000001 -0.221 Q 0.7020000000000001 -0.234 0.709 -0.23500000000000001 Q 0.721 -0.23500000000000001 0.721 -0.224 Q 0.721 -0.218 0.716 -0.20800000000000002 L 0.644 -0.017 Q 0.639 -0.003 0.631 -0.001 L 0.631 -0.001 L 0.63 -0.001 Q 0.626 0 0.613 0 L 0.08600000000000001 0 Q 0.06 0 0.058 -0.011 Q 0.058 -0.015 0.07 -0.026000000000000002 L 0.378 -0.304 L 0.227 -0.647 Q 0.221 -0.659 0.221 -0.663 Q 0.221 -0.681 0.23700000000000002 -0.683 L 0.251 -0.683 L 0.778 -0.683 Q 0.803 -0.683 0.805 -0.676 L 0.805 -0.675 L 0.806 -0.674 L 0.806 -0.67 L 0.804 -0.657 L 0.785 -0.483 Q 0.782 -0.46 0.771 -0.458 Q 0.758 -0.458 0.758 -0.47000000000000003 L 0.762 -0.517 L 0.762 -0.522 Q 0.762 -0.603 0.717 -0.629 L 0.716 -0.629 L 0.716 -0.63 L 0.715 -0.63 Q 0.707 -0.635 0.6970000000000001 -0.638 Q 0.657 -0.652 0.5670000000000001 -0.652 L 0.324 -0.652 L 0.454 -0.356 Q 0.459 -0.34500000000000003 0.459 -0.342 Q 0.459 -0.336 0.447 -0.325 Z"/></g></g></g></g></svg>