<svg version="1.1" xmlns="http://www.w3.org/2000/svg" xmlns:xlink="http://www.w3.org/1999/xlink" width="78" height="104"><defs><clipPath id="qpXOGTJFPIOs"><path fill="none" stroke="none" d=" M 0 0 L 78 0 L 78 104 L 0 104 L 0 0 Z"/></clipPath></defs><g transform="scale(1,1)" clip-path="url(#qpXOGTJFPIOs)"><g transform="translate(-136,-56)"><g transform="scale(67,67)"><g transform="translate(2.3134328358208953,1.7145820895522388)"><path fill="rgb(0,0,0)" stroke="none" paint-order="stroke fill markers" d=" M 0.17 0.17 L 0.223 0.002 Q 0.109 -0.025 0.067 -0.111 Q 0.05 -0.148 0.05 -0.19 Q 0.05 -0.269 0.10300000000000001 -0.368 Q 0.136 -0.431 0.155 -0.431 Q 0.167 -0.431 0.167 -0.421 Q 0.167 -0.417 0.159 -0.40800000000000003 Q 0.101 -0.341 0.08 -0.232 Q 0.076 -0.212 0.076 -0.201 Q 0.076 -0.113 0.17500000000000002 -0.07200000000000001 Q 0.20400000000000001 -0.06 0.24 -0.053 Q 0.299 -0.246 0.34 -0.319 Q 0.40800000000000003 -0.442 0.505 -0.442 Q 0.582 -0.442 0.609 -0.368 Q 0.619 -0.339 0.619 -0.304 Q 0.619 -0.193 0.532 -0.099 Q 0.445 -0.004 0.331 0.009000000000000001 Q 0.315 0.011 0.299 0.011 Q 0.28400000000000003 0.011 0.266 0.009000000000000001 Q 0.231 0.191 0.231 0.192 Q 0.22 0.217 0.194 0.218 Q 0.171 0.218 0.166 0.198 L 0.166 0.197 L 0.166 0.197 Q 0.165 0.194 0.165 0.19 Q 0.165 0.186 0.17 0.17 M 0.308 -0.047 Q 0.424 -0.047 0.512 -0.126 Q 0.589 -0.196 0.591 -0.28200000000000003 Q 0.591 -0.34400000000000003 0.547 -0.371 Q 0.525 -0.384 0.495 -0.384 Q 0.41200000000000003 -0.384 0.35000000000000003 -0.28700000000000003 Q 0.315 -0.232 0.297 -0.16 Q 0.277 -0.06 0.277 -0.052000000000000005 Q 0.277 -0.048 0.29 -0.048 Q 0.298 -0.047 0.308 -0.047 Z"/></g></g></g></g></svg>