<svg version="1.1" xmlns="http://www.w3.org/2000/svg" xmlns:xlink="http://www.w3.org/1999/xlink" width="74" height="104"><defs><clipPath id="wgBRkphJcqNq"><path fill="none" stroke="none" d=" M 0 0 L 74 0 L 74 104 L 0 104 L 0 0 Z"/></clipPath></defs><g transform="scale(1,1)" clip-path="url(#wgBRkphJcqNq)"><g transform="translate(-136,-56)"><g transform="scale(67,67)"><g transform="translate(2.3134328358208953,1.9328059701492537)"><path fill="rgb(0,0,0)" stroke="none" paint-order="stroke fill markers" d=" M 0.357 -0.292 L 0.116 -0.008 Q 0.099 0.013000000000000001 0.083 0.013000000000000001 Q 0.06 0.013000000000000001 0.054 -0.008 Q 0.053 -0.012 0.053 -0.016 Q 0.053 -0.029 0.07100000000000001 -0.047 L 0.34700000000000003 -0.321 L 0.25 -0.593 Q 0.228 -0.653 0.213 -0.664 L 0.212 -0.664 L 0.21 -0.666 L 0.209 -0.666 Q 0.201 -0.67 0.185 -0.673 Q 0.178 -0.673 0.176 -0.683 Q 0.176 -0.6940000000000001 0.194 -0.6940000000000001 Q 0.29 -0.6940000000000001 0.316 -0.623 L 0.52 -0.054 Q 0.532 -0.02 0.543 -0.008 Q 0.548 -0.001 0.548 0.001 Q 0.548 0.01 0.537 0.011 L 0.515 0.011 Q 0.483 0.011 0.47200000000000003 0.001 Q 0.467 -0.004 0.462 -0.011 Q 0.454 -0.023 0.392 -0.197 Q 0.371 -0.256 0.357 -0.292 Z"/></g></g></g></g></svg>