<svg version="1.1" xmlns="http://www.w3.org/2000/svg" xmlns:xlink="http://www.w3.org/1999/xlink" width="93" height="104"><defs><clipPath id="tQPTNXVQxBah"><path fill="none" stroke="none" d=" M 0 0 L 93 0 L 93 104 L 0 104 L 0 0 Z"/></clipPath></defs><g transform="scale(1,1)" clip-path="url(#tQPTNXVQxBah)"><g transform="translate(-136,-56)"><g transform="scale(67,67)"><g transform="translate(2.3134328358208953,1.9367313432835822)"><path fill="rgb(0,0,0)" stroke="none" paint-order="stroke fill markers" d=" M 0.241 -0.661 L 0.458 -0.101 L 0.677 -0.664 Q 0.683 -0.68 0.6900000000000001 -0.682 Q 0.6950000000000001 -0.683 0.71 -0.683 L 0.879 -0.683 L 0.879 -0.652 L 0.855 -0.652 Q 0.79 -0.652 0.78 -0.635 Q 0.776 -0.628 0.776 -0.605 L 0.776 -0.078 Q 0.776 -0.048 0.788 -0.04 L 0.788 -0.04 Q 0.803 -0.031 0.855 -0.031 L 0.879 -0.031 L 0.879 0 Q 0.842 -0.003 0.736 -0.003 Q 0.629 -0.003 0.592 0 L 0.592 -0.031 L 0.616 -0.031 Q 0.681 -0.031 0.6910000000000001 -0.048 Q 0.6950000000000001 -0.055 0.6950000000000001 -0.078 L 0.6950000000000001 -0.652 L 0.6940000000000001 -0.652 L 0.448 -0.019 Q 0.441 -0.001 0.43 0 Q 0.418 0 0.41000000000000003 -0.022 L 0.169 -0.644 L 0.168 -0.644 L 0.168 -0.105 Q 0.168 -0.062 0.195 -0.046 Q 0.221 -0.031 0.271 -0.031 L 0.271 0 Q 0.166 -0.003 0.154 -0.003 Q 0.14200000000000002 -0.003 0.037 0 L 0.037 -0.031 Q 0.134 -0.031 0.139 -0.089 Q 0.14 -0.095 0.14 -0.105 L 0.14 -0.605 Q 0.14 -0.635 0.128 -0.643 Q 0.114 -0.652 0.061 -0.652 L 0.037 -0.652 L 0.037 -0.683 L 0.20600000000000002 -0.683 Q 0.229 -0.683 0.234 -0.675 L 0.23500000000000001 -0.674 L 0.23500000000000001 -0.674 L 0.23600000000000002 -0.673 L 0.23600000000000002 -0.672 Q 0.23800000000000002 -0.668 0.241 -0.661 Z"/></g></g></g></g></svg>