<svg version="1.1" xmlns="http://www.w3.org/2000/svg" xmlns:xlink="http://www.w3.org/1999/xlink" width="67" height="104"><defs><clipPath id="tXmQOcRUcLPG"><path fill="none" stroke="none" d=" M 0 0 L 67 0 L 67 104 L 0 104 L 0 0 Z"/></clipPath></defs><g transform="scale(1,1)" clip-path="url(#tXmQOcRUcLPG)"><g transform="translate(-136,-56)"><g transform="scale(67,67)"><g transform="translate(2.3134328358208953,1.8432537313432835)"><path fill="rgb(0,0,0)" stroke="none" paint-order="stroke fill markers" d=" M 0.154 -0.306 L 0.154 -0.306 L 0.167 -0.316 Q 0.10300000000000001 -0.353 0.10200000000000001 -0.422 Q 0.10200000000000001 -0.498 0.17500000000000002 -0.557 Q 0.218 -0.593 0.277 -0.609 Q 0.27 -0.637 0.27 -0.648 Q 0.27 -0.6970000000000001 0.28800000000000003 -0.6970000000000001 Q 0.3 -0.6970000000000001 0.3 -0.684 L 0.295 -0.648 L 0.295 -0.647 Q 0.295 -0.629 0.3 -0.614 Q 0.326 -0.619 0.363 -0.619 Q 0.437 -0.619 0.445 -0.599 L 0.445 -0.598 L 0.445 -0.597 Q 0.446 -0.595 0.446 -0.592 Q 0.446 -0.561 0.357 -0.561 Q 0.314 -0.561 0.296 -0.579 Q 0.295 -0.581 0.293 -0.583 Q 0.219 -0.546 0.191 -0.466 Q 0.182 -0.439 0.182 -0.41300000000000003 Q 0.182 -0.365 0.212 -0.335 Q 0.249 -0.34700000000000003 0.296 -0.34700000000000003 Q 0.376 -0.34700000000000003 0.378 -0.32 Q 0.378 -0.289 0.28500000000000003 -0.289 Q 0.234 -0.289 0.197 -0.302 Q 0.121 -0.264 0.08700000000000001 -0.184 Q 0.074 -0.154 0.074 -0.132 Q 0.074 -0.073 0.149 -0.043000000000000003 L 0.209 -0.019 Q 0.23 -0.012 0.27 0.004 Q 0.314 0.021 0.331 0.027 Q 0.379 0.049 0.379 0.098 Q 0.379 0.147 0.339 0.181 Q 0.32 0.197 0.297 0.202 Q 0.28600000000000003 0.20500000000000002 0.275 0.20500000000000002 Q 0.221 0.20500000000000002 0.179 0.17300000000000001 Q 0.166 0.163 0.166 0.157 Q 0.166 0.146 0.176 0.146 Q 0.18 0.146 0.187 0.151 Q 0.231 0.183 0.275 0.183 Q 0.307 0.183 0.32 0.149 Q 0.324 0.139 0.324 0.13 Q 0.324 0.10400000000000001 0.297 0.091 Q 0.301 0.093 0.289 0.08700000000000001 L 0.168 0.04 Q 0.095 0.013000000000000001 0.075 -0.003 Q 0.066 -0.01 0.052000000000000005 -0.025 Q 0.036000000000000004 -0.049 0.035 -0.05 Q 0.023 -0.075 0.023 -0.10400000000000001 Q 0.023 -0.166 0.073 -0.231 Q 0.105 -0.274 0.154 -0.306 M 0.316 -0.592 Q 0.327 -0.583 0.358 -0.583 Q 0.399 -0.583 0.42 -0.591 Q 0.398 -0.597 0.364 -0.597 Q 0.332 -0.597 0.316 -0.592 M 0.23800000000000002 -0.319 Q 0.256 -0.311 0.28800000000000003 -0.311 Q 0.336 -0.311 0.352 -0.319 Q 0.33 -0.325 0.295 -0.325 Q 0.261 -0.325 0.23800000000000002 -0.319 Z"/></g></g></g></g></svg>