<svg version="1.1" xmlns="http://www.w3.org/2000/svg" xmlns:xlink="http://www.w3.org/1999/xlink" width="82" height="104"><defs><clipPath id="rgWzcdIQqMqW"><path fill="none" stroke="none" d=" M 0 0 L 82 0 L 82 104 L 0 104 L 0 0 Z"/></clipPath></defs><g transform="scale(1,1)" clip-path="url(#rgWzcdIQqMqW)"><g transform="translate(-136,-56)"><g transform="scale(67,67)"><g transform="translate(2.3134328358208953,1.9367313432835822)"><path fill="rgb(0,0,0)" stroke="none" paint-order="stroke fill markers" d=" M 0.613 -0.602 L 0.613 -0.078 Q 0.613 -0.048 0.625 -0.04 L 0.625 -0.04 Q 0.64 -0.031 0.6920000000000001 -0.031 L 0.716 -0.031 L 0.716 0 Q 0.681 -0.003 0.5680000000000001 -0.003 Q 0.456 -0.003 0.421 0 L 0.421 -0.031 L 0.445 -0.031 Q 0.51 -0.031 0.52 -0.048 Q 0.524 -0.055 0.524 -0.078 L 0.524 -0.649 L 0.225 -0.649 L 0.225 -0.078 Q 0.225 -0.048 0.23700000000000002 -0.04 Q 0.251 -0.031 0.304 -0.031 L 0.328 -0.031 L 0.328 0 Q 0.293 -0.003 0.18 -0.003 Q 0.068 -0.003 0.033 0 L 0.033 -0.031 L 0.057 -0.031 Q 0.122 -0.031 0.132 -0.048 Q 0.136 -0.055 0.136 -0.078 L 0.136 -0.602 Q 0.136 -0.632 0.124 -0.64 Q 0.11 -0.649 0.057 -0.649 L 0.033 -0.649 L 0.033 -0.68 L 0.716 -0.68 L 0.716 -0.649 L 0.6920000000000001 -0.649 Q 0.627 -0.649 0.617 -0.632 Q 0.613 -0.625 0.613 -0.602 Z"/></g></g></g></g></svg>