<svg xmlns="http://www.w3.org/2000/svg" width="140" height="140" viewBox="0 0 140 140">
  <g id="_11sqrt" data-name="11sqrt" transform="translate(-0.741 17.82)">
    <path id="Path_71" data-name="Path 71" d="M0,0H140V140H0Z" transform="translate(0.741 -17.82)" fill="none"/>
    <g id="Group_4" data-name="Group 4" transform="translate(-30 -36)">
      <g id="Group_3" data-name="Group 3">
        <g id="Group_1" data-name="Group 1" transform="translate(49 57.36)">
          <path id="Path_1" data-name="Path 1" d="M26.063,57.285,54.4-1.407A3.327,3.327,0,0,1,55.811-2.68q1.139,0,1.34,1.34a3.77,3.77,0,0,1-.4,1.139L26.2,63.047q-.536,1.072-1.072,1.206a2.032,2.032,0,0,1-.6.067,1.054,1.054,0,0,1-1.072-.6l-.2-.4L9.983,34.17,6.5,36.783a1.708,1.708,0,0,1-.938.536q-.67,0-.67-.737,0-.268.8-.938l6.633-5.025a1.708,1.708,0,0,1,.938-.536q.4,0,.871.938Z"/>
        </g>
        <rect id="Rectangle_2" data-name="Rectangle 2" width="42.047" height="2.68" transform="translate(104.811 54.68)"/>
        <g id="Group_2" data-name="Group 2" transform="translate(104.811 108.908)">
          <path id="Path_2" data-name="Path 2" d="M22.378-20.234,20.1-11.055a32.745,32.745,0,0,0-1.139,5.9q0,3.484,2.479,4.221a3.415,3.415,0,0,0,1.206.2q3.35,0,6.1-3.35a15.207,15.207,0,0,0,2.814-5.427.859.859,0,0,1,.871-.737q.8,0,.8.67,0,1.675-2.077,4.824Q27.537.737,22.512.737a7.009,7.009,0,0,1-6.633-3.819,4.743,4.743,0,0,1-.6-1.273A9.194,9.194,0,0,1,10.854.134a6.041,6.041,0,0,1-2.613.6q-4.02,0-5.628-2.345a3.307,3.307,0,0,1-.67-2.077A3.544,3.544,0,0,1,4.087-7.169a3.175,3.175,0,0,1,1.541-.4A2.162,2.162,0,0,1,8.04-5.9a3.409,3.409,0,0,1,.067.67,3.52,3.52,0,0,1-2.278,3.35,2.828,2.828,0,0,1-.871.268,6.237,6.237,0,0,0,3.35.871q3.551,0,5.628-4.757A21.351,21.351,0,0,0,14.673-7.7q3.618-13.668,3.618-15.946-.4-4.154-3.618-4.489-3.484,0-6.365,3.551v.067a.059.059,0,0,1-.067.067,16.973,16.973,0,0,0-1.809,3.082q-.335.8-.6,1.608l-.134.4a.8.8,0,0,1-.871.737q-.8,0-.8-.67,0-1.675,2.144-4.824,3.618-5.494,8.643-5.494,5.159,0,7.236,5.092,2.144-4.154,5.7-4.958a6.817,6.817,0,0,1,1.34-.134q3.953,0,5.561,2.211a3.7,3.7,0,0,1,.67,2.211,3.6,3.6,0,0,1-2.479,3.685,3.607,3.607,0,0,1-1.139.2,2.226,2.226,0,0,1-2.479-1.809,2.2,2.2,0,0,1-.067-.536A3.5,3.5,0,0,1,31.088-26.8a4.372,4.372,0,0,1,1.273-.469,6.237,6.237,0,0,0-3.35-.871q-4.556,0-6.432,7.1A5.291,5.291,0,0,0,22.378-20.234Z"/>
        </g>
      </g>
    </g>
  </g>
</svg>
