<svg xmlns="http://www.w3.org/2000/svg" width="140" height="140" viewBox="0 0 140 140">
  <g id="_12yrt" data-name="12yrt" transform="translate(-0.741 17.82)">
    <path id="Path_71" data-name="Path 71" d="M0,0H140V140H0Z" transform="translate(0.741 -17.82)" fill="none"/>
    <g id="Group_93" data-name="Group 93" transform="translate(-30 -36)">
      <g id="Group_8" data-name="Group 8">
        <g id="Group_5" data-name="Group 5" transform="translate(68.601 76.857)">
          <path id="Path_4" data-name="Path 4" d="M16.281-12.764,13.065.034A9.13,9.13,0,0,1,9.48,5.36,7.072,7.072,0,0,1,5.226,6.867,3.426,3.426,0,0,1,2.043,5.326a2.7,2.7,0,0,1-.368-1.373A1.928,1.928,0,0,1,3.048,1.842a2.077,2.077,0,0,1,.5-.067,1.049,1.049,0,0,1,1.206.938.742.742,0,0,1,.034.234,1.809,1.809,0,0,1-.67,1.373,2.175,2.175,0,0,1-1.441.4A2.473,2.473,0,0,0,5.226,6.13,4.6,4.6,0,0,0,8.911,4.02,13.472,13.472,0,0,0,10.988-.7q.033-.134.1-.436A4.678,4.678,0,0,1,7.7.368,3.685,3.685,0,0,1,4.054-1.608a4.437,4.437,0,0,1-.436-2.01q0-1.843,1.775-6.6.067-.2.168-.435A7.485,7.485,0,0,0,6.13-13q0-1.072-.837-1.072-1.843,0-3.015,3.049v.033q-.2.5-.369,1.072-.369.569-.536.6-.4,0-.4-.335a6.16,6.16,0,0,1,.7-2.111q1.474-3.049,3.718-3.049A2.511,2.511,0,0,1,7.872-13.3a2.874,2.874,0,0,1,.268,1.24,7.936,7.936,0,0,1-.67,2.412A20.657,20.657,0,0,0,5.762-3.082q0,2.714,2.077,2.714a4.107,4.107,0,0,0,3.384-2.077,2.835,2.835,0,0,0,.4-.771l1.507-6.03q.234-1.105.67-2.68.335-1.44.469-1.809a1.326,1.326,0,0,1,1.172-.7,1.093,1.093,0,0,1,.972.9A2.93,2.93,0,0,1,16.281-12.764Z"/>
        </g>
        <g id="Group_6" data-name="Group 6" transform="translate(49 57.36)">
          <path id="Path_5" data-name="Path 5" d="M26.063,57.285,54.4-1.407A3.327,3.327,0,0,1,55.811-2.68q1.139,0,1.34,1.34a3.77,3.77,0,0,1-.4,1.139L26.2,63.047q-.536,1.072-1.072,1.206a2.032,2.032,0,0,1-.6.067,1.054,1.054,0,0,1-1.072-.6l-.2-.4L9.983,34.17,6.5,36.783a1.708,1.708,0,0,1-.938.536q-.67,0-.67-.737,0-.268.8-.938l6.633-5.025a1.708,1.708,0,0,1,.938-.536q.4,0,.871.938Z"/>
        </g>
        <rect id="Rectangle_3" data-name="Rectangle 3" width="42.047" height="2.68" transform="translate(104.811 54.68)"/>
        <g id="Group_7" data-name="Group 7" transform="translate(104.811 108.908)">
          <path id="Path_6" data-name="Path 6" d="M22.378-20.234,20.1-11.055a32.745,32.745,0,0,0-1.139,5.9q0,3.484,2.479,4.221a3.415,3.415,0,0,0,1.206.2q3.35,0,6.1-3.35a15.207,15.207,0,0,0,2.814-5.427.859.859,0,0,1,.871-.737q.8,0,.8.67,0,1.675-2.077,4.824Q27.537.737,22.512.737a7.009,7.009,0,0,1-6.633-3.819,4.743,4.743,0,0,1-.6-1.273A9.194,9.194,0,0,1,10.854.134a6.041,6.041,0,0,1-2.613.6q-4.02,0-5.628-2.345a3.307,3.307,0,0,1-.67-2.077A3.544,3.544,0,0,1,4.087-7.169a3.175,3.175,0,0,1,1.541-.4A2.162,2.162,0,0,1,8.04-5.9a3.409,3.409,0,0,1,.067.67,3.52,3.52,0,0,1-2.278,3.35,2.828,2.828,0,0,1-.871.268,6.237,6.237,0,0,0,3.35.871q3.551,0,5.628-4.757A21.351,21.351,0,0,0,14.673-7.7q3.618-13.668,3.618-15.946-.4-4.154-3.618-4.489-3.484,0-6.365,3.551v.067a.059.059,0,0,1-.067.067,16.973,16.973,0,0,0-1.809,3.082q-.335.8-.6,1.608l-.134.4a.8.8,0,0,1-.871.737q-.8,0-.8-.67,0-1.675,2.144-4.824,3.618-5.494,8.643-5.494,5.159,0,7.236,5.092,2.144-4.154,5.7-4.958a6.817,6.817,0,0,1,1.34-.134q3.953,0,5.561,2.211a3.7,3.7,0,0,1,.67,2.211,3.6,3.6,0,0,1-2.479,3.685,3.607,3.607,0,0,1-1.139.2,2.226,2.226,0,0,1-2.479-1.809,2.2,2.2,0,0,1-.067-.536A3.5,3.5,0,0,1,31.088-26.8a4.372,4.372,0,0,1,1.273-.469,6.237,6.237,0,0,0-3.35-.871q-4.556,0-6.432,7.1A5.291,5.291,0,0,0,22.378-20.234Z"/>
        </g>
      </g>
    </g>
  </g>
</svg>
