<svg xmlns="http://www.w3.org/2000/svg" width="120" height="120" viewBox="0 0 120 120">
  <g id="_21a_x" data-name="21a^x" transform="translate(-10.741 7.82)">
    <path id="Path_71" data-name="Path 71" d="M0,0H120V120H0Z" transform="translate(10.741 -7.82)" fill="none"/>
    <g id="Group_94" data-name="Group 94" transform="translate(-9.679 -44.304)">
      <g id="Group_12" data-name="Group 12">
        <g id="Group_10" data-name="Group 10" transform="translate(49 110.878)">
          <path id="Path_8" data-name="Path 8" d="M24.991-25.326a3.079,3.079,0,0,1,2.077-2.814,1.967,1.967,0,0,1,.737-.134,1.781,1.781,0,0,1,1.943,1.809,14.883,14.883,0,0,1-.469,2.278l-2.412,9.38q-1,4.221-1.474,6.03a23.8,23.8,0,0,0-.871,4.958q0,3.082,2.01,3.082,2.546,0,4.288-5.36.335-1.139.8-2.948.536-1.139.938-1.206.8,0,.8.67a21.4,21.4,0,0,1-1.206,4.69,17.183,17.183,0,0,1-.8,1.943Q29.48.737,26.4.737a5.679,5.679,0,0,1-5.427-3.216,5.831,5.831,0,0,1-.67-1.809Q16.08.737,11.591.737A7.9,7.9,0,0,1,4.154-3.819,12.581,12.581,0,0,1,2.68-9.983,20.775,20.775,0,0,1,7.7-23.383q4.69-5.628,10.184-6.164a6.625,6.625,0,0,1,.938-.067q4.087,0,6.164,4.288M20.636-7.973h0L23.986-21.1q.2-1.005.2-1.139a7.006,7.006,0,0,0-1.206-3.417,4.55,4.55,0,0,0-4.087-2.479q-3.484,0-6.633,4.556a19,19,0,0,0-1.139,1.876A43.423,43.423,0,0,0,7.839-10.653a22.023,22.023,0,0,0-.4,3.618q0,4.556,2.546,5.9a3.585,3.585,0,0,0,1.742.4q3.752,0,7.571-4.757A5.91,5.91,0,0,0,20.569-7.7v-.067A.514.514,0,0,0,20.636-7.973Z"/>
        </g>
        <g id="Group_11" data-name="Group 11" transform="translate(84.443 83.214)">
          <path id="Path_9" data-name="Path 9" d="M15.665-14.164,14.07-7.739a22.921,22.921,0,0,0-.8,4.127q0,2.439,1.735,2.955a2.39,2.39,0,0,0,.844.141A5.5,5.5,0,0,0,20.12-2.861a10.645,10.645,0,0,0,1.97-3.8.6.6,0,0,1,.61-.516q.563,0,.563.469A7.1,7.1,0,0,1,21.809-3.33Q19.276.516,15.758.516a4.907,4.907,0,0,1-4.643-2.673,3.32,3.32,0,0,1-.422-.891A6.436,6.436,0,0,1,7.6.094,4.229,4.229,0,0,1,5.769.516q-2.814,0-3.94-1.641A2.315,2.315,0,0,1,1.36-2.579a2.481,2.481,0,0,1,1.5-2.439A2.222,2.222,0,0,1,3.94-5.3,1.513,1.513,0,0,1,5.628-4.127a2.386,2.386,0,0,1,.047.469A2.464,2.464,0,0,1,4.08-1.313a1.979,1.979,0,0,1-.61.188,4.366,4.366,0,0,0,2.345.61q2.486,0,3.94-3.33a14.946,14.946,0,0,0,.516-1.548Q12.8-14.961,12.8-16.556q-.281-2.908-2.533-3.142a5.74,5.74,0,0,0-4.456,2.486v.047a.041.041,0,0,1-.047.047A11.881,11.881,0,0,0,4.5-14.961q-.235.563-.422,1.126l-.094.281a.562.562,0,0,1-.61.516q-.563,0-.563-.469a6.982,6.982,0,0,1,1.5-3.377q2.533-3.846,6.05-3.846a5.132,5.132,0,0,1,5.065,3.564,6.056,6.056,0,0,1,3.986-3.471,4.772,4.772,0,0,1,.938-.094q2.767,0,3.893,1.548a2.593,2.593,0,0,1,.469,1.548,2.519,2.519,0,0,1-1.735,2.579,2.525,2.525,0,0,1-.8.141,1.558,1.558,0,0,1-1.735-1.266,1.542,1.542,0,0,1-.047-.375,2.452,2.452,0,0,1,1.36-2.2,3.06,3.06,0,0,1,.891-.328,4.366,4.366,0,0,0-2.345-.61q-3.189,0-4.5,4.971A3.7,3.7,0,0,0,15.665-14.164Z"/>
        </g>
      </g>
    </g>
  </g>
</svg>
