<svg xmlns="http://www.w3.org/2000/svg" width="120" height="120" viewBox="0 0 120 120">
  <g id="_24overset" data-name="24overset" transform="translate(-10.741 7.82)">
    <path id="Path_71" data-name="Path 71" d="M0,0H120V120H0Z" transform="translate(10.741 -7.82)" fill="none"/>
    <g id="Group_26" data-name="Group 26" transform="translate(-42.259 -67.68)">
      <g id="Group_25" data-name="Group 25">
        <g id="Group_23" data-name="Group 23" transform="translate(105.423 100.84)">
          <path id="Path_18" data-name="Path 18" d="M8.327-32.2l-2.36,9.6A5.287,5.287,0,0,1,9.7-24.512a3.82,3.82,0,0,1,3.572,2.2,6.149,6.149,0,0,1,.67,2.9A9.887,9.887,0,0,1,11.58-13.1a7.32,7.32,0,0,1-4.847,3,3.868,3.868,0,0,1-.478.032A3.629,3.629,0,0,1,2.842-12.2a6.083,6.083,0,0,1-.638-2.87,15.255,15.255,0,0,1,.51-3.221L5.33-28.69q.446-1.882.446-1.977,0-.351-.446-.446h0a5.1,5.1,0,0,0-1.148-.1q-.7,0-.765-.383,0-.542.606-.638l3.891-.319q.415,0,.415.351m-3,12.055-.7,2.934a13.823,13.823,0,0,0-.51,3.221q0,2.743,1.658,3.157a1.734,1.734,0,0,0,.478.064q1.69,0,3.157-2.232a9.784,9.784,0,0,0,.606-1.052,20.492,20.492,0,0,0,1.435-4.911,11.34,11.34,0,0,0,.191-1.85q0-2.551-1.563-2.934l-.032-.032a2.526,2.526,0,0,0-.415-.032q-1.913,0-3.827,2.551A3.31,3.31,0,0,0,5.33-20.143Z"/>
        </g>
        <g id="Group_24" data-name="Group 24" transform="translate(95 133.731)">
          <path id="Path_19" data-name="Path 19" d="M24.991-25.326a3.079,3.079,0,0,1,2.077-2.814,1.967,1.967,0,0,1,.737-.134,1.781,1.781,0,0,1,1.943,1.809,14.883,14.883,0,0,1-.469,2.278l-2.412,9.38q-1,4.221-1.474,6.03a23.8,23.8,0,0,0-.871,4.958q0,3.082,2.01,3.082,2.546,0,4.288-5.36.335-1.139.8-2.948.536-1.139.938-1.206.8,0,.8.67a21.4,21.4,0,0,1-1.206,4.69,17.183,17.183,0,0,1-.8,1.943Q29.48.737,26.4.737a5.679,5.679,0,0,1-5.427-3.216,5.831,5.831,0,0,1-.67-1.809Q16.08.737,11.591.737A7.9,7.9,0,0,1,4.154-3.819,12.581,12.581,0,0,1,2.68-9.983,20.775,20.775,0,0,1,7.7-23.383q4.69-5.628,10.184-6.164a6.625,6.625,0,0,1,.938-.067q4.087,0,6.164,4.288M20.636-7.973h0L23.986-21.1q.2-1.005.2-1.139a7.006,7.006,0,0,0-1.206-3.417,4.55,4.55,0,0,0-4.087-2.479q-3.484,0-6.633,4.556a19,19,0,0,0-1.139,1.876A43.423,43.423,0,0,0,7.839-10.653a22.023,22.023,0,0,0-.4,3.618q0,4.556,2.546,5.9a3.585,3.585,0,0,0,1.742.4q3.752,0,7.571-4.757A5.91,5.91,0,0,0,20.569-7.7v-.067A.514.514,0,0,0,20.636-7.973Z"/>
        </g>
      </g>
    </g>
  </g>
</svg>
