<svg xmlns="http://www.w3.org/2000/svg" width="120" height="120" viewBox="0 0 120 120">
  <g id="_25underset" data-name="25underset" transform="translate(-10.741 7.82)">
    <path id="Path_71" data-name="Path 71" d="M0,0H120V120H0Z" transform="translate(10.741 -7.82)" fill="none"/>
    <g id="Group_30" data-name="Group 30" transform="translate(-42.259 -29.82)">
      <g id="Group_29" data-name="Group 29">
        <g id="Group_27" data-name="Group 27" transform="translate(95 94.877)">
          <path id="Path_21" data-name="Path 21" d="M24.991-25.326a3.079,3.079,0,0,1,2.077-2.814,1.967,1.967,0,0,1,.737-.134,1.781,1.781,0,0,1,1.943,1.809,14.883,14.883,0,0,1-.469,2.278l-2.412,9.38q-1,4.221-1.474,6.03a23.8,23.8,0,0,0-.871,4.958q0,3.082,2.01,3.082,2.546,0,4.288-5.36.335-1.139.8-2.948.536-1.139.938-1.206.8,0,.8.67a21.4,21.4,0,0,1-1.206,4.69,17.183,17.183,0,0,1-.8,1.943Q29.48.737,26.4.737a5.679,5.679,0,0,1-5.427-3.216,5.831,5.831,0,0,1-.67-1.809Q16.08.737,11.591.737A7.9,7.9,0,0,1,4.154-3.819,12.581,12.581,0,0,1,2.68-9.983,20.775,20.775,0,0,1,7.7-23.383q4.69-5.628,10.184-6.164a6.625,6.625,0,0,1,.938-.067q4.087,0,6.164,4.288M20.636-7.973h0L23.986-21.1q.2-1.005.2-1.139a7.006,7.006,0,0,0-1.206-3.417,4.55,4.55,0,0,0-4.087-2.479q-3.484,0-6.633,4.556a19,19,0,0,0-1.139,1.876A43.423,43.423,0,0,0,7.839-10.653a22.023,22.023,0,0,0-.4,3.618q0,4.556,2.546,5.9a3.585,3.585,0,0,0,1.742.4q3.752,0,7.571-4.757A5.91,5.91,0,0,0,20.569-7.7v-.067A.514.514,0,0,0,20.636-7.973Z"/>
        </g>
        <g id="Group_28" data-name="Group 28" transform="translate(105.329 142.281)">
          <path id="Path_22" data-name="Path 22" d="M8.425-32.192l-2.4,9.753a5.372,5.372,0,0,1,3.791-1.944,3.881,3.881,0,0,1,3.629,2.236,6.248,6.248,0,0,1,.68,2.949,10.045,10.045,0,0,1-2.4,6.416A7.438,7.438,0,0,1,6.805-9.738a3.93,3.93,0,0,1-.486.032,3.688,3.688,0,0,1-3.467-2.171A6.18,6.18,0,0,1,2.2-14.792a15.5,15.5,0,0,1,.518-3.273L5.38-28.628q.454-1.912.454-2.009,0-.356-.454-.454h0a5.181,5.181,0,0,0-1.166-.1q-.713,0-.778-.389,0-.551.616-.648L8-32.549q.421,0,.421.356M5.38-19.944l-.713,2.981a14.045,14.045,0,0,0-.518,3.273q0,2.787,1.685,3.208a1.762,1.762,0,0,0,.486.065q1.717,0,3.208-2.268a9.941,9.941,0,0,0,.616-1.069,20.821,20.821,0,0,0,1.458-4.99,11.522,11.522,0,0,0,.194-1.879q0-2.592-1.588-2.981l-.032-.032a2.566,2.566,0,0,0-.421-.032q-1.944,0-3.888,2.592A3.364,3.364,0,0,0,5.38-19.944Z"/>
        </g>
      </g>
    </g>
  </g>
</svg>
