<svg xmlns="http://www.w3.org/2000/svg" width="120" height="120" viewBox="0 0 120 120">
  <g id="_26overunder" data-name="26overunder" transform="translate(-10.741 7.82)">
    <path id="Path_71" data-name="Path 71" d="M0,0H120V120H0Z" transform="translate(10.741 -7.82)" fill="none"/>
    <g id="Group_35" data-name="Group 35" transform="translate(-42.259 -67.82)">
      <g id="Group_34" data-name="Group 34">
        <g id="Group_31" data-name="Group 31" transform="translate(105.282 100.568)">
          <path id="Path_24" data-name="Path 24" d="M8.475-32.189,6.058-22.359a5.414,5.414,0,0,1,3.821-1.96,3.912,3.912,0,0,1,3.658,2.254,6.3,6.3,0,0,1,.686,2.972,10.125,10.125,0,0,1-2.417,6.467,7.5,7.5,0,0,1-4.964,3.07,3.962,3.962,0,0,1-.49.033,3.717,3.717,0,0,1-3.495-2.188A6.229,6.229,0,0,1,2.2-14.651a15.623,15.623,0,0,1,.523-3.3L5.4-28.6q.457-1.927.457-2.025,0-.359-.457-.457h0a5.223,5.223,0,0,0-1.176-.1q-.719,0-.784-.392,0-.555.621-.653l3.985-.327q.425,0,.425.359M5.4-19.844l-.719,3a14.157,14.157,0,0,0-.523,3.3q0,2.809,1.7,3.233a1.776,1.776,0,0,0,.49.065q1.731,0,3.233-2.286a10.02,10.02,0,0,0,.621-1.078,20.987,20.987,0,0,0,1.47-5.03,11.614,11.614,0,0,0,.2-1.894q0-2.613-1.6-3l-.033-.033a2.587,2.587,0,0,0-.425-.033q-1.96,0-3.919,2.613A3.39,3.39,0,0,0,5.4-19.844Z"/>
        </g>
        <g id="Group_32" data-name="Group 32" transform="translate(95 133.731)">
          <path id="Path_25" data-name="Path 25" d="M24.991-25.326a3.079,3.079,0,0,1,2.077-2.814,1.967,1.967,0,0,1,.737-.134,1.781,1.781,0,0,1,1.943,1.809,14.883,14.883,0,0,1-.469,2.278l-2.412,9.38q-1,4.221-1.474,6.03a23.8,23.8,0,0,0-.871,4.958q0,3.082,2.01,3.082,2.546,0,4.288-5.36.335-1.139.8-2.948.536-1.139.938-1.206.8,0,.8.67a21.4,21.4,0,0,1-1.206,4.69,17.183,17.183,0,0,1-.8,1.943Q29.48.737,26.4.737a5.679,5.679,0,0,1-5.427-3.216,5.831,5.831,0,0,1-.67-1.809Q16.08.737,11.591.737A7.9,7.9,0,0,1,4.154-3.819,12.581,12.581,0,0,1,2.68-9.983,20.775,20.775,0,0,1,7.7-23.383q4.69-5.628,10.184-6.164a6.625,6.625,0,0,1,.938-.067q4.087,0,6.164,4.288M20.636-7.973h0L23.986-21.1q.2-1.005.2-1.139a7.006,7.006,0,0,0-1.206-3.417,4.55,4.55,0,0,0-4.087-2.479q-3.484,0-6.633,4.556a19,19,0,0,0-1.139,1.876A43.423,43.423,0,0,0,7.839-10.653a22.023,22.023,0,0,0-.4,3.618q0,4.556,2.546,5.9a3.585,3.585,0,0,0,1.742.4q3.752,0,7.571-4.757A5.91,5.91,0,0,0,20.569-7.7v-.067A.514.514,0,0,0,20.636-7.973Z"/>
        </g>
        <g id="Group_33" data-name="Group 33" transform="translate(106.486 174.253)">
          <path id="Path_26" data-name="Path 26" d="M11.42-19.071h0a3.014,3.014,0,0,0-2.3-1.07,4.043,4.043,0,0,0-3.157,1.766,6.263,6.263,0,0,0-.615.91,12.67,12.67,0,0,0-1.391,4.6,6.137,6.137,0,0,0-.054.749q0,2.194,1.5,2.755a2.306,2.306,0,0,0,.91.161A6.594,6.594,0,0,0,10.644-10.8a6.262,6.262,0,0,0,1.017-1.043q.187-.268.348-.268.241,0,.321.348,0,.294-.91,1.15A7.463,7.463,0,0,1,6.257-8.611a3.926,3.926,0,0,1-3.692-2.033,4.833,4.833,0,0,1-.642-2.488A7.436,7.436,0,0,1,4.01-18.188a6.906,6.906,0,0,1,4.6-2.515,4.358,4.358,0,0,1,.482-.027,3.13,3.13,0,0,1,2.863,1.257,1.965,1.965,0,0,1,.294,1.043,1.6,1.6,0,0,1-.936,1.605,1.5,1.5,0,0,1-.562.107.867.867,0,0,1-.963-.7,1,1,0,0,1-.027-.241,1.4,1.4,0,0,1,.482-1.043A1.608,1.608,0,0,1,11.42-19.071Z"/>
        </g>
      </g>
    </g>
  </g>
</svg>
