<svg xmlns="http://www.w3.org/2000/svg" width="119.82" height="119.82" viewBox="0 0 119.82 119.82">
  <g id="_31frac" data-name="31frac" transform="translate(-0.741 17.82)">
    <path id="Path_71" data-name="Path 71" d="M0,0H119.82V119.82H0Z" transform="translate(0.741 -17.82)" fill="none"/>
    <g id="Group_39" data-name="Group 39" transform="translate(44.557 -4.757)">
      <g id="Group_38" data-name="Group 38" transform="translate(0)">
        <g id="Group_36" data-name="Group 36" transform="translate(1.663 0)">
          <path id="Path_28" data-name="Path 28" d="M19.432-21.586l-1.95,7.856a28.025,28.025,0,0,0-.975,5.046q0,2.982,2.122,3.613a2.923,2.923,0,0,0,1.032.172A6.729,6.729,0,0,0,24.88-7.767a13.015,13.015,0,0,0,2.408-4.645.735.735,0,0,1,.745-.631q.688,0,.688.573,0,1.434-1.778,4.129-3.1,4.7-7.4,4.7A6,6,0,0,1,13.87-6.906,4.059,4.059,0,0,1,13.354-8,7.869,7.869,0,0,1,9.57-4.154a5.17,5.17,0,0,1-2.236.516q-3.441,0-4.817-2.007a2.83,2.83,0,0,1-.573-1.778A3.033,3.033,0,0,1,3.778-10.4,2.717,2.717,0,0,1,5.1-10.748,1.85,1.85,0,0,1,7.161-9.315a2.917,2.917,0,0,1,.057.573,3.013,3.013,0,0,1-1.95,2.867,2.42,2.42,0,0,1-.745.229A5.338,5.338,0,0,0,7.391-4.9q3.039,0,4.817-4.071a18.274,18.274,0,0,0,.631-1.892q3.1-11.7,3.1-13.647-.344-3.555-3.1-3.842-2.982,0-5.448,3.039v.057a.051.051,0,0,1-.057.057,14.526,14.526,0,0,0-1.548,2.638q-.287.688-.516,1.376l-.115.344a.687.687,0,0,1-.745.631q-.688,0-.688-.573,0-1.434,1.835-4.129,3.1-4.7,7.4-4.7,4.415,0,6.193,4.358,1.835-3.555,4.874-4.243a5.835,5.835,0,0,1,1.147-.115q3.383,0,4.759,1.892a3.17,3.17,0,0,1,.573,1.892,3.08,3.08,0,0,1-2.122,3.154,3.087,3.087,0,0,1-.975.172,1.905,1.905,0,0,1-2.122-1.548,1.885,1.885,0,0,1-.057-.459,3,3,0,0,1,1.663-2.7,3.742,3.742,0,0,1,1.09-.4,5.338,5.338,0,0,0-2.867-.745q-3.9,0-5.5,6.078A4.528,4.528,0,0,0,19.432-21.586Z" transform="translate(-1.943 29.614)"/>
        </g>
        <rect id="Rectangle_4" data-name="Rectangle 4" width="32.8" height="2.294" transform="translate(0 40.097)"/>
        <g id="Group_37" data-name="Group 37" transform="translate(2.982 56.73)">
          <path id="Path_29" data-name="Path 29" d="M28.148-26.116l-5.5,21.9a15.628,15.628,0,0,1-6.136,9.117,12.106,12.106,0,0,1-7.282,2.58q-3.842,0-5.448-2.638A4.613,4.613,0,0,1,3.147,2.5q0-2.924,2.351-3.613a3.556,3.556,0,0,1,.86-.115A1.8,1.8,0,0,1,8.423.376a1.271,1.271,0,0,1,.057.4A3.1,3.1,0,0,1,7.333,3.129a3.723,3.723,0,0,1-2.466.688Q5.9,6.225,9.225,6.225q3.555,0,6.308-3.613a23.06,23.06,0,0,0,3.555-8.085q.057-.229.172-.745a8.007,8.007,0,0,1-5.792,2.58q-4.587,0-6.25-3.383a7.6,7.6,0,0,1-.745-3.441q0-3.154,3.039-11.3.115-.344.287-.745a12.812,12.812,0,0,0,.975-4.014q0-1.835-1.434-1.835-3.154,0-5.161,5.218v.057q-.344.86-.631,1.835-.631.975-.917,1.032-.688,0-.688-.573a10.543,10.543,0,0,1,1.2-3.613q2.523-5.218,6.365-5.218a4.3,4.3,0,0,1,4.243,2.58,4.92,4.92,0,0,1,.459,2.122,13.584,13.584,0,0,1-1.147,4.129q-2.924,7.569-2.924,11.239Q10.143-4.9,13.7-4.9q3.326,0,5.792-3.555a4.853,4.853,0,0,0,.688-1.319L22.758-20.1q.4-1.892,1.147-4.587.573-2.466.8-3.1a2.27,2.27,0,0,1,2.007-1.2,1.871,1.871,0,0,1,1.663,1.548A5.016,5.016,0,0,1,28.148-26.116Z" transform="translate(-1.943 29.614)"/>
        </g>
      </g>
    </g>
  </g>
</svg>
