<svg xmlns="http://www.w3.org/2000/svg" width="119.82" height="119.82" viewBox="0 0 119.82 119.82">
  <g id="_32int" data-name="32int" transform="translate(-0.741 17.82)">
    <path id="Path_71" data-name="Path 71" d="M0,0H119.82V119.82H0Z" transform="translate(0.741 -17.82)" fill="none"/>
    <g id="Group_44" data-name="Group 44" transform="translate(-63.259 -70.82)">
      <g id="Group_43" data-name="Group 43" transform="translate(98.762 63)">
        <g id="Group_40" data-name="Group 40" transform="translate(0 8.674)">
          <path id="Path_31" data-name="Path 31" d="M5.767,87.371a3.34,3.34,0,0,0,2.456,1q1.454,0,2.653-1.995a22.2,22.2,0,0,0,2.1-4.982q.9-2.987,1.326-5t1.051-5.2q.57-2.967,1.1-5.954t1.091-6.357q.56-3.37,1.179-6.839t1.405-7.379q1.061-5.149,1.523-7.359t1.405-6.387q.943-4.176,1.248-5.5t1.739-7.261l.531-2.1q.9-3.537,1.4-5.355A43.705,43.705,0,0,1,29.5,6.259a18.194,18.194,0,0,1,2.427-4.441A3.909,3.909,0,0,1,34.989,0,4.648,4.648,0,0,1,37.18.531a4.452,4.452,0,0,1,1.641,1.454,3.681,3.681,0,0,1,.629,2.122,1.949,1.949,0,0,1-2,2,2.036,2.036,0,0,1-1.474-.57,1.912,1.912,0,0,1-.59-1.435,2.015,2.015,0,0,1,2.063-2.063,3.38,3.38,0,0,0-2.417-1q-.747,0-1.641,2.181a39.428,39.428,0,0,0-1.651,5.139q-.757,2.958-1.159,4.933T29.6,18.237q-.668,3.36-1.11,5.856t-1.071,6.171q-.629,3.675-1.228,7T24.77,44.747q-.531,2.633-1.533,7.4t-1.326,6.2q-.324,1.434-1.651,7.015t-1.405,5.915l-.491,1.847q-1.042,4.265-2.093,7.5a21.409,21.409,0,0,1-3.085,6.023,5.99,5.99,0,0,1-4.962,2.791,4.6,4.6,0,0,1-3.1-1.179,3.686,3.686,0,0,1-1.356-2.889,2,2,0,0,1,.59-1.474,1.976,1.976,0,0,1,1.454-.59,1.985,1.985,0,0,1,1.759,1.022,2.088,2.088,0,0,1,.265,1.042,1.912,1.912,0,0,1-.59,1.435A2.036,2.036,0,0,1,5.767,87.371Z" transform="translate(-3.762)"/>
        </g>
        <g id="Group_41" data-name="Group 41" transform="translate(39.311)">
          <path id="Path_32" data-name="Path 32" d="M7.613-32.239l-2.085,8.48a4.67,4.67,0,0,1,3.3-1.69,3.375,3.375,0,0,1,3.155,1.944,5.432,5.432,0,0,1,.592,2.564,8.734,8.734,0,0,1-2.085,5.578A6.467,6.467,0,0,1,6.2-12.715a3.417,3.417,0,0,1-.423.028,3.206,3.206,0,0,1-3.014-1.888A5.373,5.373,0,0,1,2.2-17.11a13.477,13.477,0,0,1,.451-2.845l2.31-9.184q.394-1.662.394-1.747,0-.31-.394-.394h0a4.505,4.505,0,0,0-1.014-.085q-.62,0-.676-.338,0-.479.535-.563l3.437-.282q.366,0,.366.31M4.965-21.589,4.345-19a12.212,12.212,0,0,0-.451,2.845q0,2.423,1.465,2.789a1.532,1.532,0,0,0,.423.056q1.493,0,2.789-1.972a8.644,8.644,0,0,0,.535-.93,18.1,18.1,0,0,0,1.268-4.339,10.018,10.018,0,0,0,.169-1.634q0-2.254-1.38-2.592L9.135-24.8a2.231,2.231,0,0,0-.366-.028q-1.69,0-3.381,2.254A2.924,2.924,0,0,0,4.965-21.589Z" transform="translate(-2.204 32.549)"/>
        </g>
        <g id="Group_42" data-name="Group 42" transform="translate(21.244 87.058)">
          <path id="Path_33" data-name="Path 33" d="M11.257-18.927a1.3,1.3,0,0,1,.873-1.183.827.827,0,0,1,.31-.056.749.749,0,0,1,.817.761,6.258,6.258,0,0,1-.2.958L12.046-14.5q-.423,1.775-.62,2.536a10.006,10.006,0,0,0-.366,2.085q0,1.3.845,1.3,1.071,0,1.8-2.254.141-.479.338-1.24.225-.479.394-.507.338,0,.338.282a9,9,0,0,1-.507,1.972,7.226,7.226,0,0,1-.338.817,2.357,2.357,0,0,1-2.085,1.549A2.388,2.388,0,0,1,9.567-9.32a2.452,2.452,0,0,1-.282-.761A4.919,4.919,0,0,1,5.623-7.968,3.322,3.322,0,0,1,2.5-9.883a5.29,5.29,0,0,1-.62-2.592A8.735,8.735,0,0,1,3.989-18.11,6.455,6.455,0,0,1,8.271-20.7a2.786,2.786,0,0,1,.394-.028,2.779,2.779,0,0,1,2.592,1.8m-1.831,7.3h0l1.409-5.522q.085-.423.085-.479a2.946,2.946,0,0,0-.507-1.437A1.913,1.913,0,0,0,8.694-20.11q-1.465,0-2.789,1.916a7.99,7.99,0,0,0-.479.789,18.259,18.259,0,0,0-1.38,4.648,9.26,9.26,0,0,0-.169,1.521q0,1.916,1.071,2.479a1.507,1.507,0,0,0,.732.169q1.578,0,3.183-2a2.485,2.485,0,0,0,.535-.93v-.028A.216.216,0,0,0,9.426-11.63Z" transform="translate(-1.876 20.73)"/>
        </g>
      </g>
    </g>
  </g>
</svg>
