<svg xmlns="http://www.w3.org/2000/svg" width="140" height="140" viewBox="0 0 140 140">
  <g id="_41lim" data-name="41lim" transform="translate(9.259 27.82)">
    <path id="Path_71" data-name="Path 71" d="M0,0H140V140H0Z" transform="translate(-9.259 -27.82)" fill="none"/>
    <g id="Group_51" data-name="Group 51" transform="translate(-103.9 -51.82)">
      <g id="Group_50" data-name="Group 50">
        <g id="Group_45" data-name="Group 45" transform="translate(95 109.498)">
          <path id="Path_35" data-name="Path 35" d="M11.859-46.5V-5.092q0,2.278,1.072,2.68a14.3,14.3,0,0,0,4.154.335V0L9.648-.2q-.8,0-7.437.2V-2.077q3.953,0,4.623-.6l.134-.134a3.737,3.737,0,0,0,.469-2.278v-34.84q0-2.613-.938-3.216H6.432a6.816,6.816,0,0,0-2.546-.536H2.211v-2.077Z"/>
        </g>
        <g id="Group_46" data-name="Group 46" transform="translate(113.626 109.498)">
          <path id="Path_36" data-name="Path 36" d="M11.859-29.614h0V-5.025q0,2.077.8,2.546h0a11.15,11.15,0,0,0,3.886.4V0Q9.715-.2,9.581-.2q-.938,0-7.37.2V-2.077q3.953,0,4.623-.6l.134-.134a3.737,3.737,0,0,0,.469-2.278V-23.115q0-2.68-1.072-3.216H6.3L6.231-26.4h0a10.907,10.907,0,0,0-3.752-.4v-2.077l9.38-.737m.268-11.658a3.174,3.174,0,0,1-2.211,3.283,3.585,3.585,0,0,1-1.34.268,3.318,3.318,0,0,1-3.283-2.144v-.067a3.585,3.585,0,0,1-.268-1.34A3.283,3.283,0,0,1,6.9-44.354a3.053,3.053,0,0,1,1.675-.469,3.28,3.28,0,0,1,3.216,2.01A3.683,3.683,0,0,1,12.127-41.272Z"/>
        </g>
        <g id="Group_47" data-name="Group 47" transform="translate(132.252 109.498)">
          <path id="Path_37" data-name="Path 37" d="M7.37-23.048q0-2.613-1.005-3.216A6.645,6.645,0,0,0,3.484-26.8H2.144v-2.077l9.447-.737v7.035q3.149-7.035,9.916-7.035,7.839,0,8.911,6.566a10.467,10.467,0,0,1,6.3-6.03,10.736,10.736,0,0,1,3.417-.536q5.025,0,7.035,2.479a9.192,9.192,0,0,1,2.01,5.7q.067,1.273.067,4.556v12.8q.067,1.608,1.943,1.876a25.005,25.005,0,0,0,3.283.134V0q-6.834-.2-7.5-.2-.536,0-7.571.2V-2.077q3.953,0,4.623-.6l.134-.134a3.737,3.737,0,0,0,.469-2.278V-20.7q0-6.633-3.819-7.3a4.682,4.682,0,0,0-1.139-.134,8.334,8.334,0,0,0-6.834,3.551,11.428,11.428,0,0,0-2.211,7.169V-5.092q0,2.278,1.072,2.68a14.3,14.3,0,0,0,4.154.335V0q-6.834-.2-7.5-.2-.536,0-7.571.2V-2.077q3.953,0,4.623-.6l.134-.134A3.737,3.737,0,0,0,26-5.092V-20.7q0-6.633-3.819-7.3a4.682,4.682,0,0,0-1.139-.134A8.334,8.334,0,0,0,14.2-24.589a11.428,11.428,0,0,0-2.211,7.169V-5.092q0,2.278,1.072,2.68a14.3,14.3,0,0,0,4.154.335V0q-6.834-.2-7.5-.2-.536,0-7.571.2V-2.077q3.953,0,4.623-.6L6.9-2.814A3.737,3.737,0,0,0,7.37-5.092Z"/>
        </g>
        <g id="Group_48" data-name="Group 48" transform="translate(128.118 149.698)">
          <path id="Path_38" data-name="Path 38" d="M15.665-14.164,14.07-7.739a22.921,22.921,0,0,0-.8,4.127q0,2.439,1.735,2.955a2.39,2.39,0,0,0,.844.141A5.5,5.5,0,0,0,20.12-2.861a10.645,10.645,0,0,0,1.97-3.8.6.6,0,0,1,.61-.516q.563,0,.563.469A7.1,7.1,0,0,1,21.809-3.33Q19.276.516,15.758.516a4.907,4.907,0,0,1-4.643-2.673,3.32,3.32,0,0,1-.422-.891A6.436,6.436,0,0,1,7.6.094,4.229,4.229,0,0,1,5.769.516q-2.814,0-3.94-1.641A2.315,2.315,0,0,1,1.36-2.579a2.481,2.481,0,0,1,1.5-2.439A2.222,2.222,0,0,1,3.94-5.3,1.513,1.513,0,0,1,5.628-4.127a2.386,2.386,0,0,1,.047.469A2.464,2.464,0,0,1,4.08-1.313a1.979,1.979,0,0,1-.61.188,4.366,4.366,0,0,0,2.345.61q2.486,0,3.94-3.33a14.946,14.946,0,0,0,.516-1.548Q12.8-14.961,12.8-16.556q-.281-2.908-2.533-3.142a5.74,5.74,0,0,0-4.456,2.486v.047a.041.041,0,0,1-.047.047A11.881,11.881,0,0,0,4.5-14.961q-.235.563-.422,1.126l-.094.281a.562.562,0,0,1-.61.516q-.563,0-.563-.469a6.982,6.982,0,0,1,1.5-3.377q2.533-3.846,6.05-3.846a5.132,5.132,0,0,1,5.065,3.564,6.056,6.056,0,0,1,3.986-3.471,4.772,4.772,0,0,1,.938-.094q2.767,0,3.893,1.548a2.593,2.593,0,0,1,.469,1.548,2.519,2.519,0,0,1-1.735,2.579,2.525,2.525,0,0,1-.8.141,1.558,1.558,0,0,1-1.735-1.266,1.542,1.542,0,0,1-.047-.375,2.452,2.452,0,0,1,1.36-2.2,3.06,3.06,0,0,1,.891-.328,4.366,4.366,0,0,0-2.345-.61q-3.189,0-4.5,4.971A3.7,3.7,0,0,0,15.665-14.164Z"/>
        </g>
        <g id="Group_49" data-name="Group 49" transform="translate(199.23 109.498)">
          <path id="Path_39" data-name="Path 39" d="M32.562-25.527,26.13.067A18.26,18.26,0,0,1,18.961,10.72a14.145,14.145,0,0,1-8.509,3.015q-4.489,0-6.365-3.082A5.39,5.39,0,0,1,3.35,7.906q0-3.417,2.747-4.221A4.155,4.155,0,0,1,7.1,3.551,2.1,2.1,0,0,1,9.514,5.427a1.485,1.485,0,0,1,.067.469,3.619,3.619,0,0,1-1.34,2.747,4.349,4.349,0,0,1-2.881.8q1.206,2.814,5.092,2.814,4.154,0,7.37-4.221a26.944,26.944,0,0,0,4.154-9.447q.067-.268.2-.871A9.356,9.356,0,0,1,15.41.737q-5.36,0-7.3-3.953a8.875,8.875,0,0,1-.871-4.02q0-3.685,3.551-13.2.134-.4.335-.871A14.97,14.97,0,0,0,12.261-26q0-2.144-1.675-2.144-3.685,0-6.03,6.1v.067q-.4,1.005-.737,2.144-.737,1.139-1.072,1.206-.8,0-.8-.67A12.319,12.319,0,0,1,3.35-23.517q2.948-6.1,7.437-6.1A5.022,5.022,0,0,1,15.745-26.6a5.748,5.748,0,0,1,.536,2.479,15.871,15.871,0,0,1-1.34,4.824q-3.417,8.844-3.417,13.132,0,5.427,4.154,5.427,3.886,0,6.767-4.154a5.67,5.67,0,0,0,.8-1.541l3.015-12.06q.469-2.211,1.34-5.36.67-2.881.938-3.618a2.652,2.652,0,0,1,2.345-1.407,2.187,2.187,0,0,1,1.943,1.809A5.861,5.861,0,0,1,32.562-25.527Z"/>
        </g>
      </g>
    </g>
  </g>
</svg>
