<svg xmlns="http://www.w3.org/2000/svg" width="140" height="140" viewBox="0 0 140 140">
  <g id="_42log" data-name="42log" transform="translate(9.259 27.82)">
    <path id="Path_71" data-name="Path 71" d="M0,0H140V140H0Z" transform="translate(-9.259 -27.82)" fill="none"/>
    <g id="Group_58" data-name="Group 58" transform="translate(-105.06 -54.82)">
      <g id="Group_57" data-name="Group 57">
        <g id="Group_52" data-name="Group 52" transform="translate(95 112.498)">
          <path id="Path_41" data-name="Path 41" d="M11.859-46.5V-5.092q0,2.278,1.072,2.68a14.3,14.3,0,0,0,4.154.335V0L9.648-.2q-.8,0-7.437.2V-2.077q3.953,0,4.623-.6l.134-.134a3.737,3.737,0,0,0,.469-2.278v-34.84q0-2.613-.938-3.216H6.432a6.816,6.816,0,0,0-2.546-.536H2.211v-2.077Z"/>
        </g>
        <g id="Group_53" data-name="Group 53" transform="translate(113.626 112.498)">
          <path id="Path_42" data-name="Path 42" d="M31.557-14.338h0a14.521,14.521,0,0,1-5.092,11.39A14.424,14.424,0,0,1,16.683.737,14.154,14.154,0,0,1,5.829-4.087,14.756,14.756,0,0,1,1.876-14.338,15.342,15.342,0,0,1,6.767-25.862a13.757,13.757,0,0,1,9.983-4.154,13.83,13.83,0,0,1,10.921,5.159,15.567,15.567,0,0,1,3.886,10.519M16.75-.938h0a8.216,8.216,0,0,0,7.1-3.752l.67-1.206Q26-8.844,26-14.874q0-6.432-1.742-9.313a9.349,9.349,0,0,0-7.571-4.355,8.377,8.377,0,0,0-6.834,3.35,6.58,6.58,0,0,0-.8,1.139q-1.608,2.948-1.608,9.179,0,6.5,1.675,9.447A9,9,0,0,0,16.75-.938Z"/>
        </g>
        <g id="Group_54" data-name="Group 54" transform="translate(147.126 112.498)">
          <path id="Path_43" data-name="Path 43" d="M14.874-11.524a5.508,5.508,0,0,0,4.757-2.68A11.4,11.4,0,0,0,20.7-19.832q-.268-8.04-5.829-8.241a5.508,5.508,0,0,0-4.757,2.68,11.4,11.4,0,0,0-1.072,5.628q.268,8.04,5.829,8.241M8.241-12.06A4.71,4.71,0,0,0,7.1-8.911a4.334,4.334,0,0,0,2.144,4.02,3.286,3.286,0,0,0,1.407.469q.469.067,5.025.067,6.9,0,10.05,1.206a10.757,10.757,0,0,1,1.474.67,9.249,9.249,0,0,1,4.355,7.638q0,4.355-5.628,6.834A22.322,22.322,0,0,1,16.683,13.8q-7.772,0-12.127-3.618a6.2,6.2,0,0,1-2.68-4.891q0-3.35,3.417-5.494A9.009,9.009,0,0,1,8.04-1.407,7.687,7.687,0,0,1,5.092-7.37a8.271,8.271,0,0,1,2.077-5.561,9.685,9.685,0,0,1-3.149-6.9A9.011,9.011,0,0,1,8.04-27.4a11.079,11.079,0,0,1,6.834-2.211,11.2,11.2,0,0,1,7.1,2.412,9.957,9.957,0,0,1,7.1-3.149,3.068,3.068,0,0,1,3.283,2.412,2.738,2.738,0,0,1,.134.871,2.173,2.173,0,0,1-1.943,2.01,1.776,1.776,0,0,1-1.876-1.407A2.2,2.2,0,0,1,28.609-27a1.713,1.713,0,0,1,1.072-1.809,2.351,2.351,0,0,0-.67-.067,8.585,8.585,0,0,0-6.03,2.613,8.47,8.47,0,0,1,2.747,6.5,9.011,9.011,0,0,1-4.02,7.571,11.079,11.079,0,0,1-6.834,2.211A11.05,11.05,0,0,1,8.241-12.06M16.75,12.261h0q6.365,0,9.648-3.35a5.057,5.057,0,0,0,1.675-3.618q0-4.958-7.906-5.628H20.1q-1.742-.134-5.293-.134H10.854A5.609,5.609,0,0,0,6.1,2.546,5.39,5.39,0,0,0,5.36,5.293q0,3.149,3.886,5.226A15.274,15.274,0,0,0,16.75,12.261Z"/>
        </g>
        <g id="Group_55" data-name="Group 55" transform="translate(181.564 127.841)">
          <path id="Path_44" data-name="Path 44" d="M17.494-17.728a2.155,2.155,0,0,1,1.454-1.97,1.377,1.377,0,0,1,.516-.094,1.246,1.246,0,0,1,1.36,1.266,10.418,10.418,0,0,1-.328,1.595l-1.688,6.566q-.7,2.955-1.032,4.221a16.658,16.658,0,0,0-.61,3.471q0,2.157,1.407,2.157,1.782,0,3-3.752.235-.8.563-2.064.375-.8.657-.844.563,0,.563.469a14.983,14.983,0,0,1-.844,3.283,12.028,12.028,0,0,1-.563,1.36Q20.636.516,18.479.516a3.975,3.975,0,0,1-3.8-2.251A4.082,4.082,0,0,1,14.211-3Q11.256.516,8.114.516A5.53,5.53,0,0,1,2.908-2.673,8.807,8.807,0,0,1,1.876-6.988a14.542,14.542,0,0,1,3.517-9.38q3.283-3.94,7.129-4.315a4.637,4.637,0,0,1,.657-.047,4.626,4.626,0,0,1,4.315,3M14.445-5.581h0l2.345-9.192q.141-.7.141-.8a4.9,4.9,0,0,0-.844-2.392A3.185,3.185,0,0,0,13.226-19.7q-2.439,0-4.643,3.189a13.3,13.3,0,0,0-.8,1.313,30.4,30.4,0,0,0-2.3,7.739,15.416,15.416,0,0,0-.281,2.533q0,3.189,1.782,4.127a2.509,2.509,0,0,0,1.219.281q2.626,0,5.3-3.33A4.137,4.137,0,0,0,14.4-5.393V-5.44A.36.36,0,0,0,14.445-5.581Z"/>
        </g>
        <g id="Group_56" data-name="Group 56" transform="translate(206.541 112.498)">
          <path id="Path_45" data-name="Path 45" d="M16.013-45.761,11.055-25.594q3.886-4.02,7.839-4.02a8.026,8.026,0,0,1,7.5,4.623,12.919,12.919,0,0,1,1.407,6.1A20.771,20.771,0,0,1,22.847-5.628Q18.224.067,12.663.67a8.127,8.127,0,0,1-1.005.067A7.625,7.625,0,0,1,4.489-3.752a12.779,12.779,0,0,1-1.34-6.03,32.05,32.05,0,0,1,1.072-6.767L9.715-38.391q.938-3.953.938-4.154,0-.737-.938-.938h0a10.714,10.714,0,0,0-2.412-.2q-1.474,0-1.608-.8,0-1.139,1.273-1.34l8.174-.67q.871,0,.871.737m-6.3,25.326L8.241-14.271A29.042,29.042,0,0,0,7.169-7.5q0,5.762,3.484,6.633a3.643,3.643,0,0,0,1.005.134q3.551,0,6.633-4.69a20.556,20.556,0,0,0,1.273-2.211,43.052,43.052,0,0,0,3.015-10.318,23.825,23.825,0,0,0,.4-3.886q0-5.36-3.283-6.164l-.067-.067a5.306,5.306,0,0,0-.871-.067q-4.02,0-8.04,5.36A6.955,6.955,0,0,0,9.715-20.435Z"/>
        </g>
      </g>
    </g>
  </g>
</svg>
