<svg xmlns="http://www.w3.org/2000/svg" width="140" height="140" viewBox="0 0 140 140">
  <g id="_43sum" data-name="43sum" transform="translate(9.259 27.82)">
    <path id="Path_71" data-name="Path 71" d="M0,0H140V140H0Z" transform="translate(-9.259 -27.82)" fill="none"/>
    <g id="Group_63" data-name="Group 63" transform="translate(33.053 -15.969)">
      <g id="Group_62" data-name="Group 62" transform="translate(0 0)">
        <g id="Group_59" data-name="Group 59" transform="translate(21.352 0)">
          <path id="Path_47" data-name="Path 47" d="M11.66-18.849a1.35,1.35,0,0,1,.911-1.234.863.863,0,0,1,.323-.059.781.781,0,0,1,.852.793,6.526,6.526,0,0,1-.206,1l-1.058,4.113q-.441,1.851-.646,2.644a10.436,10.436,0,0,0-.382,2.174q0,1.352.881,1.352,1.116,0,1.88-2.351.147-.5.353-1.293.235-.5.411-.529.353,0,.353.294A9.386,9.386,0,0,1,14.8-9.888a7.535,7.535,0,0,1-.353.852A2.458,2.458,0,0,1,12.277-7.42,2.49,2.49,0,0,1,9.9-8.83,2.557,2.557,0,0,1,9.6-9.624a5.13,5.13,0,0,1-3.82,2.2,3.464,3.464,0,0,1-3.261-2,5.517,5.517,0,0,1-.646-2.7A9.11,9.11,0,0,1,4.08-18a6.732,6.732,0,0,1,4.466-2.7,2.905,2.905,0,0,1,.411-.029,2.9,2.9,0,0,1,2.7,1.88M9.75-11.24h0L11.219-17q.088-.441.088-.5a3.072,3.072,0,0,0-.529-1.5,2,2,0,0,0-1.792-1.087q-1.528,0-2.909,2a8.332,8.332,0,0,0-.5.823,19.042,19.042,0,0,0-1.44,4.848,9.658,9.658,0,0,0-.176,1.587q0,2,1.116,2.586a1.572,1.572,0,0,0,.764.176q1.645,0,3.32-2.086a2.592,2.592,0,0,0,.558-.97v-.029A.226.226,0,0,0,9.75-11.24Z" transform="translate(-1.876 20.73)"/>
        </g>
        <g id="Group_60" data-name="Group 60" transform="translate(0 25.579)">
          <path id="Path_48" data-name="Path 48" d="M4.172,58.759q-.41,0-.41-.451A.417.417,0,0,1,3.885,58L26.04,32.2,3.885,1.845a.336.336,0,0,1-.123-.2V.369A.33.33,0,0,1,3.9.113.425.425,0,0,1,4.172,0H54.548l5.083,11.785H58.4a12.785,12.785,0,0,0-6.517-6.62,29.113,29.113,0,0,0-9.54-2.654q-4.97-.5-11.549-.5H11.386L31.2,29.082a.691.691,0,0,1,.082.307.66.66,0,0,1-.082.287L9.419,55.029H31.2q6.456,0,11.446-.5a28.476,28.476,0,0,0,9.51-2.664,11.918,11.918,0,0,0,6.241-6.61h1.23L54.548,58.759Z" transform="translate(-3.762)"/>
        </g>
        <g id="Group_61" data-name="Group 61" transform="translate(23.027 95.534)">
          <path id="Path_49" data-name="Path 49" d="M7.846-32.225,5.671-23.382a4.871,4.871,0,0,1,3.438-1.763A3.52,3.52,0,0,1,12.4-23.117a5.665,5.665,0,0,1,.617,2.674,9.109,9.109,0,0,1-2.174,5.818,6.744,6.744,0,0,1-4.466,2.762,3.564,3.564,0,0,1-.441.029A3.344,3.344,0,0,1,2.792-13.8,5.6,5.6,0,0,1,2.2-16.448a14.055,14.055,0,0,1,.47-2.968l2.409-9.578q.411-1.734.411-1.822,0-.323-.411-.411h0a4.7,4.7,0,0,0-1.058-.088q-.646,0-.705-.353,0-.5.558-.588l3.585-.294q.382,0,.382.323M5.084-21.119l-.646,2.7a12.736,12.736,0,0,0-.47,2.968q0,2.527,1.528,2.909a1.6,1.6,0,0,0,.441.059q1.557,0,2.909-2.057a9.014,9.014,0,0,0,.558-.97,18.88,18.88,0,0,0,1.322-4.525,10.448,10.448,0,0,0,.176-1.7q0-2.351-1.44-2.7l-.029-.029A2.327,2.327,0,0,0,9.05-24.5q-1.763,0-3.526,2.351A3.05,3.05,0,0,0,5.084-21.119Z" transform="translate(-2.204 32.549)"/>
        </g>
      </g>
    </g>
  </g>
</svg>
