<svg xmlns="http://www.w3.org/2000/svg" width="140" height="140" viewBox="0 0 140 140">
  <g id="_44sumunder" data-name="44sumunder" transform="translate(9.259 27.82)">
    <path id="Path_71" data-name="Path 71" d="M0,0H140V140H0Z" transform="translate(-9.259 -27.82)" fill="none"/>
    <g id="Group_67" data-name="Group 67" transform="translate(-41.259 -50.82)">
      <g id="Group_66" data-name="Group 66" transform="translate(74.762 60.7)">
        <g id="Group_64" data-name="Group 64" transform="translate(0)">
          <path id="Path_51" data-name="Path 51" d="M4.169,58.285q-.407,0-.407-.447a.414.414,0,0,1,.122-.3l21.977-25.6L3.884,1.83a.333.333,0,0,1-.122-.2V.366A.328.328,0,0,1,3.894.112.421.421,0,0,1,4.169,0H54.139l5.042,11.69h-1.22A12.682,12.682,0,0,0,51.5,5.123,28.879,28.879,0,0,0,42.033,2.49q-4.93-.5-11.456-.5H11.325L30.984,28.848a.686.686,0,0,1,.081.3.655.655,0,0,1-.081.285L9.373,54.586H30.984q6.4,0,11.354-.5a28.246,28.246,0,0,0,9.433-2.643,11.822,11.822,0,0,0,6.19-6.556h1.22l-5.042,13.4Z" transform="translate(-3.762)"/>
        </g>
        <g id="Group_65" data-name="Group 65" transform="translate(22.841 69.393)">
          <path id="Path_52" data-name="Path 52" d="M7.8-32.228,5.643-23.455A4.832,4.832,0,0,1,9.053-25.2a3.491,3.491,0,0,1,3.264,2.011,5.62,5.62,0,0,1,.612,2.652,9.036,9.036,0,0,1-2.157,5.771,6.69,6.69,0,0,1-4.43,2.74A3.536,3.536,0,0,1,5.906-12a3.317,3.317,0,0,1-3.118-1.953A5.559,5.559,0,0,1,2.2-16.577a13.942,13.942,0,0,1,.466-2.944l2.39-9.5q.408-1.72.408-1.807,0-.321-.408-.408h0a4.661,4.661,0,0,0-1.049-.087q-.641,0-.7-.35,0-.5.554-.583l3.556-.291q.379,0,.379.321M5.06-21.211,4.419-18.53a12.633,12.633,0,0,0-.466,2.944q0,2.506,1.516,2.885a1.585,1.585,0,0,0,.437.058q1.545,0,2.885-2.04a8.942,8.942,0,0,0,.554-.962,18.728,18.728,0,0,0,1.312-4.488,10.364,10.364,0,0,0,.175-1.69q0-2.332-1.428-2.681l-.029-.029A2.308,2.308,0,0,0,9-24.563q-1.749,0-3.5,2.332A3.025,3.025,0,0,0,5.06-21.211Z" transform="translate(-2.204 32.549)"/>
        </g>
      </g>
    </g>
  </g>
</svg>
