<svg xmlns="http://www.w3.org/2000/svg" width="120" height="120" viewBox="0 0 120 120">
  <g id="_45abs" data-name="45abs" transform="translate(9.259 27.82)">
    <path id="Path_71" data-name="Path 71" d="M0,0H120V120H0Z" transform="translate(-9.259 -27.82)" fill="none"/>
    <g id="Group_93" data-name="Group 93" transform="translate(-56.612 -58.82)">
      <g id="Group_71" data-name="Group 71">
        <g id="Group_68" data-name="Group 68" transform="translate(71 105.25)">
          <path id="Path_54" data-name="Path 54" d="M10.653-48.039V14.539q0,2.144-1.34,2.211-1.34,0-1.34-2.211V-48.039q0-2.144,1.34-2.211Q10.653-50.25,10.653-48.039Z"/>
        </g>
        <g id="Group_69" data-name="Group 69" transform="translate(89.626 105.25)">
          <path id="Path_55" data-name="Path 55" d="M24.991-25.326a3.079,3.079,0,0,1,2.077-2.814,1.967,1.967,0,0,1,.737-.134,1.781,1.781,0,0,1,1.943,1.809,14.883,14.883,0,0,1-.469,2.278l-2.412,9.38q-1,4.221-1.474,6.03a23.8,23.8,0,0,0-.871,4.958q0,3.082,2.01,3.082,2.546,0,4.288-5.36.335-1.139.8-2.948.536-1.139.938-1.206.8,0,.8.67a21.4,21.4,0,0,1-1.206,4.69,17.183,17.183,0,0,1-.8,1.943Q29.48.737,26.4.737a5.679,5.679,0,0,1-5.427-3.216,5.831,5.831,0,0,1-.67-1.809Q16.08.737,11.591.737A7.9,7.9,0,0,1,4.154-3.819,12.581,12.581,0,0,1,2.68-9.983,20.775,20.775,0,0,1,7.7-23.383q4.69-5.628,10.184-6.164a6.625,6.625,0,0,1,.938-.067q4.087,0,6.164,4.288M20.636-7.973h0L23.986-21.1q.2-1.005.2-1.139a7.006,7.006,0,0,0-1.206-3.417,4.55,4.55,0,0,0-4.087-2.479q-3.484,0-6.633,4.556a19,19,0,0,0-1.139,1.876A43.423,43.423,0,0,0,7.839-10.653a22.023,22.023,0,0,0-.4,3.618q0,4.556,2.546,5.9a3.585,3.585,0,0,0,1.742.4q3.752,0,7.571-4.757A5.91,5.91,0,0,0,20.569-7.7v-.067A.514.514,0,0,0,20.636-7.973Z"/>
        </g>
        <g id="Group_70" data-name="Group 70" transform="translate(125.069 105.25)">
          <path id="Path_56" data-name="Path 56" d="M10.653-48.039V14.539q0,2.144-1.34,2.211-1.34,0-1.34-2.211V-48.039q0-2.144,1.34-2.211Q10.653-50.25,10.653-48.039Z"/>
        </g>
      </g>
    </g>
  </g>
</svg>
