<svg xmlns="http://www.w3.org/2000/svg" width="120" height="120" viewBox="0 0 120 120">
  <g id="_51int" data-name="51int" transform="translate(12.259 27.82)">
    <path id="Path_71" data-name="Path 71" d="M0,0H120V120H0Z" transform="translate(-12.259 -27.82)" fill="none"/>
    <g id="Group_94" data-name="Group 94" transform="translate(-133.259 -84.32)">
      <g id="Group_74" data-name="Group 74" transform="translate(158.762 72)">
        <g id="Group_73" data-name="Group 73" transform="translate(0)">
          <path id="Path_58" data-name="Path 58" d="M7.676,85.206a7.241,7.241,0,0,0,4.971,1.761q5.01,0,6.967-7.436a73.98,73.98,0,0,0,1.292-9q.313-3.914.509-6.615t.431-5.851q.235-3.151.47-6.164t.665-7.4q.313-2.622.763-6.712t.881-7.515q.431-3.425.744-5.656t.822-6.262A40.648,40.648,0,0,1,30.26,5.421,9.492,9.492,0,0,1,39.183,0a10.573,10.573,0,0,1,4.207.9,8.312,8.312,0,0,1,3.386,2.583,6.19,6.19,0,0,1,1.292,3.875A3.408,3.408,0,0,1,44.624,10.8a3.458,3.458,0,0,1-2.485-1A3.263,3.263,0,0,1,41.1,7.358a3.414,3.414,0,0,1,.861-2.368,3.543,3.543,0,0,1,2.192-1.155,7.333,7.333,0,0,0-4.971-1.761q-3.953,0-5.793,6.5a84.144,84.144,0,0,0-1.331,9.941q-.2,2.7-.45,5.988t-.548,7.221q-.294,3.933-.587,7.358t-.528,5.577q-.431,4.305-.7,6.654T28.479,57.4q-.489,3.738-.959,7.417t-.783,5.871a38.67,38.67,0,0,1-2.211,8.572A18.677,18.677,0,0,1,19.946,86.2a10.218,10.218,0,0,1-7.3,2.838,10.574,10.574,0,0,1-4.207-.9,8.385,8.385,0,0,1-3.386-2.563,6.052,6.052,0,0,1-1.292-3.816,3.476,3.476,0,0,1,3.523-3.523,3.5,3.5,0,0,1,1.742.45,3.25,3.25,0,0,1,1.252,1.233,3.628,3.628,0,0,1,.45,1.84,3.552,3.552,0,0,1-.391,1.6,3.316,3.316,0,0,1-1.057,1.252A3.487,3.487,0,0,1,7.676,85.206Z" transform="translate(-3.762)"/>
        </g>
      </g>
    </g>
  </g>
</svg>
