<svg xmlns="http://www.w3.org/2000/svg" width="120" height="120" viewBox="0 0 120 120">
  <g id="_52oint" data-name="52oint" transform="translate(12.259 27.82)">
    <path id="Path_71" data-name="Path 71" d="M0,0H120V120H0Z" transform="translate(-12.259 -27.82)" fill="none"/>
    <g id="Group_95" data-name="Group 95" transform="translate(-133.259 -84.32)">
      <g id="Group_77" data-name="Group 77" transform="translate(158.762 72)">
        <g id="Group_76" data-name="Group 76" transform="translate(0)">
          <path id="Path_60" data-name="Path 60" d="M7.676,85.206a7.241,7.241,0,0,0,4.971,1.761q5.01,0,6.967-7.436a73.98,73.98,0,0,0,1.292-9q.352-4.462.509-6.712t.352-5.147a14.989,14.989,0,0,1-7.417-5.44,14.292,14.292,0,0,1-2.838-8.65,14.489,14.489,0,0,1,3.8-9.941,14.623,14.623,0,0,1,9.354-4.971q.431-3.679,1.1-8.865a59.968,59.968,0,0,1,2.114-9.922,20.44,20.44,0,0,1,4.207-7.808A9.113,9.113,0,0,1,39.183,0a10.573,10.573,0,0,1,4.207.9,8.312,8.312,0,0,1,3.386,2.583,6.19,6.19,0,0,1,1.292,3.875A3.408,3.408,0,0,1,44.624,10.8a3.458,3.458,0,0,1-2.485-1A3.263,3.263,0,0,1,41.1,7.358a3.414,3.414,0,0,1,.861-2.368,3.543,3.543,0,0,1,2.192-1.155,7.333,7.333,0,0,0-4.971-1.761q-3.953,0-5.793,6.5a84.144,84.144,0,0,0-1.331,9.941q-.235,3.014-.352,4.442t-.274,3.777q-.157,2.348-.274,3.64a14.467,14.467,0,0,1,7.4,5.46,14.65,14.65,0,0,1,2.857,8.748,14.381,14.381,0,0,1-3.777,9.746,14.844,14.844,0,0,1-9.374,5.088q-.352,2.779-1.155,8.689a57.425,57.425,0,0,1-2.29,10.372,19.224,19.224,0,0,1-4.482,7.514,10.3,10.3,0,0,1-7.691,3.053,10.574,10.574,0,0,1-4.207-.9,8.384,8.384,0,0,1-3.386-2.563,6.052,6.052,0,0,1-1.292-3.816,3.476,3.476,0,0,1,3.523-3.523,3.5,3.5,0,0,1,1.742.45,3.25,3.25,0,0,1,1.252,1.233,3.628,3.628,0,0,1,.45,1.84,3.552,3.552,0,0,1-.391,1.6,3.316,3.316,0,0,1-1.057,1.252,3.487,3.487,0,0,1-1.6.588M28.694,56.047a11.5,11.5,0,0,0,4.814-2.172,11.965,11.965,0,0,0,3.444-4.09A11.187,11.187,0,0,0,38.2,44.58a12.052,12.052,0,0,0-7.28-10.92q-.352,4.853-.978,11-.352,3.6-.646,6.184t-.607,5.206m-6.654-.665q.313-4.305.939-10.881.391-3.8.783-7.084t.509-4.384a11.869,11.869,0,0,0-9.55,11.546,11.133,11.133,0,0,0,2.016,6.4A12.293,12.293,0,0,0,22.04,55.382Z" transform="translate(-3.762)"/>
        </g>
      </g>
    </g>
  </g>
</svg>
