<svg xmlns="http://www.w3.org/2000/svg" width="120" height="120" viewBox="0 0 120 120">
  <g id="_55iiint" data-name="55iiint" transform="translate(12.259 27.82)">
    <path id="Path_71" data-name="Path 71" d="M0,0H120V120H0Z" transform="translate(-12.259 -27.82)" fill="none"/>
    <g id="Group_89" data-name="Group 89" transform="translate(-155.259 -84.32)">
      <g id="Group_88" data-name="Group 88" transform="translate(158.762 72)">
        <g id="Group_85" data-name="Group 85" transform="translate(0)">
          <path id="Path_66" data-name="Path 66" d="M5.758,86.988a3.326,3.326,0,0,0,2.446,1q1.448,0,2.641-1.986a22.1,22.1,0,0,0,2.093-4.96q.9-2.974,1.321-4.979t1.047-5.175q.567-2.954,1.1-5.928t1.086-6.329q.558-3.355,1.174-6.809t1.4-7.347q1.057-5.126,1.516-7.327t1.4-6.359q.939-4.158,1.242-5.478t1.732-7.229l.528-2.093q.9-3.522,1.389-5.332a43.514,43.514,0,0,1,1.516-4.422A18.114,18.114,0,0,1,31.8,1.81,3.892,3.892,0,0,1,34.851,0a4.628,4.628,0,0,1,2.182.528,4.433,4.433,0,0,1,1.634,1.448,3.665,3.665,0,0,1,.626,2.113,1.94,1.94,0,0,1-2,2,2.027,2.027,0,0,1-1.467-.567,1.9,1.9,0,0,1-.587-1.428A2.006,2.006,0,0,1,37.3,2.035a3.365,3.365,0,0,0-2.407-1q-.743,0-1.634,2.172a39.255,39.255,0,0,0-1.643,5.116q-.753,2.945-1.154,4.911t-.968,4.921q-.665,3.346-1.105,5.83t-1.066,6.144Q26.693,33.789,26.1,37.1T24.678,44.55q-.528,2.622-1.526,7.366T21.831,58.09q-.323,1.428-1.644,6.985t-1.4,5.889L18.3,72.8q-1.037,4.246-2.084,7.464a21.315,21.315,0,0,1-3.072,6A5.964,5.964,0,0,1,8.2,89.042a4.576,4.576,0,0,1-3.091-1.174,3.67,3.67,0,0,1-1.35-2.876,1.991,1.991,0,0,1,.587-1.467A1.967,1.967,0,0,1,5.8,82.937a1.977,1.977,0,0,1,1.751,1.017,2.079,2.079,0,0,1,.264,1.037,1.9,1.9,0,0,1-.587,1.428A2.027,2.027,0,0,1,5.758,86.988Z" transform="translate(-3.762)"/>
        </g>
        <g id="Group_86" data-name="Group 86" transform="translate(26.713)">
          <path id="Path_67" data-name="Path 67" d="M5.758,86.988a3.326,3.326,0,0,0,2.446,1q1.448,0,2.641-1.986a22.1,22.1,0,0,0,2.093-4.96q.9-2.974,1.321-4.979t1.047-5.175q.567-2.954,1.1-5.928t1.086-6.329q.558-3.355,1.174-6.809t1.4-7.347q1.057-5.126,1.516-7.327t1.4-6.359q.939-4.158,1.242-5.478t1.732-7.229l.528-2.093q.9-3.522,1.389-5.332a43.514,43.514,0,0,1,1.516-4.422A18.114,18.114,0,0,1,31.8,1.81,3.892,3.892,0,0,1,34.851,0a4.628,4.628,0,0,1,2.182.528,4.433,4.433,0,0,1,1.634,1.448,3.665,3.665,0,0,1,.626,2.113,1.94,1.94,0,0,1-2,2,2.027,2.027,0,0,1-1.467-.567,1.9,1.9,0,0,1-.587-1.428A2.006,2.006,0,0,1,37.3,2.035a3.365,3.365,0,0,0-2.407-1q-.743,0-1.634,2.172a39.255,39.255,0,0,0-1.643,5.116q-.753,2.945-1.154,4.911t-.968,4.921q-.665,3.346-1.105,5.83t-1.066,6.144Q26.693,33.789,26.1,37.1T24.678,44.55q-.528,2.622-1.526,7.366T21.831,58.09q-.323,1.428-1.644,6.985t-1.4,5.889L18.3,72.8q-1.037,4.246-2.084,7.464a21.315,21.315,0,0,1-3.072,6A5.964,5.964,0,0,1,8.2,89.042a4.576,4.576,0,0,1-3.091-1.174,3.67,3.67,0,0,1-1.35-2.876,1.991,1.991,0,0,1,.587-1.467A1.967,1.967,0,0,1,5.8,82.937a1.977,1.977,0,0,1,1.751,1.017,2.079,2.079,0,0,1,.264,1.037,1.9,1.9,0,0,1-.587,1.428A2.027,2.027,0,0,1,5.758,86.988Z" transform="translate(-3.762)"/>
        </g>
        <g id="Group_87" data-name="Group 87" transform="translate(53.427)">
          <path id="Path_68" data-name="Path 68" d="M5.758,86.988a3.326,3.326,0,0,0,2.446,1q1.448,0,2.641-1.986a22.1,22.1,0,0,0,2.093-4.96q.9-2.974,1.321-4.979t1.047-5.175q.567-2.954,1.1-5.928t1.086-6.329q.558-3.355,1.174-6.809t1.4-7.347q1.057-5.126,1.516-7.327t1.4-6.359q.939-4.158,1.242-5.478t1.732-7.229l.528-2.093q.9-3.522,1.389-5.332a43.514,43.514,0,0,1,1.516-4.422A18.114,18.114,0,0,1,31.8,1.81,3.892,3.892,0,0,1,34.851,0a4.628,4.628,0,0,1,2.182.528,4.433,4.433,0,0,1,1.634,1.448,3.665,3.665,0,0,1,.626,2.113,1.94,1.94,0,0,1-2,2,2.027,2.027,0,0,1-1.467-.567,1.9,1.9,0,0,1-.587-1.428A2.006,2.006,0,0,1,37.3,2.035a3.365,3.365,0,0,0-2.407-1q-.743,0-1.634,2.172a39.255,39.255,0,0,0-1.643,5.116q-.753,2.945-1.154,4.911t-.968,4.921q-.665,3.346-1.105,5.83t-1.066,6.144Q26.693,33.789,26.1,37.1T24.678,44.55q-.528,2.622-1.526,7.366T21.831,58.09q-.323,1.428-1.644,6.985t-1.4,5.889L18.3,72.8q-1.037,4.246-2.084,7.464a21.315,21.315,0,0,1-3.072,6A5.964,5.964,0,0,1,8.2,89.042a4.576,4.576,0,0,1-3.091-1.174,3.67,3.67,0,0,1-1.35-2.876,1.991,1.991,0,0,1,.587-1.467A1.967,1.967,0,0,1,5.8,82.937a1.977,1.977,0,0,1,1.751,1.017,2.079,2.079,0,0,1,.264,1.037,1.9,1.9,0,0,1-.587,1.428A2.027,2.027,0,0,1,5.758,86.988Z" transform="translate(-3.762)"/>
        </g>
      </g>
    </g>
  </g>
</svg>
