<svg xmlns="http://www.w3.org/2000/svg" width="120" height="120" viewBox="0 0 120 120">
  <g id="_61sin" data-name="61sin" transform="translate(-10.482 6.64)">
    <path id="Path_71" data-name="Path 71" d="M0,0H120V120H0Z" transform="translate(10.482 -6.64)" fill="none"/>
    <g id="Group_230" data-name="Group 230" transform="translate(-4.518 -28.173)">
      <g id="Group_226" data-name="Group 226" transform="translate(51.211 72.71)">
        <path id="Path_557" data-name="Path 557" d="M9.161-19.928h0a16.718,16.718,0,0,1-4.488-1.311,3.475,3.475,0,0,1-.755-.516,4.212,4.212,0,0,1-1.708-3.376,4.252,4.252,0,0,1,2.462-4.051,8.146,8.146,0,0,1,3.892-.834A6.121,6.121,0,0,1,12.3-28.9a5.439,5.439,0,0,0,.675-.635,1.452,1.452,0,0,1,.794-.477,1.348,1.348,0,0,1,.437.953v4.011q0,.834-.238.913h-.04l-.04.04h-.2q-.437,0-.477-.357-.278-4.011-3.3-4.686a7.322,7.322,0,0,0-1.35-.119q-3.733,0-4.369,2.3a3.286,3.286,0,0,0-.079.715q0,2.025,3.058,2.859.6.159,1.827.4a9.6,9.6,0,0,1,4.091,1.549,2.857,2.857,0,0,1,.437.357A5.206,5.206,0,0,1,15.2-17.307a4.9,4.9,0,0,1-2.78,4.766,8,8,0,0,1-3.614.755,6.086,6.086,0,0,1-4.369-1.708l-.794.913q-.794.794-.993.794a1.348,1.348,0,0,1-.437-.953v-5.242q0-.874.278-.953h0l.04-.04h.2a.509.509,0,0,1,.516.437,1.086,1.086,0,0,0,.04.238q1.033,4.607,3.932,5.441a5.93,5.93,0,0,0,1.589.2q3.574,0,4.329-2.5a3.763,3.763,0,0,0,.159-1.112Q13.292-19.174,9.161-19.928Z" transform="translate(-2.211 30.016)"/>
      </g>
      <g id="Group_227" data-name="Group 227" transform="translate(66.859 63.933)">
        <path id="Path_558" data-name="Path 558" d="M7.93-35.808h0v14.575q0,1.231.477,1.509h0a6.609,6.609,0,0,0,2.3.238v1.231q-4.051-.119-4.13-.119-.556,0-4.369.119v-1.231a5.664,5.664,0,0,0,2.74-.357l.079-.079a2.215,2.215,0,0,0,.278-1.35V-31.955q0-1.589-.635-1.906h-.04l-.04-.04h0A6.465,6.465,0,0,0,2.37-34.14v-1.231l5.56-.437m.159-6.91a1.881,1.881,0,0,1-1.311,1.946,2.125,2.125,0,0,1-.794.159,1.967,1.967,0,0,1-1.946-1.271v-.04a2.125,2.125,0,0,1-.159-.794,1.946,1.946,0,0,1,1.112-1.827,1.81,1.81,0,0,1,.993-.278A1.944,1.944,0,0,1,7.89-43.632,2.183,2.183,0,0,1,8.089-42.718Z" transform="translate(-2.211 44.823)"/>
      </g>
      <g id="Group_228" data-name="Group 228" transform="translate(77.86 72.948)">
        <path id="Path_559" data-name="Path 559" d="M5.242-25.722q0-1.549-.6-1.906a3.939,3.939,0,0,0-1.708-.318H2.144v-1.231l5.6-.437v4.17q1.867-4.17,5.878-4.17,2.979,0,4.17,1.469a5.448,5.448,0,0,1,1.191,3.376q.04.755.04,2.7v7.586q.04.953,1.152,1.112a14.822,14.822,0,0,0,1.946.079v1.231q-4.051-.119-4.448-.119-.318,0-4.488.119v-1.231a5.664,5.664,0,0,0,2.74-.357L16-13.728a2.215,2.215,0,0,0,.278-1.35v-9.254q0-3.932-2.264-4.329a2.776,2.776,0,0,0-.675-.079,4.94,4.94,0,0,0-4.051,2.1,6.774,6.774,0,0,0-1.311,4.25v7.308q0,1.35.635,1.589a8.477,8.477,0,0,0,2.462.2v1.231q-4.051-.119-4.448-.119-.318,0-4.488.119v-1.231a5.664,5.664,0,0,0,2.74-.357l.079-.079a2.215,2.215,0,0,0,.278-1.35Z" transform="translate(-2.144 29.614)"/>
      </g>
    </g>
  </g>
</svg>
