<svg xmlns="http://www.w3.org/2000/svg" width="140" height="140" viewBox="0 0 140 140">
  <g id="_61sin" data-name="61sin" transform="translate(9.259 27.82)">
    <path id="Path_71" data-name="Path 71" d="M0,0H140V140H0Z" transform="translate(-9.259 -27.82)" fill="none"/>
    <g id="Group_230" data-name="Group 230" transform="translate(-30 -51.141)">
      <g id="Group_226" data-name="Group 226" transform="translate(51.206 78.776)">
        <path id="Path_557" data-name="Path 557" d="M13.973-12.945h0A28.285,28.285,0,0,1,6.38-15.163,5.879,5.879,0,0,1,5.1-16.036a7.126,7.126,0,0,1-2.89-5.712A7.194,7.194,0,0,1,6.378-28.6a13.782,13.782,0,0,1,6.585-1.411,10.356,10.356,0,0,1,6.321,1.888A9.2,9.2,0,0,0,20.426-29.2a2.457,2.457,0,0,1,1.343-.807,2.281,2.281,0,0,1,.739,1.612v6.786q0,1.411-.4,1.545h-.068l-.068.068h-.338q-.739,0-.807-.6-.47-6.786-5.583-7.928a12.388,12.388,0,0,0-2.284-.2q-6.316,0-7.392,3.891a5.56,5.56,0,0,0-.134,1.21q0,3.426,5.174,4.837,1.015.269,3.091.677a16.242,16.242,0,0,1,6.921,2.621,4.834,4.834,0,0,1,.739.6A8.808,8.808,0,0,1,24.19-8.51a8.29,8.29,0,0,1-4.7,8.063A13.535,13.535,0,0,1,13.373.83a10.3,10.3,0,0,1-7.392-2.89L4.637-.515Q3.294.829,2.957.829A2.281,2.281,0,0,1,2.218-.784V-9.652q0-1.479.47-1.612h0l.068-.068h.338a.861.861,0,0,1,.873.739,1.837,1.837,0,0,0,.068.4Q5.783-2.4,10.688-.985a10.033,10.033,0,0,0,2.688.338q6.047,0,7.324-4.23a6.367,6.367,0,0,0,.269-1.881Q20.962-11.669,13.973-12.945Z" transform="translate(-2.206 30.021)"/>
      </g>
      <g id="Group_227" data-name="Group 227" transform="translate(77.684 63.93)">
        <path id="Path_558" data-name="Path 558" d="M11.889-29.568h0V-4.909q0,2.083.807,2.553h0a11.182,11.182,0,0,0,3.891.4V.129q-6.854-.2-6.987-.2-.941,0-7.392.2V-1.954a9.583,9.583,0,0,0,4.636-.6l.134-.134a3.747,3.747,0,0,0,.47-2.284V-23.05q0-2.688-1.074-3.225H6.306l-.068-.068h0a10.938,10.938,0,0,0-3.756-.4v-2.083l9.407-.739m.269-11.691A3.182,3.182,0,0,1,9.94-37.967,3.6,3.6,0,0,1,8.6-37.7,3.328,3.328,0,0,1,5.3-39.848v-.068a3.6,3.6,0,0,1-.269-1.343A3.292,3.292,0,0,1,6.916-44.35a3.062,3.062,0,0,1,1.68-.47,3.289,3.289,0,0,1,3.225,2.015,3.693,3.693,0,0,1,.337,1.546Z" transform="translate(-2.208 44.826)"/>
      </g>
      <g id="Group_228" data-name="Group 228" transform="translate(96.291 79.188)">
        <path id="Path_559" data-name="Path 559" d="M7.39-23.029q0-2.621-1.015-3.225a6.664,6.664,0,0,0-2.89-.538H2.148v-2.083l9.474-.739v7.055q3.159-7.055,9.945-7.055,5.04,0,7.055,2.485a9.217,9.217,0,0,1,2.015,5.712q.068,1.277.068,4.568V-4.014q.068,1.612,1.949,1.881A25.078,25.078,0,0,0,35.947-2V.083q-6.854-.2-7.525-.2-.538,0-7.593.2V-2a9.583,9.583,0,0,0,4.636-.6l.127-.134a3.748,3.748,0,0,0,.47-2.284V-20.678q0-6.652-3.83-7.324a4.7,4.7,0,0,0-1.142-.134,8.358,8.358,0,0,0-6.854,3.553,11.461,11.461,0,0,0-2.218,7.19V-5.028q0,2.284,1.074,2.688A14.342,14.342,0,0,0,17.257-2V.082Q10.4-.12,9.731-.12q-.538,0-7.593.2V-2a9.583,9.583,0,0,0,4.636-.6l.134-.134a3.747,3.747,0,0,0,.47-2.284Z" transform="translate(-2.138 29.614)"/>
      </g>
    </g>
  </g>
</svg>
