<svg xmlns="http://www.w3.org/2000/svg" width="120" height="120" viewBox="0 0 120 120">
  <g id="_62cos" data-name="62cos" transform="translate(-10.482 6.64)">
    <path id="Path_71" data-name="Path 71" d="M0,0H120V120H0Z" transform="translate(10.482 -6.64)" fill="none"/>
    <g id="Group_218" data-name="Group 218" transform="translate(-4.518 -25.715)">
      <g id="Group_214" data-name="Group 214" transform="translate(51.278 70.861)">
        <path id="Path_547" data-name="Path 547" d="M14.193-27.743A5.236,5.236,0,0,0,10.27-29.1a4.221,4.221,0,0,0-3.7,2.2,9.891,9.891,0,0,0-1.246,5.316q0,5.279,3.153,6.929a4.108,4.108,0,0,0,2.016.55q3.593,0,4.8-3.849a.46.46,0,0,1,.477-.367q.477,0,.477.367a4.247,4.247,0,0,1-.807,1.98,5.885,5.885,0,0,1-5.279,2.786A7.469,7.469,0,0,1,4.331-15.9a8.32,8.32,0,0,1-2.053-5.609,8.434,8.434,0,0,1,2.6-6.306,7.364,7.364,0,0,1,5.352-2.2,6.22,6.22,0,0,1,4.656,1.65,3.184,3.184,0,0,1,.953,2.273,1.527,1.527,0,0,1-1.21,1.686,2.9,2.9,0,0,1-.477.037,1.506,1.506,0,0,1-1.613-1.173,1.625,1.625,0,0,1-.073-.513,1.5,1.5,0,0,1,1.283-1.613A1.384,1.384,0,0,1,14.193-27.743Z" transform="translate(-2.278 30.016)"/>
      </g>
      <g id="Group_215" data-name="Group 215" transform="translate(67.335 70.861)">
        <path id="Path_548" data-name="Path 548" d="M18.117-21.437h0a7.945,7.945,0,0,1-2.786,6.232,7.893,7.893,0,0,1-5.352,2.016,7.745,7.745,0,0,1-5.939-2.64,8.074,8.074,0,0,1-2.163-5.609,8.4,8.4,0,0,1,2.676-6.306,7.527,7.527,0,0,1,5.462-2.273,7.567,7.567,0,0,1,5.976,2.823,8.518,8.518,0,0,1,2.126,5.756m-8.1,7.332h0A4.5,4.5,0,0,0,13.9-16.158l.367-.66a11.456,11.456,0,0,0,.807-4.912,10.264,10.264,0,0,0-.953-5.1,5.115,5.115,0,0,0-4.143-2.383,4.583,4.583,0,0,0-3.739,1.833,3.6,3.6,0,0,0-.44.623,10.925,10.925,0,0,0-.88,5.022,10.953,10.953,0,0,0,.917,5.169A4.927,4.927,0,0,0,10.015-14.105Z" transform="translate(-1.876 30.016)"/>
      </g>
      <g id="Group_216" data-name="Group 216" transform="translate(85.849 70.861)">
        <path id="Path_549" data-name="Path 549" d="M8.627-20.7h0a15.432,15.432,0,0,1-4.143-1.21,3.208,3.208,0,0,1-.7-.477,3.888,3.888,0,0,1-1.576-3.116,3.925,3.925,0,0,1,2.273-3.739,7.519,7.519,0,0,1,3.593-.77,5.65,5.65,0,0,1,3.446,1.026,5.021,5.021,0,0,0,.623-.587,1.34,1.34,0,0,1,.733-.44,1.244,1.244,0,0,1,.4.88v3.7q0,.77-.22.843h-.037l-.037.037h-.183q-.4,0-.44-.33-.257-3.7-3.043-4.326a6.759,6.759,0,0,0-1.246-.11q-3.446,0-4.033,2.126a3.034,3.034,0,0,0-.073.66q0,1.87,2.823,2.64.55.147,1.686.367a8.864,8.864,0,0,1,3.776,1.43,2.638,2.638,0,0,1,.4.33,4.806,4.806,0,0,1,1.54,3.483,4.52,4.52,0,0,1-2.566,4.4,7.387,7.387,0,0,1-3.336.7,5.618,5.618,0,0,1-4.033-1.576l-.733.843q-.733.733-.917.733a1.244,1.244,0,0,1-.4-.88v-4.839q0-.807.257-.88h0l.037-.037h.183a.47.47,0,0,1,.477.4,1,1,0,0,0,.037.22q.953,4.253,3.629,5.022A5.474,5.474,0,0,0,8.3-14q3.3,0,4-2.31a3.474,3.474,0,0,0,.147-1.026Q12.439-20.008,8.627-20.7Z" transform="translate(-2.211 30.016)"/>
      </g>
    </g>
  </g>
</svg>
