<svg xmlns="http://www.w3.org/2000/svg" width="140" height="140" viewBox="0 0 140 140">
  <g id="_62cos" data-name="62cos" transform="translate(9.259 27.82)">
    <path id="Path_71" data-name="Path 71" d="M0,0H140V140H0Z" transform="translate(-9.259 -27.82)" fill="none"/>
    <g id="Group_218" data-name="Group 218" transform="translate(-33 -43.259)">
      <g id="Group_214" data-name="Group 214" transform="translate(51.275 70.848)">
        <path id="Path_547" data-name="Path 547" d="M24.226-25.818A9.644,9.644,0,0,0,17-28.318a7.774,7.774,0,0,0-6.815,4.052A18.217,18.217,0,0,0,7.89-14.475q0,9.723,5.807,12.762A7.566,7.566,0,0,0,17.411-.7q6.618,0,8.841-7.089a.847.847,0,0,1,.879-.676q.879,0,.879.676a7.822,7.822,0,0,1-1.486,3.647A10.839,10.839,0,0,1,16.8.989a13.757,13.757,0,0,1-10.738-5A15.324,15.324,0,0,1,2.28-14.336,15.534,15.534,0,0,1,7.069-25.951,13.563,13.563,0,0,1,16.926-30,11.456,11.456,0,0,1,25.5-26.964a5.864,5.864,0,0,1,1.755,4.186,2.812,2.812,0,0,1-2.229,3.105,5.341,5.341,0,0,1-.879.068,2.774,2.774,0,0,1-2.971-2.16,2.993,2.993,0,0,1-.134-.945,2.763,2.763,0,0,1,2.363-2.971,2.549,2.549,0,0,1,.818-.138Z" transform="translate(-2.275 30.029)"/>
      </g>
      <g id="Group_215" data-name="Group 215" transform="translate(80.854 70.87)">
        <path id="Path_548" data-name="Path 548" d="M31.789-14.214h0A14.633,14.633,0,0,1,26.658-2.736,14.538,14.538,0,0,1,16.8.978,14.265,14.265,0,0,1,5.862-3.885,14.871,14.871,0,0,1,1.878-14.216,15.471,15.471,0,0,1,6.807-25.83a13.863,13.863,0,0,1,10.06-4.186,13.937,13.937,0,0,1,11.007,5.2,15.689,15.689,0,0,1,3.916,10.6M16.871-.711h0a8.288,8.288,0,0,0,7.152-3.779L24.7-5.706a21.1,21.1,0,0,0,1.486-9.047,18.9,18.9,0,0,0-1.755-9.393A9.421,9.421,0,0,0,16.8-28.536,8.441,8.441,0,0,0,9.912-25.16a6.631,6.631,0,0,0-.81,1.147,20.122,20.122,0,0,0-1.621,9.25A20.173,20.173,0,0,0,9.17-5.242a9.075,9.075,0,0,0,7.7,4.533Z" transform="translate(-1.876 30.017)"/>
      </g>
      <g id="Group_216" data-name="Group 216" transform="translate(114.941 70.871)">
        <path id="Path_549" data-name="Path 549" d="M14.034-12.857h0A28.423,28.423,0,0,1,6.4-15.085a5.909,5.909,0,0,1-1.289-.879,7.161,7.161,0,0,1-2.9-5.739A7.229,7.229,0,0,1,6.4-28.59a13.849,13.849,0,0,1,6.618-1.418,10.406,10.406,0,0,1,6.347,1.89A9.248,9.248,0,0,0,20.51-29.2a2.468,2.468,0,0,1,1.35-.81,2.291,2.291,0,0,1,.737,1.621v6.815q0,1.418-.405,1.553h-.068l-.068.068h-.337q-.737,0-.81-.608-.473-6.815-5.6-7.968a12.449,12.449,0,0,0-2.295-.2q-6.347,0-7.428,3.916A5.588,5.588,0,0,0,5.446-23.6q0,3.444,5.2,4.862,1.013.271,3.105.676a16.326,16.326,0,0,1,6.955,2.634,4.858,4.858,0,0,1,.737.608,8.852,8.852,0,0,1,2.836,6.415A8.325,8.325,0,0,1,19.552-.3,13.606,13.606,0,0,1,13.408.988a10.347,10.347,0,0,1-7.428-2.9L4.63-.362Q3.28.988,2.941.988A2.291,2.291,0,0,1,2.2-.633V-9.545q0-1.486.473-1.621h0l.068-.068h.337a.866.866,0,0,1,.879.737,1.842,1.842,0,0,0,.068.405q1.755,7.833,6.684,9.25a10.082,10.082,0,0,0,2.719.326q6.078,0,7.367-4.255a6.4,6.4,0,0,0,.271-1.89Q21.055-11.582,14.034-12.857Z" transform="translate(-2.204 30.017)"/>
      </g>
    </g>
  </g>
</svg>
