<svg xmlns="http://www.w3.org/2000/svg" width="140" height="140" viewBox="0 0 140 140">
  <g id="_63tan" data-name="63tan" transform="translate(9.259 27.82)">
    <path id="Path_71" data-name="Path 71" d="M0,0H140V140H0Z" transform="translate(-9.259 -27.82)" fill="none"/>
    <g id="Group_236" data-name="Group 236" transform="translate(-38 -49.465)">
      <g id="Group_232" data-name="Group 232" transform="translate(50.273 66.005)">
        <path id="Path_562" data-name="Path 562" d="M11.8-26.518h0v19q0,6.832,3.963,7.312a2.541,2.541,0,0,0,.615.069q2.938,0,4.1-3.827a13.724,13.724,0,0,0,.478-3.827v-3.758H22.66v3.9q0,5.6-3.143,8.063A5.746,5.746,0,0,1,15.9,1.568q-5.739,0-7.858-4.3a11.566,11.566,0,0,1-.957-4.92V-26.518H1.273v-1.509q6.08-.267,8.063-7.642a23.873,23.873,0,0,0,.751-5.532H11.8v12.572h9.771v2.119Z" transform="translate(-1.273 41.2)"/>
      </g>
      <g id="Group_233" data-name="Group 233" transform="translate(78.431 77.402)">
        <path id="Path_563" data-name="Path 563" d="M22.7-4.594A9.008,9.008,0,0,1,16.684.938a10.18,10.18,0,0,1-2.938.411A13.014,13.014,0,0,1,4.8-1.451,5.718,5.718,0,0,1,2.818-5.893q0-5.262,5.808-8.4a7.054,7.054,0,0,1,1.024-.478,34.318,34.318,0,0,1,12.237-2.461h.335v-2.526q0-5.808-4.169-7.994a6.537,6.537,0,0,0-3.074-.751,9.013,9.013,0,0,0-6.97,2.665,4.46,4.46,0,0,1-.411.478q3.207.406,3.482,3.14a2.861,2.861,0,0,1-2.119,3.007,3.717,3.717,0,0,1-1.024.137,2.761,2.761,0,0,1-3.007-2.255,2.662,2.662,0,0,1-.131-.959,6.827,6.827,0,0,1,4.3-6.286,12.48,12.48,0,0,1,6.013-1.435,12.706,12.706,0,0,1,9.362,3.758,9.618,9.618,0,0,1,2.447,6.829v14.9a3.49,3.49,0,0,0,1.23,2.938,1.906,1.906,0,0,0,1.3.478q2.392,0,2.461-4.373V-9.314h1.715v3.827q0,4.989-4.1,6.219A4.789,4.789,0,0,1,28.023,1a4.937,4.937,0,0,1-4.784-3.55,7.555,7.555,0,0,1-.546-2.05M22.214-15.8q-10.52.411-13.392,6.432a8.11,8.11,0,0,0-.751,3.416A5.414,5.414,0,0,0,11.215-.829a6.628,6.628,0,0,0,3.007.684,7.506,7.506,0,0,0,5.946-2.8,8.753,8.753,0,0,0,2.05-6.013Z" transform="translate(-2.817 30.019)"/>
      </g>
      <g id="Group_234" data-name="Group 234" transform="translate(111.909 77.821)">
        <path id="Path_564" data-name="Path 564" d="M7.474-22.919q0-2.665-1.024-3.28a6.777,6.777,0,0,0-2.94-.543H2.144v-2.119l9.635-.751v7.174q3.212-7.174,10.113-7.174,5.124,0,7.174,2.528a9.374,9.374,0,0,1,2.05,5.808q.069,1.3.069,4.647V-3.578q.069,1.639,1.981,1.913a25.5,25.5,0,0,0,3.353.137V.581q-6.97-.2-7.654-.2-.546,0-7.721.2V-1.531q4.031,0,4.715-.615L26-2.284a3.812,3.812,0,0,0,.478-2.323V-20.532q0-6.765-3.9-7.448a4.776,4.776,0,0,0-1.162-.137,8.5,8.5,0,0,0-6.97,3.622,11.655,11.655,0,0,0-2.255,7.312V-4.611q0,2.323,1.093,2.734a14.583,14.583,0,0,0,4.236.335V.581q-6.97-.2-7.654-.2-.546,0-7.721.2V-1.531q4.031,0,4.715-.615L7-2.284a3.812,3.812,0,0,0,.478-2.323Z" transform="translate(-2.144 29.612)"/>
      </g>
    </g>
  </g>
</svg>
