<svg xmlns="http://www.w3.org/2000/svg" width="120" height="120" viewBox="0 0 120 120">
  <g id="_63tan" data-name="63tan" transform="translate(-10.482 6.64)">
    <path id="Path_71" data-name="Path 71" d="M0,0H120V120H0Z" transform="translate(10.482 -6.64)" fill="none"/>
    <g id="Group_236" data-name="Group 236" transform="translate(-8.518 -25.841)">
      <g id="Group_232" data-name="Group 232" transform="translate(50.273 66)">
        <path id="Path_562" data-name="Path 562" d="M7.551-32.441h0v11.333q0,4.076,2.364,4.362a1.516,1.516,0,0,0,.367.041q1.753,0,2.446-2.283a8.187,8.187,0,0,0,.285-2.283v-2.242h1.019v2.324q0,3.343-1.875,4.81A3.428,3.428,0,0,1,10-15.686q-3.424,0-4.688-2.568a6.9,6.9,0,0,1-.571-2.935V-32.441H1.273v-.9Q4.9-33.5,6.083-37.9a14.242,14.242,0,0,0,.448-3.3H7.551v7.5H13.38v1.264Z" transform="translate(-1.273 41.205)"/>
      </g>
      <g id="Group_233" data-name="Group 233" transform="translate(67.068 72.807)">
        <path id="Path_563" data-name="Path 563" d="M14.677-14.851a5.374,5.374,0,0,1-3.587,3.3,6.073,6.073,0,0,1-1.753.245A7.764,7.764,0,0,1,4-12.976a3.411,3.411,0,0,1-1.182-2.65q0-3.139,3.465-5.014a4.208,4.208,0,0,1,.611-.285,20.473,20.473,0,0,1,7.3-1.468h.2V-23.9q0-3.465-2.487-4.769a3.9,3.9,0,0,0-1.834-.448,5.377,5.377,0,0,0-4.158,1.59,2.661,2.661,0,0,1-.245.285Q7.583-27,7.747-25.369a1.707,1.707,0,0,1-1.264,1.794,2.217,2.217,0,0,1-.611.082,1.647,1.647,0,0,1-1.794-1.345A1.588,1.588,0,0,1,4-25.41a4.073,4.073,0,0,1,2.568-3.75,7.445,7.445,0,0,1,3.587-.856,7.58,7.58,0,0,1,5.585,2.242A5.738,5.738,0,0,1,17.2-23.7v8.887a2.082,2.082,0,0,0,.734,1.753,1.137,1.137,0,0,0,.775.285q1.427,0,1.468-2.609v-2.283H21.2v2.283q0,2.976-2.446,3.71a2.857,2.857,0,0,1-.9.163A2.945,2.945,0,0,1,15-13.629a4.507,4.507,0,0,1-.326-1.223m-.285-6.685Q8.113-21.292,6.4-17.7a4.838,4.838,0,0,0-.448,2.038,3.23,3.23,0,0,0,1.875,3.057,3.954,3.954,0,0,0,1.794.408,4.478,4.478,0,0,0,3.547-1.671,5.222,5.222,0,0,0,1.223-3.587Z" transform="translate(-2.814 30.016)"/>
      </g>
      <g id="Group_234" data-name="Group 234" transform="translate(87.043 73.052)">
        <path id="Path_564" data-name="Path 564" d="M5.324-25.619q0-1.59-.611-1.957A4.043,4.043,0,0,0,2.959-27.9H2.144v-1.264l5.748-.448v4.28q1.916-4.28,6.033-4.28,3.057,0,4.28,1.508a5.592,5.592,0,0,1,1.223,3.465q.041.775.041,2.772v7.786q.041.978,1.182,1.141a15.214,15.214,0,0,0,2,.082V-11.6q-4.158-.122-4.566-.122-.326,0-4.606.122V-12.86q2.405,0,2.813-.367l.082-.082a2.274,2.274,0,0,0,.285-1.386v-9.5q0-4.036-2.324-4.443a2.849,2.849,0,0,0-.693-.082,5.071,5.071,0,0,0-4.158,2.161,6.953,6.953,0,0,0-1.345,4.362v7.5q0,1.386.652,1.631a8.7,8.7,0,0,0,2.527.2V-11.6q-4.158-.122-4.566-.122-.326,0-4.606.122V-12.86q2.405,0,2.813-.367l.082-.082a2.274,2.274,0,0,0,.285-1.386Z" transform="translate(-2.144 29.614)"/>
      </g>
    </g>
  </g>
</svg>
