<svg xmlns="http://www.w3.org/2000/svg" width="120" height="120" viewBox="0 0 120 120">
  <g id="_64cot" data-name="64cot" transform="translate(-10.482 6.64)">
    <path id="Path_71" data-name="Path 71" d="M0,0H120V120H0Z" transform="translate(10.482 -6.64)" fill="none"/>
    <g id="Group_224" data-name="Group 224" transform="translate(-4.518 -27.165)">
      <g id="Group_220" data-name="Group 220" transform="translate(51.278 72.26)">
        <path id="Path_552" data-name="Path 552" d="M14.461-27.692a5.354,5.354,0,0,0-4.011-1.387A4.316,4.316,0,0,0,6.664-26.83a10.114,10.114,0,0,0-1.275,5.436q0,5.4,3.224,7.085a4.2,4.2,0,0,0,2.062.562q3.674,0,4.911-3.936a.471.471,0,0,1,.487-.375q.487,0,.487.375a4.343,4.343,0,0,1-.825,2.024,6.018,6.018,0,0,1-5.4,2.849,7.638,7.638,0,0,1-5.96-2.774,8.508,8.508,0,0,1-2.1-5.735A8.624,8.624,0,0,1,4.94-27.767a7.53,7.53,0,0,1,5.473-2.249,6.361,6.361,0,0,1,4.761,1.687A3.255,3.255,0,0,1,16.148-26a1.562,1.562,0,0,1-1.237,1.724,2.969,2.969,0,0,1-.487.037,1.54,1.54,0,0,1-1.649-1.2,1.661,1.661,0,0,1-.075-.525,1.532,1.532,0,0,1,1.312-1.649A1.415,1.415,0,0,1,14.461-27.692Z" transform="translate(-2.278 30.016)"/>
      </g>
      <g id="Group_221" data-name="Group 221" transform="translate(67.697 72.26)">
        <path id="Path_553" data-name="Path 553" d="M18.483-21.244h0a8.124,8.124,0,0,1-2.849,6.373,8.07,8.07,0,0,1-5.473,2.062,7.919,7.919,0,0,1-6.073-2.7,8.256,8.256,0,0,1-2.212-5.735,8.584,8.584,0,0,1,2.737-6.448A7.7,7.7,0,0,1,10.2-30.016a7.738,7.738,0,0,1,6.11,2.886,8.71,8.71,0,0,1,2.174,5.885m-8.285,7.5h0a4.6,4.6,0,0,0,3.974-2.1l.375-.675a11.714,11.714,0,0,0,.825-5.023,10.5,10.5,0,0,0-.975-5.211,5.231,5.231,0,0,0-4.236-2.437,4.687,4.687,0,0,0-3.824,1.874,3.682,3.682,0,0,0-.45.637,11.171,11.171,0,0,0-.9,5.136,11.2,11.2,0,0,0,.937,5.286A5.038,5.038,0,0,0,10.2-13.747Z" transform="translate(-1.876 30.016)"/>
      </g>
      <g id="Group_222" data-name="Group 222" transform="translate(86.103 66)">
        <path id="Path_554" data-name="Path 554" d="M7.046-33.145h0v10.421q0,3.749,2.174,4.011a1.394,1.394,0,0,0,.337.037q1.612,0,2.249-2.1a7.528,7.528,0,0,0,.262-2.1v-2.062h.937V-22.8q0,3.074-1.724,4.423a3.152,3.152,0,0,1-1.987.637A4.358,4.358,0,0,1,4.984-20.1a6.341,6.341,0,0,1-.525-2.7V-33.145H1.273v-.825q3.336-.15,4.423-4.2a13.1,13.1,0,0,0,.412-3.036h.937v6.9h5.361v1.162Z" transform="translate(-1.273 41.205)"/>
      </g>
    </g>
  </g>
</svg>
