<svg xmlns="http://www.w3.org/2000/svg" width="140" height="140" viewBox="0 0 140 140">
  <g id="_64cot" data-name="64cot" transform="translate(9.259 27.82)">
    <path id="Path_71" data-name="Path 71" d="M0,0H140V140H0Z" transform="translate(-9.259 -27.82)" fill="none"/>
    <g id="Group_224" data-name="Group 224" transform="translate(-33 -49.459)">
      <g id="Group_220" data-name="Group 220" transform="translate(51.272 77.38)">
        <path id="Path_552" data-name="Path 552" d="M24.479-25.77A9.755,9.755,0,0,0,17.172-28.3a7.864,7.864,0,0,0-6.9,4.1,18.427,18.427,0,0,0-2.323,9.9q0,9.839,5.874,12.909A7.652,7.652,0,0,0,17.582-.363q6.694,0,8.948-7.171a.858.858,0,0,1,.887-.683q.887,0,.887.683a7.913,7.913,0,0,1-1.5,3.688,10.965,10.965,0,0,1-9.839,5.191A13.916,13.916,0,0,1,6.1-3.71,15.5,15.5,0,0,1,2.277-14.158,15.713,15.713,0,0,1,7.133-25.906,13.719,13.719,0,0,1,17.1-30a11.589,11.589,0,0,1,8.674,3.074,5.93,5.93,0,0,1,1.775,4.243A2.846,2.846,0,0,1,25.3-19.546a5.41,5.41,0,0,1-.887.067,2.806,2.806,0,0,1-3-2.186,3.026,3.026,0,0,1-.137-.957,2.791,2.791,0,0,1,2.39-3,2.578,2.578,0,0,1,.818-.144Z" transform="translate(-2.272 30.031)"/>
      </g>
      <g id="Group_221" data-name="Group 221" transform="translate(81.195 77.405)">
        <path id="Path_553" data-name="Path 553" d="M32.134-14.033h0A14.8,14.8,0,0,1,26.944-2.422a14.7,14.7,0,0,1-9.972,3.757A14.428,14.428,0,0,1,5.907-3.585a15.042,15.042,0,0,1-4.03-10.449A15.64,15.64,0,0,1,6.864-25.781a14.029,14.029,0,0,1,10.179-4.234,14.1,14.1,0,0,1,11.132,5.258,15.869,15.869,0,0,1,3.961,10.722M17.041-.371h0A8.381,8.381,0,0,0,24.282-4.2l.683-1.23a21.342,21.342,0,0,0,1.5-9.152,19.131,19.131,0,0,0-1.776-9.494,9.531,9.531,0,0,0-7.718-4.44A8.54,8.54,0,0,0,10.007-25.1a6.708,6.708,0,0,0-.82,1.161,20.353,20.353,0,0,0-1.64,9.358A20.406,20.406,0,0,0,9.254-4.949,9.179,9.179,0,0,0,17.043-.374Z" transform="translate(-1.874 30.016)"/>
      </g>
      <g id="Group_222" data-name="Group 222" transform="translate(114.732 65.999)">
        <path id="Path_554" data-name="Path 554" d="M11.791-26.519h0V-7.533q0,6.831,3.961,7.308a2.54,2.54,0,0,0,.614.067q2.937,0,4.1-3.826a13.716,13.716,0,0,0,.477-3.826v-3.757h1.707v3.9q0,5.6-3.141,8.059a5.743,5.743,0,0,1-3.62,1.161,7.94,7.94,0,0,1-7.853-4.3,11.553,11.553,0,0,1-.957-4.919V-26.519h-5.8v-1.5q6.078-.273,8.059-7.652a23.868,23.868,0,0,0,.751-5.531h1.707v12.572h9.768v2.117Z" transform="translate(-1.273 41.206)"/>
      </g>
    </g>
  </g>
</svg>
