<svg xmlns="http://www.w3.org/2000/svg" width="144.258" height="144.258" viewBox="0 0 144.258 144.258">
  <g id="_65arcsin" data-name="65arcsin" transform="translate(11.388 29.949)">
    <path id="Path_71" data-name="Path 71" d="M0,0H140V140H0Z" transform="translate(-9.259 -27.82)" fill="none"/>
    <g id="Group_1061" data-name="Group 1061" transform="translate(-56.273 -41.81)">
      <g id="Group_1013" data-name="Group 1013" transform="translate(51.814 75.593)">
        <path id="Path_713" data-name="Path 713" d="M18.168-10.389a6.956,6.956,0,0,1-4.643,4.274,7.86,7.86,0,0,1-2.269.317q-4.485,0-6.912-2.163a4.415,4.415,0,0,1-1.53-3.43q0-4.063,4.485-6.49a5.446,5.446,0,0,1,.791-.369q3.218-1.53,9.444-1.9H17.8V-22.1q0-4.485-3.218-6.173a5.042,5.042,0,0,0-2.374-.58A6.959,6.959,0,0,0,6.824-26.8a3.444,3.444,0,0,1-.317.369Q8.987-26.112,9.2-24A2.209,2.209,0,0,1,7.563-21.68a2.869,2.869,0,0,1-.791.106A2.131,2.131,0,0,1,4.45-23.315a2.055,2.055,0,0,1-.106-.739q0-3.166,3.324-4.854a9.636,9.636,0,0,1,4.643-1.108,9.811,9.811,0,0,1,7.228,2.9,7.426,7.426,0,0,1,1.9,5.276v11.5a2.7,2.7,0,0,0,.95,2.269,1.472,1.472,0,0,0,1,.369q1.847,0,1.9-3.377v-2.955h1.319v2.955q0,3.852-3.166,4.8a3.7,3.7,0,0,1-1.161.211A3.811,3.811,0,0,1,18.59-8.806a5.833,5.833,0,0,1-.422-1.583M17.8-19.042q-8.125.317-10.341,4.96a6.262,6.262,0,0,0-.58,2.638A4.181,4.181,0,0,0,9.3-7.487a5.118,5.118,0,0,0,2.322.528,5.8,5.8,0,0,0,4.59-2.163A6.758,6.758,0,0,0,17.8-13.765Z" transform="translate(-2.814 30.016)"/>
      </g>
      <g id="Group_1014" data-name="Group 1014" transform="translate(77.456 75.91)">
        <path id="Path_714" data-name="Path 714" d="M9.474-10.409q0,1.636.633,2h0l.053.053a8.1,8.1,0,0,0,3.324.422h1.108v1.636q-2.11-.158-6.7-.158.158,0-6.015.158V-7.929q3.113,0,3.641-.475l.106-.106A2.943,2.943,0,0,0,5.991-10.3v-14.14q0-2.058-.791-2.533A5.233,5.233,0,0,0,2.931-27.4H1.876v-1.636l7.334-.58v5.8q1.425-4.432,4.7-5.54a5.981,5.981,0,0,1,1.794-.264,3.743,3.743,0,0,1,3.535,1.847A2.675,2.675,0,0,1,19.6-26.4a2.1,2.1,0,0,1-1.741,2.269,2.684,2.684,0,0,1-.528.053,2,2,0,0,1-2.11-1.425,2.125,2.125,0,0,1-.158-.844A2.152,2.152,0,0,1,16.28-28.4a1.8,1.8,0,0,0-.58-.053q-3.535,0-5.223,4.326a14.81,14.81,0,0,0-1,5.593Z" transform="translate(-1.876 29.614)"/>
      </g>
      <g id="Group_1015" data-name="Group 1015" transform="translate(98.455 75.593)">
        <path id="Path_715" data-name="Path 715" d="M19.426-26.745A7.535,7.535,0,0,0,13.78-28.7a6.075,6.075,0,0,0-5.329,3.166,14.236,14.236,0,0,0-1.794,7.65q0,7.6,4.537,9.972a5.912,5.912,0,0,0,2.9.791q5.171,0,6.912-5.54a.662.662,0,0,1,.686-.528q.686,0,.686.528a6.112,6.112,0,0,1-1.161,2.849,8.47,8.47,0,0,1-7.6,4.01A10.75,10.75,0,0,1,5.233-9.7a11.974,11.974,0,0,1-2.955-8.073A12.138,12.138,0,0,1,6.024-26.85a10.6,10.6,0,0,1,7.7-3.166q4.379,0,6.7,2.374A4.582,4.582,0,0,1,21.8-24.371a2.2,2.2,0,0,1-1.741,2.427,4.179,4.179,0,0,1-.686.053,2.168,2.168,0,0,1-2.322-1.688,2.338,2.338,0,0,1-.106-.739,2.156,2.156,0,0,1,1.847-2.322A1.992,1.992,0,0,1,19.426-26.745Z" transform="translate(-2.278 30.016)"/>
      </g>
      <g id="Group_1016" data-name="Group 1016" transform="translate(121.828 75.593)">
        <path id="Path_716" data-name="Path 716" d="M11.444-16.615h0a22.21,22.21,0,0,1-5.962-1.741,4.617,4.617,0,0,1-1-.686,5.6,5.6,0,0,1-2.269-4.485,5.648,5.648,0,0,1,3.271-5.382,10.822,10.822,0,0,1,5.171-1.108,8.131,8.131,0,0,1,4.96,1.477,7.226,7.226,0,0,0,.9-.844,1.928,1.928,0,0,1,1.055-.633,1.79,1.79,0,0,1,.58,1.266v5.329q0,1.108-.317,1.214h-.053l-.053.053h-.264q-.58,0-.633-.475-.369-5.329-4.379-6.226a9.727,9.727,0,0,0-1.794-.158q-4.96,0-5.8,3.06a4.366,4.366,0,0,0-.106.95q0,2.691,4.063,3.8.791.211,2.427.528a12.756,12.756,0,0,1,5.434,2.058,3.8,3.8,0,0,1,.58.475,6.916,6.916,0,0,1,2.216,5.012A6.5,6.5,0,0,1,15.771-6.8a10.632,10.632,0,0,1-4.8,1,8.086,8.086,0,0,1-5.8-2.269L4.11-6.854Q3.055-5.8,2.791-5.8a1.79,1.79,0,0,1-.58-1.266v-6.965q0-1.161.369-1.266h0l.053-.053H2.9a.676.676,0,0,1,.686.58,1.443,1.443,0,0,0,.053.317q1.372,6.12,5.223,7.228a7.878,7.878,0,0,0,2.11.264q4.749,0,5.751-3.324a5,5,0,0,0,.211-1.477Q16.931-15.612,11.444-16.615Z" transform="translate(-2.211 30.016)"/>
      </g>
      <g id="Group_1017" data-name="Group 1017" transform="translate(142.616 63.933)">
        <path id="Path_717" data-name="Path 717" d="M9.809-32.846h0v19.364q0,1.636.633,2h0a8.78,8.78,0,0,0,3.06.317v1.636Q8.12-9.684,8.015-9.684q-.739,0-5.8.158v-1.636q3.113,0,3.641-.475l.106-.106a2.943,2.943,0,0,0,.369-1.794V-27.728q0-2.11-.844-2.533H5.429l-.053-.053h0a8.589,8.589,0,0,0-2.955-.317v-1.636l7.387-.58m.211-9.181a2.5,2.5,0,0,1-1.741,2.585,2.823,2.823,0,0,1-1.055.211,2.613,2.613,0,0,1-2.585-1.688v-.053a2.823,2.823,0,0,1-.211-1.055A2.586,2.586,0,0,1,5.9-44.454a2.4,2.4,0,0,1,1.319-.369A2.583,2.583,0,0,1,9.756-43.24,2.9,2.9,0,0,1,10.02-42.027Z" transform="translate(-2.211 44.823)"/>
      </g>
      <g id="Group_1018" data-name="Group 1018" transform="translate(157.231 75.91)">
        <path id="Path_718" data-name="Path 718" d="M6.259-24.443q0-2.058-.791-2.533A5.233,5.233,0,0,0,3.2-27.4H2.144v-1.636l7.439-.58v5.54q2.48-5.54,7.809-5.54,3.957,0,5.54,1.952a7.238,7.238,0,0,1,1.583,4.485q.053,1,.053,3.588V-9.512q.053,1.266,1.53,1.477a19.691,19.691,0,0,0,2.585.106v1.636q-5.382-.158-5.909-.158-.422,0-5.962.158V-7.929q3.113,0,3.641-.475l.106-.106a2.943,2.943,0,0,0,.369-1.794V-22.6q0-5.223-3.007-5.751a3.687,3.687,0,0,0-.9-.106,6.563,6.563,0,0,0-5.382,2.8A9,9,0,0,0,9.9-20.011V-10.3q0,1.794.844,2.11a11.262,11.262,0,0,0,3.271.264v1.636q-5.382-.158-5.909-.158-.422,0-5.962.158V-7.929q3.113,0,3.641-.475l.106-.106A2.943,2.943,0,0,0,6.259-10.3Z" transform="translate(-2.144 29.614)"/>
      </g>
    </g>
  </g>
</svg>
