<svg xmlns="http://www.w3.org/2000/svg" width="144.258" height="144.258" viewBox="0 0 144.258 144.258">
  <g id="_66arccos" data-name="66arccos" transform="translate(11.388 29.949)">
    <path id="Path_71" data-name="Path 71" d="M0,0H140V140H0Z" transform="translate(-9.259 -27.82)" fill="none"/>
    <g id="Group_1060" data-name="Group 1060" transform="translate(-58.806 -37.127)">
      <g id="Group_995" data-name="Group 995" transform="translate(51.814 70.861)">
        <path id="Path_697" data-name="Path 697" d="M17.952-10.665a6.858,6.858,0,0,1-4.578,4.214,7.749,7.749,0,0,1-2.237.312q-4.422,0-6.815-2.133a4.353,4.353,0,0,1-1.509-3.381q0-4.006,4.422-6.4a5.37,5.37,0,0,1,.78-.364,26.126,26.126,0,0,1,9.312-1.873h.26v-1.925q0-4.422-3.173-6.086a4.971,4.971,0,0,0-2.341-.572,6.861,6.861,0,0,0-5.306,2.029,3.4,3.4,0,0,1-.312.364q2.445.312,2.653,2.393A2.178,2.178,0,0,1,7.5-21.8a2.829,2.829,0,0,1-.78.1,2.1,2.1,0,0,1-2.289-1.717,2.026,2.026,0,0,1-.1-.728q0-3.121,3.277-4.786a9.5,9.5,0,0,1,4.578-1.092A9.673,9.673,0,0,1,19.3-27.155a7.322,7.322,0,0,1,1.873,5.2v11.34a2.657,2.657,0,0,0,.936,2.237,1.451,1.451,0,0,0,.988.364q1.821,0,1.873-3.329v-2.913h1.3v2.913q0,3.8-3.121,4.734a3.645,3.645,0,0,1-1.144.208A3.758,3.758,0,0,1,18.368-9.1a5.752,5.752,0,0,1-.416-1.561M17.588-19.2q-8.011.312-10.2,4.89a6.174,6.174,0,0,0-.572,2.6A4.122,4.122,0,0,0,9.212-7.8a5.046,5.046,0,0,0,2.289.52,5.714,5.714,0,0,0,4.526-2.133,6.663,6.663,0,0,0,1.561-4.578Z" transform="translate(-2.814 30.016)"/>
      </g>
      <g id="Group_996" data-name="Group 996" transform="translate(77.096 71.173)">
        <path id="Path_698" data-name="Path 698" d="M9.367-10.679q0,1.613.624,1.977h0l.052.052a7.991,7.991,0,0,0,3.277.416h1.092v1.613q-2.081-.156-6.607-.156.156,0-5.93.156V-8.234q3.069,0,3.589-.468l.1-.1a2.9,2.9,0,0,0,.364-1.769V-24.516q0-2.029-.78-2.5a5.16,5.16,0,0,0-2.237-.416H1.876v-1.613l7.231-.572v5.722q1.4-4.37,4.63-5.462a5.9,5.9,0,0,1,1.769-.26,3.69,3.69,0,0,1,3.485,1.821,2.638,2.638,0,0,1,.364,1.353A2.07,2.07,0,0,1,17.638-24.2a2.647,2.647,0,0,1-.52.052,1.971,1.971,0,0,1-2.081-1.4,2.1,2.1,0,0,1-.156-.832,2.122,2.122,0,0,1,1.2-2.029,1.771,1.771,0,0,0-.572-.052q-3.485,0-5.15,4.266a14.6,14.6,0,0,0-.988,5.514Z" transform="translate(-1.876 29.614)"/>
      </g>
      <g id="Group_997" data-name="Group 997" transform="translate(97.799 70.861)">
        <path id="Path_699" data-name="Path 699" d="M19.184-26.791a7.429,7.429,0,0,0-5.566-1.925,5.989,5.989,0,0,0-5.254,3.121A14.035,14.035,0,0,0,6.6-18.051q0,7.491,4.474,9.832a5.829,5.829,0,0,0,2.861.78q5.1,0,6.815-5.462a.653.653,0,0,1,.676-.52q.676,0,.676.52a6.026,6.026,0,0,1-1.144,2.809,8.351,8.351,0,0,1-7.491,3.954A10.6,10.6,0,0,1,5.191-9.988a11.806,11.806,0,0,1-2.913-7.959,11.967,11.967,0,0,1,3.693-8.947,10.449,10.449,0,0,1,7.595-3.121q4.318,0,6.607,2.341a4.517,4.517,0,0,1,1.353,3.225,2.167,2.167,0,0,1-1.717,2.393,4.12,4.12,0,0,1-.676.052,2.137,2.137,0,0,1-2.289-1.665,2.305,2.305,0,0,1-.1-.728,2.126,2.126,0,0,1,1.821-2.289A1.964,1.964,0,0,1,19.184-26.791Z" transform="translate(-2.278 30.016)"/>
      </g>
      <g id="Group_998" data-name="Group 998" transform="translate(120.896 70.861)">
        <path id="Path_700" data-name="Path 700" d="M19.184-26.791a7.429,7.429,0,0,0-5.566-1.925,5.989,5.989,0,0,0-5.254,3.121A14.035,14.035,0,0,0,6.6-18.051q0,7.491,4.474,9.832a5.829,5.829,0,0,0,2.861.78q5.1,0,6.815-5.462a.653.653,0,0,1,.676-.52q.676,0,.676.52a6.026,6.026,0,0,1-1.144,2.809,8.351,8.351,0,0,1-7.491,3.954A10.6,10.6,0,0,1,5.191-9.988a11.806,11.806,0,0,1-2.913-7.959,11.967,11.967,0,0,1,3.693-8.947,10.449,10.449,0,0,1,7.595-3.121q4.318,0,6.607,2.341a4.517,4.517,0,0,1,1.353,3.225,2.167,2.167,0,0,1-1.717,2.393,4.12,4.12,0,0,1-.676.052,2.137,2.137,0,0,1-2.289-1.665,2.305,2.305,0,0,1-.1-.728,2.126,2.126,0,0,1,1.821-2.289A1.964,1.964,0,0,1,19.184-26.791Z" transform="translate(-2.278 30.016)"/>
      </g>
      <g id="Group_999" data-name="Group 999" transform="translate(143.681 70.861)">
        <path id="Path_701" data-name="Path 701" d="M24.921-17.843h0A11.274,11.274,0,0,1,20.967-9a11.2,11.2,0,0,1-7.595,2.861A10.99,10.99,0,0,1,4.945-9.884a11.457,11.457,0,0,1-3.069-7.959,11.912,11.912,0,0,1,3.8-8.947,10.681,10.681,0,0,1,7.751-3.225A10.738,10.738,0,0,1,21.9-26.01a12.086,12.086,0,0,1,3.017,8.167m-11.5,10.4h0a6.379,6.379,0,0,0,5.514-2.913l.52-.936A16.256,16.256,0,0,0,20.6-18.259q0-4.994-1.353-7.231a7.259,7.259,0,0,0-5.878-3.381,6.5,6.5,0,0,0-5.306,2.6,5.109,5.109,0,0,0-.624.884Q6.194-23.1,6.194-18.259q0,5.046,1.3,7.335A6.991,6.991,0,0,0,13.424-7.439Z" transform="translate(-1.876 30.016)"/>
      </g>
      <g id="Group_1000" data-name="Group 1000" transform="translate(169.951 70.861)">
        <path id="Path_702" data-name="Path 702" d="M11.315-16.8h0A21.9,21.9,0,0,1,5.436-18.52a4.552,4.552,0,0,1-.988-.676,5.517,5.517,0,0,1-2.237-4.422,5.569,5.569,0,0,1,3.225-5.306,10.669,10.669,0,0,1,5.1-1.092,8.017,8.017,0,0,1,4.89,1.457,7.124,7.124,0,0,0,.884-.832,1.9,1.9,0,0,1,1.04-.624,1.765,1.765,0,0,1,.572,1.248v5.254q0,1.092-.312,1.2h-.052l-.052.052h-.26q-.572,0-.624-.468-.364-5.254-4.318-6.138a9.591,9.591,0,0,0-1.769-.156q-4.89,0-5.722,3.017a4.3,4.3,0,0,0-.1.936q0,2.653,4.006,3.745.78.208,2.393.52a12.577,12.577,0,0,1,5.358,2.029,3.743,3.743,0,0,1,.572.468,6.819,6.819,0,0,1,2.185,4.942A6.413,6.413,0,0,1,15.58-7.127a10.482,10.482,0,0,1-4.734.988A7.972,7.972,0,0,1,5.124-8.376l-1.04,1.2q-1.04,1.04-1.3,1.04a1.765,1.765,0,0,1-.572-1.248v-6.867q0-1.144.364-1.248h0l.052-.052h.26a.667.667,0,0,1,.676.572,1.423,1.423,0,0,0,.052.312q1.353,6.034,5.15,7.127a7.767,7.767,0,0,0,2.081.26q4.682,0,5.67-3.277a4.929,4.929,0,0,0,.208-1.457Q16.725-15.815,11.315-16.8Z" transform="translate(-2.211 30.016)"/>
      </g>
    </g>
  </g>
</svg>
