<svg xmlns="http://www.w3.org/2000/svg" width="120" height="120" viewBox="0 0 120 120">
  <g id="_66arccos" data-name="66arccos" transform="translate(-10.482 6.64)">
    <path id="Path_71" data-name="Path 71" d="M0,0H120V120H0Z" transform="translate(10.482 -6.64)" fill="none"/>
    <g id="Group_238" data-name="Group 238" transform="translate(-31.232 -26.302)">
      <g id="Group_185" data-name="Group 185" transform="translate(51.814 70.861)">
        <g id="Group_178" data-name="Group 178" transform="translate(0 0)">
          <path id="Path_515" data-name="Path 515" d="M13.993-15.726a5.064,5.064,0,0,1-3.38,3.112,5.723,5.723,0,0,1-1.652.23,7.316,7.316,0,0,1-5.032-1.575,3.214,3.214,0,0,1-1.114-2.5q0-2.958,3.265-4.725a3.965,3.965,0,0,1,.576-.269,19.293,19.293,0,0,1,6.876-1.383h.192v-1.421q0-3.265-2.343-4.495a3.671,3.671,0,0,0-1.729-.423,5.067,5.067,0,0,0-3.918,1.5,2.508,2.508,0,0,1-.23.269q1.805.23,1.959,1.767a1.609,1.609,0,0,1-1.191,1.69,2.089,2.089,0,0,1-.576.077A1.552,1.552,0,0,1,4-25.137a1.5,1.5,0,0,1-.077-.538,3.839,3.839,0,0,1,2.42-3.534,7.016,7.016,0,0,1,3.38-.807A7.143,7.143,0,0,1,14.991-27.9a5.407,5.407,0,0,1,1.383,3.841v8.374a1.962,1.962,0,0,0,.691,1.652,1.072,1.072,0,0,0,.73.269q1.345,0,1.383-2.459v-2.151h.96v2.151q0,2.8-2.3,3.5a2.692,2.692,0,0,1-.845.154,2.775,2.775,0,0,1-2.689-2,4.247,4.247,0,0,1-.307-1.152m-.269-6.3q-5.916.23-7.529,3.611a4.559,4.559,0,0,0-.423,1.921,3.044,3.044,0,0,0,1.767,2.881,3.726,3.726,0,0,0,1.69.384A4.22,4.22,0,0,0,12.571-14.8a4.921,4.921,0,0,0,1.152-3.38Z" transform="translate(-2.814 30.016)"/>
        </g>
        <g id="Group_179" data-name="Group 179" transform="translate(18.67 0.23)">
          <path id="Path_516" data-name="Path 516" d="M7.408-15.631q0,1.191.461,1.46h0l.038.038a5.9,5.9,0,0,0,2.42.307h.807v1.191Q9.6-12.75,6.255-12.75q.115,0-4.379.115v-1.191a5.478,5.478,0,0,0,2.651-.346l.077-.077a2.143,2.143,0,0,0,.269-1.306v-10.3q0-1.5-.576-1.844A3.81,3.81,0,0,0,2.644-28H1.876v-1.191l5.34-.423v4.226q1.037-3.227,3.419-4.034a4.355,4.355,0,0,1,1.306-.192,2.725,2.725,0,0,1,2.574,1.345,1.948,1.948,0,0,1,.269,1,1.529,1.529,0,0,1-1.268,1.652,1.954,1.954,0,0,1-.384.038,1.455,1.455,0,0,1-1.537-1.037,1.547,1.547,0,0,1-.115-.615,1.567,1.567,0,0,1,.884-1.5,1.308,1.308,0,0,0-.423-.038q-2.574,0-3.8,3.15a10.783,10.783,0,0,0-.73,4.072Z" transform="translate(-1.876 29.614)"/>
        </g>
        <g id="Group_180" data-name="Group 180" transform="translate(33.959 0)">
          <path id="Path_517" data-name="Path 517" d="M14.763-27.634a5.486,5.486,0,0,0-4.11-1.421,4.423,4.423,0,0,0-3.88,2.3,10.365,10.365,0,0,0-1.306,5.57q0,5.532,3.3,7.26a4.3,4.3,0,0,0,2.113.576q3.765,0,5.032-4.034a.482.482,0,0,1,.5-.384q.5,0,.5.384a4.45,4.45,0,0,1-.845,2.074,6.167,6.167,0,0,1-5.532,2.92,7.827,7.827,0,0,1-6.108-2.843A8.718,8.718,0,0,1,2.278-21.1a8.837,8.837,0,0,1,2.727-6.607,7.716,7.716,0,0,1,5.609-2.3,6.518,6.518,0,0,1,4.879,1.729,3.336,3.336,0,0,1,1,2.382,1.6,1.6,0,0,1-1.268,1.767,3.042,3.042,0,0,1-.5.038,1.578,1.578,0,0,1-1.69-1.229,1.7,1.7,0,0,1-.077-.538,1.57,1.57,0,0,1,1.345-1.69A1.45,1.45,0,0,1,14.763-27.634Z" transform="translate(-2.278 30.016)"/>
        </g>
        <g id="Group_181" data-name="Group 181" transform="translate(51.015 0)">
          <path id="Path_518" data-name="Path 518" d="M14.763-27.634a5.486,5.486,0,0,0-4.11-1.421,4.423,4.423,0,0,0-3.88,2.3,10.365,10.365,0,0,0-1.306,5.57q0,5.532,3.3,7.26a4.3,4.3,0,0,0,2.113.576q3.765,0,5.032-4.034a.482.482,0,0,1,.5-.384q.5,0,.5.384a4.45,4.45,0,0,1-.845,2.074,6.167,6.167,0,0,1-5.532,2.92,7.827,7.827,0,0,1-6.108-2.843A8.718,8.718,0,0,1,2.278-21.1a8.837,8.837,0,0,1,2.727-6.607,7.716,7.716,0,0,1,5.609-2.3,6.518,6.518,0,0,1,4.879,1.729,3.336,3.336,0,0,1,1,2.382,1.6,1.6,0,0,1-1.268,1.767,3.042,3.042,0,0,1-.5.038,1.578,1.578,0,0,1-1.69-1.229,1.7,1.7,0,0,1-.077-.538,1.57,1.57,0,0,1,1.345-1.69A1.45,1.45,0,0,1,14.763-27.634Z" transform="translate(-2.278 30.016)"/>
        </g>
        <g id="Group_182" data-name="Group 182" transform="translate(67.84 0)">
          <path id="Path_519" data-name="Path 519" d="M18.894-21.027h0a8.325,8.325,0,0,1-2.92,6.531,8.27,8.27,0,0,1-5.609,2.113,8.115,8.115,0,0,1-6.223-2.766,8.46,8.46,0,0,1-2.266-5.877,8.8,8.8,0,0,1,2.8-6.607A7.888,7.888,0,0,1,10.4-30.016a7.93,7.93,0,0,1,6.262,2.958,8.925,8.925,0,0,1,2.228,6.031M10.4-13.344h0A4.711,4.711,0,0,0,14.476-15.5l.384-.691a12,12,0,0,0,.845-5.148,10.755,10.755,0,0,0-1-5.34,5.36,5.36,0,0,0-4.341-2.5A4.8,4.8,0,0,0,6.447-27.25a3.773,3.773,0,0,0-.461.653,11.448,11.448,0,0,0-.922,5.263,11.477,11.477,0,0,0,.96,5.416A5.163,5.163,0,0,0,10.4-13.344Z" transform="translate(-1.876 30.016)"/>
        </g>
        <g id="Group_183" data-name="Group 183" transform="translate(87.24 0)">
          <path id="Path_520" data-name="Path 520" d="M8.934-20.259h0a16.171,16.171,0,0,1-4.341-1.268,3.362,3.362,0,0,1-.73-.5,4.074,4.074,0,0,1-1.652-3.265,4.113,4.113,0,0,1,2.382-3.918,7.879,7.879,0,0,1,3.765-.807,5.92,5.92,0,0,1,3.611,1.076,5.261,5.261,0,0,0,.653-.615,1.4,1.4,0,0,1,.768-.461,1.3,1.3,0,0,1,.423.922v3.88q0,.807-.23.884h-.038l-.038.038h-.192q-.423,0-.461-.346-.269-3.88-3.188-4.533a7.083,7.083,0,0,0-1.306-.115q-3.611,0-4.226,2.228a3.179,3.179,0,0,0-.077.691q0,1.959,2.958,2.766.576.154,1.767.384a9.288,9.288,0,0,1,3.957,1.5,2.764,2.764,0,0,1,.423.346,5.036,5.036,0,0,1,1.613,3.649,4.736,4.736,0,0,1-2.689,4.61,7.741,7.741,0,0,1-3.5.73,5.887,5.887,0,0,1-4.226-1.652l-.768.884q-.768.768-.96.768a1.3,1.3,0,0,1-.423-.922v-5.071q0-.845.269-.922h0l.038-.038H2.71a.492.492,0,0,1,.5.423,1.051,1.051,0,0,0,.038.23q1,4.456,3.8,5.263a5.736,5.736,0,0,0,1.537.192q3.457,0,4.187-2.42a3.64,3.64,0,0,0,.154-1.076Q12.929-19.529,8.934-20.259Z" transform="translate(-2.211 30.016)"/>
        </g>
      </g>
    </g>
  </g>
</svg>
