<svg xmlns="http://www.w3.org/2000/svg" width="120" height="120" viewBox="0 0 120 120">
  <g id="_67arctan" data-name="67arctan" transform="translate(-10.482 6.64)">
    <path id="Path_71" data-name="Path 71" d="M0,0H120V120H0Z" transform="translate(10.482 -6.64)" fill="none"/>
    <g id="Group_212" data-name="Group 212" transform="translate(-31.232 -26.641)">
      <g id="Group_205" data-name="Group 205" transform="translate(51.814 72.132)">
        <path id="Path_539" data-name="Path 539" d="M13.5-16.357a4.841,4.841,0,0,1-3.231,2.974,5.47,5.47,0,0,1-1.579.22,6.993,6.993,0,0,1-4.81-1.505,3.072,3.072,0,0,1-1.065-2.387q0-2.827,3.121-4.516a3.79,3.79,0,0,1,.551-.257,18.441,18.441,0,0,1,6.573-1.322h.184v-1.359q0-3.121-2.24-4.3a3.509,3.509,0,0,0-1.652-.4A4.843,4.843,0,0,0,5.6-27.776a2.4,2.4,0,0,1-.22.257q1.726.22,1.873,1.689a1.538,1.538,0,0,1-1.138,1.616,2,2,0,0,1-.551.073,1.483,1.483,0,0,1-1.616-1.212,1.43,1.43,0,0,1-.073-.514,3.669,3.669,0,0,1,2.313-3.378,6.706,6.706,0,0,1,3.231-.771A6.828,6.828,0,0,1,14.454-28a5.168,5.168,0,0,1,1.322,3.672v8a1.875,1.875,0,0,0,.661,1.579,1.025,1.025,0,0,0,.7.257q1.285,0,1.322-2.35V-18.89h.918v2.056q0,2.68-2.2,3.341a2.573,2.573,0,0,1-.808.147,2.653,2.653,0,0,1-2.57-1.909,4.06,4.06,0,0,1-.294-1.1m-.257-6.022q-5.655.22-7.2,3.452a4.358,4.358,0,0,0-.4,1.836A2.91,2.91,0,0,0,7.33-14.337a3.561,3.561,0,0,0,1.616.367,4.034,4.034,0,0,0,3.195-1.505,4.7,4.7,0,0,0,1.1-3.231Z" transform="translate(-2.814 30.016)"/>
      </g>
      <g id="Group_206" data-name="Group 206" transform="translate(69.659 72.352)">
        <path id="Path_540" data-name="Path 540" d="M7.163-16.248q0,1.138.441,1.4h0l.037.037a5.64,5.64,0,0,0,2.313.294h.771v1.138q-1.469-.11-4.663-.11.11,0-4.186.11v-1.138a5.236,5.236,0,0,0,2.534-.33l.073-.073a2.048,2.048,0,0,0,.257-1.248v-9.841q0-1.432-.551-1.762a3.642,3.642,0,0,0-1.579-.294H1.876V-29.21l5.1-.4v4.039q.991-3.084,3.268-3.855a4.162,4.162,0,0,1,1.248-.184,2.6,2.6,0,0,1,2.46,1.285,1.862,1.862,0,0,1,.257.955A1.461,1.461,0,0,1,13-25.8a1.868,1.868,0,0,1-.367.037,1.391,1.391,0,0,1-1.469-.991,1.479,1.479,0,0,1-.11-.587,1.5,1.5,0,0,1,.845-1.432,1.25,1.25,0,0,0-.4-.037q-2.46,0-3.635,3.011a10.307,10.307,0,0,0-.7,3.892Z" transform="translate(-1.876 29.614)"/>
      </g>
      <g id="Group_207" data-name="Group 207" transform="translate(84.273 72.132)">
        <path id="Path_541" data-name="Path 541" d="M14.212-27.739A5.244,5.244,0,0,0,10.283-29.1a4.228,4.228,0,0,0-3.709,2.2,9.907,9.907,0,0,0-1.248,5.324q0,5.287,3.158,6.94a4.114,4.114,0,0,0,2.02.551q3.6,0,4.81-3.855a.461.461,0,0,1,.477-.367q.477,0,.477.367a4.254,4.254,0,0,1-.808,1.983,5.894,5.894,0,0,1-5.287,2.791,7.481,7.481,0,0,1-5.838-2.717A8.333,8.333,0,0,1,2.278-21.5a8.447,8.447,0,0,1,2.607-6.316,7.376,7.376,0,0,1,5.361-2.2,6.23,6.23,0,0,1,4.663,1.652,3.189,3.189,0,0,1,.955,2.277A1.53,1.53,0,0,1,14.652-24.4a2.908,2.908,0,0,1-.477.037,1.508,1.508,0,0,1-1.616-1.175,1.627,1.627,0,0,1-.073-.514,1.5,1.5,0,0,1,1.285-1.616A1.386,1.386,0,0,1,14.212-27.739Z" transform="translate(-2.278 30.016)"/>
      </g>
      <g id="Group_208" data-name="Group 208" transform="translate(100.025 66)">
        <path id="Path_542" data-name="Path 542" d="M6.928-33.31h0V-23.1q0,3.672,2.13,3.929a1.365,1.365,0,0,0,.33.037q1.579,0,2.2-2.056a7.374,7.374,0,0,0,.257-2.056v-2.02h.918v2.093a5.17,5.17,0,0,1-1.689,4.333,3.088,3.088,0,0,1-1.946.624,4.269,4.269,0,0,1-4.223-2.313,6.211,6.211,0,0,1-.514-2.644V-33.31H1.273v-.808q3.268-.147,4.333-4.112a12.828,12.828,0,0,0,.4-2.974h.918v6.756h5.251v1.138Z" transform="translate(-1.273 41.205)"/>
      </g>
      <g id="Group_209" data-name="Group 209" transform="translate(115.153 72.132)">
        <path id="Path_543" data-name="Path 543" d="M13.5-16.357a4.841,4.841,0,0,1-3.231,2.974,5.47,5.47,0,0,1-1.579.22,6.993,6.993,0,0,1-4.81-1.505,3.072,3.072,0,0,1-1.065-2.387q0-2.827,3.121-4.516a3.79,3.79,0,0,1,.551-.257,18.441,18.441,0,0,1,6.573-1.322h.184v-1.359q0-3.121-2.24-4.3a3.509,3.509,0,0,0-1.652-.4A4.843,4.843,0,0,0,5.6-27.776a2.4,2.4,0,0,1-.22.257q1.726.22,1.873,1.689a1.538,1.538,0,0,1-1.138,1.616,2,2,0,0,1-.551.073,1.483,1.483,0,0,1-1.616-1.212,1.43,1.43,0,0,1-.073-.514,3.669,3.669,0,0,1,2.313-3.378,6.706,6.706,0,0,1,3.231-.771A6.828,6.828,0,0,1,14.454-28a5.168,5.168,0,0,1,1.322,3.672v8a1.875,1.875,0,0,0,.661,1.579,1.025,1.025,0,0,0,.7.257q1.285,0,1.322-2.35V-18.89h.918v2.056q0,2.68-2.2,3.341a2.573,2.573,0,0,1-.808.147,2.653,2.653,0,0,1-2.57-1.909,4.06,4.06,0,0,1-.294-1.1m-.257-6.022q-5.655.22-7.2,3.452a4.358,4.358,0,0,0-.4,1.836A2.91,2.91,0,0,0,7.33-14.337a3.561,3.561,0,0,0,1.616.367,4.034,4.034,0,0,0,3.195-1.505,4.7,4.7,0,0,0,1.1-3.231Z" transform="translate(-2.814 30.016)"/>
      </g>
      <g id="Group_210" data-name="Group 210" transform="translate(133.146 72.352)">
        <path id="Path_544" data-name="Path 544" d="M5.008-26.016q0-1.432-.551-1.762a3.642,3.642,0,0,0-1.579-.294H2.144V-29.21l5.177-.4v3.855q1.726-3.855,5.434-3.855,2.754,0,3.855,1.359a5.037,5.037,0,0,1,1.1,3.121q.037.7.037,2.5v7.013q.037.881,1.065,1.028a13.7,13.7,0,0,0,1.8.073v1.138q-3.745-.11-4.112-.11-.294,0-4.149.11v-1.138a5.236,5.236,0,0,0,2.534-.33l.073-.073a2.048,2.048,0,0,0,.257-1.248V-24.73q0-3.635-2.093-4a2.566,2.566,0,0,0-.624-.073A4.567,4.567,0,0,0,8.753-26.86a6.263,6.263,0,0,0-1.212,3.929v6.756q0,1.248.587,1.469a7.837,7.837,0,0,0,2.277.184v1.138q-3.745-.11-4.112-.11-.294,0-4.149.11v-1.138a5.236,5.236,0,0,0,2.534-.33l.073-.073a2.048,2.048,0,0,0,.257-1.248Z" transform="translate(-2.144 29.614)"/>
      </g>
    </g>
  </g>
</svg>
