<svg xmlns="http://www.w3.org/2000/svg" width="144.258" height="144.258" viewBox="0 0 144.258 144.258">
  <g id="_67arctan" data-name="67arctan" transform="translate(11.388 29.949)">
    <path id="Path_71" data-name="Path 71" d="M0,0H140V140H0Z" transform="translate(-9.259 -27.82)" fill="none"/>
    <g id="Group_1062" data-name="Group 1062" transform="translate(-61.073 -40.637)">
      <g id="Group_1022" data-name="Group 1022" transform="translate(51.814 74.588)">
        <path id="Path_721" data-name="Path 721" d="M17.779-10.886A6.78,6.78,0,0,1,13.253-6.72a7.661,7.661,0,0,1-2.211.309q-4.371,0-6.737-2.108a4.3,4.3,0,0,1-1.491-3.343q0-3.96,4.371-6.325a5.308,5.308,0,0,1,.771-.36A25.827,25.827,0,0,1,17.162-20.4h.257v-1.9q0-4.371-3.137-6.017a4.914,4.914,0,0,0-2.314-.566,6.783,6.783,0,0,0-5.245,2.006,3.357,3.357,0,0,1-.309.36q2.417.309,2.623,2.366a2.153,2.153,0,0,1-1.594,2.263,2.8,2.8,0,0,1-.771.1,2.077,2.077,0,0,1-2.263-1.7,2,2,0,0,1-.1-.72q0-3.086,3.24-4.731a9.392,9.392,0,0,1,4.525-1.08,9.562,9.562,0,0,1,7.045,2.828,7.238,7.238,0,0,1,1.851,5.143v11.211a2.627,2.627,0,0,0,.926,2.211,1.435,1.435,0,0,0,.977.36q1.8,0,1.851-3.291v-2.88h1.286v2.88q0,3.754-3.086,4.68a3.6,3.6,0,0,1-1.131.206,3.715,3.715,0,0,1-3.6-2.674,5.686,5.686,0,0,1-.411-1.543m-.36-8.434q-7.92.309-10.079,4.834a6.1,6.1,0,0,0-.566,2.571A4.075,4.075,0,0,0,9.139-8.057a4.988,4.988,0,0,0,2.263.514,5.649,5.649,0,0,0,4.474-2.108,6.587,6.587,0,0,0,1.543-4.525Z" transform="translate(-2.814 30.016)"/>
      </g>
      <g id="Group_1023" data-name="Group 1023" transform="translate(76.806 74.896)">
        <path id="Path_722" data-name="Path 722" d="M9.281-10.9q0,1.594.617,1.954h0l.051.051a7.9,7.9,0,0,0,3.24.411h1.08v1.594q-2.057-.154-6.531-.154.154,0-5.862.154V-8.478q3.034,0,3.548-.463l.1-.1a2.869,2.869,0,0,0,.36-1.748V-24.574q0-2.006-.771-2.468A5.1,5.1,0,0,0,2.9-27.454H1.876v-1.594l7.148-.566v5.657q1.388-4.32,4.577-5.4a5.829,5.829,0,0,1,1.748-.257,3.648,3.648,0,0,1,3.445,1.8,2.608,2.608,0,0,1,.36,1.337,2.046,2.046,0,0,1-1.7,2.211,2.616,2.616,0,0,1-.514.051A1.948,1.948,0,0,1,14.887-25.6a2.072,2.072,0,0,1-.154-.823,2.1,2.1,0,0,1,1.183-2.006,1.751,1.751,0,0,0-.566-.051q-3.445,0-5.091,4.217a14.435,14.435,0,0,0-.977,5.451Z" transform="translate(-1.876 29.614)"/>
      </g>
      <g id="Group_1024" data-name="Group 1024" transform="translate(97.274 74.588)">
        <path id="Path_723" data-name="Path 723" d="M18.991-26.828a7.344,7.344,0,0,0-5.5-1.9,5.921,5.921,0,0,0-5.194,3.086,13.875,13.875,0,0,0-1.748,7.457q0,7.405,4.423,9.719A5.762,5.762,0,0,0,13.8-7.7q5.04,0,6.737-5.4a.645.645,0,0,1,.669-.514q.669,0,.669.514A5.958,5.958,0,0,1,20.74-10.32a8.255,8.255,0,0,1-7.405,3.908,10.478,10.478,0,0,1-8.177-3.805,11.671,11.671,0,0,1-2.88-7.868A11.831,11.831,0,0,1,5.929-26.93a10.33,10.33,0,0,1,7.508-3.086q4.268,0,6.531,2.314a4.466,4.466,0,0,1,1.337,3.188,2.142,2.142,0,0,1-1.7,2.366,4.073,4.073,0,0,1-.669.051,2.113,2.113,0,0,1-2.263-1.646,2.279,2.279,0,0,1-.1-.72,2.1,2.1,0,0,1,1.8-2.263A1.941,1.941,0,0,1,18.991-26.828Z" transform="translate(-2.278 30.016)"/>
      </g>
      <g id="Group_1025" data-name="Group 1025" transform="translate(119.335 66)">
        <path id="Path_724" data-name="Path 724" d="M9.193-30.149h0v14.3q0,5.143,2.983,5.5a1.912,1.912,0,0,0,.463.051q2.211,0,3.086-2.88a10.327,10.327,0,0,0,.36-2.88v-2.828h1.286v2.931q0,4.217-2.366,6.068a4.325,4.325,0,0,1-2.726.874q-4.32,0-5.914-3.24a8.7,8.7,0,0,1-.72-3.7V-30.149H1.273V-31.28q4.577-.206,6.068-5.76a17.966,17.966,0,0,0,.566-4.165H9.193v9.462h7.354v1.594Z" transform="translate(-1.273 41.205)"/>
      </g>
      <g id="Group_1026" data-name="Group 1026" transform="translate(140.522 74.588)">
        <path id="Path_725" data-name="Path 725" d="M17.779-10.886A6.78,6.78,0,0,1,13.253-6.72a7.661,7.661,0,0,1-2.211.309q-4.371,0-6.737-2.108a4.3,4.3,0,0,1-1.491-3.343q0-3.96,4.371-6.325a5.308,5.308,0,0,1,.771-.36A25.827,25.827,0,0,1,17.162-20.4h.257v-1.9q0-4.371-3.137-6.017a4.914,4.914,0,0,0-2.314-.566,6.783,6.783,0,0,0-5.245,2.006,3.357,3.357,0,0,1-.309.36q2.417.309,2.623,2.366a2.153,2.153,0,0,1-1.594,2.263,2.8,2.8,0,0,1-.771.1,2.077,2.077,0,0,1-2.263-1.7,2,2,0,0,1-.1-.72q0-3.086,3.24-4.731a9.392,9.392,0,0,1,4.525-1.08,9.562,9.562,0,0,1,7.045,2.828,7.238,7.238,0,0,1,1.851,5.143v11.211a2.627,2.627,0,0,0,.926,2.211,1.435,1.435,0,0,0,.977.36q1.8,0,1.851-3.291v-2.88h1.286v2.88q0,3.754-3.086,4.68a3.6,3.6,0,0,1-1.131.206,3.715,3.715,0,0,1-3.6-2.674,5.686,5.686,0,0,1-.411-1.543m-.36-8.434q-7.92.309-10.079,4.834a6.1,6.1,0,0,0-.566,2.571A4.075,4.075,0,0,0,9.139-8.057a4.988,4.988,0,0,0,2.263.514,5.649,5.649,0,0,0,4.474-2.108,6.587,6.587,0,0,0,1.543-4.525Z" transform="translate(-2.814 30.016)"/>
      </g>
      <g id="Group_1027" data-name="Group 1027" transform="translate(165.721 74.896)">
        <path id="Path_726" data-name="Path 726" d="M6.155-24.574q0-2.006-.771-2.468a5.1,5.1,0,0,0-2.211-.411H2.144v-1.594l7.251-.566v5.4q2.417-5.4,7.611-5.4,3.857,0,5.4,1.9a7.055,7.055,0,0,1,1.543,4.371q.051.977.051,3.5v9.822q.051,1.234,1.491,1.44a19.192,19.192,0,0,0,2.52.1v1.594q-5.245-.154-5.76-.154-.411,0-5.811.154V-8.478q3.034,0,3.548-.463l.1-.1a2.869,2.869,0,0,0,.36-1.748V-22.774q0-5.091-2.931-5.605a3.594,3.594,0,0,0-.874-.1A6.4,6.4,0,0,0,11.4-25.757a8.771,8.771,0,0,0-1.7,5.5v9.462q0,1.748.823,2.057a10.976,10.976,0,0,0,3.188.257v1.594q-5.245-.154-5.76-.154-.411,0-5.811.154V-8.478q3.034,0,3.548-.463l.1-.1a2.869,2.869,0,0,0,.36-1.748Z" transform="translate(-2.144 29.614)"/>
      </g>
    </g>
  </g>
</svg>
