<svg xmlns="http://www.w3.org/2000/svg" width="144.258" height="144.258" viewBox="0 0 144.258 144.258">
  <g id="_68arccot" data-name="68arccot" transform="translate(11.388 29.949)">
    <path id="Path_71" data-name="Path 71" d="M0,0H140V140H0Z" transform="translate(-9.259 -27.82)" fill="none"/>
    <g id="Group_1061" data-name="Group 1061" transform="translate(-57.191 -40.716)">
      <g id="Group_1004" data-name="Group 1004" transform="translate(51.814 74.624)">
        <path id="Path_705" data-name="Path 705" d="M17.842-10.805A6.808,6.808,0,0,1,13.3-6.622a7.693,7.693,0,0,1-2.221.31q-4.39,0-6.765-2.117a4.321,4.321,0,0,1-1.5-3.357q0-3.976,4.39-6.352a5.331,5.331,0,0,1,.775-.361,25.936,25.936,0,0,1,9.244-1.859h.258V-22.27q0-4.39-3.15-6.042a4.935,4.935,0,0,0-2.324-.568,6.811,6.811,0,0,0-5.267,2.014,3.371,3.371,0,0,1-.31.361q2.427.31,2.634,2.376a2.162,2.162,0,0,1-1.6,2.272,2.808,2.808,0,0,1-.775.1,2.086,2.086,0,0,1-2.272-1.7,2.011,2.011,0,0,1-.1-.723q0-3.1,3.253-4.751a9.431,9.431,0,0,1,4.544-1.084,9.6,9.6,0,0,1,7.075,2.84,7.269,7.269,0,0,1,1.859,5.164v11.258a2.638,2.638,0,0,0,.93,2.221,1.441,1.441,0,0,0,.981.361q1.807,0,1.859-3.305v-2.892H26.1v2.892q0,3.77-3.1,4.7a3.619,3.619,0,0,1-1.136.207,3.731,3.731,0,0,1-3.615-2.685,5.71,5.71,0,0,1-.413-1.549m-.361-8.469q-7.953.31-10.122,4.854a6.129,6.129,0,0,0-.568,2.582A4.092,4.092,0,0,0,9.166-7.965a5.009,5.009,0,0,0,2.272.516,5.673,5.673,0,0,0,4.493-2.117A6.615,6.615,0,0,0,17.48-14.11Z" transform="translate(-2.814 30.016)"/>
      </g>
      <g id="Group_1005" data-name="Group 1005" transform="translate(76.912 74.934)">
        <path id="Path_706" data-name="Path 706" d="M9.312-10.816q0,1.6.62,1.962h0l.052.052a7.933,7.933,0,0,0,3.253.413h1.084v1.6q-2.066-.155-6.558-.155.155,0-5.887.155v-1.6q3.047,0,3.563-.465l.1-.1A2.881,2.881,0,0,0,5.9-10.713v-13.84q0-2.014-.775-2.479a5.122,5.122,0,0,0-2.221-.413H1.876v-1.6l7.178-.568v5.681q1.394-4.338,4.6-5.422a5.854,5.854,0,0,1,1.756-.258,3.663,3.663,0,0,1,3.46,1.807,2.619,2.619,0,0,1,.361,1.343,2.055,2.055,0,0,1-1.7,2.221,2.627,2.627,0,0,1-.516.052,1.956,1.956,0,0,1-2.066-1.394,2.08,2.08,0,0,1-.155-.826,2.106,2.106,0,0,1,1.188-2.014,1.758,1.758,0,0,0-.568-.052q-3.46,0-5.113,4.235a14.5,14.5,0,0,0-.981,5.474Z" transform="translate(-1.876 29.614)"/>
      </g>
      <g id="Group_1006" data-name="Group 1006" transform="translate(97.465 74.624)">
        <path id="Path_707" data-name="Path 707" d="M19.062-26.814a7.375,7.375,0,0,0-5.526-1.911,5.946,5.946,0,0,0-5.216,3.1,13.933,13.933,0,0,0-1.756,7.488q0,7.436,4.441,9.76a5.787,5.787,0,0,0,2.84.775q5.061,0,6.765-5.422a.648.648,0,0,1,.671-.516q.671,0,.671.516a5.983,5.983,0,0,1-1.136,2.789,8.29,8.29,0,0,1-7.436,3.925A10.522,10.522,0,0,1,5.17-10.134a11.72,11.72,0,0,1-2.892-7.9,11.88,11.88,0,0,1,3.667-8.882,10.373,10.373,0,0,1,7.54-3.1q4.286,0,6.558,2.324a4.484,4.484,0,0,1,1.343,3.2,2.151,2.151,0,0,1-1.7,2.376,4.09,4.09,0,0,1-.671.052,2.122,2.122,0,0,1-2.272-1.653,2.289,2.289,0,0,1-.1-.723,2.11,2.11,0,0,1,1.807-2.272A1.949,1.949,0,0,1,19.062-26.814Z" transform="translate(-2.278 30.016)"/>
      </g>
      <g id="Group_1007" data-name="Group 1007" transform="translate(120.394 74.624)">
        <path id="Path_708" data-name="Path 708" d="M19.062-26.814a7.375,7.375,0,0,0-5.526-1.911,5.946,5.946,0,0,0-5.216,3.1,13.933,13.933,0,0,0-1.756,7.488q0,7.436,4.441,9.76a5.787,5.787,0,0,0,2.84.775q5.061,0,6.765-5.422a.648.648,0,0,1,.671-.516q.671,0,.671.516a5.983,5.983,0,0,1-1.136,2.789,8.29,8.29,0,0,1-7.436,3.925A10.522,10.522,0,0,1,5.17-10.134a11.72,11.72,0,0,1-2.892-7.9,11.88,11.88,0,0,1,3.667-8.882,10.373,10.373,0,0,1,7.54-3.1q4.286,0,6.558,2.324a4.484,4.484,0,0,1,1.343,3.2,2.151,2.151,0,0,1-1.7,2.376,4.09,4.09,0,0,1-.671.052,2.122,2.122,0,0,1-2.272-1.653,2.289,2.289,0,0,1-.1-.723,2.11,2.11,0,0,1,1.807-2.272A1.949,1.949,0,0,1,19.062-26.814Z" transform="translate(-2.278 30.016)"/>
      </g>
      <g id="Group_1008" data-name="Group 1008" transform="translate(143.013 74.624)">
        <path id="Path_709" data-name="Path 709" d="M24.753-17.932h0a11.192,11.192,0,0,1-3.925,8.779,11.118,11.118,0,0,1-7.54,2.84,10.91,10.91,0,0,1-8.366-3.718,11.373,11.373,0,0,1-3.047-7.9,11.825,11.825,0,0,1,3.77-8.882,10.6,10.6,0,0,1,7.695-3.2,10.66,10.66,0,0,1,8.418,3.976,12,12,0,0,1,3,8.108M13.34-7.6h0A6.332,6.332,0,0,0,18.814-10.5l.516-.93a16.137,16.137,0,0,0,1.136-6.92q0-4.958-1.343-7.178a7.206,7.206,0,0,0-5.835-3.357A6.456,6.456,0,0,0,8.021-26.3a5.071,5.071,0,0,0-.62.878q-1.239,2.272-1.239,7.075,0,5.009,1.291,7.281A6.94,6.94,0,0,0,13.34-7.6Z" transform="translate(-1.876 30.016)"/>
      </g>
      <g id="Group_1009" data-name="Group 1009" transform="translate(168.369 66)">
        <path id="Path_710" data-name="Path 710" d="M9.226-30.1h0v14.356q0,5.164,3,5.526a1.92,1.92,0,0,0,.465.052q2.221,0,3.1-2.892a10.371,10.371,0,0,0,.361-2.892v-2.84h1.291v2.944q0,4.235-2.376,6.094a4.343,4.343,0,0,1-2.737.878q-4.338,0-5.939-3.253a8.735,8.735,0,0,1-.723-3.718V-30.1H1.273v-1.136q4.6-.207,6.094-5.784a18.042,18.042,0,0,0,.568-4.183H9.226v9.5h7.385v1.6Z" transform="translate(-1.273 41.205)"/>
      </g>
    </g>
  </g>
</svg>
