<svg xmlns="http://www.w3.org/2000/svg" width="120" height="120" viewBox="0 0 120 120">
  <g id="_68arccot" data-name="68arccot" transform="translate(-10.482 6.64)">
    <path id="Path_71" data-name="Path 71" d="M0,0H120V120H0Z" transform="translate(10.482 -6.64)" fill="none"/>
    <g id="Group_239" data-name="Group 239" transform="translate(-31.232 -27.641)">
      <g id="Group_194" data-name="Group 194" transform="translate(51.814 66)">
        <g id="Group_187" data-name="Group 187" transform="translate(0 6.485)">
          <path id="Path_523" data-name="Path 523" d="M14.114-15.57A5.12,5.12,0,0,1,10.7-12.425a5.785,5.785,0,0,1-1.67.233A7.4,7.4,0,0,1,3.94-13.784a3.249,3.249,0,0,1-1.126-2.524q0-2.99,3.3-4.776a4.009,4.009,0,0,1,.582-.272,19.5,19.5,0,0,1,6.951-1.4h.194v-1.437q0-3.3-2.369-4.543a3.711,3.711,0,0,0-1.747-.427,5.122,5.122,0,0,0-3.961,1.514,2.535,2.535,0,0,1-.233.272q1.825.233,1.98,1.786a1.626,1.626,0,0,1-1.2,1.709,2.112,2.112,0,0,1-.582.078,1.569,1.569,0,0,1-1.709-1.281,1.512,1.512,0,0,1-.078-.544A3.88,3.88,0,0,1,6.387-29.2,7.092,7.092,0,0,1,9.8-30.016a7.221,7.221,0,0,1,5.32,2.136A5.466,5.466,0,0,1,16.522-24v8.466a1.983,1.983,0,0,0,.7,1.67,1.084,1.084,0,0,0,.738.272q1.359,0,1.4-2.485V-18.25h.971v2.175q0,2.835-2.33,3.534a2.721,2.721,0,0,1-.854.155,2.805,2.805,0,0,1-2.718-2.019,4.293,4.293,0,0,1-.311-1.165m-.272-6.369q-5.98.233-7.611,3.65A4.609,4.609,0,0,0,5.8-16.347,3.077,3.077,0,0,0,7.59-13.434a3.767,3.767,0,0,0,1.709.388,4.266,4.266,0,0,0,3.378-1.592,4.974,4.974,0,0,0,1.165-3.417Z" transform="translate(-2.814 30.016)"/>
        </g>
        <g id="Group_188" data-name="Group 188" transform="translate(18.873 6.718)">
          <path id="Path_524" data-name="Path 524" d="M7.468-15.479q0,1.2.466,1.476h0l.039.039a5.965,5.965,0,0,0,2.446.311h.815v1.2q-1.553-.117-4.932-.117.116,0-4.427.117v-1.2A5.538,5.538,0,0,0,4.555-14l.078-.078A2.166,2.166,0,0,0,4.9-15.4V-25.808q0-1.514-.582-1.864a3.852,3.852,0,0,0-1.67-.311H1.876v-1.2l5.4-.427v4.272Q8.322-28.6,10.73-29.42a4.4,4.4,0,0,1,1.32-.194,2.755,2.755,0,0,1,2.6,1.359,1.969,1.969,0,0,1,.272,1.01,1.545,1.545,0,0,1-1.281,1.67,1.976,1.976,0,0,1-.388.039A1.471,1.471,0,0,1,11.7-26.585a1.564,1.564,0,0,1-.116-.621,1.584,1.584,0,0,1,.893-1.514,1.322,1.322,0,0,0-.427-.039q-2.6,0-3.844,3.184a10.9,10.9,0,0,0-.738,4.116Z" transform="translate(-1.876 29.614)"/>
        </g>
        <g id="Group_189" data-name="Group 189" transform="translate(34.329 6.485)">
          <path id="Path_525" data-name="Path 525" d="M14.9-27.608a5.546,5.546,0,0,0-4.155-1.437,4.471,4.471,0,0,0-3.922,2.33A10.478,10.478,0,0,0,5.5-21.084q0,5.592,3.34,7.339a4.351,4.351,0,0,0,2.136.582q3.806,0,5.087-4.077a.487.487,0,0,1,.5-.388q.5,0,.5.388a4.5,4.5,0,0,1-.854,2.1,6.234,6.234,0,0,1-5.592,2.951,7.912,7.912,0,0,1-6.174-2.874,8.813,8.813,0,0,1-2.175-5.941,8.934,8.934,0,0,1,2.757-6.679,7.8,7.8,0,0,1,5.67-2.33,6.589,6.589,0,0,1,4.932,1.747,3.372,3.372,0,0,1,1.01,2.408,1.618,1.618,0,0,1-1.281,1.786,3.075,3.075,0,0,1-.5.039,1.6,1.6,0,0,1-1.709-1.243,1.721,1.721,0,0,1-.078-.544,1.587,1.587,0,0,1,1.359-1.709A1.466,1.466,0,0,1,14.9-27.608Z" transform="translate(-2.278 30.016)"/>
        </g>
        <g id="Group_190" data-name="Group 190" transform="translate(51.57 6.485)">
          <path id="Path_526" data-name="Path 526" d="M14.9-27.608a5.546,5.546,0,0,0-4.155-1.437,4.471,4.471,0,0,0-3.922,2.33A10.478,10.478,0,0,0,5.5-21.084q0,5.592,3.34,7.339a4.351,4.351,0,0,0,2.136.582q3.806,0,5.087-4.077a.487.487,0,0,1,.5-.388q.5,0,.5.388a4.5,4.5,0,0,1-.854,2.1,6.234,6.234,0,0,1-5.592,2.951,7.912,7.912,0,0,1-6.174-2.874,8.813,8.813,0,0,1-2.175-5.941,8.934,8.934,0,0,1,2.757-6.679,7.8,7.8,0,0,1,5.67-2.33,6.589,6.589,0,0,1,4.932,1.747,3.372,3.372,0,0,1,1.01,2.408,1.618,1.618,0,0,1-1.281,1.786,3.075,3.075,0,0,1-.5.039,1.6,1.6,0,0,1-1.709-1.243,1.721,1.721,0,0,1-.078-.544,1.587,1.587,0,0,1,1.359-1.709A1.466,1.466,0,0,1,14.9-27.608Z" transform="translate(-2.278 30.016)"/>
        </g>
        <g id="Group_191" data-name="Group 191" transform="translate(68.579 6.485)">
          <path id="Path_527" data-name="Path 527" d="M19.079-20.929h0a8.416,8.416,0,0,1-2.951,6.6,8.36,8.36,0,0,1-5.67,2.136,8.2,8.2,0,0,1-6.291-2.8,8.552,8.552,0,0,1-2.291-5.941,8.892,8.892,0,0,1,2.835-6.679A7.973,7.973,0,0,1,10.5-30.016a8.016,8.016,0,0,1,6.33,2.99,9.023,9.023,0,0,1,2.252,6.1M10.5-13.162h0a4.762,4.762,0,0,0,4.116-2.175l.388-.7a12.135,12.135,0,0,0,.854-5.2,10.872,10.872,0,0,0-1.01-5.4,5.419,5.419,0,0,0-4.388-2.524A4.855,4.855,0,0,0,6.5-27.22a3.814,3.814,0,0,0-.466.66A11.572,11.572,0,0,0,5.1-21.24a11.6,11.6,0,0,0,.971,5.475A5.219,5.219,0,0,0,10.5-13.162Z" transform="translate(-1.876 30.016)"/>
        </g>
        <g id="Group_192" data-name="Group 192" transform="translate(87.647)">
          <path id="Path_528" data-name="Path 528" d="M7.253-32.856h0v10.8q0,3.883,2.252,4.155a1.444,1.444,0,0,0,.349.039q1.67,0,2.33-2.175a7.8,7.8,0,0,0,.272-2.175v-2.136h.971v2.213q0,3.184-1.786,4.582a3.266,3.266,0,0,1-2.058.66q-3.262,0-4.466-2.446a6.569,6.569,0,0,1-.544-2.8V-32.856h-3.3v-.854q3.456-.155,4.582-4.349a13.567,13.567,0,0,0,.427-3.145h.971v7.145h5.553v1.2Z" transform="translate(-1.273 41.205)"/>
        </g>
      </g>
    </g>
  </g>
</svg>
