<svg id="_16overleftarrow" data-name="16overleftarrow" xmlns="http://www.w3.org/2000/svg" width="120" height="120" viewBox="0 0 120 120">
  <path id="Path_71" data-name="Path 71" d="M120,0H0V120H120Z" fill="none"/>
  <g id="Group_175" data-name="Group 175" transform="translate(-319 -129)">
    <g id="Group_103" data-name="Group 103" transform="translate(0 0.211)">
      <g id="Group_99" data-name="Group 99" transform="translate(327 212.761)">
        <path id="Path_5" data-name="Path 5" d="M11.993-7.7,35.309-46.833a2.169,2.169,0,0,1,1.742-1.139q1.005,0,1.139.67a5.468,5.468,0,0,1,.134.938L42.411-4.489q.2,1.675.8,2.01h.067v.067a11.192,11.192,0,0,0,3.484.335q1.474,0,1.541.737Q48.307,0,47.1,0L39.6-.2H39.53L31.222,0h-.067q-.938,0-.938-.737a1.874,1.874,0,0,1,1.608-1.34q4.824,0,4.824-2.211,0,.067-1.072-11.189H18.76L13.668-6.9a5.962,5.962,0,0,0-.938,2.479q0,2.077,3.149,2.345,1.072,0,1.072.8A1.125,1.125,0,0,1,15.678,0L9.246-.2H8.978L3.35,0H3.216q-.871,0-.871-.737,0-1.206,1.005-1.273v-.067h.4a9.242,9.242,0,0,0,6.9-3.618,19.6,19.6,0,0,0,1.34-2.01m8.04-9.849H35.376l-2.144-22.11Z"/>
      </g>
      <g id="Group_100" data-name="Group 100" transform="translate(377.25 212.761)">
        <path id="Path_6" data-name="Path 6" d="M10.72-5.226,19.7-41.205a8.987,8.987,0,0,0,.268-1.273q0-.8-1.072-1H18.76a4.03,4.03,0,0,1-.6-.067,21.936,21.936,0,0,0-2.546-.134q-1.742,0-1.876-.737,0-1.206,1.005-1.34H38.19q7.7,0,10.988,4.556a8.106,8.106,0,0,1,1.474,4.69q0,5.427-6.03,9.447a.193.193,0,0,0-.134.067,21.815,21.815,0,0,1-7.839,3.082q6.834.8,9.38,5.36a8.519,8.519,0,0,1,1.005,4.087q0,4.891-4.69,9.179l-.067.067A19.75,19.75,0,0,1,28.542,0H4.623Q2.948,0,2.814-.737q0-1.206,1.005-1.34h.8q4.355,0,5.226-.938a5.436,5.436,0,0,0,.8-1.876,2.014,2.014,0,0,1,.067-.335m10.117-19.3h9.782A13.965,13.965,0,0,0,41.54-29.346a11.025,11.025,0,0,0,3.015-7.437q0-4.891-4.02-6.365a9.2,9.2,0,0,0-3.283-.536H28.609q-2.412,0-2.948.67h0v.067h-.067v.067a6.588,6.588,0,0,0-.6,1.742L20.837-24.522M17.822-2.077h9.112A13.549,13.549,0,0,0,37.587-6.9,12.469,12.469,0,0,0,40.8-15.209q0-4.891-3.484-6.9a8.8,8.8,0,0,0-4.221-.938H20.435L15.812-4.355a8.011,8.011,0,0,0-.335,1.541.655.655,0,0,0,.6.67h.268A10.625,10.625,0,0,0,17.822-2.077Z"/>
      </g>
      <path id="Path_69" data-name="Path 69" d="M104.386-15.41q2.01-.335,2.211-1.34,0-1.34-2.211-1.34H9.38a20.662,20.662,0,0,0,6.834-8.643l.067-.067a4.709,4.709,0,0,0,.335-1.072q0-.8-1-.8-.737,0-1.139.938A19.488,19.488,0,0,1,5.36-17.956H5.293l-.067.067H5.159a9.182,9.182,0,0,1-.938.469q-.268,0-.469.67a.955.955,0,0,0,.6.8.651.651,0,0,1,.335.134A19.573,19.573,0,0,1,14.4-5.762h0a.727.727,0,0,1,.134.268,1.12,1.12,0,0,0,1.072.67q1,0,1-.8,0-1.005-1.943-4.02A21.178,21.178,0,0,0,9.38-15.41h95.006Z" transform="translate(324 169.37)"/>
    </g>
  </g>
</svg>
