<svg id="_17widehat" data-name="17widehat" xmlns="http://www.w3.org/2000/svg" width="120" height="120" viewBox="0 0 120 120">
  <path id="Path_71" data-name="Path 71" d="M120,0H0V120H120Z" fill="none"/>
  <g id="Group_176" data-name="Group 176" transform="translate(-128.48 -47)">
    <g id="Group_126" data-name="Group 126">
      <g id="Group_123" data-name="Group 123" transform="translate(168.601 130.374)">
        <path id="Path_23" data-name="Path 23" d="M.458-37.458l-.916-1.734L18.615-49.857l19.04,10.665-.949,1.734L18.615-45.637Z"/>
      </g>
      <g id="Group_124" data-name="Group 124" transform="translate(155 130.374)">
        <path id="Path_24" data-name="Path 24" d="M24.991-25.326a3.079,3.079,0,0,1,2.077-2.814,1.967,1.967,0,0,1,.737-.134,1.781,1.781,0,0,1,1.943,1.809,14.883,14.883,0,0,1-.469,2.278l-2.412,9.38q-1,4.221-1.474,6.03a23.8,23.8,0,0,0-.871,4.958q0,3.082,2.01,3.082,2.546,0,4.288-5.36.335-1.139.8-2.948.536-1.139.938-1.206.8,0,.8.67a21.4,21.4,0,0,1-1.206,4.69,17.183,17.183,0,0,1-.8,1.943Q29.48.737,26.4.737a5.679,5.679,0,0,1-5.427-3.216,5.831,5.831,0,0,1-.67-1.809Q16.08.737,11.591.737A7.9,7.9,0,0,1,4.154-3.819,12.581,12.581,0,0,1,2.68-9.983,20.775,20.775,0,0,1,7.7-23.383q4.69-5.628,10.184-6.164a6.625,6.625,0,0,1,.938-.067q4.087,0,6.164,4.288M20.636-7.973h0L23.986-21.1q.2-1.005.2-1.139a7.006,7.006,0,0,0-1.206-3.417,4.55,4.55,0,0,0-4.087-2.479q-3.484,0-6.633,4.556a19,19,0,0,0-1.139,1.876A43.423,43.423,0,0,0,7.839-10.653a22.023,22.023,0,0,0-.4,3.618q0,4.556,2.546,5.9a3.585,3.585,0,0,0,1.742.4q3.752,0,7.571-4.757A5.91,5.91,0,0,0,20.569-7.7v-.067A.514.514,0,0,0,20.636-7.973Z"/>
      </g>
      <g id="Group_125" data-name="Group 125" transform="translate(190.443 130.374)">
        <path id="Path_25" data-name="Path 25" d="M26.532-25.46h0a7.547,7.547,0,0,0-5.762-2.68q-4.355,0-7.906,4.422a15.686,15.686,0,0,0-1.541,2.278A31.731,31.731,0,0,0,7.839-9.916,15.369,15.369,0,0,0,7.7-8.04q0,5.494,3.752,6.9a5.775,5.775,0,0,0,2.278.4,16.514,16.514,0,0,0,10.854-4.02A15.684,15.684,0,0,0,27.135-7.37q.469-.67.871-.67.6,0,.8.871,0,.737-2.278,2.881A18.691,18.691,0,0,1,13.6.737q-6.365,0-9.246-5.092a12.1,12.1,0,0,1-1.608-6.231A18.622,18.622,0,0,1,7.973-23.249q5.159-5.762,11.524-6.3a10.913,10.913,0,0,1,1.206-.067q5.159,0,7.169,3.149a4.92,4.92,0,0,1,.737,2.613,4.01,4.01,0,0,1-2.345,4.02,3.753,3.753,0,0,1-1.407.268,2.172,2.172,0,0,1-2.412-1.742,2.491,2.491,0,0,1-.067-.6,3.5,3.5,0,0,1,1.206-2.613A4.027,4.027,0,0,1,26.532-25.46Z"/>
      </g>
    </g>
  </g>
</svg>
