<svg id="_18mathring" data-name="18mathring" xmlns="http://www.w3.org/2000/svg" width="120" height="120" viewBox="0 0 120 120">
  <path id="Path_71" data-name="Path 71" d="M120,0H0V120H120Z" fill="none"/>
  <g id="Group_177" data-name="Group 177" transform="translate(-118 -40)">
    <g id="Group_130" data-name="Group 130">
      <g id="Group_128" data-name="Group 128" transform="translate(155 123.498)">
        <path id="Path_27" data-name="Path 27" d="M31.49-42.143a5.377,5.377,0,0,1-2.948,4.958.059.059,0,0,1-.067.067,6.823,6.823,0,0,1-3.417.871,6.166,6.166,0,0,1-5.427-2.747v-.067a.059.059,0,0,0-.067-.067,5.628,5.628,0,0,1-.871-3.015,5.407,5.407,0,0,1,2.814-4.824,6.685,6.685,0,0,1,3.618-1.005,6.123,6.123,0,0,1,5.427,2.814,5.336,5.336,0,0,1,.938,3.015m-6.365,4.422q4.69,0,4.69-4.422,0-4.355-4.757-4.355-4.69,0-4.69,4.422Q20.368-37.721,25.125-37.721Z"/>
      </g>
      <g id="Group_129" data-name="Group 129" transform="translate(161.063 123.498)">
        <path id="Path_28" data-name="Path 28" d="M31.557-25.259h0L24.12,4.489a11.382,11.382,0,0,1-5.226,6.767,16.33,16.33,0,0,1-8.978,2.479q-8.241,0-8.844-3.35A3.765,3.765,0,0,1,1,9.648,3.6,3.6,0,0,1,3.484,5.963a3.607,3.607,0,0,1,1.139-.2A2.226,2.226,0,0,1,7.1,7.571a2.2,2.2,0,0,1,.067.536,3.447,3.447,0,0,1-2.01,3.216q-.335.134-.737.268a17.827,17.827,0,0,0,5.36.67q6.566,0,9.648-7.236l2.211-8.844-.067-.067A10.849,10.849,0,0,1,14.807-.067,8.127,8.127,0,0,1,13.8,0,8.062,8.062,0,0,1,6.566-4.087a12.24,12.24,0,0,1-1.675-6.5A19.772,19.772,0,0,1,9.983-23.718q4.69-5.494,10.117-5.9h.737A6.687,6.687,0,0,1,26.666-26.2l.4.8a3.319,3.319,0,0,1,2.747-2.881,1.781,1.781,0,0,1,1.943,1.809l-.2,1.206M22.847-8.576h0l3.216-12.8a6.043,6.043,0,0,0,.2-1,6.511,6.511,0,0,0-1.139-3.216h0a5.419,5.419,0,0,0-2.01-2.01A4.624,4.624,0,0,0,20.9-28.14q-3.484,0-6.633,4.489-.469.737-.871,1.474A38.727,38.727,0,0,0,9.983-10.988a22.061,22.061,0,0,0-.335,3.35q0,4.422,2.546,5.762a3.735,3.735,0,0,0,1.809.4A8.5,8.5,0,0,0,19.43-3.886Q22.378-6.432,22.847-8.576Z"/>
      </g>
    </g>
  </g>
</svg>
