<svg id="_22cancel" data-name="22cancel" xmlns="http://www.w3.org/2000/svg" width="120" height="120" viewBox="0 0 120 120">
  <path id="Path_71" data-name="Path 71" d="M120,0H0V120H120Z" fill="none"/>
  <g id="Group_140" data-name="Group 140" transform="translate(-134.725 -35.975)">
    <g id="Group_139" data-name="Group 139" transform="translate(142.477 81.304)">
      <g id="Group_136" data-name="Group 136" transform="translate(8.459 0.276)">
        <path id="Path_33" data-name="Path 33" d="M7.834-25.062,21.1-47.324a1.234,1.234,0,0,1,.991-.648q.572,0,.648.381a3.111,3.111,0,0,1,.076.534L25.14-23.233q.114.953.457,1.144h.038v.038a6.368,6.368,0,0,0,1.982.191q.839,0,.877.419,0,.762-.686.762l-4.269-.114H23.5l-4.727.114h-.038q-.534,0-.534-.419a1.066,1.066,0,0,1,.915-.762q2.745,0,2.745-1.258,0,.038-.61-6.366H11.684L8.787-24.6a3.392,3.392,0,0,0-.534,1.41q0,1.182,1.792,1.334.61,0,.61.457a.64.64,0,0,1-.724.724l-3.659-.114H6.119l-3.2.114H2.841q-.5,0-.5-.419,0-.686.572-.724v-.038h.229a5.258,5.258,0,0,0,3.926-2.058,11.154,11.154,0,0,0,.762-1.144m4.574-5.6h8.729l-1.22-12.579Z" transform="translate(-2.345 47.972)"/>
      </g>
      <g id="Group_137" data-name="Group 137" transform="translate(37.315 1.534)">
        <path id="Path_34" data-name="Path 34" d="M7.312-22.7l5.108-20.47a5.113,5.113,0,0,0,.152-.724q0-.457-.61-.572h-.076a2.293,2.293,0,0,1-.343-.038,12.481,12.481,0,0,0-1.449-.076q-.991,0-1.067-.419,0-.686.572-.762H22.941q4.384,0,6.252,2.592a4.612,4.612,0,0,1,.839,2.668q0,3.088-3.431,5.375a.11.11,0,0,0-.076.038,12.412,12.412,0,0,1-4.46,1.753q3.888.457,5.337,3.05a4.847,4.847,0,0,1,.572,2.325A7.07,7.07,0,0,1,25.3-22.737l-.038.038a11.237,11.237,0,0,1-7.814,2.973H3.843q-.953,0-1.029-.419,0-.686.572-.762h.457q2.478,0,2.973-.534a3.093,3.093,0,0,0,.457-1.067,1.146,1.146,0,0,1,.038-.191m5.756-10.978h5.565a7.945,7.945,0,0,0,6.213-2.745,6.272,6.272,0,0,0,1.715-4.231,3.452,3.452,0,0,0-2.287-3.621,5.233,5.233,0,0,0-1.868-.3H17.49q-1.372,0-1.677.381h0v.038h-.038v.038a3.748,3.748,0,0,0-.343.991l-2.363,9.454m-1.715,12.77h5.184A7.709,7.709,0,0,0,22.6-23.652a7.094,7.094,0,0,0,1.83-4.727A4.156,4.156,0,0,0,22.445-32.3a5,5,0,0,0-2.4-.534h-7.2L10.209-22.2a4.558,4.558,0,0,0-.191.877.373.373,0,0,0,.343.381h.152A6.045,6.045,0,0,0,11.353-20.907Z" transform="translate(-2.814 45.761)"/>
      </g>
      <g id="Group_138" data-name="Group 138" transform="translate(68.459 0.695)">
        <path id="Path_35" data-name="Path 35" d="M30.415-46.854l-2.4,9.72q-.191.686-.381.724l-.038.038h-.267q-.572,0-.572-.381l.114-1.868V-38.7q0-4.727-2.973-6.518l-.038-.038a5.959,5.959,0,0,0-3.126-.8,11.813,11.813,0,0,0-7.662,3.011,10.865,10.865,0,0,0-1.639,1.6,20.041,20.041,0,0,0-4.46,10.75,16.366,16.366,0,0,0-.152,2.058q0,5.337,4.041,7.2a8.059,8.059,0,0,0,3.431.724A11.068,11.068,0,0,0,21.3-23.487a12.565,12.565,0,0,0,3.85-6.023.446.446,0,0,1,.5-.381q.457,0,.457.381a6.85,6.85,0,0,1-.877,2.44A13.663,13.663,0,0,1,21.914-22.8a12.3,12.3,0,0,1-8.234,3.278,9.868,9.868,0,0,1-7.814-3.354,10.346,10.346,0,0,1-2.516-7.09A16.266,16.266,0,0,1,7.505-40.6a18.182,18.182,0,0,1,9.111-6.1,14.362,14.362,0,0,1,3.812-.534,7.055,7.055,0,0,1,6.328,3.393l2.668-2.935q.457-.457.572-.457Q30.415-47.235,30.415-46.854Z" transform="translate(-3.35 47.235)"/>
      </g>
      <path id="Path_36" data-name="Path 36" d="M142.477,81.3l103.678,29.1" transform="translate(-142.477 -81.304)" fill="none" stroke="#000" stroke-miterlimit="10" stroke-width="2.68"/>
      <path id="Path_37" data-name="Path 37" d="M142.477,110.407,246.154,81.3" transform="translate(-142.477 -81.304)" fill="none" stroke="#000" stroke-miterlimit="10" stroke-width="2.68"/>
    </g>
  </g>
</svg>
