<svg id="_23underbrace" data-name="23underbrace" xmlns="http://www.w3.org/2000/svg" width="120" height="120" viewBox="0 0 120 120">
  <path id="Path_71" data-name="Path 71" d="M120,0H0V120H120Z" fill="none"/>
  <g id="Group_176" data-name="Group 176" transform="translate(-141.589 -36.278)">
    <g id="Group_156" data-name="Group 156" transform="translate(155.072 72)">
      <g id="Group_151" data-name="Group 151" transform="translate(98.913 20.164) rotate(90)">
        <g id="Group_146" data-name="Group 146" transform="translate(0)">
          <path id="Path_44" data-name="Path 44" d="M5.347,22.5V11.377a13.359,13.359,0,0,0-.339-3.034,12.335,12.335,0,0,0-1-2.777A12.275,12.275,0,0,0,2.35,3.1,9.96,9.96,0,0,0,.1,1.148.156.156,0,0,1,0,1V.219Q0,0,.232,0H1a.428.428,0,0,1,.122.049A13.769,13.769,0,0,1,4.864,2.887,13.264,13.264,0,0,1,7.428,6.818a11.468,11.468,0,0,1,.922,4.511V22.5a.241.241,0,0,1-.067.153.181.181,0,0,1-.128.079H5.578a.253.253,0,0,1-.232-.232Z" transform="translate(0 0)"/>
        </g>
        <g id="Group_147" data-name="Group 147" transform="translate(5.345 22.231)">
          <path id="Path_45" data-name="Path 45" d="M0,7.764V.219A.219.219,0,0,1,.232,0H2.808a.18.18,0,0,1,.13.067A.226.226,0,0,1,3,.219V7.764a.241.241,0,0,1-.067.153A.181.181,0,0,1,2.8,8H.232A.2.2,0,0,1,0,7.764Z" transform="translate(0.002 0)"/>
        </g>
        <g id="Group_148" data-name="Group 148" transform="translate(5.344 29.73)">
          <path id="Path_46" data-name="Path 46" d="M0,45.262V34.337a12.347,12.347,0,0,1,.488-3.43,13.405,13.405,0,0,1,1.423-3.241,14.283,14.283,0,0,1,2.227-2.808,13.516,13.516,0,0,1,2.771-2.112,14.315,14.315,0,0,1-2.79-2.124,14.037,14.037,0,0,1-2.2-2.789A13.322,13.322,0,0,1,.488,14.576,12.348,12.348,0,0,1,0,11.169V.219A.219.219,0,0,1,.232,0H2.808a.18.18,0,0,1,.13.067A.226.226,0,0,1,3,.219v10.9a15.6,15.6,0,0,0,.58,4.254A13.358,13.358,0,0,0,5.343,19.2a11.255,11.255,0,0,0,2.934,2.99.234.234,0,0,1,.073.171v.781a.211.211,0,0,1-.073.147,11.218,11.218,0,0,0-2.93,3,13.426,13.426,0,0,0-1.764,3.842A15.714,15.714,0,0,0,3,34.4V45.264a.241.241,0,0,1-.067.153.181.181,0,0,1-.128.079H.232A.2.2,0,0,1,0,45.262Z" transform="translate(0.002 0)"/>
        </g>
        <g id="Group_149" data-name="Group 149" transform="translate(5.345 74.729)">
          <path id="Path_47" data-name="Path 47" d="M0,7.764V.219A.219.219,0,0,1,.232,0H2.808a.18.18,0,0,1,.13.067A.226.226,0,0,1,3,.219V7.764a.241.241,0,0,1-.067.153A.181.181,0,0,1,2.8,8H.232A.2.2,0,0,1,0,7.764Z" transform="translate(0.002 0)"/>
        </g>
        <g id="Group_150" data-name="Group 150" transform="translate(0 82.229)">
          <path id="Path_48" data-name="Path 48" d="M0,22.522v-.781a.175.175,0,0,1,.1-.171,10.584,10.584,0,0,0,2.856-2.7,12.071,12.071,0,0,0,1.792-3.55,13.279,13.279,0,0,0,.6-3.98V.219A.219.219,0,0,1,5.578,0H8.155a.18.18,0,0,1,.134.067A.226.226,0,0,1,8.35.219V11.388a11.386,11.386,0,0,1-.531,3.467,12.429,12.429,0,0,1-1.491,3.12,14.036,14.036,0,0,1-2.3,2.661A13.992,13.992,0,0,1,1.122,22.67.428.428,0,0,1,1,22.718H.232Q0,22.711,0,22.522Z" transform="translate(0 0.001)"/>
        </g>
      </g>
      <g id="Group_152" data-name="Group 152" transform="translate(11.192 55.096)">
        <path id="Path_49" data-name="Path 49" d="M4.466-17q0-1.482-.57-1.824a3.771,3.771,0,0,0-1.634-.3H1.5V-20.3l5.359-.413v4a5.9,5.9,0,0,1,5.625-4,4.884,4.884,0,0,1,4,1.407,5.215,5.215,0,0,1,1.141,3.231q.039.722.039,2.585v7.261q.039.912,1.1,1.065a14.191,14.191,0,0,0,1.863.076v1.178q-3.877-.114-4.257-.114-.3,0-4.3.114V-5.1a5.421,5.421,0,0,0,2.618-.342l.076-.076A2.12,2.12,0,0,0,15.03-6.81v-8.857q0-3.764-2.167-4.143a2.656,2.656,0,0,0-.646-.076,4.728,4.728,0,0,0-3.874,2.014A6.483,6.483,0,0,0,7.088-13.8V-6.81q0,1.292.608,1.515a8.113,8.113,0,0,0,2.357.19v1.178Q6.176-4.041,5.8-4.041q-.3,0-4.3.114V-5.1a5.421,5.421,0,0,0,2.618-.342l.076-.076A2.12,2.12,0,0,0,4.459-6.81Z" transform="translate(-1.5 20.747)"/>
      </g>
      <g id="Group_153" data-name="Group 153" transform="translate(32.175 54.891)">
        <path id="Path_50" data-name="Path 50" d="M18.153-12.116h0A8.239,8.239,0,0,1,15.26-5.655,8.184,8.184,0,0,1,9.715-3.564,8.031,8.031,0,0,1,3.556-6.3a8.372,8.372,0,0,1-2.243-5.815,8.7,8.7,0,0,1,2.775-6.537,7.8,7.8,0,0,1,5.664-2.357,7.853,7.853,0,0,1,6.2,2.928,8.832,8.832,0,0,1,2.2,5.968m-8.4,7.6h0a4.661,4.661,0,0,0,4.03-2.129l.38-.689a11.879,11.879,0,0,0,.836-5.1,10.643,10.643,0,0,0-.988-5.284,5.3,5.3,0,0,0-4.3-2.458,4.753,4.753,0,0,0-3.873,1.894,3.734,3.734,0,0,0-.456.646,11.327,11.327,0,0,0-.912,5.208,11.356,11.356,0,0,0,.951,5.359A5.109,5.109,0,0,0,9.752-4.514Z" transform="translate(-1.312 21.011)"/>
      </g>
      <g id="Group_154" data-name="Group 154" transform="translate(50.84 48.538)">
        <path id="Path_51" data-name="Path 51" d="M6.745-20.669h0V-10.1q0,3.8,2.2,4.067A1.414,1.414,0,0,0,9.291-6q1.634,0,2.28-2.129a7.634,7.634,0,0,0,.266-2.129v-2.091h.951v2.162A5.352,5.352,0,0,1,11.039-5.7a3.2,3.2,0,0,1-2.014.646,4.42,4.42,0,0,1-4.37-2.39,6.43,6.43,0,0,1-.533-2.742V-20.674H.891v-.836q3.384-.152,4.486-4.257a13.28,13.28,0,0,0,.413-3.079h.951v6.995h5.441v1.178Z" transform="translate(-0.891 28.847)"/>
      </g>
      <g id="Group_155" data-name="Group 155" transform="translate(65.965 54.877)">
        <path id="Path_52" data-name="Path 52" d="M15.073-12.759H4.465a11.052,11.052,0,0,0,1.141,5.7,5.943,5.943,0,0,0,4.3,2.546,5.022,5.022,0,0,0,4.22-2.129,6.241,6.241,0,0,0,.912-1.791q.114-.532.495-.532.495,0,.495.456a4.4,4.4,0,0,1-1.065,2.28,6.157,6.157,0,0,1-4.106,2.552,5.994,5.994,0,0,1-1.178.114A7.949,7.949,0,0,1,3.6-6.3,8.67,8.67,0,0,1,1.314-12.34a8.608,8.608,0,0,1,2.738-6.539,7.2,7.2,0,0,1,5.169-2.129,6.091,6.091,0,0,1,6.005,3.65,8.879,8.879,0,0,1,.8,3.8q0,.646-.266.76a3.316,3.316,0,0,1-.689.039M4.507-13.552h9.009a8.047,8.047,0,0,0-1.6-5.436,3.479,3.479,0,0,0-2.7-1.177,3.958,3.958,0,0,0-3.269,1.791,8.215,8.215,0,0,0-1.444,4.822Z" transform="translate(-1.311 21.022)"/>
      </g>
    </g>
    <g id="Group_99" data-name="Group 99" transform="translate(167.449 46.832)">
      <path id="Path_5" data-name="Path 5" d="M8.955-20.379,24.93-47.192a1.486,1.486,0,0,1,1.194-.78q.689,0,.78.459A3.747,3.747,0,0,1,27-46.87l2.8,28.691q.137,1.148.548,1.377h.046v.046a7.668,7.668,0,0,0,2.387.23q1.01,0,1.056.5,0,.918-.824.918l-5.139-.137h-.048L22.13-15.1h-.046q-.643,0-.643-.5a1.284,1.284,0,0,1,1.1-.918q3.305,0,3.305-1.515,0,.046-.734-7.666H13.592L10.1-19.831a4.085,4.085,0,0,0-.643,1.7q0,1.423,2.158,1.607.734,0,.734.548a.771.771,0,0,1-.217.656.771.771,0,0,1-.655.219l-4.407-.137H6.89L3.034-15.1H2.942q-.6,0-.6-.5,0-.826.689-.872v-.046h.274a6.332,6.332,0,0,0,4.728-2.479,13.428,13.428,0,0,0,.918-1.377m5.509-6.748H24.976L23.507-42.28Z" transform="translate(-2.345 47.972)"/>
    </g>
    <g id="Group_100" data-name="Group 100" transform="translate(202.199 48.35)">
      <path id="Path_6" data-name="Path 6" d="M8.231-17.987l6.153-24.651a6.158,6.158,0,0,0,.184-.872q0-.548-.734-.685h-.093a2.761,2.761,0,0,1-.411-.046,15.03,15.03,0,0,0-1.744-.092q-1.194,0-1.285-.5,0-.826.689-.918H27.052q5.276,0,7.528,3.122a5.554,5.554,0,0,1,1.01,3.213q0,3.718-4.131,6.473a.132.132,0,0,0-.092.046A14.947,14.947,0,0,1,26-30.791q4.682.548,6.427,3.672a5.837,5.837,0,0,1,.689,2.8q0,3.351-3.213,6.289l-.046.046a13.532,13.532,0,0,1-9.411,3.577H4.053q-1.148,0-1.239-.5,0-.826.689-.918h.548q2.984,0,3.581-.643a3.724,3.724,0,0,0,.548-1.285,1.38,1.38,0,0,1,.046-.23M15.157-31.21h6.7a9.568,9.568,0,0,0,7.488-3.3,7.554,7.554,0,0,0,2.066-5.1q0-3.351-2.754-4.361a6.3,6.3,0,0,0-2.249-.367H20.488q-1.653,0-2.02.459h0v.046h-.046v.046a4.514,4.514,0,0,0-.411,1.194L15.163-31.207M13.1-15.829H19.34a9.283,9.283,0,0,0,7.3-3.3,8.543,8.543,0,0,0,2.2-5.693,5,5,0,0,0-2.387-4.728,6.029,6.029,0,0,0-2.892-.643H14.887L11.72-17.39a5.489,5.489,0,0,0-.23,1.056.449.449,0,0,0,.411.459h.184a7.28,7.28,0,0,0,1.012.046Z" transform="translate(-2.814 45.756)"/>
    </g>
  </g>
</svg>
