<svg xmlns="http://www.w3.org/2000/svg" width="24" height="24" viewBox="0 0 24 24">
  <g id="physics" transform="translate(-903 -376)">
    <path id="physics-2" data-name="physics" d="M16.724,2.576a2.7,2.7,0,1,1-2.7,2.7,2.3,2.3,0,0,1,.126-.756A7.287,7.287,0,0,0,11,3.8,7.2,7.2,0,0,0,3.8,11l.036.756-1.791.189L2,11A9,9,0,0,1,15.2,3.044a2.712,2.712,0,0,1,1.521-.468m0,1.8a.9.9,0,1,0,.9.9.9.9,0,0,0-.9-.9M5.276,14.024a2.708,2.708,0,0,1,2.7,2.7,2.3,2.3,0,0,1-.126.756A7.287,7.287,0,0,0,11,18.2,7.2,7.2,0,0,0,18.2,11l-.036-.756,1.791-.189L20,11A9,9,0,0,1,6.8,18.956a2.7,2.7,0,1,1-1.521-4.932m0,1.8a.9.9,0,1,0,.9.9.9.9,0,0,0-.9-.9M11,7.4A3.6,3.6,0,1,1,7.4,11,3.6,3.6,0,0,1,11,7.4Z" transform="translate(904 377)"/>
    <path id="Path_527" data-name="Path 527" d="M0,0H24V24H0Z" transform="translate(903 376)" fill="none"/>
  </g>
</svg>
