<svg id="math" xmlns="http://www.w3.org/2000/svg" width="24" height="24" viewBox="0 0 24 24">
  <path id="Path_524" data-name="Path 524" d="M0,0H24V24H0Z" fill="none"/>
  <path id="math-2" data-name="math" d="M12.42,5.29a2,2,0,0,0-2.17,1.82L10,10h2.82v2h-3l-.44,5.07A4,4,0,0,1,2,18.83l1.5-1.5a2,2,0,0,0,3.9-.44L7.82,12h-3V10H8l.27-3.07a4,4,0,0,1,7.39-1.76l-1.5,1.5a2,2,0,0,0-1.74-1.38M22,13.65l-1.41-1.41-2.83,2.83-2.83-2.83L13.5,13.65l2.85,2.85L13.5,19.31l1.43,1.41,2.83-2.83,2.83,2.83L22,19.31,19.17,16.5Z" transform="translate(0 -0.016)"/>
</svg>
