<svg version="1.1" xmlns="http://www.w3.org/2000/svg" xmlns:xlink="http://www.w3.org/1999/xlink" width="72" height="104"><defs><clipPath id="swqvCOJvRbyw"><path fill="none" stroke="none" d=" M 0 0 L 72 0 L 72 104 L 0 104 L 0 0 Z"/></clipPath></defs><g transform="scale(1,1)" clip-path="url(#swqvCOJvRbyw)"><g transform="translate(-136,-56)"><g transform="scale(67,67)"><g transform="translate(2.3134328358208953,1.9328059701492537)"><path fill="rgb(0,0,0)" stroke="none" paint-order="stroke fill markers" d=" M 0.551 -0.656 L 0.299 0.002 Q 0.292 0.021 0.278 0.022 Q 0.265 0.022 0.259 0.007 Q 0.258 0.005 0.256 0 L 0.005 -0.657 Q 0 -0.669 0 -0.674 Q 0 -0.6890000000000001 0.016 -0.6930000000000001 Q 0.018000000000000002 -0.6940000000000001 0.02 -0.6940000000000001 Q 0.033 -0.6940000000000001 0.039 -0.679 Q 0.04 -0.677 0.042 -0.672 L 0.126 -0.451 L 0.43 -0.451 L 0.515 -0.674 Q 0.523 -0.6930000000000001 0.536 -0.6940000000000001 Q 0.553 -0.6940000000000001 0.556 -0.674 Q 0.556 -0.668 0.551 -0.656 M 0.14200000000000002 -0.41100000000000003 L 0.278 -0.055 L 0.41400000000000003 -0.41100000000000003 L 0.14200000000000002 -0.41100000000000003 Z"/></g></g></g></g></svg>