<svg id="_11forall" data-name="11forall" xmlns="http://www.w3.org/2000/svg" width="120" height="120" viewBox="0 0 120 120">
  <path id="Path_71" data-name="Path 71" d="M120,0H0V120H120Z" fill="none"/>
  <g id="Group_994" data-name="Group 994" transform="translate(-114 -47)">
    <g id="Group_899" data-name="Group 899">
      <g id="Group_898" data-name="Group 898" transform="translate(155 129.498)">
        <path id="Path_610" data-name="Path 610" d="M36.917-43.952,20.033.134q-.469,1.273-1.407,1.34a1.347,1.347,0,0,1-1.273-1q-.067-.134-.2-.469L.335-44.019A3.558,3.558,0,0,1,0-45.158a1.23,1.23,0,0,1,1.072-1.273A.6.6,0,0,1,1.34-46.5a1.347,1.347,0,0,1,1.273,1.005q.067.134.2.469L8.442-30.217H28.81L34.5-45.158q.536-1.273,1.407-1.34,1.139,0,1.34,1.34a3.537,3.537,0,0,1-.335,1.206M9.514-27.537,18.626-3.685l9.112-23.852Z"/>
      </g>
    </g>
  </g>
</svg>
