<svg id="_12infin" data-name="12infin" xmlns="http://www.w3.org/2000/svg" width="120" height="120" viewBox="0 0 120 120">
  <path id="Path_71" data-name="Path 71" d="M120,0H0V120H120Z" fill="none"/>
  <g id="Group_995" data-name="Group 995" transform="translate(-121.329 -30.593)">
    <g id="Group_902" data-name="Group 902" transform="translate(158.752 91.263)">
      <g id="Group_901" data-name="Group 901" transform="translate(0 0)">
        <path id="Path_612" data-name="Path 612" d="M27.237-20.781a18.91,18.91,0,0,1,7.482-7.482,11.367,11.367,0,0,1,5.3-1.351,8.814,8.814,0,0,1,7.846,4.624,13.186,13.186,0,0,1,1.974,7.118,12.34,12.34,0,0,1-3.325,8.885,8.825,8.825,0,0,1-6.651,2.91A13.6,13.6,0,0,1,31.03-9.662a36.345,36.345,0,0,1-3.481-3.793l-1.2-1.455a18.91,18.91,0,0,1-7.482,7.482,11.367,11.367,0,0,1-5.3,1.351A8.814,8.814,0,0,1,5.726-10.7a13.186,13.186,0,0,1-1.974-7.118A12.34,12.34,0,0,1,7.077-26.7a8.825,8.825,0,0,1,6.651-2.91,13.6,13.6,0,0,1,8.833,3.585,36.344,36.344,0,0,1,3.481,3.793l.208.26q.312.416.987,1.2m1.351,1.819,4.988,6.391a.046.046,0,0,1,.052.052l.208.208q3.429,3.741,6.858,3.741a7.361,7.361,0,0,0,6.183-3.377A9.927,9.927,0,0,0,48.7-17.871a10.816,10.816,0,0,0-2.754-7.586,7.347,7.347,0,0,0-4.936-2.494h-.623q-6.547,0-11.535,8.521-.1.208-.26.468M25-16.728h0l-4.988-6.391-.052-.052-.208-.208Q16.326-27.12,12.9-27.12a7.361,7.361,0,0,0-6.183,3.377A9.927,9.927,0,0,0,4.9-17.819a10.816,10.816,0,0,0,2.754,7.586,7.16,7.16,0,0,0,5.56,2.494q6.547,0,11.535-8.521Q24.847-16.469,25-16.728Z" transform="translate(-3.752 29.614)"/>
      </g>
    </g>
  </g>
</svg>
