<svg id="_13check" data-name="13check" xmlns="http://www.w3.org/2000/svg" width="120" height="120" viewBox="0 0 120 120">
  <path id="Path_71" data-name="Path 71" d="M120,0H0V120H120Z" fill="none"/>
  <g id="Group_996" data-name="Group 996" transform="translate(-122 -47)">
    <g id="Group_905" data-name="Group 905">
      <g id="Group_904" data-name="Group 904" transform="translate(155 129.364)">
        <path id="Path_614" data-name="Path 614" d="M11.658-17.621,17.956-7.3a79.577,79.577,0,0,1,13.333-24.12L32.83-33.3a74.619,74.619,0,0,1,10.452-10.05q4.355-3.484,6.1-3.484.737,0,.737.469,0,.6-1.943,2.077A69.322,69.322,0,0,0,33.567-29.346,73.506,73.506,0,0,0,21.44-1.407q-.335,1.34-2.948,2.613a4.682,4.682,0,0,1-1.943.6q-.67,0-.8-.268A13.793,13.793,0,0,1,14.673-.2l-8.509-14a3.178,3.178,0,0,1-.536-1.139q0-1.005,2.412-2.412a5.87,5.87,0,0,1,2.546-.871q.4,0,.871.67A3.278,3.278,0,0,0,11.658-17.621Z"/>
      </g>
    </g>
  </g>
</svg>
