<svg version="1.1" xmlns="http://www.w3.org/2000/svg" xmlns:xlink="http://www.w3.org/1999/xlink" width="90" height="104"><defs><clipPath id="FJxewJQPpdbm"><path fill="none" stroke="none" d=" M 0 0 L 90 0 L 90 104 L 0 104 L 0 0 Z"/></clipPath></defs><g transform="scale(1,1)" clip-path="url(#FJxewJQPpdbm)"><g transform="translate(-136,-56)"><g transform="scale(67,67)"><g transform="translate(2.3134328358208953,1.9308059701492537)"><path fill="rgb(0,0,0)" stroke="none" paint-order="stroke fill markers" d=" M 0.17400000000000002 -0.263 L 0.268 -0.109 Q 0.337 -0.308 0.467 -0.46900000000000003 L 0.49 -0.497 Q 0.558 -0.577 0.646 -0.647 Q 0.711 -0.6990000000000001 0.737 -0.6990000000000001 Q 0.748 -0.6990000000000001 0.748 -0.6920000000000001 Q 0.748 -0.683 0.719 -0.661 Q 0.597 -0.5700000000000001 0.501 -0.438 Q 0.371 -0.258 0.32 -0.021 Q 0.315 -0.001 0.276 0.018000000000000002 Q 0.258 0.027 0.247 0.027 Q 0.23700000000000002 0.027 0.23500000000000001 0.023 Q 0.232 0.02 0.219 -0.003 L 0.092 -0.212 Q 0.084 -0.225 0.084 -0.229 Q 0.084 -0.244 0.12 -0.265 Q 0.14400000000000002 -0.278 0.158 -0.278 Q 0.164 -0.278 0.171 -0.268 Q 0.17200000000000001 -0.266 0.17400000000000002 -0.263 Z"/></g></g></g></g></svg>