<svg id="_21a" data-name="21a" xmlns="http://www.w3.org/2000/svg" width="120" height="120" viewBox="0 0 120 120">
  <path id="Path_71" data-name="Path 71" d="M120,0H0V120H120Z" fill="none"/>
  <g id="Group_994" data-name="Group 994" transform="translate(-117 -38)">
    <g id="Group_908" data-name="Group 908">
      <g id="Group_907" data-name="Group 907" transform="translate(155 120.877)">
        <path id="Path_616" data-name="Path 616" d="M31.959-15.812h0v4.154a36.935,36.935,0,0,0,6.566-13.266q.67-1.34,1.005-1.407.8,0,.8.67a19.678,19.678,0,0,1-1.541,5.092A41.661,41.661,0,0,1,32.629-9.916a5.4,5.4,0,0,0-.67,2.345q0,6.834,2.077,6.834a3.787,3.787,0,0,0,3.35-2.345,9.837,9.837,0,0,0,.4-.938.91.91,0,0,1,.871-.67q.8,0,.8.67A4.823,4.823,0,0,1,37.788-1,5.45,5.45,0,0,1,33.835.737q-4.221,0-5.829-4.623-.134-.469-.268-1Q20.7.737,13.6.737q-6.3,0-9.246-5.025a12.234,12.234,0,0,1-1.608-6.3A18.622,18.622,0,0,1,7.973-23.249q5.159-5.762,11.658-6.3a10.338,10.338,0,0,1,1.139-.067,10,10,0,0,1,8.71,4.422.059.059,0,0,0,.067.067,16.28,16.28,0,0,1,2.412,9.313M27.47-6.633h0q-.134-1.139-.134-7.5,0-8.241-1.809-11.256a5.609,5.609,0,0,0-1.943-2.01l-.067-.067H23.45a5.56,5.56,0,0,0-2.747-.67q-4.757,0-8.576,5.36l-.536.8A29.983,29.983,0,0,0,8.04-11.122,18.234,18.234,0,0,0,7.7-8.04q0,5.628,3.953,6.968a6.139,6.139,0,0,0,2.077.335Q20.7-.737,27.47-6.633Z"/>
      </g>
    </g>
  </g>
</svg>
