<svg id="_23b" data-name="23b" xmlns="http://www.w3.org/2000/svg" width="120" height="120" viewBox="0 0 120 120">
  <path id="Path_71" data-name="Path 71" d="M120,0H0V120H120Z" fill="none"/>
  <g id="Group_996" data-name="Group 996" transform="translate(-116 -40)">
    <g id="Group_914" data-name="Group 914">
      <g id="Group_913" data-name="Group 913" transform="translate(155 123.498)">
        <path id="Path_620" data-name="Path 620" d="M1.876,11.323l10.184-40.6a26.9,26.9,0,0,1,7.5-13q5.226-4.958,10.988-4.958,5.561,0,7.973,4.422a8.656,8.656,0,0,1,1.005,4.154,12.962,12.962,0,0,1-4.154,9.246A15.957,15.957,0,0,1,32.294-27q4.489,3.082,4.489,9.313a17.992,17.992,0,0,1-5.36,12.6Q26.264.335,19.832.8h-.871q-6.5,0-9.514-5.025A11.15,11.15,0,0,1,8.241-7.035L3.216,12.6l-.067.134a.909.909,0,0,1-.67.268q-.8,0-.8-.67a6.043,6.043,0,0,1,.2-1.005m20.1-38.19a8.772,8.772,0,0,0,2.881.4A8.033,8.033,0,0,0,28.073-27a6.737,6.737,0,0,0-2.68-.4,8.089,8.089,0,0,0-3.417.536m8.174-1.34q4.087-3.082,5.025-10.452v-.2a11.079,11.079,0,0,0,.134-1.474q0-4.757-3.886-5.36a6.625,6.625,0,0,0-.938-.067q-5.561,0-10.452,5.159A27.929,27.929,0,0,0,13.4-27.872L10.318-15.477a23.767,23.767,0,0,0-.871,5.025q0,5.494,3.953,8.174A9.167,9.167,0,0,0,18.827-.67q5.226,0,8.978-5.628a7.622,7.622,0,0,0,.8-1.273,31.327,31.327,0,0,0,3.149-10.787,16.655,16.655,0,0,0,.134-1.876,7.75,7.75,0,0,0-2.01-5.628,13.3,13.3,0,0,1-5.025.871q-4.556,0-4.556-1.742,0-2.144,5.226-2.144A13.853,13.853,0,0,1,30.15-28.207Z"/>
      </g>
    </g>
  </g>
</svg>
