<svg id="_25g" data-name="25g" xmlns="http://www.w3.org/2000/svg" width="120" height="120" viewBox="0 0 120 120">
  <path id="Path_71" data-name="Path 71" d="M120,0H0V120H120Z" fill="none"/>
  <g id="Group_998" data-name="Group 998" transform="translate(-114 -45)">
    <g id="Group_920" data-name="Group 920">
      <g id="Group_919" data-name="Group 919" transform="translate(155 114.877)">
        <path id="Path_624" data-name="Path 624" d="M2.747-17.018h0l-.268.335q-1.273,0-1.273-.67,0-1.876,2.278-5.36,4.69-6.767,10.787-6.9,6.03,0,8.911,7.37A40.675,40.675,0,0,1,25.929-8.576a202.231,202.231,0,0,1,8.844-19.832.787.787,0,0,1,.8-.469q.8,0,.8.67a11.465,11.465,0,0,1-1.273,2.546A168.826,168.826,0,0,0,26.465-5.226q-.268.8-.469,1.474a19.83,19.83,0,0,0-.536,2.613,86.76,86.76,0,0,1-2.479,11.524q-1.139,3.819-2.144,4.02-.871,0-.871-1.206,0-2.747,3.35-14.07a2.6,2.6,0,0,0,.134-.335,20.7,20.7,0,0,0,.8-6.566q0-15.745-9.38-16.951-.737-.067-1.474-.067a10.714,10.714,0,0,0-7.973,3.283l-.067.067A11.521,11.521,0,0,0,2.747-17.018Z"/>
      </g>
    </g>
  </g>
</svg>
