<svg id="_26G" data-name="26G" xmlns="http://www.w3.org/2000/svg" width="120" height="120" viewBox="0 0 120 120">
  <path id="Path_71" data-name="Path 71" d="M120,0H0V120H120Z" fill="none"/>
  <g id="Group_994" data-name="Group 994" transform="translate(-116 -46)">
    <g id="Group_923" data-name="Group 923">
      <g id="Group_922" data-name="Group 922" transform="translate(155 129.761)">
        <path id="Path_626" data-name="Path 626" d="M37.118-45.56l1.876,15.075H37.319q-.871-7.37-2.814-9.849-2.412-3.149-9.246-3.149h-6.9q-2.613,0-3.082.8v.067h0v.067a4.713,4.713,0,0,0-.2,1.742v35.51q0,1.943.8,2.479,1.072.737,5.561.737h2.211V0Q21.239-.2,12.4-.2,4.556-.2,2.211,0V-2.077H3.819q4.355,0,5.025-1.139a4.781,4.781,0,0,0,.268-2.01V-40.334q0-2.01-.8-2.546-.938-.6-4.489-.6H2.211V-45.56Z"/>
      </g>
    </g>
  </g>
</svg>
