<svg id="_27d" data-name="27d" xmlns="http://www.w3.org/2000/svg" width="120" height="120" viewBox="0 0 120 120">
  <path id="Path_71" data-name="Path 71" d="M120,0H0V120H120Z" fill="none"/>
  <g id="Group_994" data-name="Group 994" transform="translate(-112 -46)">
    <g id="Group_926" data-name="Group 926">
      <g id="Group_925" data-name="Group 925" transform="translate(155 129.498)">
        <path id="Path_628" data-name="Path 628" d="M17.688-29.279q-3.417-6.7-3.886-9.648a12.8,12.8,0,0,1-.134-1.809q0-5.293,4.824-6.566a11.049,11.049,0,0,1,2.814-.335A28.246,28.246,0,0,1,26.8-46.9q2.814.6,3.216,1.273a1.466,1.466,0,0,1,.268.938,2.542,2.542,0,0,1-1.474,2.345,2.228,2.228,0,0,1-1.206.335q-.871,0-3.685-1.675a9.093,9.093,0,0,0-4.757-1.809,3.414,3.414,0,0,0-3.484,2.01,3.035,3.035,0,0,0-.2,1.072q0,3.015,6.365,10.988A26.38,26.38,0,0,1,26-24.388a17.921,17.921,0,0,1,.8,5.427A24.4,24.4,0,0,1,22.78-5.226Q18.827.8,13.4.8a9.7,9.7,0,0,1-8.777-4.69,11.874,11.874,0,0,1-1.809-6.566,18.94,18.94,0,0,1,5.025-12.6,18.549,18.549,0,0,1,9.849-6.231m.8,1.474q-6.968,1.876-10.117,11.39A25.8,25.8,0,0,0,6.968-8.576q0,5.628,3.819,7.37A6.36,6.36,0,0,0,13.4-.67q4.556,0,7.169-7.3a24.772,24.772,0,0,0,1.608-8.308q0-4.69-3.216-10.72Q18.827-27.2,18.492-27.805Z"/>
      </g>
    </g>
  </g>
</svg>
