<svg version="1.1" xmlns="http://www.w3.org/2000/svg" xmlns:xlink="http://www.w3.org/1999/xlink" width="67" height="104"><defs><clipPath id="oWsxxkuKItui"><path fill="none" stroke="none" d=" M 0 0 L 67 0 L 67 104 L 0 104 L 0 0 Z"/></clipPath></defs><g transform="scale(1,1)" clip-path="url(#oWsxxkuKItui)"><g transform="translate(-136,-56)"><g transform="scale(67,67)"><g transform="translate(2.3134328358208953,1.9328059701492537)"><path fill="rgb(0,0,0)" stroke="none" paint-order="stroke fill markers" d=" M 0.264 -0.437 Q 0.213 -0.537 0.20600000000000002 -0.581 Q 0.20400000000000001 -0.595 0.20400000000000001 -0.608 Q 0.20400000000000001 -0.687 0.276 -0.706 Q 0.295 -0.711 0.318 -0.711 Q 0.34800000000000003 -0.711 0.4 -0.7000000000000001 Q 0.442 -0.6910000000000001 0.448 -0.681 Q 0.452 -0.676 0.452 -0.667 Q 0.452 -0.644 0.43 -0.632 Q 0.422 -0.627 0.41200000000000003 -0.627 Q 0.399 -0.627 0.357 -0.652 Q 0.316 -0.679 0.28600000000000003 -0.679 Q 0.247 -0.679 0.234 -0.649 Q 0.231 -0.641 0.231 -0.633 Q 0.231 -0.588 0.326 -0.46900000000000003 Q 0.374 -0.406 0.388 -0.364 Q 0.4 -0.326 0.4 -0.28300000000000003 Q 0.4 -0.169 0.34 -0.078 Q 0.281 0.012 0.2 0.012 Q 0.113 0.012 0.069 -0.058 Q 0.042 -0.1 0.042 -0.156 Q 0.042 -0.257 0.117 -0.34400000000000003 Q 0.18 -0.417 0.264 -0.437 M 0.276 -0.41500000000000004 Q 0.17200000000000001 -0.387 0.125 -0.245 Q 0.10400000000000001 -0.18 0.10400000000000001 -0.128 Q 0.10400000000000001 -0.044 0.161 -0.018000000000000002 Q 0.179 -0.01 0.2 -0.01 Q 0.268 -0.01 0.307 -0.11900000000000001 Q 0.331 -0.186 0.331 -0.243 Q 0.331 -0.313 0.28300000000000003 -0.403 Q 0.281 -0.406 0.276 -0.41500000000000004 Z"/></g></g></g></g></svg>