<svg id="_28D" data-name="28D" xmlns="http://www.w3.org/2000/svg" width="120" height="120" viewBox="0 0 120 120">
  <path id="Path_71" data-name="Path 71" d="M120,0H0V120H120Z" fill="none"/>
  <g id="Group_994" data-name="Group 994" transform="translate(-123 -46)">
    <g id="Group_929" data-name="Group 929">
      <g id="Group_928" data-name="Group 928" transform="translate(155 129.761)">
        <path id="Path_630" data-name="Path 630" d="M29.614-46.766,52.26-1.34a2.274,2.274,0,0,1,.335.8A1.74,1.74,0,0,1,51.121,0H4.623Q3.216,0,3.149-.536a2.274,2.274,0,0,1,.335-.8L26.13-46.766q.536-1,1.072-1.139a2.819,2.819,0,0,1,.67-.067,1.528,1.528,0,0,1,1.474.737q.067.134.268.469m-3.886,5.494L7.638-5.092H43.751Z"/>
      </g>
    </g>
  </g>
</svg>
