<svg id="_29-0v" data-name="29-0v" xmlns="http://www.w3.org/2000/svg" width="120" height="120" viewBox="0 0 120 120">
  <path id="Path_71" data-name="Path 71" d="M120,0H0V120H120Z" fill="none"/>
  <g id="Group_994" data-name="Group 994" transform="translate(-110 -38)">
    <g id="Group_932" data-name="Group 932">
      <g id="Group_931" data-name="Group 931" transform="translate(155 120.877)">
        <path id="Path_632" data-name="Path 632" d="M9.447-15.209h0a10.291,10.291,0,0,0-5.628,6.03A5.369,5.369,0,0,0,3.484-7.37q0,4.958,7.638,5.695,1.072.067,2.144.067,7.906,0,10.251-3.551a2.592,2.592,0,0,0,.335-.469q.335-.469.67-.469.737,0,.737.67,0,1.072-2.01,3.015A14.733,14.733,0,0,1,12.663,1.474q-6.834,0-9.715-4.355A7.411,7.411,0,0,1,1.742-6.968q0-4.02,3.685-7.3a11.875,11.875,0,0,1,2.412-1.742,5.846,5.846,0,0,1-2.68-4.757q0-3.953,4.891-6.9a19.229,19.229,0,0,1,10.05-2.68,12.163,12.163,0,0,1,7.437,2.278q1.206.871,1.206,1.541a1.687,1.687,0,0,1-1.206,1.675,1.646,1.646,0,0,1-.6.134,2.962,2.962,0,0,1-1.34-.67,10.482,10.482,0,0,0-6.164-1.876q-6.5,0-10.318,2.68A4.746,4.746,0,0,0,6.834-20.77a4.3,4.3,0,0,0,2.68,3.886,14.654,14.654,0,0,1,6.231-1.273q4.757,0,4.891,1.809,0,2.077-5.427,2.077a14.928,14.928,0,0,1-5.762-.938m2.211-.871a14.646,14.646,0,0,0,3.551.335,9.262,9.262,0,0,0,3.685-.536,11.925,11.925,0,0,0-3.149-.4A12.5,12.5,0,0,0,11.658-16.08Z"/>
      </g>
    </g>
  </g>
</svg>
