<svg version="1.1" xmlns="http://www.w3.org/2000/svg" xmlns:xlink="http://www.w3.org/1999/xlink" width="66" height="104"><defs><clipPath id="armbNAKRteqX"><path fill="none" stroke="none" d=" M 0 0 L 66 0 L 66 104 L 0 104 L 0 0 Z"/></clipPath></defs><g transform="scale(1,1)" clip-path="url(#armbNAKRteqX)"><g transform="translate(-136,-56)"><g transform="scale(67,67)"><g transform="translate(2.3134328358208953,1.804134328358209)"><path fill="rgb(0,0,0)" stroke="none" paint-order="stroke fill markers" d=" M 0.14100000000000001 -0.227 L 0.14100000000000001 -0.227 Q 0.076 -0.195 0.057 -0.137 Q 0.052000000000000005 -0.123 0.052000000000000005 -0.11 Q 0.052000000000000005 -0.036000000000000004 0.166 -0.025 Q 0.182 -0.024 0.198 -0.024 Q 0.316 -0.024 0.35100000000000003 -0.077 Q 0.353 -0.079 0.356 -0.084 Q 0.361 -0.091 0.366 -0.091 Q 0.377 -0.091 0.377 -0.081 Q 0.377 -0.065 0.34700000000000003 -0.036000000000000004 Q 0.28600000000000003 0.022 0.189 0.022 Q 0.08700000000000001 0.022 0.044 -0.043000000000000003 Q 0.026000000000000002 -0.07100000000000001 0.026000000000000002 -0.10400000000000001 Q 0.026000000000000002 -0.164 0.081 -0.213 Q 0.097 -0.228 0.117 -0.23900000000000002 Q 0.077 -0.269 0.077 -0.31 Q 0.077 -0.369 0.15 -0.41300000000000003 Q 0.217 -0.453 0.3 -0.453 Q 0.365 -0.453 0.41100000000000003 -0.419 Q 0.429 -0.406 0.429 -0.396 Q 0.429 -0.378 0.41100000000000003 -0.371 Q 0.406 -0.369 0.402 -0.369 Q 0.396 -0.369 0.382 -0.379 Q 0.342 -0.40700000000000003 0.29 -0.40700000000000003 Q 0.193 -0.40700000000000003 0.136 -0.367 Q 0.10200000000000001 -0.342 0.10200000000000001 -0.31 Q 0.10200000000000001 -0.273 0.14200000000000002 -0.252 Q 0.183 -0.271 0.23500000000000001 -0.271 Q 0.306 -0.271 0.308 -0.244 Q 0.308 -0.213 0.227 -0.213 Q 0.17400000000000002 -0.213 0.14100000000000001 -0.227 M 0.17400000000000002 -0.24 Q 0.193 -0.23500000000000001 0.227 -0.23500000000000001 Q 0.265 -0.23500000000000001 0.28200000000000003 -0.243 Q 0.26 -0.249 0.23500000000000001 -0.249 Q 0.2 -0.249 0.17400000000000002 -0.24 Z"/></g></g></g></g></svg>