<svg id="_29-12p" data-name="29-12p" xmlns="http://www.w3.org/2000/svg" width="120" height="120" viewBox="0 0 120 120">
  <path id="Path_71" data-name="Path 71" d="M120,0H0V120H120Z" fill="none"/>
  <g id="Group_995" data-name="Group 995" transform="translate(-112 -39)">
    <g id="Group_941" data-name="Group 941" transform="translate(158.283 77)">
      <g id="Group_940" data-name="Group 940" transform="translate(0)">
        <path id="Path_638" data-name="Path 638" d="M23.237-45.264,20.357-33.59q6.531.463,8.948,5.246a9.166,9.166,0,0,1,.926,4.063q0,4.937-4.371,9.154a16.776,16.776,0,0,1-10.645,4.886,5.085,5.085,0,0,1-.72.051L12.54-2.528a8.806,8.806,0,0,1-.566,2.057.7.7,0,0,1-.514.206q-.617,0-.617-.566,0-.1,1.131-4.526l1.131-4.628a.456.456,0,0,1,.051-.206q-5.914-.36-8.537-4.474A9,9,0,0,1,3.283-19.5q0-5.04,4.474-9.257A16.651,16.651,0,0,1,18.4-33.538a3.748,3.748,0,0,1,.617-.051L22-45.469q.463-.977.771-1.029.617,0,.617.514l-.154.669v.051M13.414-11.322l5.3-21.136A12.33,12.33,0,0,0,9.2-26.7a14.652,14.652,0,0,0-2.571,8.28q0,5.04,4.32,6.634a8.507,8.507,0,0,0,2.468.463m6.634-21.136-5.3,21.136a12.261,12.261,0,0,0,9.565-5.811,14.572,14.572,0,0,0,2.571-8.228q0-4.834-4.011-6.48A9.224,9.224,0,0,0,20.048-32.458Z" transform="translate(-3.283 46.498)"/>
      </g>
    </g>
  </g>
</svg>
