<svg version="1.1" xmlns="http://www.w3.org/2000/svg" xmlns:xlink="http://www.w3.org/1999/xlink" width="81" height="104"><defs><clipPath id="sTSWQNpiSnZD"><path fill="none" stroke="none" d=" M 0 0 L 81 0 L 81 104 L 0 104 L 0 0 Z"/></clipPath></defs><g transform="scale(1,1)" clip-path="url(#sTSWQNpiSnZD)"><g transform="translate(-136,-56)"><g transform="scale(67,67)"><g transform="translate(2.3134328358208953,1.8432537313432835)"><path fill="rgb(0,0,0)" stroke="none" paint-order="stroke fill markers" d=" M 0.482 -0.668 L 0.317 -0.011 Q 0.389 -0.011 0.447 -0.051000000000000004 Q 0.47600000000000003 -0.07100000000000001 0.505 -0.1 Q 0.554 -0.15 0.58 -0.221 Q 0.592 -0.255 0.592 -0.28200000000000003 Q 0.592 -0.331 0.556 -0.367 Q 0.541 -0.38 0.541 -0.394 Q 0.541 -0.419 0.5680000000000001 -0.435 Q 0.579 -0.442 0.591 -0.442 Q 0.621 -0.442 0.631 -0.404 L 0.631 -0.404 L 0.631 -0.403 Q 0.635 -0.39 0.635 -0.372 Q 0.635 -0.316 0.607 -0.226 L 0.607 -0.224 Q 0.605 -0.219 0.604 -0.216 Q 0.58 -0.151 0.531 -0.096 Q 0.437 0.011 0.312 0.011 L 0.274 0.16 Q 0.266 0.198 0.262 0.201 Q 0.26 0.20500000000000002 0.253 0.20500000000000002 Q 0.241 0.20500000000000002 0.241 0.195 Q 0.241 0.184 0.264 0.1 Q 0.275 0.058 0.28600000000000003 0.009000000000000001 Q 0.151 0.001 0.12 -0.085 Q 0.112 -0.107 0.112 -0.133 Q 0.112 -0.176 0.16 -0.302 Q 0.183 -0.364 0.183 -0.388 Q 0.183 -0.42 0.158 -0.42 Q 0.099 -0.42 0.064 -0.318 Q 0.06 -0.307 0.057 -0.296 Q 0.046 -0.279 0.041 -0.278 Q 0.029 -0.278 0.029 -0.28800000000000003 Q 0.029 -0.306 0.05 -0.35100000000000003 Q 0.094 -0.442 0.161 -0.442 Q 0.214 -0.442 0.23500000000000001 -0.397 Q 0.243 -0.38 0.243 -0.36 Q 0.243 -0.34400000000000003 0.232 -0.311 Q 0.178 -0.171 0.178 -0.125 Q 0.178 -0.026000000000000002 0.292 -0.013000000000000001 L 0.458 -0.674 Q 0.467 -0.6930000000000001 0.47300000000000003 -0.6940000000000001 Q 0.485 -0.6940000000000001 0.485 -0.683 Q 0.485 -0.68 0.482 -0.668 Z"/></g></g></g></g></svg>