<svg id="_29-11S" data-name="29-11S" xmlns="http://www.w3.org/2000/svg" width="120" height="120" viewBox="0 0 120 120">
  <path id="Path_71" data-name="Path 71" d="M120,0H0V120H120Z" fill="none"/>
  <g id="Group_994" data-name="Group 994" transform="translate(-125 -46)">
    <g id="Group_938" data-name="Group 938">
      <g id="Group_937" data-name="Group 937" transform="translate(155 129.761)">
        <path id="Path_636" data-name="Path 636" d="M29.949-21.775h0L8.777-2.747H27q8.978,0,12.8-2.345,3.685-2.345,6.633-9.313l.134-.4q.469-.871.938-.938.8,0,.8.737a2.6,2.6,0,0,1-.335,1.072l-4.824,12.8q-.335.938-.871,1.072H42.21A5.941,5.941,0,0,1,41.071,0H5.762Q4.02,0,3.886-.737q0-.268.8-1L25.326-20.368,15.209-43.349a3.235,3.235,0,0,1-.4-1.072,1.164,1.164,0,0,1,1.072-1.34H52.126q1.675,0,1.809.469v.067l.067.067v.268l-.134.871L52.6-32.361q-.2,1.541-.938,1.675-.871,0-.871-.8l.268-3.149v-.335q0-5.427-3.015-7.169h-.067v-.067H47.9a4.943,4.943,0,0,0-1.206-.536q-2.68-.938-8.71-.938H21.708l8.71,19.832a3.337,3.337,0,0,1,.335.938Q30.753-22.512,29.949-21.775Z"/>
      </g>
    </g>
  </g>
</svg>
