<svg id="_29-10s" data-name="29-10s" xmlns="http://www.w3.org/2000/svg" width="120" height="120" viewBox="0 0 120 120">
  <path id="Path_71" data-name="Path 71" d="M120,0H0V120H120Z" fill="none"/>
  <g id="Group_995" data-name="Group 995" transform="translate(-115 -38)">
    <g id="Group_935" data-name="Group 935">
      <g id="Group_934" data-name="Group 934" transform="translate(155 120.877)">
        <path id="Path_634" data-name="Path 634" d="M34.706-24.991h-7.37a12.364,12.364,0,0,1,2.077,7.3A18.262,18.262,0,0,1,23.718-4.355Q18.492.6,12.6.737A9.273,9.273,0,0,1,4.154-3.819a11.492,11.492,0,0,1-1.608-6.03A19.306,19.306,0,0,1,6.9-21.574q5.025-6.633,11.993-7.236a10.913,10.913,0,0,1,1.206-.067H35.376q2.278,0,2.546,1.072h0a2.2,2.2,0,0,1,.067.536q0,2.278-3.283,2.278M12.663-.737q3.886,0,7.3-3.752a10.924,10.924,0,0,0,1.541-1.943,22.345,22.345,0,0,0,3.484-10.251,13.819,13.819,0,0,0,.134-1.809q0-6.03-5.36-6.432l-.067-.067h-.737A9.979,9.979,0,0,0,10.586-20.5q-.4.536-.737,1.072A23.344,23.344,0,0,0,6.767-8.844a6.185,6.185,0,0,0-.067.871q0,5.293,3.752,6.834A5.9,5.9,0,0,0,12.663-.737Z"/>
      </g>
    </g>
  </g>
</svg>
