<svg version="1.1" xmlns="http://www.w3.org/2000/svg" xmlns:xlink="http://www.w3.org/1999/xlink" width="74" height="104"><defs><clipPath id="KEwuUzvHaBkl"><path fill="none" stroke="none" d=" M 0 0 L 74 0 L 74 104 L 0 104 L 0 0 Z"/></clipPath></defs><g transform="scale(1,1)" clip-path="url(#KEwuUzvHaBkl)"><g transform="translate(-136,-56)"><g transform="scale(67,67)"><g transform="translate(2.3134328358208953,1.8432537313432835)"><path fill="rgb(0,0,0)" stroke="none" paint-order="stroke fill markers" d=" M 0.437 -0.67 L 0.381 -0.443 Q 0.508 -0.434 0.555 -0.341 Q 0.5730000000000001 -0.304 0.5730000000000001 -0.262 Q 0.5730000000000001 -0.166 0.488 -0.084 Q 0.399 0.002 0.281 0.011 Q 0.274 0.012 0.267 0.012 L 0.229 0.161 Q 0.221 0.198 0.218 0.201 Q 0.214 0.20500000000000002 0.20800000000000002 0.20500000000000002 Q 0.196 0.20500000000000002 0.196 0.194 Q 0.196 0.192 0.218 0.106 L 0.24 0.016 Q 0.24 0.014 0.241 0.012 Q 0.126 0.005 0.075 -0.075 Q 0.049 -0.117 0.049 -0.169 Q 0.049 -0.267 0.136 -0.34900000000000003 Q 0.225 -0.434 0.343 -0.442 Q 0.34900000000000003 -0.443 0.355 -0.443 L 0.41300000000000003 -0.674 Q 0.422 -0.6930000000000001 0.428 -0.6940000000000001 Q 0.44 -0.6940000000000001 0.44 -0.684 L 0.437 -0.671 L 0.437 -0.67 M 0.246 -0.01 L 0.34900000000000003 -0.421 Q 0.233 -0.41100000000000003 0.164 -0.309 Q 0.114 -0.234 0.114 -0.148 Q 0.114 -0.05 0.198 -0.019 Q 0.221 -0.011 0.246 -0.01 M 0.375 -0.421 L 0.272 -0.01 Q 0.388 -0.019 0.458 -0.123 Q 0.508 -0.198 0.508 -0.28300000000000003 Q 0.508 -0.377 0.43 -0.40900000000000003 Q 0.405 -0.419 0.375 -0.421 Z"/></g></g></g></g></svg>