<svg id="_29-13P" data-name="29-13P" xmlns="http://www.w3.org/2000/svg" width="120" height="120" viewBox="0 0 120 120">
  <path id="Path_71" data-name="Path 71" d="M120,0H0V120H120Z" fill="none"/>
  <g id="Group_994" data-name="Group 994" transform="translate(-119 -46)">
    <g id="Group_944" data-name="Group 944">
      <g id="Group_943" data-name="Group 943" transform="translate(155 129.761)">
        <path id="Path_640" data-name="Path 640" d="M26.733-9.045v3.752q0,1.943.8,2.479h0l.067.067q1.139.67,5.494.67h2.211V0Q32.9-.2,23.919-.2,15.008-.2,12.6,0V-2.077h2.211q5.293,0,6.1-1.273a2.381,2.381,0,0,0,.2-.67,8.591,8.591,0,0,0,.067-1.273V-9.045q-8.844-.871-13.936-6.03a10.981,10.981,0,0,1-3.484-7.839q0-5.494,5.628-9.581a23.225,23.225,0,0,1,11.792-4.221v-3.752q0-1.943-.8-2.479h0l-.067-.067q-1.139-.67-5.494-.67H12.6v-2.077q2.412.2,11.39.2,8.911,0,11.323-.2v2.077H33.1q-5.293,0-6.1,1.273a4.547,4.547,0,0,0-.268,1.943v3.752q8.844.67,14.07,5.829a10.969,10.969,0,0,1,3.752,8.04q0,5.494-5.628,9.581A23.069,23.069,0,0,1,26.733-9.045m-5.561-1.541V-35.175q-10.72,1.407-10.72,12.328,0,10.854,10.72,12.261m5.561-24.656v24.723q11.122-1.34,11.122-12.4T26.733-35.242Z"/>
      </g>
    </g>
  </g>
</svg>
