<svg id="_29-15C" data-name="29-15C" xmlns="http://www.w3.org/2000/svg" width="120" height="120" viewBox="0 0 120 120">
  <path id="Path_71" data-name="Path 71" d="M120,0H0V120H120Z" fill="none"/>
  <g id="Group_996" data-name="Group 996" transform="translate(-120 -46)">
    <g id="Group_950" data-name="Group 950">
      <g id="Group_949" data-name="Group 949" transform="translate(155 129.761)">
        <path id="Path_644" data-name="Path 644" d="M26.934-25.862,41.071-4.489A5.014,5.014,0,0,0,44.89-2.211a18.281,18.281,0,0,0,2.479.134h1.273V0q-4.221-.2-8.71-.2Q32.5-.2,30.15,0V-2.077q3.35-.067,4.221-1.608a.72.72,0,0,0,.134-.4,4.854,4.854,0,0,0-.335-.737L23.584-20.837,14.07-6.767a3.565,3.565,0,0,0-.67,1.608,2.847,2.847,0,0,0,2.01,2.68,5.583,5.583,0,0,0,2.211.4V0Q15.209-.2,9.045-.2q-.2,0-7.437.2V-2.077q6.633,0,9.581-4.154-.067,0,.134-.268L22.311-22.713,9.983-41.339A4.869,4.869,0,0,0,6.231-43.55a18.281,18.281,0,0,0-2.479-.134H2.479v-2.077q3.685.2,8.71.2,7.437,0,9.782-.2v2.077q-3.35.067-4.221,1.608a.193.193,0,0,0-.067.134.6.6,0,0,0-.067.268,2.532,2.532,0,0,0,.469,1.005l8.643,12.931,7.638-11.323a3.093,3.093,0,0,0,.6-1.541q0-1.943-2.345-2.747a4.663,4.663,0,0,0-1.809-.335v-2.077q2.68.2,8.576.2-.4,0,7.437-.2v2.077q-6.566.067-9.447,4.02l-.067.067-.067.067v.067l-.134.134Z"/>
      </g>
    </g>
  </g>
</svg>
