<svg id="_29-1E" data-name="29-1E" xmlns="http://www.w3.org/2000/svg" width="120" height="120" viewBox="0 0 120 120">
  <path id="Path_71" data-name="Path 71" d="M120,0H0V120H120Z" fill="none"/>
  <g id="Group_996" data-name="Group 996" transform="translate(-118 -46)">
    <g id="Group_965" data-name="Group 965">
      <g id="Group_964" data-name="Group 964" transform="translate(155 129.761)">
        <path id="Path_654" data-name="Path 654" d="M43.684-17.286,40.87,0H2.211V-2.077H3.819q4.355,0,5.025-1.139a4.781,4.781,0,0,0,.268-2.01V-40.334q0-2.01-.8-2.546-.938-.6-4.489-.6H2.211V-45.56H39.932l1.876,15.075H40.133q-.871-7.37-3.082-9.916Q34.371-43.483,27-43.483H18.358q-2.613,0-3.082.8v.067h0v.067a4.713,4.713,0,0,0-.2,1.742v16.08H21.1q5.159,0,6.432-2.278h0a4.4,4.4,0,0,0,.469-1.474,18.266,18.266,0,0,0,.335-4.087h1.675v17.755H28.341q0-4.891-1.407-6.3-1.541-1.541-5.829-1.541h-6.03V-4.757q0,2.01.737,2.345h.067a5.929,5.929,0,0,0,2.479.335h8.911q8.174,0,11.189-3.886Q40.4-8.509,41.54-14.74l.469-2.546Z"/>
      </g>
    </g>
  </g>
</svg>
