<svg id="_29-14c" data-name="29-14c" xmlns="http://www.w3.org/2000/svg" width="120" height="120" viewBox="0 0 120 120">
  <path id="Path_71" data-name="Path 71" d="M120,0H0V120H120Z" fill="none"/>
  <g id="Group_995" data-name="Group 995" transform="translate(-114 -41.301)">
    <g id="Group_947" data-name="Group 947" transform="translate(157.077 85.263)">
      <g id="Group_946" data-name="Group 946" transform="translate(0 0)">
        <path id="Path_642" data-name="Path 642" d="M35.905-27.224h0L21.32-10.861Q26.9,8.688,29.961,8.688A3.286,3.286,0,0,0,32.78,7.033a2.4,2.4,0,0,0,.306-.552l.123-.245q.245-.8.858-.858.735,0,.735.674A3.862,3.862,0,0,1,33.392,8.5l-.061.061a5.334,5.334,0,0,1-3.738,1.471q-5.27,0-7.231-4.167a3.043,3.043,0,0,1-.368-.735Q20.523,1.7,17.827-7.062L3.793,8.688q-.674.674-.981.674-.613,0-.735-.735,0-.306.674-.981L16.846-8.1q.49-.49.49-.674a57.909,57.909,0,0,0-2.329-7.66q-.858-2.574-1.593-4.474Q10.6-28.266,8.7-28.266A3.224,3.224,0,0,0,5.938-26.55H5.877v.061a8.4,8.4,0,0,0-.429.858q-.245.674-.8.674-.735,0-.735-.613a3.712,3.712,0,0,1,1.41-2.513,5.22,5.22,0,0,1,3.738-1.532q5.209,0,7.231,4.045v.061l.061.061v.061q-.061-.061.123.245,1.41,3.309,4.351,12.563L34.863-28.2q.613-.735.981-.735a.65.65,0,0,1,.735.735Q36.579-27.9,35.905-27.224Z" transform="translate(-2.077 29.614)"/>
      </g>
    </g>
  </g>
</svg>
