<svg id="_29-16ps" data-name="29-16ps" xmlns="http://www.w3.org/2000/svg" width="120" height="120" viewBox="0 0 120 120">
  <path id="Path_71" data-name="Path 71" d="M120,0H0V120H120Z" fill="none"/>
  <g id="Group_997" data-name="Group 997" transform="translate(-111.149 -34.403)">
    <g id="Group_953" data-name="Group 953" transform="translate(156.943 77)">
      <g id="Group_952" data-name="Group 952" transform="translate(0)">
        <path id="Path_646" data-name="Path 646" d="M23.311-45.272,15.528-14.281a10.552,10.552,0,0,0,6.132-1.887A19.789,19.789,0,0,0,24.4-18.479a15.788,15.788,0,0,0,3.538-5.708,8.76,8.76,0,0,0,.566-2.877,5.483,5.483,0,0,0-1.7-4.009,1.719,1.719,0,0,1-.708-1.274,2.219,2.219,0,0,1,1.274-1.934,1.991,1.991,0,0,1,1.085-.33q1.415,0,1.887,1.792h0v.047a5,5,0,0,1,.189,1.462,24.419,24.419,0,0,1-1.321,6.887v.094q-.094.236-.142.377a17.674,17.674,0,0,1-3.443,5.66q-4.434,5.047-10.33,5.047L13.5-6.215a6.046,6.046,0,0,1-.566,1.934q-.094.189-.425.189-.566,0-.566-.472a36.927,36.927,0,0,1,1.085-4.481q.519-1.981,1.038-4.292-6.368-.377-7.83-4.434a6.579,6.579,0,0,1-.377-2.264q0-2.028,2.264-7.972a14.289,14.289,0,0,0,1.085-4.057q0-1.509-1.179-1.509-2.783,0-4.434,4.811-.189.519-.33,1.038-.519.8-.755.849-.566,0-.566-.472a8.673,8.673,0,0,1,.991-2.972q2.075-4.292,5.236-4.292a3.536,3.536,0,0,1,3.491,2.123,4.047,4.047,0,0,1,.377,1.745,8.227,8.227,0,0,1-.519,2.311q-2.547,6.6-2.547,8.774,0,4.67,5.377,5.283l7.83-31.179q.425-.9.708-.943.566,0,.566.519A4.254,4.254,0,0,1,23.311-45.272Z" transform="translate(-1.943 46.498)"/>
      </g>
    </g>
  </g>
</svg>
