<svg version="1.1" xmlns="http://www.w3.org/2000/svg" xmlns:xlink="http://www.w3.org/1999/xlink" width="74" height="104"><defs><clipPath id="chADzziuGTuh"><path fill="none" stroke="none" d=" M 0 0 L 74 0 L 74 104 L 0 104 L 0 0 Z"/></clipPath></defs><g transform="scale(1,1)" clip-path="url(#chADzziuGTuh)"><g transform="translate(-136,-56)"><g transform="scale(67,67)"><g transform="translate(2.3134328358208953,1.9367313432835822)"><path fill="rgb(0,0,0)" stroke="none" paint-order="stroke fill markers" d=" M 0.652 -0.258 L 0.61 0 L 0.033 0 L 0.033 -0.031 L 0.057 -0.031 Q 0.122 -0.031 0.132 -0.048 Q 0.136 -0.055 0.136 -0.078 L 0.136 -0.602 Q 0.136 -0.632 0.124 -0.64 Q 0.11 -0.649 0.057 -0.649 L 0.033 -0.649 L 0.033 -0.68 L 0.596 -0.68 L 0.624 -0.455 L 0.599 -0.455 Q 0.586 -0.5650000000000001 0.553 -0.603 Q 0.513 -0.649 0.403 -0.649 L 0.274 -0.649 Q 0.23500000000000001 -0.649 0.228 -0.637 L 0.228 -0.636 L 0.228 -0.636 L 0.228 -0.635 Q 0.225 -0.629 0.225 -0.609 L 0.225 -0.369 L 0.315 -0.369 Q 0.392 -0.369 0.41100000000000003 -0.403 L 0.41100000000000003 -0.403 Q 0.41600000000000004 -0.41200000000000003 0.418 -0.425 Q 0.423 -0.445 0.423 -0.486 L 0.448 -0.486 L 0.448 -0.221 L 0.423 -0.221 Q 0.423 -0.294 0.402 -0.315 Q 0.379 -0.338 0.315 -0.338 L 0.225 -0.338 L 0.225 -0.07100000000000001 Q 0.225 -0.041 0.23600000000000002 -0.036000000000000004 L 0.23700000000000002 -0.036000000000000004 Q 0.246 -0.031 0.274 -0.031 L 0.40700000000000003 -0.031 Q 0.529 -0.031 0.5740000000000001 -0.089 Q 0.603 -0.127 0.62 -0.22 L 0.627 -0.258 L 0.652 -0.258 Z"/></g></g></g></g></svg>