<svg id="_29-19O" data-name="29-19O" xmlns="http://www.w3.org/2000/svg" width="120" height="120" viewBox="0 0 120 120">
  <path id="Path_71" data-name="Path 71" d="M120,0H0V120H120Z" fill="none"/>
  <g id="Group_996" data-name="Group 996" transform="translate(-119 -56)">
    <g id="Group_962" data-name="Group 962">
      <g id="Group_961" data-name="Group 961" transform="translate(155 140)">
        <path id="Path_652" data-name="Path 652" d="M45.359-10.854h0L43.148,0H32.5Q31.021,0,30.82-.469a4.439,4.439,0,0,1-.067-.938q0-4.623,3.149-13.467,3.283-9.246,3.685-13.6.067-1.005.067-2.01,0-8.844-6.164-13a12.828,12.828,0,0,0-7.37-2.278,12.716,12.716,0,0,0-9.648,4.221v.067q-3.819,4.154-3.819,10.988,0,5.159,3.283,14.2,3.618,10.05,3.618,14.874,0,1.139-.469,1.34h-.067A5.941,5.941,0,0,1,15.879,0H5.159L2.948-10.854H4.623A36.367,36.367,0,0,0,5.829-5.9,1.825,1.825,0,0,0,7.035-4.623a12.752,12.752,0,0,0,3.216.268h5.36Q14.74-8.04,10.653-14.2l-.4-.67q-.2-.268-.6-.871Q4.824-22.981,4.02-27.6a15.008,15.008,0,0,1-.268-2.814q0-6.968,5.963-11.859a21.726,21.726,0,0,1,14.472-4.958,21.538,21.538,0,0,1,15.075,5.494,14.734,14.734,0,0,1,5.293,11.323q0,5.427-4.69,12.864h0l-.067.067-.067.067-1.072,1.675Q34.1-9.045,33.031-5.561A12.142,12.142,0,0,0,32.7-4.355h5.36q3.685,0,4.221-1l.2-.6a36.54,36.54,0,0,0,1.206-4.891Z"/>
      </g>
    </g>
  </g>
</svg>
