<svg version="1.1" xmlns="http://www.w3.org/2000/svg" xmlns:xlink="http://www.w3.org/1999/xlink" width="79" height="104"><defs><clipPath id="qcNtusFICFSa"><path fill="none" stroke="none" d=" M 0 0 L 79 0 L 79 104 L 0 104 L 0 0 Z"/></clipPath></defs><g transform="scale(1,1)" clip-path="url(#qcNtusFICFSa)"><g transform="translate(-136,-56)"><g transform="scale(67,67)"><g transform="translate(2.3134328358208953,1.9367313432835822)"><path fill="rgb(0,0,0)" stroke="none" paint-order="stroke fill markers" d=" M 0.402 -0.386 L 0.613 -0.067 Q 0.633 -0.037 0.67 -0.033 Q 0.684 -0.031 0.707 -0.031 L 0.726 -0.031 L 0.726 0 Q 0.663 -0.003 0.596 -0.003 Q 0.485 -0.003 0.45 0 L 0.45 -0.031 Q 0.5 -0.032 0.513 -0.055 Q 0.515 -0.058 0.515 -0.061 Q 0.515 -0.062 0.51 -0.07200000000000001 L 0.352 -0.311 L 0.21 -0.101 Q 0.2 -0.085 0.2 -0.077 Q 0.2 -0.05 0.23 -0.037 Q 0.244 -0.031 0.263 -0.031 L 0.263 0 Q 0.227 -0.003 0.135 -0.003 Q 0.132 -0.003 0.024 0 L 0.024 -0.031 Q 0.123 -0.031 0.167 -0.093 Q 0.166 -0.093 0.169 -0.097 L 0.333 -0.339 L 0.149 -0.617 Q 0.13 -0.646 0.093 -0.65 Q 0.079 -0.652 0.056 -0.652 L 0.037 -0.652 L 0.037 -0.683 Q 0.092 -0.68 0.167 -0.68 Q 0.278 -0.68 0.313 -0.683 L 0.313 -0.652 Q 0.263 -0.651 0.25 -0.628 Q 0.249 -0.627 0.249 -0.626 Q 0.248 -0.624 0.248 -0.622 Q 0.248 -0.618 0.255 -0.607 L 0.384 -0.41400000000000003 L 0.498 -0.583 Q 0.507 -0.597 0.507 -0.606 Q 0.507 -0.635 0.47200000000000003 -0.647 Q 0.46 -0.652 0.445 -0.652 L 0.445 -0.683 Q 0.485 -0.68 0.5730000000000001 -0.68 Q 0.5670000000000001 -0.68 0.684 -0.683 L 0.684 -0.652 Q 0.586 -0.651 0.543 -0.592 L 0.542 -0.591 L 0.541 -0.59 L 0.541 -0.589 L 0.539 -0.587 L 0.402 -0.386 Z"/></g></g></g></g></svg>