<svg version="1.1" xmlns="http://www.w3.org/2000/svg" xmlns:xlink="http://www.w3.org/1999/xlink" width="87" height="104"><defs><clipPath id="PTUcyIskwEWr"><path fill="none" stroke="none" d=" M 0 0 L 87 0 L 87 104 L 0 104 L 0 0 Z"/></clipPath></defs><g transform="scale(1,1)" clip-path="url(#PTUcyIskwEWr)"><g transform="translate(-136,-56)"><g transform="scale(67,67)"><g transform="translate(2.3134328358208953,1.9367313432835822)"><path fill="rgb(0,0,0)" stroke="none" paint-order="stroke fill markers" d=" M 0.427 -0.604 L 0.427 -0.16 Q 0.5650000000000001 -0.193 0.5690000000000001 -0.395 L 0.5690000000000001 -0.402 Q 0.5700000000000001 -0.538 0.632 -0.552 Q 0.642 -0.554 0.658 -0.554 L 0.6960000000000001 -0.554 Q 0.718 -0.554 0.72 -0.543 Q 0.72 -0.534 0.707 -0.532 Q 0.656 -0.525 0.652 -0.431 L 0.652 -0.42 Q 0.652 -0.298 0.599 -0.226 Q 0.541 -0.149 0.427 -0.135 L 0.427 -0.079 Q 0.427 -0.05 0.439 -0.042 L 0.439 -0.042 L 0.439 -0.042 L 0.44 -0.041 Q 0.457 -0.031 0.522 -0.031 L 0.555 -0.031 L 0.555 0 Q 0.519 -0.003 0.385 -0.003 Q 0.252 -0.003 0.216 0 L 0.216 -0.031 L 0.249 -0.031 Q 0.328 -0.031 0.34 -0.05 Q 0.342 -0.054 0.343 -0.06 Q 0.34400000000000003 -0.066 0.34400000000000003 -0.079 L 0.34400000000000003 -0.135 Q 0.232 -0.15 0.176 -0.227 Q 0.125 -0.298 0.125 -0.396 Q 0.124 -0.508 0.088 -0.526 Q 0.083 -0.529 0.077 -0.53 Q 0.073 -0.531 0.066 -0.532 Q 0.057 -0.534 0.057 -0.543 Q 0.057 -0.554 0.082 -0.554 L 0.11900000000000001 -0.554 Q 0.183 -0.554 0.2 -0.485 Q 0.20800000000000002 -0.456 0.20800000000000002 -0.41400000000000003 Q 0.20800000000000002 -0.196 0.34400000000000003 -0.16 L 0.34400000000000003 -0.604 Q 0.34400000000000003 -0.633 0.332 -0.641 L 0.332 -0.641 L 0.332 -0.641 L 0.331 -0.642 Q 0.314 -0.652 0.249 -0.652 L 0.216 -0.652 L 0.216 -0.683 Q 0.252 -0.68 0.386 -0.68 Q 0.519 -0.68 0.555 -0.683 L 0.555 -0.652 L 0.522 -0.652 Q 0.443 -0.652 0.431 -0.633 Q 0.427 -0.626 0.427 -0.604 Z"/></g></g></g></g></svg>