<svg id="_29-17Ps" data-name="29-17Ps" xmlns="http://www.w3.org/2000/svg" width="120" height="120" viewBox="0 0 120 120">
  <path id="Path_71" data-name="Path 71" d="M120,0H0V120H120Z" fill="none"/>
  <g id="Group_996" data-name="Group 996" transform="translate(-121 -46)">
    <g id="Group_956" data-name="Group 956">
      <g id="Group_955" data-name="Group 955" transform="translate(155 129.761)">
        <path id="Path_648" data-name="Path 648" d="M28.609-40.468V-10.72q9.246-2.211,9.514-15.745v-.469q.067-9.112,4.221-10.05a9.187,9.187,0,0,1,1.742-.134h2.546q1.474,0,1.608.737,0,.6-.871.737-3.417.469-3.685,6.767v.737q0,8.174-3.551,13-3.886,5.159-11.524,6.1v3.752q0,1.943.8,2.479h0l.067.067q1.139.67,5.494.67h2.211V0Q34.773-.2,25.8-.2q-8.911,0-11.323.2V-2.077h2.211q5.293,0,6.1-1.273a2.381,2.381,0,0,0,.2-.67,8.591,8.591,0,0,0,.067-1.273V-9.045q-7.5-1.005-11.256-6.164A18.892,18.892,0,0,1,8.375-26.532q-.067-7.5-2.479-8.71a2.084,2.084,0,0,0-.737-.268q-.268-.067-.737-.134a.689.689,0,0,1-.6-.737q0-.737,1.675-.737H7.973q4.288,0,5.427,4.623a18.134,18.134,0,0,1,.536,4.757q0,14.606,9.112,17.018V-40.468q0-1.943-.8-2.479h0l-.067-.067q-1.139-.67-5.494-.67H14.472v-2.077q2.412.2,11.39.2,8.911,0,11.323-.2v2.077H34.974q-5.293,0-6.1,1.273A4.547,4.547,0,0,0,28.609-40.468Z"/>
      </g>
    </g>
  </g>
</svg>
