<svg version="1.1" xmlns="http://www.w3.org/2000/svg" xmlns:xlink="http://www.w3.org/1999/xlink" width="75" height="104"><defs><clipPath id="awKWUKvIxknb"><path fill="none" stroke="none" d=" M 0 0 L 75 0 L 75 104 L 0 104 L 0 0 Z"/></clipPath></defs><g transform="scale(1,1)" clip-path="url(#awKWUKvIxknb)"><g transform="translate(-136,-56)"><g transform="scale(67,67)"><g transform="translate(2.3134328358208953,1.804134328358209)"><path fill="rgb(0,0,0)" stroke="none" paint-order="stroke fill markers" d=" M 0.518 -0.373 L 0.40800000000000003 -0.373 Q 0.439 -0.329 0.439 -0.264 Q 0.439 -0.15 0.354 -0.065 Q 0.276 0.009000000000000001 0.188 0.011 Q 0.10400000000000001 0.011 0.062 -0.057 Q 0.038 -0.097 0.038 -0.147 Q 0.038 -0.23600000000000002 0.10300000000000001 -0.322 Q 0.178 -0.421 0.28200000000000003 -0.43 Q 0.291 -0.431 0.3 -0.431 L 0.528 -0.431 Q 0.562 -0.431 0.5660000000000001 -0.41500000000000004 L 0.5660000000000001 -0.41500000000000004 Q 0.5670000000000001 -0.41100000000000003 0.5670000000000001 -0.40700000000000003 Q 0.5670000000000001 -0.373 0.518 -0.373 M 0.189 -0.011 Q 0.247 -0.011 0.298 -0.067 Q 0.311 -0.08 0.321 -0.096 Q 0.363 -0.158 0.373 -0.249 Q 0.375 -0.264 0.375 -0.276 Q 0.375 -0.366 0.295 -0.372 L 0.294 -0.373 L 0.28300000000000003 -0.373 Q 0.20700000000000002 -0.373 0.158 -0.306 Q 0.152 -0.298 0.147 -0.29 Q 0.107 -0.223 0.101 -0.132 Q 0.1 -0.125 0.1 -0.11900000000000001 Q 0.1 -0.04 0.156 -0.017 Q 0.171 -0.011 0.189 -0.011 Z"/></g></g></g></g></svg>