<svg id="_29-18o" data-name="29-18o" xmlns="http://www.w3.org/2000/svg" width="120" height="120" viewBox="0 0 120 120">
  <path id="Path_71" data-name="Path 71" d="M120,0H0V120H120Z" fill="none"/>
  <g id="Group_997" data-name="Group 997" transform="translate(-116 -38)">
    <g id="Group_959" data-name="Group 959">
      <g id="Group_958" data-name="Group 958" transform="translate(155 120.877)">
        <path id="Path_650" data-name="Path 650" d="M17.688-5.494Q13.467.737,7.973.737q-5.829,0-6.9-6.7a18.965,18.965,0,0,1-.2-2.814,31.123,31.123,0,0,1,2.546-12.06A32.175,32.175,0,0,1,7.5-28.073q.67-.8,1-.8a.711.711,0,0,1,.8.8,3.076,3.076,0,0,1-.67,1.273Q3.015-18.76,3.015-11.725q0,6.365,4.288,7.437a6.1,6.1,0,0,0,1.608.2q4.556,0,8.308-5.159a3.035,3.035,0,0,0,.6-1.809,33.664,33.664,0,0,1,1.407-6.767Q20.1-19.5,21.1-19.5q1.273,0,1.407,1.541,0,1.876-1.876,6.7a5.037,5.037,0,0,1-.335.871,2.676,2.676,0,0,0-.4,1.072,6.141,6.141,0,0,0,1.34,3.685,4.39,4.39,0,0,0,3.685,1.541q5.159,0,9.313-5.561a15.556,15.556,0,0,0,3.417-9.112,8.057,8.057,0,0,0-2.345-5.829A2.441,2.441,0,0,1,34.3-26.4a3.152,3.152,0,0,1,1.809-2.747,2.828,2.828,0,0,1,1.541-.469q2.479,0,2.814,3.618.067.737.067,1.139a36.061,36.061,0,0,1-2.01,10.586,31.518,31.518,0,0,1-4.288,8.777Q29.681.737,23.986.737,18.559.737,17.688-5.494Z"/>
      </g>
    </g>
  </g>
</svg>
