<svg id="_29-2l" data-name="29-2l" xmlns="http://www.w3.org/2000/svg" width="120" height="120" viewBox="0 0 120 120">
  <path id="Path_71" data-name="Path 71" d="M120,0H0V120H120Z" fill="none"/>
  <g id="Group_996" data-name="Group 996" transform="translate(-113.182 -40.546)">
    <g id="Group_971" data-name="Group 971" transform="translate(158.551 83)">
      <g id="Group_970" data-name="Group 970" transform="translate(0)">
        <path id="Path_658" data-name="Path 658" d="M21.574-22.665,7.286-5.828A2.71,2.71,0,0,1,5.33-4.583,1.608,1.608,0,0,1,3.61-5.828,1.949,1.949,0,0,1,3.551-6.3,2.92,2.92,0,0,1,4.618-8.14L20.981-24.384,15.23-40.51q-1.3-3.557-2.194-4.209h-.059l-.119-.119H12.8a5.688,5.688,0,0,0-1.423-.415q-.415,0-.534-.593,0-.652,1.067-.652,5.691,0,7.233,4.209L31.238-8.555A8.5,8.5,0,0,0,32.6-5.828a1.459,1.459,0,0,1,.3.534q0,.534-.652.593h-1.3a3.933,3.933,0,0,1-2.549-.593,5.645,5.645,0,0,1-.593-.711q-.474-.711-4.15-11.027Q22.4-20.531,21.574-22.665Z" transform="translate(-3.551 46.498)"/>
      </g>
    </g>
  </g>
</svg>
