<svg id="_29-20phi" data-name="29-20phi" xmlns="http://www.w3.org/2000/svg" width="120" height="120" viewBox="0 0 120 120">
  <path id="Path_71" data-name="Path 71" d="M120,0H0V120H120Z" fill="none"/>
  <g id="Group_996" data-name="Group 996" transform="translate(-116 -41.75)">
    <g id="Group_968" data-name="Group 968" transform="translate(158.35 85.263)">
      <g id="Group_967" data-name="Group 967" transform="translate(0 0)">
        <path id="Path_656" data-name="Path 656" d="M10.617,7.449l3.21-10.174Q6.923-4.361,4.38-9.569a11.322,11.322,0,0,1-1.03-4.784q0-4.784,3.21-10.78,2-3.815,3.149-3.815.727,0,.727.606,0,.242-.484.787A22.425,22.425,0,0,0,5.167-16.9a10.291,10.291,0,0,0-.242,1.877q0,5.329,6,7.812a20.552,20.552,0,0,0,3.936,1.151q3.573-11.688,6.056-16.109,4.118-7.449,9.992-7.449a6.2,6.2,0,0,1,6.3,4.481,11.826,11.826,0,0,1,.606,3.876q0,6.722-5.269,12.415A19.169,19.169,0,0,1,20.367-2.3a15.609,15.609,0,0,1-1.938.121,18.209,18.209,0,0,1-2-.121Q14.311,8.72,14.311,8.781a2.4,2.4,0,0,1-2.241,1.575,1.541,1.541,0,0,1-1.7-1.211V9.084h0a1.342,1.342,0,0,1-.061-.424,6.006,6.006,0,0,1,.3-1.211M18.974-5.693a17.93,17.93,0,0,0,12.354-4.784q4.663-4.239,4.784-9.447,0-3.755-2.665-5.39A6.078,6.078,0,0,0,30.3-26.1q-5.026,0-8.781,5.874a25.929,25.929,0,0,0-3.21,7.691Q17.1-6.48,17.1-6q0,.242.787.242A8.853,8.853,0,0,0,18.974-5.693Z" transform="translate(-3.35 29.614)"/>
      </g>
    </g>
  </g>
</svg>
