<svg version="1.1" xmlns="http://www.w3.org/2000/svg" xmlns:xlink="http://www.w3.org/1999/xlink" width="75" height="104"><defs><clipPath id="UVzoDtiCnhkG"><path fill="none" stroke="none" d=" M 0 0 L 75 0 L 75 104 L 0 104 L 0 0 Z"/></clipPath></defs><g transform="scale(1,1)" clip-path="url(#UVzoDtiCnhkG)"><g transform="translate(-136,-56)"><g transform="scale(67,67)"><g transform="translate(2.3134328358208953,1.9367313432835822)"><path fill="rgb(0,0,0)" stroke="none" paint-order="stroke fill markers" d=" M 0.37 -0.6950000000000001 L 0.5700000000000001 -0.074 Q 0.58 -0.045 0.592 -0.038 Q 0.607 -0.031 0.661 -0.031 L 0.661 0 Q 0.544 -0.003 0.538 -0.003 Q 0.429 -0.003 0.394 0 L 0.394 -0.031 Q 0.47900000000000004 -0.031 0.47900000000000004 -0.061 Q 0.47900000000000004 -0.065 0.47400000000000003 -0.079 L 0.316 -0.5710000000000001 L 0.166 -0.105 Q 0.161 -0.091 0.161 -0.083 Q 0.161 -0.051000000000000004 0.199 -0.038 Q 0.216 -0.031 0.23800000000000002 -0.031 L 0.23800000000000002 0 Q 0.145 -0.003 0.125 -0.003 Q 0.082 -0.003 0.032 0 L 0.032 -0.031 Q 0.108 -0.031 0.132 -0.1 L 0.324 -0.6950000000000001 Q 0.329 -0.712 0.336 -0.715 L 0.337 -0.715 Q 0.34 -0.716 0.34700000000000003 -0.716 Q 0.362 -0.716 0.368 -0.7020000000000001 Q 0.369 -0.6990000000000001 0.37 -0.6950000000000001 Z"/></g></g></g></g></svg>