<svg id="_29-3L" data-name="29-3L" xmlns="http://www.w3.org/2000/svg" width="120" height="120" viewBox="0 0 120 120">
  <path id="Path_71" data-name="Path 71" d="M120,0H0V120H120Z" fill="none"/>
  <g id="Group_997" data-name="Group 997" transform="translate(-118 -46)">
    <g id="Group_974" data-name="Group 974">
      <g id="Group_973" data-name="Group 973" transform="translate(155 129.761)">
        <path id="Path_660" data-name="Path 660" d="M24.79-46.565,38.19-4.958a4.445,4.445,0,0,0,1.474,2.412,13.773,13.773,0,0,0,4.623.469V0q-7.839-.2-8.241-.2-7.3,0-9.648.2V-2.077q5.7,0,5.695-2.01a5.011,5.011,0,0,0-.335-1.206L21.172-38.257,11.122-7.035a4.726,4.726,0,0,0-.335,1.474q0,2.144,2.546,3.015a6.817,6.817,0,0,0,2.613.469V0Q9.715-.2,8.375-.2,5.494-.2,2.144,0V-2.077q5.092,0,6.7-4.623L21.708-46.565q.335-1.139.8-1.34h.067a2.351,2.351,0,0,1,.67-.067,1.422,1.422,0,0,1,1.407.938Q24.723-46.833,24.79-46.565Z"/>
      </g>
    </g>
  </g>
</svg>
