<svg id="_29-4m" data-name="29-4m" xmlns="http://www.w3.org/2000/svg" width="120" height="120" viewBox="0 0 120 120">
  <path id="Path_71" data-name="Path 71" d="M120,0H0V120H120Z" fill="none"/>
  <g id="Group_996" data-name="Group 996" transform="translate(-115 -32)">
    <g id="Group_977" data-name="Group 977">
      <g id="Group_976" data-name="Group 976" transform="translate(155 114.877)">
        <path id="Path_662" data-name="Path 662" d="M15.477-23.517h0L12.663-12.261a25.715,25.715,0,0,0-.938,5.695Q12.06-.938,16.683-.737q4.556,0,7.973-5.092a7.443,7.443,0,0,0,.737-1.34Q25.929-8.844,27.135-14l3.149-12.529q.536-2.345,2.613-2.345a2.187,2.187,0,0,1,1.943,1.809q0-.134-1.005,4.489Q32.9-19.162,32.7-18.023L30.82-10.787a51.727,51.727,0,0,0-1.34,6.968q0,3.082,2.01,3.082,2.546,0,4.288-5.36.335-1.139.8-2.948.536-1.139.938-1.206.8,0,.8.67a21.4,21.4,0,0,1-1.206,4.69,17.182,17.182,0,0,1-.8,1.943Q34.438.737,31.356.737A5.661,5.661,0,0,1,26-2.345a5.831,5.831,0,0,1-.67-1.809Q22.177-.469,19.095.4a10.49,10.49,0,0,1-2.68.335,9.782,9.782,0,0,1-6.5-2.077Q6.5,12.4,6.231,13.065a2.756,2.756,0,0,1-2.345,1.407,1.623,1.623,0,0,1-1.809-1.407,1.265,1.265,0,0,1-.067-.4,5.633,5.633,0,0,1,.2-1.072L11.859-27.2a2.754,2.754,0,0,1,2.68-2.412,1.781,1.781,0,0,1,1.943,1.809Q16.482-27.738,15.477-23.517Z"/>
      </g>
    </g>
  </g>
</svg>
