<svg version="1.1" xmlns="http://www.w3.org/2000/svg" xmlns:xlink="http://www.w3.org/1999/xlink" width="75" height="104"><defs><clipPath id="ghfiEnSNXFuO"><path fill="none" stroke="none" d=" M 0 0 L 75 0 L 75 104 L 0 104 L 0 0 Z"/></clipPath></defs><g transform="scale(1,1)" clip-path="url(#ghfiEnSNXFuO)"><g transform="translate(-136,-56)"><g transform="scale(67,67)"><g transform="translate(2.3134328358208953,1.7145820895522388)"><path fill="rgb(0,0,0)" stroke="none" paint-order="stroke fill markers" d=" M 0.231 -0.35100000000000003 L 0.231 -0.35100000000000003 L 0.189 -0.183 Q 0.17500000000000002 -0.127 0.17500000000000002 -0.098 Q 0.18 -0.014 0.249 -0.011 Q 0.317 -0.011 0.368 -0.08700000000000001 Q 0.378 -0.10300000000000001 0.379 -0.107 Q 0.387 -0.132 0.405 -0.209 L 0.452 -0.396 Q 0.46 -0.431 0.491 -0.431 Q 0.516 -0.426 0.52 -0.404 Q 0.52 -0.406 0.505 -0.337 Q 0.491 -0.28600000000000003 0.488 -0.269 L 0.46 -0.161 Q 0.44 -0.074 0.44 -0.057 Q 0.44 -0.011 0.47000000000000003 -0.011 Q 0.508 -0.011 0.534 -0.091 Q 0.539 -0.108 0.546 -0.135 Q 0.554 -0.152 0.56 -0.153 Q 0.5720000000000001 -0.153 0.5720000000000001 -0.14300000000000002 Q 0.5720000000000001 -0.128 0.554 -0.073 Q 0.548 -0.056 0.542 -0.044 Q 0.514 0.011 0.468 0.011 Q 0.41300000000000003 0.011 0.388 -0.035 Q 0.381 -0.047 0.378 -0.062 Q 0.331 -0.007 0.28500000000000003 0.006 Q 0.266 0.011 0.245 0.011 Q 0.185 0.011 0.148 -0.02 Q 0.097 0.185 0.093 0.195 Q 0.079 0.216 0.058 0.216 Q 0.035 0.216 0.031 0.195 Q 0.03 0.192 0.03 0.189 Q 0.03 0.185 0.033 0.17300000000000001 L 0.177 -0.406 Q 0.186 -0.441 0.217 -0.442 Q 0.243 -0.442 0.246 -0.41500000000000004 Q 0.246 -0.41400000000000003 0.231 -0.35100000000000003 Z"/></g></g></g></g></svg>