<svg id="_29-5M" data-name="29-5M" xmlns="http://www.w3.org/2000/svg" width="120" height="120" viewBox="0 0 120 120">
  <path id="Path_71" data-name="Path 71" d="M120,0H0V120H120Z" fill="none"/>
  <g id="Group_996" data-name="Group 996" transform="translate(-126 -46)">
    <g id="Group_980" data-name="Group 980">
      <g id="Group_979" data-name="Group 979" transform="translate(155 129.761)">
        <path id="Path_664" data-name="Path 664" d="M16.147-44.287,30.686-6.767,45.359-44.488q.4-1.072.871-1.206a8.429,8.429,0,0,1,1.34-.067H58.893v2.077H57.285q-4.355,0-5.025,1.139a4.781,4.781,0,0,0-.268,2.01V-5.226q0,2.01.8,2.546h0q1.005.6,4.489.6h1.608V0q-2.479-.2-9.581-.2-7.169,0-9.648.2V-2.077h1.608q4.355,0,5.025-1.139a4.781,4.781,0,0,0,.268-2.01V-43.684H46.5L30.016-1.273Q29.547-.067,28.81,0q-.8,0-1.34-1.474L11.323-43.148h-.067V-7.035q0,2.881,1.809,3.953a10.366,10.366,0,0,0,5.092,1.005V0q-7.035-.2-7.839-.2T2.479,0V-2.077q6.5,0,6.834-3.886A6.808,6.808,0,0,0,9.38-7.035v-33.5q0-2.01-.8-2.546-.938-.6-4.489-.6H2.479v-2.077H13.8q1.541,0,1.876.536l.067.067h0l.067.067v.067Q15.946-44.756,16.147-44.287Z"/>
      </g>
    </g>
  </g>
</svg>
