<svg id="_29-6x" data-name="29-6x" xmlns="http://www.w3.org/2000/svg" width="120" height="120" viewBox="0 0 120 120">
  <path id="Path_71" data-name="Path 71" d="M120,0H0V120H120Z" fill="none"/>
  <g id="Group_996" data-name="Group 996" transform="translate(-109 -35.404)">
    <g id="Group_983" data-name="Group 983" transform="translate(156.541 76.799)">
      <g id="Group_982" data-name="Group 982" transform="translate(0 0)">
        <path id="Path_666" data-name="Path 666" d="M9.215-23.795h0l.762-.586A6.942,6.942,0,0,1,6.169-30.59q0-4.452,4.276-7.908a15.481,15.481,0,0,1,5.975-3.046,11.255,11.255,0,0,1-.41-2.285q0-2.87,1.054-2.87.7,0,.7.762l-.293,2.109v.059a6.083,6.083,0,0,0,.293,1.933,19.885,19.885,0,0,1,3.69-.293q4.335,0,4.8,1.172v.117a.652.652,0,0,1,.059.293q0,1.816-5.214,1.816a4.946,4.946,0,0,1-3.573-1.054.918.918,0,0,0-.176-.234,11.674,11.674,0,0,0-5.975,6.854,9.782,9.782,0,0,0-.527,3.1,6.181,6.181,0,0,0,1.757,4.569,15.924,15.924,0,0,1,4.921-.7q4.686,0,4.8,1.582,0,1.816-5.448,1.816a15.588,15.588,0,0,1-5.155-.762A13.275,13.275,0,0,0,5.29-16.648,7.883,7.883,0,0,0,4.529-13.6q0,3.456,4.393,5.214l3.515,1.406q1.23.41,3.573,1.347,2.577,1,3.573,1.347A4.319,4.319,0,0,1,22.4-.129a6.153,6.153,0,0,1-2.343,4.862,5.638,5.638,0,0,1-2.46,1.23,4.879,4.879,0,0,1-1.289.176,9.032,9.032,0,0,1-5.624-1.875q-.762-.586-.762-.937,0-.644.586-.644a1.267,1.267,0,0,1,.644.293A8.732,8.732,0,0,0,16.3,4.851a2.693,2.693,0,0,0,2.636-1.992,3,3,0,0,0,.234-1.113A2.439,2.439,0,0,0,17.592-.539l-.469-.234L10.035-3.526A23.525,23.525,0,0,1,4.587-6.045,12.516,12.516,0,0,1,3.24-7.334Q2.3-8.74,2.244-8.8a7.215,7.215,0,0,1-.7-3.163A12.276,12.276,0,0,1,4.47-19.4a18.325,18.325,0,0,1,4.745-4.393M18.7-40.548a4.087,4.087,0,0,0,2.46.527A10.741,10.741,0,0,0,24.8-40.49a12.75,12.75,0,0,0-3.28-.351,10.077,10.077,0,0,0-2.812.293M14.136-24.556a7.389,7.389,0,0,0,2.929.469,9.748,9.748,0,0,0,3.749-.469,13.034,13.034,0,0,0-3.339-.351A13.46,13.46,0,0,0,14.136-24.556Z" transform="translate(-1.541 46.699)"/>
      </g>
    </g>
  </g>
</svg>
