<svg id="_29-7X" data-name="29-7X" xmlns="http://www.w3.org/2000/svg" width="120" height="120" viewBox="0 0 120 120">
  <path id="Path_71" data-name="Path 71" d="M120,0H0V120H120Z" fill="none"/>
  <g id="Group_997" data-name="Group 997" transform="translate(-117 -46)">
    <g id="Group_986" data-name="Group 986">
      <g id="Group_985" data-name="Group 985" transform="translate(155 129.761)">
        <path id="Path_668" data-name="Path 668" d="M40.937-45.359l.536,10.452H39.8q-.2-4.288-.8-5.226-.4-.536-5.092-.536H10.72q-4.69,0-5.092.536-.6.938-.8,5.226H3.149l.536-10.452H40.937M3.35,0h0L2.814-11.189H4.489q.2,4.891.8,5.829.469.67,5.36.67H33.969q4.958,0,5.36-.737.469-.871.8-5.762h1.675L41.272,0H3.35M35.309-29.346v11.524H33.634v-3.417H10.988v3.417H9.313V-29.346h1.675v3.417H33.634v-3.417Z"/>
      </g>
    </g>
  </g>
</svg>
