<svg version="1.1" xmlns="http://www.w3.org/2000/svg" xmlns:xlink="http://www.w3.org/1999/xlink" width="79" height="104"><defs><clipPath id="XitXOlFMJtBM"><path fill="none" stroke="none" d=" M 0 0 L 79 0 L 79 104 L 0 104 L 0 0 Z"/></clipPath></defs><g transform="scale(1,1)" clip-path="url(#XitXOlFMJtBM)"><g transform="translate(-136,-56)"><g transform="scale(67,67)"><g transform="translate(2.3134328358208953,1.9367313432835822)"><path fill="rgb(0,0,0)" stroke="none" paint-order="stroke fill markers" d=" M 0.611 -0.677 L 0.619 -0.521 L 0.594 -0.521 Q 0.591 -0.585 0.582 -0.599 Q 0.5760000000000001 -0.607 0.506 -0.607 L 0.16 -0.607 Q 0.09 -0.607 0.084 -0.599 Q 0.075 -0.585 0.07200000000000001 -0.521 L 0.047 -0.521 L 0.055 -0.677 L 0.611 -0.677 M 0.05 0 L 0.05 0 L 0.042 -0.167 L 0.067 -0.167 Q 0.07 -0.094 0.079 -0.08 Q 0.08600000000000001 -0.07 0.159 -0.07 L 0.507 -0.07 Q 0.581 -0.07 0.587 -0.081 Q 0.594 -0.094 0.599 -0.167 L 0.624 -0.167 L 0.616 0 L 0.05 0 M 0.527 -0.438 L 0.527 -0.266 L 0.502 -0.266 L 0.502 -0.317 L 0.164 -0.317 L 0.164 -0.266 L 0.139 -0.266 L 0.139 -0.438 L 0.164 -0.438 L 0.164 -0.387 L 0.502 -0.387 L 0.502 -0.438 L 0.527 -0.438 Z"/></g></g></g></g></svg>