<svg id="_29-8p" data-name="29-8p" xmlns="http://www.w3.org/2000/svg" width="120" height="120" viewBox="0 0 120 120">
  <path id="Path_71" data-name="Path 71" d="M120,0H0V120H120Z" fill="none"/>
  <g id="Group_996" data-name="Group 996" transform="translate(-115 -38)">
    <g id="Group_989" data-name="Group 989">
      <g id="Group_988" data-name="Group 988" transform="translate(155 120.877)">
        <path id="Path_670" data-name="Path 670" d="M17.755-24.991h0L14-10.184Q12.864-5.9,12.194-3.618,11.122-.335,10.184.335V.4a2.712,2.712,0,0,1-1.34.335A1.705,1.705,0,0,1,6.968-.6,1.485,1.485,0,0,1,6.9-1.072,3.717,3.717,0,0,1,7.437-2.68q6.3-13.6,8.576-22.311H12.194q-5.226,0-8.509,5.159-.6.8-1.072.8-.8,0-.8-.67,0-.737,2.412-4.02.469-.536.871-1.072a5.032,5.032,0,0,1,.469-.536,2.662,2.662,0,0,1,.335-.4,9.24,9.24,0,0,1,6.968-3.149H35.309q2.278,0,2.613,1v.067a1.743,1.743,0,0,1,.067.536q0,2.278-3.283,2.278H27.068a51.578,51.578,0,0,0-1.206,10.653A29.408,29.408,0,0,0,27.805-3.283a4.067,4.067,0,0,1,.4,1.474A2.411,2.411,0,0,1,26.532.469,2.379,2.379,0,0,1,25.46.737q-1.34,0-2.01-1.876-.2-.6-.4-1.474A22.274,22.274,0,0,1,22.512-7.7a65.877,65.877,0,0,1,1.809-12.8l1-4.489Z"/>
      </g>
    </g>
  </g>
</svg>
