<svg id="_29-9P" data-name="29-9P" xmlns="http://www.w3.org/2000/svg" width="120" height="120" viewBox="0 0 120 120">
  <path id="Path_71" data-name="Path 71" d="M120,0H0V120H120Z" fill="none"/>
  <g id="Group_997" data-name="Group 997" transform="translate(-120 -46)">
    <g id="Group_992" data-name="Group 992">
      <g id="Group_991" data-name="Group 991" transform="translate(155 129.761)">
        <path id="Path_672" data-name="Path 672" d="M41.071-40.334V-5.226q0,2.01.8,2.546h0q1,.6,4.489.6h1.608V0q-2.345-.2-9.916-.2-7.5,0-9.849.2V-2.077h1.608q4.355,0,5.025-1.139a4.781,4.781,0,0,0,.268-2.01V-43.483H15.075V-5.226q0,2.01.8,2.546.938.6,4.489.6h1.608V0Q19.631-.2,12.06-.2q-7.5,0-9.849.2V-2.077H3.819q4.355,0,5.025-1.139a4.781,4.781,0,0,0,.268-2.01V-40.334q0-2.01-.8-2.546-.938-.6-4.489-.6H2.211V-45.56H47.972v2.077H46.364q-4.355,0-5.025,1.139A4.781,4.781,0,0,0,41.071-40.334Z"/>
      </g>
    </g>
  </g>
</svg>
