<svg xmlns="http://www.w3.org/2000/svg" width="120" height="120" viewBox="0 0 120 120">
  <g id="_11matrix" data-name="11matrix" transform="translate(12.259 27.82)">
    <path id="Path_71" data-name="Path 71" d="M0,0H120V120H0Z" transform="translate(-12.259 -27.82)" fill="none"/>
    <g id="Group_138" data-name="Group 138" transform="translate(-63.328 -67.057)">
      <g id="Group_97" data-name="Group 97" transform="translate(73.68 65.551)">
        <g id="Group_93" data-name="Group 93" transform="translate(0 9.306)">
          <path id="Path_72" data-name="Path 72" d="M14.977-27.251A1.7,1.7,0,0,1,16.122-28.8a1.084,1.084,0,0,1,.406-.074.981.981,0,0,1,1.071,1,8.2,8.2,0,0,1-.258,1.256l-1.329,5.17q-.554,2.326-.812,3.323a13.116,13.116,0,0,0-.48,2.733q0,1.7,1.108,1.7,1.4,0,2.363-2.954.185-.628.443-1.625.3-.628.517-.665.443,0,.443.369a11.8,11.8,0,0,1-.665,2.585,9.471,9.471,0,0,1-.443,1.071,3.09,3.09,0,0,1-2.733,2.031,3.13,3.13,0,0,1-2.991-1.773,3.214,3.214,0,0,1-.369-1q-2.326,2.77-4.8,2.77a4.354,4.354,0,0,1-4.1-2.511,6.934,6.934,0,0,1-.812-3.4A11.45,11.45,0,0,1,5.45-26.18a8.461,8.461,0,0,1,5.613-3.4,3.651,3.651,0,0,1,.517-.037,3.642,3.642,0,0,1,3.4,2.363m-2.4,9.564h0l1.846-7.238q.111-.554.111-.628a3.861,3.861,0,0,0-.665-1.883A2.508,2.508,0,0,0,11.616-28.8q-1.92,0-3.656,2.511a10.473,10.473,0,0,0-.628,1.034,23.933,23.933,0,0,0-1.809,6.093A12.138,12.138,0,0,0,5.3-17.169q0,2.511,1.4,3.25a1.976,1.976,0,0,0,.96.222q2.068,0,4.173-2.622a3.257,3.257,0,0,0,.7-1.219v-.037A.283.283,0,0,0,12.577-17.686Z" transform="translate(-2.68 29.614)"/>
        </g>
        <g id="Group_94" data-name="Group 94" transform="translate(58.401)">
          <path id="Path_73" data-name="Path 73" d="M10.239-46.092,7.506-34.977a6.122,6.122,0,0,1,4.321-2.216,4.424,4.424,0,0,1,4.136,2.548,7.12,7.12,0,0,1,.775,3.36,11.448,11.448,0,0,1-2.733,7.312A8.476,8.476,0,0,1,8.393-20.5a4.479,4.479,0,0,1-.554.037,4.2,4.2,0,0,1-3.951-2.474,7.043,7.043,0,0,1-.739-3.323,17.665,17.665,0,0,1,.591-3.73L6.768-42.03q.517-2.179.517-2.29,0-.406-.517-.517h0a5.905,5.905,0,0,0-1.329-.111q-.812,0-.886-.443,0-.628.7-.739L9.759-46.5q.48,0,.48.406M6.768-32.133l-.812,3.4a16.007,16.007,0,0,0-.591,3.73q0,3.176,1.92,3.656a2.008,2.008,0,0,0,.554.074q1.957,0,3.656-2.585a11.33,11.33,0,0,0,.7-1.219,23.729,23.729,0,0,0,1.662-5.687,13.131,13.131,0,0,0,.222-2.142q0-2.954-1.809-3.4l-.037-.037a2.924,2.924,0,0,0-.48-.037q-2.216,0-4.431,2.954A3.833,3.833,0,0,0,6.768-32.133Z" transform="translate(-3.149 46.498)"/>
        </g>
        <g id="Group_95" data-name="Group 95" transform="translate(1.809 50.849)">
          <path id="Path_74" data-name="Path 74" d="M15.856-27.324h0A4.16,4.16,0,0,0,12.681-28.8a5.581,5.581,0,0,0-4.357,2.437,8.646,8.646,0,0,0-.849,1.256,17.489,17.489,0,0,0-1.92,6.352,8.471,8.471,0,0,0-.074,1.034q0,3.028,2.068,3.8A3.183,3.183,0,0,0,8.8-13.7a9.1,9.1,0,0,0,5.982-2.216,8.644,8.644,0,0,0,1.4-1.44q.258-.369.48-.369.332,0,.443.48,0,.406-1.256,1.588a10.3,10.3,0,0,1-7.127,2.77,5.42,5.42,0,0,1-5.1-2.807,6.671,6.671,0,0,1-.886-3.434,10.264,10.264,0,0,1,2.88-6.979,9.533,9.533,0,0,1,6.352-3.471,6.014,6.014,0,0,1,.665-.037q2.843,0,3.951,1.736A2.712,2.712,0,0,1,17-26.438a2.21,2.21,0,0,1-1.292,2.216,2.069,2.069,0,0,1-.775.148,1.2,1.2,0,0,1-1.329-.96,1.373,1.373,0,0,1-.037-.332,1.931,1.931,0,0,1,.665-1.44A2.219,2.219,0,0,1,15.856-27.324Z" transform="translate(-2.747 29.614)"/>
        </g>
        <g id="Group_96" data-name="Group 96" transform="translate(56.462 41.544)">
          <path id="Path_75" data-name="Path 75" d="M20.258-46.092,14.94-24.748a7.593,7.593,0,0,0-.222,1.773q0,1.7,1.108,1.7,1.4,0,2.363-2.954.185-.628.443-1.625.3-.628.517-.665.443,0,.443.369a11.8,11.8,0,0,1-.665,2.585,9.47,9.47,0,0,1-.443,1.071,3.09,3.09,0,0,1-2.733,2.031,3.13,3.13,0,0,1-2.991-1.773,3.214,3.214,0,0,1-.369-1q-2.326,2.77-4.8,2.77a4.354,4.354,0,0,1-4.1-2.511,6.934,6.934,0,0,1-.812-3.4,11.45,11.45,0,0,1,2.77-7.386,8.461,8.461,0,0,1,5.613-3.4,3.651,3.651,0,0,1,.517-.037,3.642,3.642,0,0,1,3.4,2.363l2.216-8.752.111-.739q0-.406-.517-.517a5.905,5.905,0,0,0-1.329-.111q-.812,0-.886-.443,0-.628.517-.7,3.471-.406,4.69-.406.48,0,.48.406M12.577-25.265h0L14.423-32.5q.111-.554.111-.628a3.861,3.861,0,0,0-.665-1.883,2.508,2.508,0,0,0-2.253-1.366q-1.92,0-3.656,2.511a10.473,10.473,0,0,0-.628,1.034,23.933,23.933,0,0,0-1.809,6.093A12.138,12.138,0,0,0,5.3-24.748q0,2.511,1.4,3.25a1.976,1.976,0,0,0,.96.222q2.068,0,4.173-2.622a3.257,3.257,0,0,0,.7-1.219v-.037A.283.283,0,0,0,12.577-25.265Z" transform="translate(-2.68 46.498)"/>
        </g>
      </g>
    </g>
  </g>
</svg>
