<svg xmlns="http://www.w3.org/2000/svg" width="120" height="120" viewBox="0 0 120 120">
  <g id="_12matrixbrac" data-name="12matrixbrac" transform="translate(12.259 27.82)">
    <path id="Path_71" data-name="Path 71" d="M0,0H120V120H0Z" transform="translate(-12.259 -27.82)" fill="none"/>
    <g id="Group_137" data-name="Group 137" transform="translate(-94.456 -66.067)">
      <g id="Group_105" data-name="Group 105" transform="translate(84.936 53.997)">
        <g id="Group_99" data-name="Group 99" transform="translate(0 0)">
          <path id="Path_77" data-name="Path 77" d="M30.7,85.79a42.384,42.384,0,0,1-7.786-9.155A51.785,51.785,0,0,1,17.7,65.785a65.828,65.828,0,0,1-2.866-11.814,85.51,85.51,0,0,1,0-24.763,65.833,65.833,0,0,1,2.857-11.814A51.553,51.553,0,0,1,22.9,6.554,42.5,42.5,0,0,1,30.7-2.611q0-.072.18-.072h.955a.284.284,0,0,1,.207.108.341.341,0,0,1,.1.234.294.294,0,0,1-.072.216A42.706,42.706,0,0,0,24.939,7.14a52.175,52.175,0,0,0-4.623,10.741,68.6,68.6,0,0,0-2.442,11.588,101.24,101.24,0,0,0-.009,24.2,68.854,68.854,0,0,0,2.451,11.579,52.061,52.061,0,0,0,4.65,10.814,43.54,43.54,0,0,0,7.1,9.264.294.294,0,0,1,.072.216.312.312,0,0,1-.108.216.3.3,0,0,1-.2.108h-.955Q30.7,85.862,30.7,85.79Z" transform="translate(-13.937 2.683)"/>
        </g>
        <g id="Group_100" data-name="Group 100" transform="translate(20.965 20.025)">
          <path id="Path_78" data-name="Path 78" d="M14.971-27.252a1.7,1.7,0,0,1,1.144-1.55,1.084,1.084,0,0,1,.406-.074.981.981,0,0,1,1.07,1,8.2,8.2,0,0,1-.258,1.255L16-21.457q-.554,2.325-.812,3.322a13.11,13.11,0,0,0-.48,2.731q0,1.7,1.107,1.7,1.4,0,2.362-2.953.185-.627.443-1.624.3-.627.517-.664.443,0,.443.369a11.792,11.792,0,0,1-.664,2.584,9.465,9.465,0,0,1-.443,1.07,3.088,3.088,0,0,1-2.731,2.03,3.128,3.128,0,0,1-2.99-1.772,3.212,3.212,0,0,1-.369-1q-2.325,2.768-4.8,2.768a4.352,4.352,0,0,1-4.1-2.51,6.931,6.931,0,0,1-.812-3.4,11.445,11.445,0,0,1,2.768-7.382,8.457,8.457,0,0,1,5.61-3.4,3.649,3.649,0,0,1,.517-.037,3.641,3.641,0,0,1,3.4,2.362m-2.4,9.56h0l1.846-7.234q.111-.554.111-.627a3.859,3.859,0,0,0-.664-1.882A2.507,2.507,0,0,0,11.612-28.8q-1.919,0-3.654,2.51a10.467,10.467,0,0,0-.627,1.033,23.922,23.922,0,0,0-1.809,6.09A12.132,12.132,0,0,0,5.3-17.175q0,2.51,1.4,3.248a1.975,1.975,0,0,0,.96.221q2.067,0,4.171-2.621a3.256,3.256,0,0,0,.7-1.218v-.037A.283.283,0,0,0,12.572-17.692Z" transform="translate(-2.68 29.614)"/>
        </g>
        <g id="Group_101" data-name="Group 101" transform="translate(79.338 10.724)">
          <path id="Path_79" data-name="Path 79" d="M10.236-46.092,7.5-34.982A6.119,6.119,0,0,1,11.823-37.2a4.421,4.421,0,0,1,4.134,2.547,7.117,7.117,0,0,1,.775,3.359A11.443,11.443,0,0,1,14-23.983a8.472,8.472,0,0,1-5.61,3.47,4.477,4.477,0,0,1-.554.037,4.2,4.2,0,0,1-3.949-2.473,7.04,7.04,0,0,1-.738-3.322A17.656,17.656,0,0,1,3.74-30L6.766-42.032q.517-2.178.517-2.288,0-.406-.517-.517h0a5.9,5.9,0,0,0-1.329-.111q-.812,0-.886-.443,0-.627.7-.738l4.5-.369q.48,0,.48.406M6.766-32.14l-.812,3.4a16,16,0,0,0-.591,3.728q0,3.174,1.919,3.654a2.007,2.007,0,0,0,.554.074q1.956,0,3.654-2.584a11.324,11.324,0,0,0,.7-1.218,23.717,23.717,0,0,0,1.661-5.684,13.125,13.125,0,0,0,.221-2.141q0-2.953-1.809-3.4l-.037-.037a2.923,2.923,0,0,0-.48-.037q-2.215,0-4.429,2.953A3.831,3.831,0,0,0,6.766-32.14Z" transform="translate(-3.149 46.498)"/>
        </g>
        <g id="Group_102" data-name="Group 102" transform="translate(22.773 61.549)">
          <path id="Path_80" data-name="Path 80" d="M15.85-27.326h0A4.158,4.158,0,0,0,12.676-28.8,5.578,5.578,0,0,0,8.32-26.366a8.642,8.642,0,0,0-.849,1.255,17.48,17.48,0,0,0-1.919,6.349,8.467,8.467,0,0,0-.074,1.033q0,3.027,2.067,3.8a3.181,3.181,0,0,0,1.255.221A9.1,9.1,0,0,0,14.78-15.92a8.64,8.64,0,0,0,1.4-1.439q.258-.369.48-.369.332,0,.443.48,0,.406-1.255,1.587a10.3,10.3,0,0,1-7.124,2.768A5.417,5.417,0,0,1,3.633-15.7a6.667,6.667,0,0,1-.886-3.433,10.259,10.259,0,0,1,2.879-6.976,9.529,9.529,0,0,1,6.349-3.47,6.012,6.012,0,0,1,.664-.037q2.842,0,3.949,1.735a2.71,2.71,0,0,1,.406,1.439A2.209,2.209,0,0,1,15.7-24.225a2.068,2.068,0,0,1-.775.148,1.2,1.2,0,0,1-1.329-.96,1.372,1.372,0,0,1-.037-.332,1.93,1.93,0,0,1,.664-1.439A2.218,2.218,0,0,1,15.85-27.326Z" transform="translate(-2.747 29.614)"/>
        </g>
        <g id="Group_103" data-name="Group 103" transform="translate(77.4 52.248)">
          <path id="Path_81" data-name="Path 81" d="M20.249-46.092,14.934-24.758a7.589,7.589,0,0,0-.221,1.772q0,1.7,1.107,1.7,1.4,0,2.362-2.953.185-.627.443-1.624.3-.627.517-.664.443,0,.443.369a11.792,11.792,0,0,1-.664,2.584,9.465,9.465,0,0,1-.443,1.07,3.088,3.088,0,0,1-2.731,2.03,3.128,3.128,0,0,1-2.99-1.772,3.212,3.212,0,0,1-.369-1q-2.325,2.768-4.8,2.768a4.352,4.352,0,0,1-4.1-2.51,6.931,6.931,0,0,1-.812-3.4,11.445,11.445,0,0,1,2.768-7.382,8.457,8.457,0,0,1,5.61-3.4,3.649,3.649,0,0,1,.517-.037,3.641,3.641,0,0,1,3.4,2.362l2.215-8.748.111-.738q0-.406-.517-.517a5.9,5.9,0,0,0-1.329-.111q-.812,0-.886-.443,0-.627.517-.7,3.47-.406,4.688-.406.48,0,.48.406M12.572-25.275h0l1.846-7.234q.111-.554.111-.627a3.859,3.859,0,0,0-.664-1.882,2.507,2.507,0,0,0-2.252-1.366q-1.919,0-3.654,2.51a10.468,10.468,0,0,0-.627,1.033,23.922,23.922,0,0,0-1.809,6.09A12.132,12.132,0,0,0,5.3-24.758q0,2.51,1.4,3.248a1.975,1.975,0,0,0,.96.221q2.067,0,4.171-2.621a3.256,3.256,0,0,0,.7-1.218v-.037A.283.283,0,0,0,12.572-25.275Z" transform="translate(-2.68 46.498)"/>
        </g>
        <g id="Group_104" data-name="Group 104" transform="translate(96.378 0)">
          <path id="Path_82" data-name="Path 82" d="M2.614,85.862a.287.287,0,0,1-.324-.324.294.294,0,0,1,.072-.216,42.383,42.383,0,0,0,7.119-9.273,52.76,52.76,0,0,0,4.614-10.742,68.52,68.52,0,0,0,2.442-11.516,99.161,99.161,0,0,0,.73-12.21,98.68,98.68,0,0,0-.73-12.237A69.11,69.11,0,0,0,14.113,17.9,51.915,51.915,0,0,0,9.481,7.149,42.735,42.735,0,0,0,2.362-2.124.294.294,0,0,1,2.29-2.34q0-.342.324-.342H3.57a.268.268,0,0,1,.2.072,42.422,42.422,0,0,1,7.8,9.182,51.342,51.342,0,0,1,5.19,10.859,65.792,65.792,0,0,1,2.83,11.8,86.194,86.194,0,0,1,.883,12.382,85.565,85.565,0,0,1-.883,12.327,66.068,66.068,0,0,1-2.83,11.8,51.266,51.266,0,0,1-5.19,10.867,42.416,42.416,0,0,1-7.8,9.182.267.267,0,0,1-.2.072Z" transform="translate(-2.29 2.683)"/>
        </g>
      </g>
    </g>
  </g>
</svg>
