<svg xmlns="http://www.w3.org/2000/svg" width="120" height="120" viewBox="0 0 120 120">
  <g id="_13matrixsqbrac" data-name="13matrixsqbrac" transform="translate(12.259 27.82)">
    <path id="Path_71" data-name="Path 71" d="M0,0H120V120H0Z" transform="translate(-12.259 -27.82)" fill="none"/>
    <g id="Group_114" data-name="Group 114" transform="translate(-87.666 -66.067)">
      <g id="Group_113" data-name="Group 113" transform="translate(87.684 53.997)">
        <g id="Group_107" data-name="Group 107" transform="translate(0 0)">
          <path id="Path_84" data-name="Path 84" d="M26.453-2.683V-.574H18.775V83.753h7.678v2.109H16.685V-2.683Z" transform="translate(-16.685 2.683)"/>
        </g>
        <g id="Group_108" data-name="Group 108" transform="translate(11.773 20.025)">
          <path id="Path_85" data-name="Path 85" d="M14.971-27.252a1.7,1.7,0,0,1,1.144-1.55,1.084,1.084,0,0,1,.406-.074.981.981,0,0,1,1.07,1,8.2,8.2,0,0,1-.258,1.255L16-21.457q-.554,2.325-.812,3.322a13.11,13.11,0,0,0-.48,2.731q0,1.7,1.107,1.7,1.4,0,2.362-2.953.185-.627.443-1.624.3-.627.517-.664.443,0,.443.369a11.792,11.792,0,0,1-.664,2.584,9.466,9.466,0,0,1-.443,1.07,3.088,3.088,0,0,1-2.731,2.03,3.128,3.128,0,0,1-2.99-1.772,3.212,3.212,0,0,1-.369-1q-2.325,2.768-4.8,2.768a4.352,4.352,0,0,1-4.1-2.51,6.931,6.931,0,0,1-.812-3.4,11.445,11.445,0,0,1,2.768-7.382,8.457,8.457,0,0,1,5.61-3.4,3.649,3.649,0,0,1,.517-.037,3.641,3.641,0,0,1,3.4,2.362m-2.4,9.56h0l1.846-7.234q.111-.554.111-.627a3.859,3.859,0,0,0-.664-1.882A2.507,2.507,0,0,0,11.612-28.8q-1.919,0-3.654,2.51a10.467,10.467,0,0,0-.627,1.033,23.922,23.922,0,0,0-1.809,6.09A12.133,12.133,0,0,0,5.3-17.175q0,2.51,1.4,3.248a1.975,1.975,0,0,0,.96.221q2.067,0,4.171-2.621a3.256,3.256,0,0,0,.7-1.218v-.037A.283.283,0,0,0,12.572-17.692Z" transform="translate(-2.68 29.614)"/>
        </g>
        <g id="Group_109" data-name="Group 109" transform="translate(70.147 10.724)">
          <path id="Path_86" data-name="Path 86" d="M10.236-46.092,7.5-34.982A6.119,6.119,0,0,1,11.823-37.2a4.421,4.421,0,0,1,4.134,2.547,7.117,7.117,0,0,1,.775,3.359A11.443,11.443,0,0,1,14-23.983a8.472,8.472,0,0,1-5.61,3.47,4.477,4.477,0,0,1-.554.037,4.2,4.2,0,0,1-3.949-2.473,7.04,7.04,0,0,1-.738-3.322A17.656,17.656,0,0,1,3.74-30L6.766-42.032q.517-2.178.517-2.288,0-.406-.517-.517h0a5.9,5.9,0,0,0-1.329-.111q-.812,0-.886-.443,0-.627.7-.738l4.5-.369q.48,0,.48.406M6.766-32.14l-.812,3.4a16,16,0,0,0-.591,3.728q0,3.174,1.919,3.654a2.007,2.007,0,0,0,.554.074q1.956,0,3.654-2.584a11.325,11.325,0,0,0,.7-1.218,23.718,23.718,0,0,0,1.661-5.684,13.125,13.125,0,0,0,.221-2.141q0-2.953-1.809-3.4l-.037-.037a2.923,2.923,0,0,0-.48-.037q-2.215,0-4.429,2.953A3.831,3.831,0,0,0,6.766-32.14Z" transform="translate(-3.149 46.498)"/>
        </g>
        <g id="Group_110" data-name="Group 110" transform="translate(13.582 61.549)">
          <path id="Path_87" data-name="Path 87" d="M15.85-27.326h0A4.158,4.158,0,0,0,12.676-28.8,5.578,5.578,0,0,0,8.32-26.366a8.641,8.641,0,0,0-.849,1.255,17.48,17.48,0,0,0-1.919,6.349,8.467,8.467,0,0,0-.074,1.033q0,3.027,2.067,3.8a3.181,3.181,0,0,0,1.255.221A9.1,9.1,0,0,0,14.78-15.92a8.64,8.64,0,0,0,1.4-1.439q.258-.369.48-.369.332,0,.443.48,0,.406-1.255,1.587a10.3,10.3,0,0,1-7.124,2.768A5.417,5.417,0,0,1,3.633-15.7a6.667,6.667,0,0,1-.886-3.433,10.259,10.259,0,0,1,2.879-6.976,9.529,9.529,0,0,1,6.349-3.47,6.012,6.012,0,0,1,.664-.037q2.842,0,3.949,1.735a2.71,2.71,0,0,1,.406,1.439A2.209,2.209,0,0,1,15.7-24.225a2.068,2.068,0,0,1-.775.148,1.2,1.2,0,0,1-1.329-.96,1.372,1.372,0,0,1-.037-.332,1.93,1.93,0,0,1,.664-1.439A2.218,2.218,0,0,1,15.85-27.326Z" transform="translate(-2.747 29.614)"/>
        </g>
        <g id="Group_111" data-name="Group 111" transform="translate(68.209 52.248)">
          <path id="Path_88" data-name="Path 88" d="M20.249-46.092,14.934-24.758a7.589,7.589,0,0,0-.221,1.772q0,1.7,1.107,1.7,1.4,0,2.362-2.953.185-.627.443-1.624.3-.627.517-.664.443,0,.443.369a11.792,11.792,0,0,1-.664,2.584,9.466,9.466,0,0,1-.443,1.07,3.088,3.088,0,0,1-2.731,2.03,3.128,3.128,0,0,1-2.99-1.772,3.212,3.212,0,0,1-.369-1q-2.325,2.768-4.8,2.768a4.352,4.352,0,0,1-4.1-2.51,6.931,6.931,0,0,1-.812-3.4,11.445,11.445,0,0,1,2.768-7.382,8.457,8.457,0,0,1,5.61-3.4,3.649,3.649,0,0,1,.517-.037,3.641,3.641,0,0,1,3.4,2.362l2.215-8.748.111-.738q0-.406-.517-.517a5.9,5.9,0,0,0-1.329-.111q-.812,0-.886-.443,0-.627.517-.7,3.47-.406,4.688-.406.48,0,.48.406M12.572-25.275h0l1.846-7.234q.111-.554.111-.627a3.859,3.859,0,0,0-.664-1.882,2.507,2.507,0,0,0-2.252-1.366q-1.919,0-3.654,2.51a10.467,10.467,0,0,0-.627,1.033,23.922,23.922,0,0,0-1.809,6.09A12.133,12.133,0,0,0,5.3-24.758q0,2.51,1.4,3.248a1.975,1.975,0,0,0,.96.221q2.067,0,4.171-2.621a3.256,3.256,0,0,0,.7-1.218v-.037A.283.283,0,0,0,12.572-25.275Z" transform="translate(-2.68 46.498)"/>
        </g>
        <g id="Group_112" data-name="Group 112" transform="translate(86.412 0)">
          <path id="Path_89" data-name="Path 89" d="M.883,85.862V83.753H8.561V-.574H.883V-2.683h9.768V85.862Z" transform="translate(-0.883 2.683)"/>
        </g>
      </g>
    </g>
  </g>
</svg>
