<svg xmlns="http://www.w3.org/2000/svg" width="120" height="120" viewBox="0 0 120 120">
  <g id="_14matrixbraclet" data-name="14matrixbraclet" transform="translate(12.259 27.82)">
    <path id="Path_71" data-name="Path 71" d="M0,0H120V120H0Z" transform="translate(-12.259 -27.82)" fill="none"/>
    <g id="Group_128" data-name="Group 128" transform="translate(-141.759 1445.358)">
      <g id="Group_115" data-name="Group 115" transform="translate(130 -1456.571)">
        <path id="Path_91" data-name="Path 91" d="M147.667-1363.366l-.217.217h-1.086l-.507-.217a17.045,17.045,0,0,1-5.684-3.693,10.529,10.529,0,0,1-2.86-5,7.9,7.9,0,0,1-.181-1.81q0-1.05-.072-10.969-.036-11.658-.072-12.02a11.139,11.139,0,0,0-.8-2.86,9.8,9.8,0,0,0-1.34-2.281,17.877,17.877,0,0,0-1.557-1.7,10.647,10.647,0,0,0-1.521-1.231q-.724-.471-1.159-.724t-.543-.326a1.507,1.507,0,0,1-.072-.579v-.29a.682.682,0,0,1,.036-.217l.036-.109.072-.072a.455.455,0,0,1,.181-.109.454.454,0,0,0,.181-.109,13.249,13.249,0,0,0,4.055-3.331,11.766,11.766,0,0,0,2.426-5.5q.036-.362.072-12.02.036-9.883.036-10.97a6.8,6.8,0,0,1,.217-1.846q1.34-5.539,8.472-8.616l.579-.253h1.086l.217.217v.543a1.461,1.461,0,0,1-.072.652l-.29.181a6.581,6.581,0,0,0-.833.471q-.507.326-1.195.76a8.8,8.8,0,0,0-1.34,1.05,18.019,18.019,0,0,0-1.3,1.376,7.053,7.053,0,0,0-1.086,1.738,13.881,13.881,0,0,0-.724,2.064,8.994,8.994,0,0,0-.145,1.738q0,1.014-.072,10.9-.036,9.847-.036,10.933a6.8,6.8,0,0,1-.217,1.846,10.571,10.571,0,0,1-1.014,2.679,10.8,10.8,0,0,1-1.521,2.172,16.5,16.5,0,0,1-1.774,1.666,17.144,17.144,0,0,1-1.7,1.231,13.085,13.085,0,0,1-1.3.724,2,2,0,0,0-.615.362l-.326.109.615.326a16.353,16.353,0,0,1,5.068,3.765,10.8,10.8,0,0,1,2.57,4.887,8.091,8.091,0,0,1,.181,1.846q0,1.086.072,10.9v4.453q.036,7.422.181,8.037a.6.6,0,0,1,.036.181,8.753,8.753,0,0,0,.507,1.593,7.343,7.343,0,0,0,.8,1.412q.471.652.941,1.231a8.367,8.367,0,0,0,1.014,1.05q.543.471,1.05.833t.941.652q.434.29.76.471t.543.326l.217.072a1.461,1.461,0,0,1,.072.652Z" transform="translate(-130 1450)" stroke="#000" stroke-width="0"/>
      </g>
      <g id="Group_126" data-name="Group 126" transform="translate(153.641 -1452.636)">
        <g id="Group_120" data-name="Group 120" transform="translate(0 0)">
          <g id="Group_117" data-name="Group 117" transform="translate(0 9.159)">
            <g id="Group_116" data-name="Group 116">
              <path id="Path_92" data-name="Path 92" d="M33-430.718a10.7,10.7,0,0,1,2.751-6.951A8.1,8.1,0,0,1,41.942-441a4.1,4.1,0,0,1,3.258,1.774,1.811,1.811,0,0,1,1.665-1.086,1.3,1.3,0,0,1,.833.29.892.892,0,0,1,.362.724q0,.471-1.34,5.793t-1.376,6.01A1.937,1.937,0,0,0,45.6-426.3a1.063,1.063,0,0,0,.76.326,1.573,1.573,0,0,0,.724-.326,8.21,8.21,0,0,0,1.484-3.476q.217-.724.362-.76a1.057,1.057,0,0,1,.362-.036h.145q.688,0,.688.326a5.75,5.75,0,0,1-.181.977,11.359,11.359,0,0,1-.724,1.955,6.167,6.167,0,0,1-1.159,1.81,3.579,3.579,0,0,1-1.159.76,3.859,3.859,0,0,1-.869.072,3.7,3.7,0,0,1-2.064-.543,2.779,2.779,0,0,1-1.086-1.122l-.217-.543q-.036-.036-.145.036l-.145.145a6.347,6.347,0,0,1-4.344,2.027,4.941,4.941,0,0,1-3.512-1.448A6.1,6.1,0,0,1,33-430.718Zm11.513-6.191a3.277,3.277,0,0,0-.181-.8,3.443,3.443,0,0,0-.833-1.267,2.314,2.314,0,0,0-1.665-.724,3.474,3.474,0,0,0-2.426,1.122,7.575,7.575,0,0,0-1.81,2.932,28.9,28.9,0,0,0-1.484,5.937v.4a1.929,1.929,0,0,1-.036.434,3.041,3.041,0,0,0,.652,2.245,2.331,2.331,0,0,0,1.557.652A4.088,4.088,0,0,0,41-427.17a6.087,6.087,0,0,0,1.593-1.846q.072-.145.977-3.874T44.513-436.909Z" transform="translate(-33 441)" stroke="#000" stroke-width="0"/>
            </g>
          </g>
          <g id="Group_119" data-name="Group 119" transform="translate(57.255 0)">
            <g id="Group_118" data-name="Group 118" transform="translate(0)">
              <path id="Path_93" data-name="Path 93" d="M41.195-692.3a2.877,2.877,0,0,1,.145-.833q.145-.471.434-.471.036,0,2.607-.181T47.023-694q.434,0,.434.326T46.227-688.5q-.29,1.231-.615,2.534t-.543,1.955l-.145.688q0,.109.217-.109a5.736,5.736,0,0,1,3.657-1.448,4.466,4.466,0,0,1,3.62,1.665,6.528,6.528,0,0,1,1.412,4.2,10.76,10.76,0,0,1-2.86,7.277q-2.86,3.258-6.155,3.258a4.738,4.738,0,0,1-3.294-1.376A5.927,5.927,0,0,1,40-674.305v-.326a10.614,10.614,0,0,1,.29-2.1q.29-1.34,1.774-7.132,1.81-7.132,1.81-7.566t-1.376-.507h-.941a.447.447,0,0,1-.253-.109A.232.232,0,0,1,41.195-692.3Zm9.521,11.657v-.217q0-2.679-2.208-2.679a3.11,3.11,0,0,0-1.267.29,4.776,4.776,0,0,0-1.195.76q-.543.471-.941.869a4.726,4.726,0,0,0-.652.8l-.217.29-.76,3.113a20.837,20.837,0,0,0-.8,4.417,3.54,3.54,0,0,0,.869,2.607,1.965,1.965,0,0,0,1.448.579,3.605,3.605,0,0,0,2.426-1.159A6.207,6.207,0,0,0,48.87-673a24.127,24.127,0,0,0,1.195-3.8A17.786,17.786,0,0,0,50.716-680.641Z" transform="translate(-40 694)" stroke="#000" stroke-width="0"/>
            </g>
          </g>
        </g>
        <g id="Group_125" data-name="Group 125" transform="translate(1.774 46.869)">
          <g id="Group_122" data-name="Group 122" transform="translate(0 9.123)">
            <g id="Group_121" data-name="Group 121">
              <path id="Path_94" data-name="Path 94" d="M34-431.754a9.854,9.854,0,0,1,3.113-7.1A9.362,9.362,0,0,1,43.847-442a5.2,5.2,0,0,1,3.186.869,2.815,2.815,0,0,1,1.195,2.281,2.479,2.479,0,0,1-.688,1.774,2.417,2.417,0,0,1-1.738.76,1.554,1.554,0,0,1-1.086-.362,1.4,1.4,0,0,1-.4-1.086,1.931,1.931,0,0,1,.4-1.231,3.309,3.309,0,0,1,.8-.76q.4-.253.507-.217h.036q0-.072-.217-.217a2.768,2.768,0,0,0-.76-.29,4.787,4.787,0,0,0-1.231-.145,4.422,4.422,0,0,0-2.064.507A5.12,5.12,0,0,0,40.227-439a9.436,9.436,0,0,0-2.317,4.489,22.313,22.313,0,0,0-.76,4.2,3.161,3.161,0,0,0,.941,2.5,2.713,2.713,0,0,0,2.1.869h.145a8.446,8.446,0,0,0,6.7-3.077q.326-.362.434-.362.145,0,.471.326a1.234,1.234,0,0,1,.362.507q.036.181-.326.543t-1.05,1.014A6,6,0,0,1,45.3-426.9a24.73,24.73,0,0,1-2.317.905,7.731,7.731,0,0,1-2.9.4,5.789,5.789,0,0,1-4.381-1.738A6.254,6.254,0,0,1,34-431.754Z" transform="translate(-34 442)" stroke="#000" stroke-width="0"/>
            </g>
          </g>
          <g id="Group_124" data-name="Group 124" transform="translate(53.581)">
            <g id="Group_123" data-name="Group 123" transform="translate(0)">
              <path id="Path_95" data-name="Path 95" d="M45.056-693.6q.036,0,2.607-.181T50.305-694q.434,0,.434.29,0,.253-2.643,10.933t-2.715,10.9a1.285,1.285,0,0,0-.036.543q0,1.521,1.014,1.521a1.573,1.573,0,0,0,.724-.326,8.209,8.209,0,0,0,1.484-3.476q.217-.724.362-.76a1.058,1.058,0,0,1,.362-.036h.29q.543,0,.543.29a2.51,2.51,0,0,1-.109.579,12.979,12.979,0,0,1-1.086,2.932,5.371,5.371,0,0,1-1.014,1.448,4,4,0,0,1-1.014.579,3.859,3.859,0,0,1-.869.072,3.7,3.7,0,0,1-2.064-.543,2.78,2.78,0,0,1-1.086-1.122l-.217-.543q-.036-.036-.145.036l-.145.145a6.347,6.347,0,0,1-4.344,2.027,4.941,4.941,0,0,1-3.512-1.448,6.1,6.1,0,0,1-1.521-4.6,9.513,9.513,0,0,1,.724-3.548,12.756,12.756,0,0,1,1.738-3.113,10.224,10.224,0,0,1,3.4-2.86,7.368,7.368,0,0,1,3.077-.8,3.411,3.411,0,0,1,3.041,1.521q.181.217.181.145l.977-3.946q.941-3.8,1.014-4.018,0-.471-.253-.579a6.075,6.075,0,0,0-1.412-.181h-.76q-.217-.217-.217-.29t.072-.688Q44.766-693.6,45.056-693.6Zm-.507,12.924q-.833-2.86-2.715-2.86a3.474,3.474,0,0,0-2.426,1.122,7.575,7.575,0,0,0-1.81,2.932,28.9,28.9,0,0,0-1.484,5.937v.4a1.929,1.929,0,0,1-.036.434,3.04,3.04,0,0,0,.652,2.245,2.332,2.332,0,0,0,1.557.652q1.955,0,4.019-2.607l.29-.4Z" transform="translate(-33 694)" stroke="#000" stroke-width="0"/>
            </g>
          </g>
        </g>
      </g>
      <g id="Group_127" data-name="Group 127" transform="translate(231.369 -1456.818)">
        <path id="Path_96" data-name="Path 96" d="M131-1455.268v-.543l.072-.652q.072-.652.543-.109h.688l.543.217a17.086,17.086,0,0,1,5.575,3.657,10.725,10.725,0,0,1,2.86,4.924,7.634,7.634,0,0,1,.217,1.919q0,1.086.072,10.97l.036,11.585.072.507a10.763,10.763,0,0,0,1.231,3.693,10.586,10.586,0,0,0,2.1,2.751,17.575,17.575,0,0,0,1.919,1.557,12.8,12.8,0,0,0,1.34.8q.253.145.29.254a3.438,3.438,0,0,1,.072.579v.471a.313.313,0,0,1-.109.217.972.972,0,0,1-.253.181,13,13,0,0,0-4.236,3.439,11.031,11.031,0,0,0-2.353,5.322l-.072.507-.036,11.621q-.036,9.847-.036,10.933a6.978,6.978,0,0,1-.253,1.955,10.449,10.449,0,0,1-2.824,4.887,17.46,17.46,0,0,1-5.612,3.693l-.543.217H131.8a1.231,1.231,0,0,1-.688-.109,1.131,1.131,0,0,1-.109-.652,2.872,2.872,0,0,1,.036-.615q.036-.109.434-.254l.145-.072q5.467-2.969,6.336-8.037.036-.615.072-11.983t.072-11.947q1.014-5.937,7.748-9.413l.724-.326-.724-.362q-6.7-3.439-7.748-9.413-.036-.615-.072-11.947t-.072-11.983a9.95,9.95,0,0,0-1.086-3.113,9.242,9.242,0,0,0-1.774-2.353,18.486,18.486,0,0,0-1.846-1.521,16.916,16.916,0,0,0-1.521-.977,3.284,3.284,0,0,1-.688-.435,2.029,2.029,0,0,1-.036-.579Z" transform="translate(-131 1456.818)" stroke="#000" stroke-width="0"/>
      </g>
    </g>
  </g>
</svg>
