<svg xmlns="http://www.w3.org/2000/svg" width="120" height="120" viewBox="0 0 120 120">
  <g id="_21cases" data-name="21cases" transform="translate(12.259 27.82)">
    <path id="Path_71" data-name="Path 71" d="M0,0H120V120H0Z" transform="translate(-12.259 -27.82)" fill="none"/>
    <g id="Group_136" data-name="Group 136" transform="translate(-179.513 -64.902)">
      <g id="Group_135" data-name="Group 135" transform="translate(179.254 71.998)">
        <g id="Group_130" data-name="Group 130" transform="translate(-5.673 17.561)">
          <path id="Path_97" data-name="Path 97" d="M13.829-24.158,12.5-18.82a19.046,19.046,0,0,0-.662,3.429q0,2.026,1.442,2.455a1.986,1.986,0,0,0,.7.117,4.573,4.573,0,0,0,3.546-1.948,8.845,8.845,0,0,0,1.637-3.157.5.5,0,0,1,.507-.429q.468,0,.468.39a5.9,5.9,0,0,1-1.208,2.806q-2.1,3.2-5.027,3.2a4.077,4.077,0,0,1-3.858-2.221,2.758,2.758,0,0,1-.351-.74,5.348,5.348,0,0,1-2.572,2.611,3.514,3.514,0,0,1-1.52.351,3.685,3.685,0,0,1-3.273-1.364,1.923,1.923,0,0,1-.39-1.208A2.061,2.061,0,0,1,3.19-16.559a1.847,1.847,0,0,1,.9-.234,1.257,1.257,0,0,1,1.4.974,1.983,1.983,0,0,1,.039.39A2.047,2.047,0,0,1,4.2-13.481a1.645,1.645,0,0,1-.507.156,3.628,3.628,0,0,0,1.948.507q2.065,0,3.273-2.767a12.418,12.418,0,0,0,.429-1.286q2.1-7.95,2.1-9.275-.234-2.416-2.1-2.611a4.77,4.77,0,0,0-3.7,2.065v.039a.034.034,0,0,1-.039.039,9.872,9.872,0,0,0-1.052,1.793q-.195.468-.351.935l-.078.234a.467.467,0,0,1-.507.429q-.468,0-.468-.39A5.8,5.8,0,0,1,4.4-26.419q2.1-3.2,5.027-3.2a4.264,4.264,0,0,1,4.209,2.962,5.032,5.032,0,0,1,3.312-2.884,3.966,3.966,0,0,1,.779-.078,3.737,3.737,0,0,1,3.234,1.286,2.154,2.154,0,0,1,.39,1.286A2.093,2.093,0,0,1,19.908-24.9a2.1,2.1,0,0,1-.662.117A1.3,1.3,0,0,1,17.8-25.834a1.281,1.281,0,0,1-.039-.312,2.037,2.037,0,0,1,1.13-1.832,2.543,2.543,0,0,1,.74-.273,3.628,3.628,0,0,0-1.948-.507q-2.65,0-3.741,4.131A3.077,3.077,0,0,0,13.829-24.158Z" transform="translate(-1.943 29.614)"/>
        </g>
        <g id="Group_131" data-name="Group 131" transform="translate(24.757 22.11)">
          <path id="Path_98" data-name="Path 98" d="M21.569-23.46H4.712q-.9,0-.96-.565,0-.565.932-.565H21.6q.9,0,.932.565,0,.565-.96.565m.028,5.478H4.684q-.9,0-.932-.565,0-.565.96-.565H21.569q.9,0,.96.565Q22.529-17.982,21.6-17.982Z" transform="translate(-3.752 24.589)"/>
        </g>
        <g id="Group_132" data-name="Group 132" transform="translate(56.351 0)">
          <path id="Path_99" data-name="Path 99" d="M14.614,45.49a6.312,6.312,0,0,1-1.255-1.779,4.73,4.73,0,0,1-.469-2.041V29.248a5.3,5.3,0,0,0-1.351-3.564,9.036,9.036,0,0,0-3.364-2.42.211.211,0,0,1-.193-.221V22.4a.23.23,0,0,1,.193-.234,9.442,9.442,0,0,0,2.337-1.406,7.018,7.018,0,0,0,1.73-2.054,5.131,5.131,0,0,0,.648-2.523V3.756A4.759,4.759,0,0,1,13.359,1.7,5.934,5.934,0,0,1,14.614-.049a10.458,10.458,0,0,1,2.158-1.579,9.709,9.709,0,0,1,2.42-1.055h.648a.211.211,0,0,1,.152.069.211.211,0,0,1,.069.152V-1.8a.216.216,0,0,1-.165.221A10.771,10.771,0,0,0,17.571-.332a6.454,6.454,0,0,0-1.751,1.82,4.252,4.252,0,0,0-.669,2.323V16.233a5.092,5.092,0,0,1-.476,2.178,6.64,6.64,0,0,1-1.248,1.82,9.361,9.361,0,0,1-1.758,1.42,13.771,13.771,0,0,1-2.089,1.075,11.576,11.576,0,0,1,3.971,2.6,5.343,5.343,0,0,1,1.6,3.867V41.616a4.456,4.456,0,0,0,1.365,3.24,9.579,9.579,0,0,0,3.378,2.165.217.217,0,0,1,.165.221v.648a.237.237,0,0,1-.221.221h-.648a9.623,9.623,0,0,1-2.406-1.041A10.338,10.338,0,0,1,14.614,45.49Z" transform="translate(-7.982 2.683)"/>
        </g>
        <g id="Group_133" data-name="Group 133" transform="translate(87.068 1.848)">
          <path id="Path_100" data-name="Path 100" d="M14.535-27.336a1.636,1.636,0,0,1,1.1-1.5,1.045,1.045,0,0,1,.392-.071.946.946,0,0,1,1.032.961,7.907,7.907,0,0,1-.249,1.21l-1.282,4.984q-.534,2.243-.783,3.2a12.644,12.644,0,0,0-.463,2.634q0,1.638,1.068,1.638,1.353,0,2.278-2.848.178-.605.427-1.566.285-.605.5-.641.427,0,.427.356a11.373,11.373,0,0,1-.641,2.492,9.13,9.13,0,0,1-.427,1.032,2.979,2.979,0,0,1-2.634,1.958A3.017,3.017,0,0,1,12.4-15.2a3.1,3.1,0,0,1-.356-.961q-2.243,2.67-4.628,2.67a4.2,4.2,0,0,1-3.952-2.421,6.685,6.685,0,0,1-.783-3.275A11.038,11.038,0,0,1,5.35-26.3a8.157,8.157,0,0,1,5.411-3.275,3.52,3.52,0,0,1,.5-.036,3.511,3.511,0,0,1,3.275,2.278m-2.314,9.22h0L14-25.093q.107-.534.107-.605a3.722,3.722,0,0,0-.641-1.816A2.418,2.418,0,0,0,11.3-28.831q-1.851,0-3.524,2.421a10.1,10.1,0,0,0-.605,1,23.072,23.072,0,0,0-1.744,5.874,11.7,11.7,0,0,0-.214,1.922q0,2.421,1.353,3.133a1.9,1.9,0,0,0,.926.214q1.994,0,4.023-2.528a3.14,3.14,0,0,0,.676-1.175v-.036A.273.273,0,0,0,12.221-18.115Z" transform="translate(-4.366 27.946)"/>
        </g>
        <g id="Group_134" data-name="Group 134" transform="translate(85.382 34.191)">
          <path id="Path_101" data-name="Path 101" d="M15.9-27.317h0A4.174,4.174,0,0,0,12.714-28.8a5.6,5.6,0,0,0-4.372,2.445,8.674,8.674,0,0,0-.852,1.26,17.547,17.547,0,0,0-1.927,6.373,8.5,8.5,0,0,0-.074,1.037q0,3.038,2.075,3.816a3.193,3.193,0,0,0,1.26.222,9.132,9.132,0,0,0,6-2.223,8.673,8.673,0,0,0,1.408-1.445q.259-.371.482-.371.333,0,.445.482,0,.408-1.26,1.593A10.336,10.336,0,0,1,8.749-12.83a5.438,5.438,0,0,1-5.113-2.816,6.693,6.693,0,0,1-.889-3.446,10.3,10.3,0,0,1,2.89-7,9.565,9.565,0,0,1,6.373-3.483,6.034,6.034,0,0,1,.667-.037q2.853,0,3.964,1.741a2.721,2.721,0,0,1,.408,1.445,2.218,2.218,0,0,1-1.3,2.223,2.076,2.076,0,0,1-.778.148,1.2,1.2,0,0,1-1.334-.963,1.377,1.377,0,0,1-.037-.333A1.937,1.937,0,0,1,14.27-26.8,2.227,2.227,0,0,1,15.9-27.317Z" transform="translate(-2.747 29.614)"/>
        </g>
      </g>
    </g>
  </g>
</svg>
