<svg xmlns="http://www.w3.org/2000/svg" width="120" height="120" viewBox="0 0 120 120">
  <g id="_22ptr2" data-name="22ptr2" transform="translate(12.518 28.64)">
    <path id="Path_71" data-name="Path 71" d="M0,0H120V120H0Z" transform="translate(-12.518 -28.64)" fill="none"/>
    <g id="Group_1062" data-name="Group 1062" transform="translate(-48.169 -51.137)">
      <g id="Group_931" data-name="Group 931" transform="translate(58.651 51.997)">
        <g id="Group_918" data-name="Group 918" transform="translate(0 0)">
          <path id="Path_623" data-name="Path 623" d="M16.317,56.136a8.69,8.69,0,0,1-1.786-2.574,7.164,7.164,0,0,1-.655-2.991v-15a8.586,8.586,0,0,0-1.939-5.446,8.244,8.244,0,0,0-2.207-1.9.218.218,0,0,1-.079-.139v-.6a.127.127,0,0,1,.079-.119A8.256,8.256,0,0,0,11.466,26a8.483,8.483,0,0,0,1.3-1.776,8.8,8.8,0,0,0,.828-2.059A8.565,8.565,0,0,0,13.877,20V5A7.189,7.189,0,0,1,15.4.5a11,11,0,0,1,3.983-3.184h.605a.162.162,0,0,1,.119.05.152.152,0,0,1,.05.109v.6a.19.19,0,0,1-.06.139A8.019,8.019,0,0,0,18.4-.555a8.105,8.105,0,0,0-1.314,1.607,7.687,7.687,0,0,0-.848,1.915,7.352,7.352,0,0,0-.3,2.068v15a7.543,7.543,0,0,1-.665,3.1,9.177,9.177,0,0,1-1.815,2.679,10.609,10.609,0,0,1-2.639,1.979,10.2,10.2,0,0,1,2.024,1.389A10.116,10.116,0,0,1,14.477,31a8.23,8.23,0,0,1,1.071,2.143,7.554,7.554,0,0,1,.382,2.386v15a7.385,7.385,0,0,0,1.126,3.948A8.073,8.073,0,0,0,20.1,57.356a.19.19,0,0,1,.06.139v.6a.152.152,0,0,1-.05.109.162.162,0,0,1-.119.05H19.4a5.016,5.016,0,0,1-1.488-.813A13.843,13.843,0,0,1,16.317,56.136Z" transform="translate(-9.651 2.683)"/>
        </g>
        <g id="Group_919" data-name="Group 919" transform="translate(22.957 12.039)">
          <path id="Path_624" data-name="Path 624" d="M-.58-18.155h0L1.7-27.2a4.685,4.685,0,0,0,.142-1.036q0-.935-.63-.935-.833,0-1.361,1.93-.061.223-.122.488-.223.447-.345.467-.244,0-.244-.2A5.461,5.461,0,0,1-.5-27.846q.142-.366.264-.61A1.835,1.835,0,0,1,.985-29.594a2.009,2.009,0,0,1,.284-.02,1.714,1.714,0,0,1,1.605.894v.02a1.722,1.722,0,0,1,.223.61,3.56,3.56,0,0,1,2.662-1.524,2.44,2.44,0,0,1,2.215,1.3,4.822,4.822,0,0,1,.488,1.95A6.251,6.251,0,0,1,6.917-22.3,4.587,4.587,0,0,1,3.85-20.431a2.009,2.009,0,0,1-.284.02,1.954,1.954,0,0,1-1.869-1.3Q.944-19.029.721-17.769a1.014,1.014,0,0,0-.02.122q0,.223.264.284h.02a4.833,4.833,0,0,0,.731.041q.447,0,.488.223,0,.406-.366.406l-1.991-.061h-.02l-1.666.061H-1.88q-.264,0-.264-.244a.5.5,0,0,1,.467-.386q.752,0,.914-.264l.02-.02a1.34,1.34,0,0,0,.081-.223q.02-.1.081-.325M3-26.973H3L2-22.991a1.708,1.708,0,0,0-.061.325,2.061,2.061,0,0,0,.366,1.056,1.588,1.588,0,0,0,.569.589,1.4,1.4,0,0,0,.67.163,2.5,2.5,0,0,0,1.95-1.3,5.079,5.079,0,0,0,.467-.792,13.055,13.055,0,0,0,.914-3.129A7.225,7.225,0,0,0,7-27.257q0-1.605-.975-1.869a1.336,1.336,0,0,0-.325-.041,2.57,2.57,0,0,0-1.646.772A2.981,2.981,0,0,0,3-26.973Z" transform="translate(2.144 29.614)"/>
        </g>
        <g id="Group_920" data-name="Group 920" transform="translate(34.294 8.3)">
          <path id="Path_625" data-name="Path 625" d="M5.259-37.35l-1.5,5.994a4.177,4.177,0,0,0-.122.975q0,.935.63.935,1.341,0,2.357-1.971l.284-.63q.122-.264.3-.284.244,0,.244.2a3.371,3.371,0,0,1-.528,1.158Q5.747-29,4.223-29a1.713,1.713,0,0,1-1.666-.975,1.971,1.971,0,0,1-.2-.894q0-.386,1.239-5.262l.3-1.219H2.11q-.508,0-.549-.163h-.02v-.081a.342.342,0,0,1,.325-.386H4.06l.792-3.23a.835.835,0,0,1,.813-.731.54.54,0,0,1,.589.549q0,.122-.833,3.413H7.209q.528,0,.569.223a.353.353,0,0,1-.325.406H5.259Z" transform="translate(-1.541 41.942)"/>
        </g>
        <g id="Group_921" data-name="Group 921" transform="translate(41.751 12.039)">
          <path id="Path_626" data-name="Path 626" d="M3.142-21.833h0L4.32-26.526a9.222,9.222,0,0,0,.325-1.707q0-.935-.63-.935-.833,0-1.361,1.93-.061.223-.122.488-.223.447-.345.467-.244,0-.244-.2a5.461,5.461,0,0,1,.366-1.361q.142-.366.264-.61a1.835,1.835,0,0,1,1.219-1.138,2.009,2.009,0,0,1,.284-.02,1.722,1.722,0,0,1,1.646.975,1.909,1.909,0,0,1,.183.488.226.226,0,0,1,.02.1,3.7,3.7,0,0,1,2.6-1.564,1.571,1.571,0,0,1,1.544.792,1.03,1.03,0,0,1,.142.528,1.1,1.1,0,0,1-.67,1.1,1.072,1.072,0,0,1-.447.1.675.675,0,0,1-.752-.549.668.668,0,0,1-.02-.163,1.054,1.054,0,0,1,.691-1l.02-.02a2.572,2.572,0,0,1,.345-.1l-.406-.183q-.264-.041-.447-.061A2.451,2.451,0,0,0,6.9-28.5a4.762,4.762,0,0,0-1.077,1.5q-.041.1-.061.163l-.65,2.641L4.3-20.979a.792.792,0,0,1-.752.569.663.663,0,0,1-.589-.549Q2.959-20.918,3.142-21.833Z" transform="translate(-1.943 29.614)"/>
        </g>
        <g id="Group_922" data-name="Group 922" transform="translate(52.905 5.781)">
          <path id="Path_627" data-name="Path 627" d="M11.347-30.136h0a.18.18,0,0,1-.2.2q-.244,0-1.077-.833a10.841,10.841,0,0,1-2.093-2.987,14.345,14.345,0,0,1-1.341-6.339,14.571,14.571,0,0,1,1.28-6.2A10.35,10.35,0,0,1,10.595-49.9a1.45,1.45,0,0,1,.549-.345.18.18,0,0,1,.2.2q0,.1-.264.345-3.271,3.332-3.271,9.61,0,6.258,3.19,9.508Q11.347-30.238,11.347-30.136Z" transform="translate(-6.633 50.25)"/>
        </g>
        <g id="Group_923" data-name="Group 923" transform="translate(60.605 7.488)">
          <path id="Path_628" data-name="Path 628" d="M10.128-44.094v11.4q0,.61.244.772a4.027,4.027,0,0,0,1.646.2h.65v.63q-.711-.061-3.291-.061t-3.291.061v-.63h.65q1.564,0,1.788-.366l.02-.02a1.466,1.466,0,0,0,.081-.589V-43.22a5.932,5.932,0,0,1-2.662.528v-.63a4.918,4.918,0,0,0,3.7-1.3q.386,0,.447.142h0v.02A1.772,1.772,0,0,1,10.128-44.094Z" transform="translate(-5.963 44.622)"/>
        </g>
        <g id="Group_924" data-name="Group 924" transform="translate(70.114 5.781)">
          <path id="Path_629" data-name="Path 629" d="M8.533-40.091h0a14.571,14.571,0,0,1-1.28,6.2,10.35,10.35,0,0,1-2.682,3.616,1.45,1.45,0,0,1-.549.345.18.18,0,0,1-.2-.2q0-.1.264-.345,3.271-3.332,3.271-9.61,0-6.2-3.048-9.387l-.1-.1q-.386-.366-.386-.467a.18.18,0,0,1,.2-.2q.244,0,1.077.833A10.841,10.841,0,0,1,7.192-46.43,14.345,14.345,0,0,1,8.533-40.091Z" transform="translate(-3.819 50.25)"/>
        </g>
        <g id="Group_925" data-name="Group 925" transform="translate(22.957 41.113)">
          <path id="Path_630" data-name="Path 630" d="M-.58-18.155h0L1.7-27.2a4.685,4.685,0,0,0,.142-1.036q0-.935-.63-.935-.833,0-1.361,1.93-.061.223-.122.488-.223.447-.345.467-.244,0-.244-.2A5.461,5.461,0,0,1-.5-27.846q.142-.366.264-.61A1.835,1.835,0,0,1,.985-29.594a2.009,2.009,0,0,1,.284-.02,1.714,1.714,0,0,1,1.605.894v.02a1.722,1.722,0,0,1,.223.61,3.56,3.56,0,0,1,2.662-1.524,2.44,2.44,0,0,1,2.215,1.3,4.822,4.822,0,0,1,.488,1.95A6.251,6.251,0,0,1,6.917-22.3,4.587,4.587,0,0,1,3.85-20.431a2.009,2.009,0,0,1-.284.02,1.954,1.954,0,0,1-1.869-1.3Q.944-19.029.721-17.769a1.014,1.014,0,0,0-.02.122q0,.223.264.284h.02a4.833,4.833,0,0,0,.731.041q.447,0,.488.223,0,.406-.366.406l-1.991-.061h-.02l-1.666.061H-1.88q-.264,0-.264-.244a.5.5,0,0,1,.467-.386q.752,0,.914-.264l.02-.02a1.34,1.34,0,0,0,.081-.223q.02-.1.081-.325M3-26.973H3L2-22.991a1.708,1.708,0,0,0-.061.325,2.061,2.061,0,0,0,.366,1.056,1.588,1.588,0,0,0,.569.589,1.4,1.4,0,0,0,.67.163,2.5,2.5,0,0,0,1.95-1.3,5.079,5.079,0,0,0,.467-.792,13.055,13.055,0,0,0,.914-3.129A7.225,7.225,0,0,0,7-27.257q0-1.605-.975-1.869a1.336,1.336,0,0,0-.325-.041,2.57,2.57,0,0,0-1.646.772A2.981,2.981,0,0,0,3-26.973Z" transform="translate(2.144 29.614)"/>
        </g>
        <g id="Group_926" data-name="Group 926" transform="translate(34.294 37.374)">
          <path id="Path_631" data-name="Path 631" d="M5.259-37.35l-1.5,5.994a4.177,4.177,0,0,0-.122.975q0,.935.63.935,1.341,0,2.357-1.971l.284-.63q.122-.264.3-.284.244,0,.244.2a3.371,3.371,0,0,1-.528,1.158Q5.747-29,4.223-29a1.713,1.713,0,0,1-1.666-.975,1.971,1.971,0,0,1-.2-.894q0-.386,1.239-5.262l.3-1.219H2.11q-.508,0-.549-.163h-.02v-.081a.342.342,0,0,1,.325-.386H4.06l.792-3.23a.835.835,0,0,1,.813-.731.54.54,0,0,1,.589.549q0,.122-.833,3.413H7.209q.528,0,.569.223a.353.353,0,0,1-.325.406H5.259Z" transform="translate(-1.541 41.942)"/>
        </g>
        <g id="Group_927" data-name="Group 927" transform="translate(41.751 41.113)">
          <path id="Path_632" data-name="Path 632" d="M3.142-21.833h0L4.32-26.526a9.222,9.222,0,0,0,.325-1.707q0-.935-.63-.935-.833,0-1.361,1.93-.061.223-.122.488-.223.447-.345.467-.244,0-.244-.2a5.461,5.461,0,0,1,.366-1.361q.142-.366.264-.61a1.835,1.835,0,0,1,1.219-1.138,2.009,2.009,0,0,1,.284-.02,1.722,1.722,0,0,1,1.646.975,1.909,1.909,0,0,1,.183.488.226.226,0,0,1,.02.1,3.7,3.7,0,0,1,2.6-1.564,1.571,1.571,0,0,1,1.544.792,1.03,1.03,0,0,1,.142.528,1.1,1.1,0,0,1-.67,1.1,1.072,1.072,0,0,1-.447.1.675.675,0,0,1-.752-.549.668.668,0,0,1-.02-.163,1.054,1.054,0,0,1,.691-1l.02-.02a2.572,2.572,0,0,1,.345-.1l-.406-.183q-.264-.041-.447-.061A2.451,2.451,0,0,0,6.9-28.5a4.762,4.762,0,0,0-1.077,1.5q-.041.1-.061.163l-.65,2.641L4.3-20.979a.792.792,0,0,1-.752.569.663.663,0,0,1-.589-.549Q2.959-20.918,3.142-21.833Z" transform="translate(-1.943 29.614)"/>
        </g>
        <g id="Group_928" data-name="Group 928" transform="translate(52.905 34.855)">
          <path id="Path_633" data-name="Path 633" d="M11.347-30.136h0a.18.18,0,0,1-.2.2q-.244,0-1.077-.833a10.841,10.841,0,0,1-2.093-2.987,14.345,14.345,0,0,1-1.341-6.339,14.571,14.571,0,0,1,1.28-6.2A10.35,10.35,0,0,1,10.595-49.9a1.45,1.45,0,0,1,.549-.345.18.18,0,0,1,.2.2q0,.1-.264.345-3.271,3.332-3.271,9.61,0,6.258,3.19,9.508Q11.347-30.238,11.347-30.136Z" transform="translate(-6.633 50.25)"/>
        </g>
        <g id="Group_929" data-name="Group 929" transform="translate(59.813 36.561)">
          <path id="Path_634" data-name="Path 634" d="M11.457-34.626h0l-.569,3.535H3.35a1.119,1.119,0,0,1,.122-.65l.1-.1,3.9-4.348a7.011,7.011,0,0,0,2.133-4.49,3.4,3.4,0,0,0-1.1-2.743l-.02-.02H8.47a2.375,2.375,0,0,0-1.585-.549,2.71,2.71,0,0,0-2.336,1.26,3.8,3.8,0,0,0-.406.813,1.051,1.051,0,0,1,.264-.02.975.975,0,0,1,1.036.731v.02a1.1,1.1,0,0,1,.041.3.981.981,0,0,1-.772,1.036,1.194,1.194,0,0,1-.284.041.963.963,0,0,1-1-.63,1.48,1.48,0,0,1-.081-.508,3.538,3.538,0,0,1,1.2-2.682,3.694,3.694,0,0,1,2.6-1,4.252,4.252,0,0,1,3.474,1.5,3.7,3.7,0,0,1,.813,2.072,3.309,3.309,0,0,1,.02.366,4.354,4.354,0,0,1-1.117,2.824,22.769,22.769,0,0,1-1.829,1.829l-1.239,1.1-.2.183L4.914-32.655H8.572a5.2,5.2,0,0,0,1.93-.163,6.052,6.052,0,0,0,.447-1.808Z" transform="translate(-3.35 44.622)"/>
        </g>
        <g id="Group_930" data-name="Group 930" transform="translate(70.114 34.855)">
          <path id="Path_635" data-name="Path 635" d="M8.533-40.091h0a14.571,14.571,0,0,1-1.28,6.2,10.35,10.35,0,0,1-2.682,3.616,1.45,1.45,0,0,1-.549.345.18.18,0,0,1-.2-.2q0-.1.264-.345,3.271-3.332,3.271-9.61,0-6.2-3.048-9.387l-.1-.1q-.386-.366-.386-.467a.18.18,0,0,1,.2-.2q.244,0,1.077.833A10.841,10.841,0,0,1,7.192-46.43,14.345,14.345,0,0,1,8.533-40.091Z" transform="translate(-3.819 50.25)"/>
        </g>
      </g>
    </g>
  </g>
</svg>
