<svg xmlns="http://www.w3.org/2000/svg" width="120" height="120" viewBox="0 0 120 120">
  <g id="_22ptr2" data-name="22ptr2" transform="translate(12.518 28.64)">
    <path id="Path_71" data-name="Path 71" d="M0,0H120V120H0Z" transform="translate(-12.518 -28.64)" fill="none"/>
    <g id="Group_1062" data-name="Group 1062" transform="translate(-61.169 -61.137)">
      <g id="Group_931" data-name="Group 931" transform="translate(58.651 51.996)">
        <g id="Group_918" data-name="Group 918" transform="translate(0 0)">
          <path id="Path_623" data-name="Path 623" d="M18.618,76.444a11.69,11.69,0,0,1-2.4-3.463,9.637,9.637,0,0,1-.881-4.024V48.779a11.55,11.55,0,0,0-2.608-7.326A11.09,11.09,0,0,0,9.757,38.9a.293.293,0,0,1-.106-.187V37.9a.171.171,0,0,1,.106-.16A11.107,11.107,0,0,0,12.093,35.9a11.412,11.412,0,0,0,1.749-2.389,11.838,11.838,0,0,0,1.114-2.77,11.522,11.522,0,0,0,.381-2.912V7.653A9.671,9.671,0,0,1,17.385,1.6a14.8,14.8,0,0,1,5.358-4.283h.814a.218.218,0,0,1,.16.067.2.2,0,0,1,.067.147v.807a.256.256,0,0,1-.081.187A10.788,10.788,0,0,0,21.421.18a10.9,10.9,0,0,0-1.768,2.162,10.341,10.341,0,0,0-1.141,2.576,9.89,9.89,0,0,0-.4,2.782V27.879a10.147,10.147,0,0,1-.895,4.17,12.346,12.346,0,0,1-2.442,3.6,14.272,14.272,0,0,1-3.55,2.662,13.722,13.722,0,0,1,2.723,1.869,13.609,13.609,0,0,1,2.2,2.446,11.072,11.072,0,0,1,1.441,2.883,10.162,10.162,0,0,1,.514,3.21V68.9a9.935,9.935,0,0,0,1.515,5.311,10.86,10.86,0,0,0,4.095,3.873.256.256,0,0,1,.081.187v.807a.2.2,0,0,1-.067.147.218.218,0,0,1-.16.067h-.8a6.748,6.748,0,0,1-2-1.094A18.622,18.622,0,0,1,18.618,76.444Z" transform="translate(-9.651 2.684)"/>
        </g>
        <g id="Group_919" data-name="Group 919" transform="translate(30.883 16.193)">
          <path id="Path_624" data-name="Path 624" d="M-.04-14.2h0L3.027-26.366a6.3,6.3,0,0,0,.191-1.394q0-1.258-.848-1.258-1.121,0-1.831,2.6-.082.3-.164.656-.3.6-.464.628-.328,0-.328-.269a7.346,7.346,0,0,1,.484-1.83q.191-.492.355-.821a2.469,2.469,0,0,1,1.643-1.531,2.7,2.7,0,0,1,.382-.027,2.306,2.306,0,0,1,2.159,1.2v.027a2.317,2.317,0,0,1,.3.821,4.789,4.789,0,0,1,3.581-2.05,3.282,3.282,0,0,1,2.98,1.749,6.487,6.487,0,0,1,.656,2.623,8.409,8.409,0,0,1-2.078,5.467A6.171,6.171,0,0,1,5.919-17.26a2.7,2.7,0,0,1-.382.027,2.629,2.629,0,0,1-2.514-1.749q-1.013,3.608-1.313,5.3a1.364,1.364,0,0,0-.027.164q0,.3.355.382h.027a6.5,6.5,0,0,0,.983.055q.6,0,.656.3,0,.546-.492.546L.534-12.313H.508l-2.241.082h-.055q-.355,0-.355-.328a.673.673,0,0,1,.628-.519q1.012,0,1.23-.355l.027-.027a1.8,1.8,0,0,0,.109-.3q.027-.135.109-.437M4.776-26.06h0L3.431-20.7a2.3,2.3,0,0,0-.082.437,2.773,2.773,0,0,0,.492,1.421,2.136,2.136,0,0,0,.765.792,1.883,1.883,0,0,0,.9.219,3.363,3.363,0,0,0,2.623-1.749,6.833,6.833,0,0,0,.628-1.065,17.562,17.562,0,0,0,1.23-4.209,9.72,9.72,0,0,0,.168-1.585q0-2.159-1.312-2.514a1.8,1.8,0,0,0-.437-.055,3.457,3.457,0,0,0-2.214,1.039A4.01,4.01,0,0,0,4.776-26.06Z" transform="translate(2.144 29.617)"/>
        </g>
        <g id="Group_920" data-name="Group 920" transform="translate(46.13 11.165)">
          <path id="Path_625" data-name="Path 625" d="M6.544-35.764,4.526-27.7a5.619,5.619,0,0,0-.164,1.312q0,1.258.848,1.258,1.8,0,3.171-2.652l.382-.848q.164-.355.4-.382.328,0,.328.269a4.535,4.535,0,0,1-.71,1.558Q7.2-24.531,5.15-24.531a2.3,2.3,0,0,1-2.241-1.312,2.652,2.652,0,0,1-.269-1.2q0-.519,1.667-7.079l.4-1.64h-2.4q-.683,0-.739-.219H1.542v-.109a.46.46,0,0,1,.1-.356.46.46,0,0,1,.333-.163H4.931L6-40.957A1.123,1.123,0,0,1,7.09-41.94a.726.726,0,0,1,.561.192.726.726,0,0,1,.231.547q0,.164-1.121,4.591H9.167q.71,0,.765.3a.475.475,0,0,1-.1.369.475.475,0,0,1-.339.177H6.544Z" transform="translate(-1.538 41.943)"/>
        </g>
        <g id="Group_921" data-name="Group 921" transform="translate(56.166 16.185)">
          <path id="Path_626" data-name="Path 626" d="M3.556-19.144h0l1.585-6.313a12.406,12.406,0,0,0,.437-2.3q0-1.258-.848-1.258-1.121,0-1.831,2.6-.082.3-.164.656-.3.6-.464.628-.328,0-.328-.269a7.346,7.346,0,0,1,.492-1.831q.191-.492.355-.821a2.469,2.469,0,0,1,1.64-1.531,2.7,2.7,0,0,1,.382-.027A2.317,2.317,0,0,1,7.027-28.3a2.568,2.568,0,0,1,.246.656.3.3,0,0,1,.027.135,4.977,4.977,0,0,1,3.5-2.1,2.113,2.113,0,0,1,2.077,1.065,1.386,1.386,0,0,1,.191.71,1.48,1.48,0,0,1-.9,1.48,1.442,1.442,0,0,1-.6.135.908.908,0,0,1-1.012-.739.9.9,0,0,1-.027-.219,1.418,1.418,0,0,1,.93-1.345l.027-.027a3.46,3.46,0,0,1,.464-.135L11.4-28.93q-.355-.055-.6-.082a3.3,3.3,0,0,0-2.186.9,6.406,6.406,0,0,0-1.449,2.018q-.055.135-.082.219l-.874,3.553L5.114-17.995a1.065,1.065,0,0,1-1.012.765.892.892,0,0,1-.792-.739Q3.31-17.913,3.556-19.144Z" transform="translate(-1.943 29.623)"/>
        </g>
        <g id="Group_922" data-name="Group 922" transform="translate(71.171 7.783)">
          <path id="Path_627" data-name="Path 627" d="M12.974-23.193h0a.242.242,0,0,1-.069.2.242.242,0,0,1-.2.069q-.328,0-1.449-1.121a14.584,14.584,0,0,1-2.816-4.018,19.3,19.3,0,0,1-1.8-8.528,19.6,19.6,0,0,1,1.722-8.341,13.923,13.923,0,0,1,3.6-4.85,1.951,1.951,0,0,1,.739-.464.242.242,0,0,1,.2.069.242.242,0,0,1,.069.2q0,.135-.355.464-4.4,4.482-4.4,12.928,0,8.419,4.291,12.791Q12.974-23.33,12.974-23.193Z" transform="translate(-6.633 50.246)"/>
        </g>
        <g id="Group_923" data-name="Group 923" transform="translate(81.529 10.075)">
          <path id="Path_628" data-name="Path 628" d="M11.566-43.912v15.336q0,.821.328,1.039a5.417,5.417,0,0,0,2.214.269h.874v.848q-.956-.082-4.427-.082t-4.427.082v-.848H7q2.1,0,2.405-.492l.027-.027a1.972,1.972,0,0,0,.109-.792V-42.736a7.98,7.98,0,0,1-3.581.71v-.848a6.616,6.616,0,0,0,4.977-1.749q.519,0,.6.191h0v.027a2.384,2.384,0,0,1,.024.492Z" transform="translate(-5.963 44.622)"/>
        </g>
        <g id="Group_924" data-name="Group 924" transform="translate(94.324 7.791)">
          <path id="Path_629" data-name="Path 629" d="M10.16-36.587h0a19.6,19.6,0,0,1-1.722,8.341A13.923,13.923,0,0,1,4.83-23.382a1.951,1.951,0,0,1-.739.464.242.242,0,0,1-.2-.069.242.242,0,0,1-.069-.2q0-.135.355-.464,4.4-4.482,4.4-12.928,0-8.341-4.1-12.628l-.135-.135q-.519-.492-.519-.628a.242.242,0,0,1,.069-.2.242.242,0,0,1,.2-.069q.328,0,1.449,1.121a14.584,14.584,0,0,1,2.814,4,19.3,19.3,0,0,1,1.8,8.528Z" transform="translate(-3.821 50.24)"/>
        </g>
        <g id="Group_925" data-name="Group 925" transform="translate(30.883 55.305)">
          <path id="Path_630" data-name="Path 630" d="M-.04-14.2h0L3.027-26.366a6.3,6.3,0,0,0,.191-1.394q0-1.258-.848-1.258-1.121,0-1.831,2.6-.082.3-.164.656-.3.6-.464.628-.328,0-.328-.269a7.346,7.346,0,0,1,.484-1.83q.191-.492.355-.821a2.469,2.469,0,0,1,1.643-1.531,2.7,2.7,0,0,1,.382-.027,2.306,2.306,0,0,1,2.159,1.2v.027a2.317,2.317,0,0,1,.3.821,4.789,4.789,0,0,1,3.581-2.05,3.282,3.282,0,0,1,2.98,1.749,6.487,6.487,0,0,1,.656,2.623,8.409,8.409,0,0,1-2.078,5.467A6.171,6.171,0,0,1,5.919-17.26a2.7,2.7,0,0,1-.382.027,2.629,2.629,0,0,1-2.514-1.749q-1.013,3.608-1.313,5.3a1.364,1.364,0,0,0-.027.164q0,.3.355.382h.027a6.5,6.5,0,0,0,.983.055q.6,0,.656.3,0,.546-.492.546L.534-12.313H.508l-2.241.082h-.055q-.355,0-.355-.328a.673.673,0,0,1,.628-.519q1.012,0,1.23-.355l.027-.027a1.8,1.8,0,0,0,.109-.3q.027-.135.109-.437M4.776-26.06h0L3.431-20.7a2.3,2.3,0,0,0-.082.437,2.773,2.773,0,0,0,.492,1.421,2.136,2.136,0,0,0,.765.792,1.883,1.883,0,0,0,.9.219,3.363,3.363,0,0,0,2.623-1.749,6.833,6.833,0,0,0,.628-1.065,17.562,17.562,0,0,0,1.23-4.209,9.72,9.72,0,0,0,.168-1.585q0-2.159-1.312-2.514a1.8,1.8,0,0,0-.437-.055,3.457,3.457,0,0,0-2.214,1.039A4.01,4.01,0,0,0,4.776-26.06Z" transform="translate(2.144 29.617)"/>
        </g>
        <g id="Group_926" data-name="Group 926" transform="translate(46.13 50.277)">
          <path id="Path_631" data-name="Path 631" d="M6.544-35.764,4.526-27.7a5.619,5.619,0,0,0-.164,1.312q0,1.258.848,1.258,1.8,0,3.171-2.652l.382-.848q.164-.355.4-.382.328,0,.328.269a4.535,4.535,0,0,1-.71,1.558Q7.2-24.531,5.15-24.531a2.3,2.3,0,0,1-2.241-1.312,2.652,2.652,0,0,1-.269-1.2q0-.519,1.667-7.079l.4-1.64h-2.4q-.683,0-.739-.219H1.542v-.109a.46.46,0,0,1,.1-.356.46.46,0,0,1,.333-.163H4.931L6-40.957A1.123,1.123,0,0,1,7.09-41.94a.726.726,0,0,1,.561.192.726.726,0,0,1,.231.547q0,.164-1.121,4.591H9.167q.71,0,.765.3a.475.475,0,0,1-.1.369.475.475,0,0,1-.339.177H6.544Z" transform="translate(-1.538 41.943)"/>
        </g>
        <g id="Group_927" data-name="Group 927" transform="translate(56.166 55.297)">
          <path id="Path_632" data-name="Path 632" d="M3.556-19.144h0l1.585-6.313a12.406,12.406,0,0,0,.437-2.3q0-1.258-.848-1.258-1.121,0-1.831,2.6-.082.3-.164.656-.3.6-.464.628-.328,0-.328-.269a7.346,7.346,0,0,1,.492-1.831q.191-.492.355-.821a2.469,2.469,0,0,1,1.64-1.531,2.7,2.7,0,0,1,.382-.027A2.317,2.317,0,0,1,7.027-28.3a2.568,2.568,0,0,1,.246.656.3.3,0,0,1,.027.135,4.977,4.977,0,0,1,3.5-2.1,2.113,2.113,0,0,1,2.077,1.065,1.386,1.386,0,0,1,.191.71,1.48,1.48,0,0,1-.9,1.48,1.442,1.442,0,0,1-.6.135.908.908,0,0,1-1.012-.739.9.9,0,0,1-.027-.219,1.418,1.418,0,0,1,.93-1.345l.027-.027a3.46,3.46,0,0,1,.464-.135L11.4-28.93q-.355-.055-.6-.082a3.3,3.3,0,0,0-2.186.9,6.406,6.406,0,0,0-1.449,2.018q-.055.135-.082.219l-.874,3.553L5.114-17.995a1.065,1.065,0,0,1-1.012.765.892.892,0,0,1-.792-.739Q3.31-17.913,3.556-19.144Z" transform="translate(-1.943 29.623)"/>
        </g>
        <g id="Group_928" data-name="Group 928" transform="translate(71.171 46.895)">
          <path id="Path_633" data-name="Path 633" d="M12.974-23.193h0a.242.242,0,0,1-.069.2.242.242,0,0,1-.2.069q-.328,0-1.449-1.121a14.584,14.584,0,0,1-2.816-4.018,19.3,19.3,0,0,1-1.8-8.528,19.6,19.6,0,0,1,1.722-8.341,13.923,13.923,0,0,1,3.6-4.85,1.951,1.951,0,0,1,.739-.464.242.242,0,0,1,.2.069.242.242,0,0,1,.069.2q0,.135-.355.464-4.4,4.482-4.4,12.928,0,8.419,4.291,12.791Q12.974-23.33,12.974-23.193Z" transform="translate(-6.633 50.246)"/>
        </g>
        <g id="Group_929" data-name="Group 929" transform="translate(80.454 49.166)">
          <path id="Path_634" data-name="Path 634" d="M14.259-31.17h0l-.765,4.755H3.353a1.505,1.505,0,0,1,.164-.874l.135-.135L8.9-33.273a9.432,9.432,0,0,0,2.869-6.04A4.574,4.574,0,0,0,10.287-43l-.027-.027h-.02a3.2,3.2,0,0,0-2.132-.739,3.646,3.646,0,0,0-3.143,1.7,5.112,5.112,0,0,0-.546,1.094,1.414,1.414,0,0,1,.355-.027,1.312,1.312,0,0,1,1.394.983V-40a1.48,1.48,0,0,1,.055.4A1.32,1.32,0,0,1,5.185-38.2a1.607,1.607,0,0,1-.382.055,1.3,1.3,0,0,1-1.345-.848,1.991,1.991,0,0,1-.109-.683,4.76,4.76,0,0,1,1.614-3.608,4.969,4.969,0,0,1,3.5-1.345,5.72,5.72,0,0,1,4.673,2.018,4.977,4.977,0,0,1,1.094,2.787,4.451,4.451,0,0,1,.027.492,5.857,5.857,0,0,1-1.5,3.8,30.631,30.631,0,0,1-2.46,2.46l-1.667,1.48-.269.246-2.9,2.826h4.921a7,7,0,0,0,2.6-.219,8.141,8.141,0,0,0,.6-2.432Z" transform="translate(-3.343 44.636)"/>
        </g>
        <g id="Group_930" data-name="Group 930" transform="translate(94.324 46.903)">
          <path id="Path_635" data-name="Path 635" d="M10.16-36.587h0a19.6,19.6,0,0,1-1.722,8.341A13.923,13.923,0,0,1,4.83-23.382a1.951,1.951,0,0,1-.739.464.242.242,0,0,1-.2-.069.242.242,0,0,1-.069-.2q0-.135.355-.464,4.4-4.482,4.4-12.928,0-8.341-4.1-12.628l-.135-.135q-.519-.492-.519-.628a.242.242,0,0,1,.069-.2.242.242,0,0,1,.2-.069q.328,0,1.449,1.121a14.584,14.584,0,0,1,2.814,4,19.3,19.3,0,0,1,1.8,8.528Z" transform="translate(-3.821 50.24)"/>
        </g>
      </g>
    </g>
  </g>
</svg>
