<svg xmlns="http://www.w3.org/2000/svg" width="120" height="120" viewBox="0 0 120 120">
  <g id="_23ptr3" data-name="23ptr3" transform="translate(12.518 28.64)">
    <path id="Path_71" data-name="Path 71" d="M0,0H120V120H0Z" transform="translate(-12.518 -28.64)" fill="none"/>
    <g id="Group_1063" data-name="Group 1063" transform="translate(-57.903 -71.933)">
      <g id="Group_956" data-name="Group 956" transform="translate(60.381 52.289)">
        <g id="Group_933" data-name="Group 933" transform="translate(5.202 0)">
          <path id="Path_637" data-name="Path 637" d="M25.714,21.932V11.076a11.146,11.146,0,0,1,.9-4.384,12.752,12.752,0,0,1,2.5-3.815A13.667,13.667,0,0,1,32.761.108a.176.176,0,0,1,.13-.047h.747a.181.181,0,0,1,.13.06.209.209,0,0,1,.066.159v.759a.205.205,0,0,1-.072.142,10.172,10.172,0,0,0-2.186,1.892,11.425,11.425,0,0,0-1.608,2.385,12.348,12.348,0,0,0-.992,2.753,12.809,12.809,0,0,0-.344,2.915V21.934a.234.234,0,0,1-.066.148.176.176,0,0,1-.121.078H25.94a.243.243,0,0,1-.226-.226Z" transform="translate(-25.714 -0.061)"/>
        </g>
        <g id="Group_934" data-name="Group 934" transform="translate(5.2 21.611)">
          <path id="Path_638" data-name="Path 638" d="M25.714,6.891V-.44a.215.215,0,0,1,.06-.148.213.213,0,0,1,.166-.066h2.5a.175.175,0,0,1,.13.066.215.215,0,0,1,.06.148V6.891a.234.234,0,0,1-.066.148.176.176,0,0,1-.121.078H25.94a.2.2,0,0,1-.226-.226Z" transform="translate(-25.712 0.654)"/>
        </g>
        <g id="Group_935" data-name="Group 935" transform="translate(0 28.9)">
          <path id="Path_639" data-name="Path 639" d="M16.583,43.337V32.778a15.653,15.653,0,0,0-.321-3.12,14.08,14.08,0,0,0-.95-2.978,11.991,11.991,0,0,0-1.6-2.6,10.808,10.808,0,0,0-2.236-2.094.152.152,0,0,1-.095-.142v-.759a.17.17,0,0,1,.095-.166,11.112,11.112,0,0,0,2.248-2.124,12,12,0,0,0,1.6-2.6,14.032,14.032,0,0,0,.942-2.949,15.451,15.451,0,0,0,.321-3.091V-.44a.215.215,0,0,1,.058-.148.213.213,0,0,1,.166-.066h2.5a.175.175,0,0,1,.13.066.215.215,0,0,1,.06.148V10.2a11.91,11.91,0,0,1-.486,3.375,13.359,13.359,0,0,1-1.37,3.126,13.173,13.173,0,0,1-2.124,2.672A14.1,14.1,0,0,1,12.8,21.438a13.168,13.168,0,0,1,2.7,2.068,13.681,13.681,0,0,1,2.147,2.7,13.274,13.274,0,0,1,1.37,3.114,11.931,11.931,0,0,1,.486,3.393V43.336a.233.233,0,0,1-.066.148.176.176,0,0,1-.121.078H16.807a.2.2,0,0,1-.225-.225Z" transform="translate(-11.381 0.654)"/>
        </g>
        <g id="Group_936" data-name="Group 936" transform="translate(5.2 72.636)">
          <path id="Path_640" data-name="Path 640" d="M25.714,6.891V-.44a.215.215,0,0,1,.06-.148.213.213,0,0,1,.166-.066h2.5a.175.175,0,0,1,.13.066.215.215,0,0,1,.06.148V6.891a.234.234,0,0,1-.066.148.176.176,0,0,1-.121.078H25.94a.2.2,0,0,1-.226-.226Z" transform="translate(-25.712 0.654)"/>
        </g>
        <g id="Group_937" data-name="Group 937" transform="translate(5.204 79.925)">
          <path id="Path_641" data-name="Path 641" d="M32.761,21.377A13.74,13.74,0,0,1,27.7,16.816a12.266,12.266,0,0,1-1.457-3.056,10.949,10.949,0,0,1-.522-3.346V-.44a.215.215,0,0,1,.057-.148.213.213,0,0,1,.166-.066h2.5a.175.175,0,0,1,.13.066.215.215,0,0,1,.06.148V10.368a12.6,12.6,0,0,0,1.336,5.676,10.533,10.533,0,0,0,3.79,4.265.227.227,0,0,1,.072.166v.759a.2.2,0,0,1-.189.189h-.747A.176.176,0,0,1,32.761,21.377Z" transform="translate(-25.716 0.654)"/>
        </g>
        <g id="Group_938" data-name="Group 938" transform="translate(28.852 11.573)">
          <path id="Path_642" data-name="Path 642" d="M-.27-15.91h0L2.452-26.719a5.6,5.6,0,0,0,.17-1.239q0-1.117-.753-1.117-1,0-1.627,2.307Q.169-26.5.1-26.185q-.267.534-.413.559-.291,0-.291-.243A6.53,6.53,0,0,1-.171-27.5q.17-.437.316-.729A2.194,2.194,0,0,1,1.6-29.585a2.4,2.4,0,0,1,.34-.024,2.049,2.049,0,0,1,1.92,1.069v.024a2.065,2.065,0,0,1,.267.729,4.258,4.258,0,0,1,3.183-1.822,2.915,2.915,0,0,1,2.649,1.554,5.766,5.766,0,0,1,.583,2.333A7.476,7.476,0,0,1,8.7-20.864a5.486,5.486,0,0,1-3.669,2.236,2.4,2.4,0,0,1-.34.024,2.337,2.337,0,0,1-2.236-1.554q-.9,3.2-1.171,4.71a1.215,1.215,0,0,0-.024.146q0,.267.316.34H1.6a5.78,5.78,0,0,0,.874.049q.534,0,.583.267,0,.486-.437.486L.236-14.235H.216l-1.993.073h-.049q-.316,0-.316-.291a.6.6,0,0,1,.559-.461q.9,0,1.093-.316l.024-.024a1.6,1.6,0,0,0,.1-.267q.024-.121.1-.389M4.005-26.455h0l-1.19,4.762a2.043,2.043,0,0,0-.073.389,2.464,2.464,0,0,0,.437,1.263,1.9,1.9,0,0,0,.68.7,1.677,1.677,0,0,0,.8.194A2.986,2.986,0,0,0,6.994-20.7a6.072,6.072,0,0,0,.559-.947,15.613,15.613,0,0,0,1.093-3.742A8.64,8.64,0,0,0,8.791-26.8q0-1.92-1.166-2.236a1.6,1.6,0,0,0-.389-.049,3.074,3.074,0,0,0-1.969.923A3.566,3.566,0,0,0,4-26.455Z" transform="translate(2.141 29.613)"/>
        </g>
        <g id="Group_939" data-name="Group 939" transform="translate(42.4 7.096)">
          <path id="Path_643" data-name="Path 643" d="M5.985-36.45l-1.8,7.165a5,5,0,0,0-.146,1.166Q4.041-27,4.794-27q1.6,0,2.819-2.357l.34-.753q.146-.316.364-.34.291,0,.291.243a4.031,4.031,0,0,1-.632,1.384q-1.406,2.357-3.228,2.357a2.049,2.049,0,0,1-1.993-1.166A2.357,2.357,0,0,1,2.513-28.7q0-.461,1.482-6.293l.364-1.457H2.221q-.607,0-.656-.194H1.541v-.1a.408.408,0,0,1,.092-.317.408.408,0,0,1,.3-.145H4.555L5.5-41.068a1,1,0,0,1,.972-.874.646.646,0,0,1,.5.171.646.646,0,0,1,.206.485q0,.146-1,4.082H8.321q.632,0,.68.267a.423.423,0,0,1-.088.328.423.423,0,0,1-.3.158H5.985Z" transform="translate(-1.537 41.945)"/>
        </g>
        <g id="Group_940" data-name="Group 940" transform="translate(51.323 11.559)">
          <path id="Path_644" data-name="Path 644" d="M3.376-20.305h0l1.409-5.613a11.028,11.028,0,0,0,.389-2.041q0-1.117-.753-1.117-1,0-1.627,2.307-.073.267-.146.583-.267.534-.413.559-.291,0-.291-.243A6.53,6.53,0,0,1,2.38-27.5q.17-.437.316-.729a2.194,2.194,0,0,1,1.457-1.36,2.4,2.4,0,0,1,.34-.024,2.065,2.065,0,0,1,1.969,1.166,2.283,2.283,0,0,1,.219.583.271.271,0,0,1,.024.121,4.43,4.43,0,0,1,3.11-1.871,1.879,1.879,0,0,1,1.847.947,1.233,1.233,0,0,1,.17.632,1.319,1.319,0,0,1-.8,1.312,1.283,1.283,0,0,1-.534.121.808.808,0,0,1-.9-.656.8.8,0,0,1-.024-.194,1.261,1.261,0,0,1,.826-1.19l.024-.024a3.075,3.075,0,0,1,.413-.121l-.486-.219q-.316-.049-.534-.073a2.93,2.93,0,0,0-1.943.8,5.7,5.7,0,0,0-1.287,1.8q-.049.121-.073.194l-.777,3.158-.972,3.839a.947.947,0,0,1-.9.68.793.793,0,0,1-.7-.656Q3.157-19.212,3.376-20.305Z" transform="translate(-1.943 29.625)"/>
        </g>
        <g id="Group_941" data-name="Group 941" transform="translate(64.659 4.094)">
          <path id="Path_645" data-name="Path 645" d="M12.271-26.2h0a.215.215,0,0,1-.061.182.215.215,0,0,1-.182.061q-.291,0-1.287-1a12.964,12.964,0,0,1-2.5-3.567,17.155,17.155,0,0,1-1.6-7.581,17.425,17.425,0,0,1,1.53-7.408,12.378,12.378,0,0,1,3.207-4.325,1.734,1.734,0,0,1,.656-.413.215.215,0,0,1,.182.061A.215.215,0,0,1,12.27-50q0,.121-.316.413Q8.042-45.6,8.042-38.095q0,7.483,3.815,11.371Q12.271-26.318,12.271-26.2Z" transform="translate(-6.63 50.245)"/>
        </g>
        <g id="Group_942" data-name="Group 942" transform="translate(73.87 6.128)">
          <path id="Path_646" data-name="Path 646" d="M10.943-43.988v13.631q0,.729.291.923a4.815,4.815,0,0,0,1.969.243h.777v.753q-.85-.073-3.936-.073t-3.936.073v-.753h.777q1.871,0,2.139-.437l.024-.024a1.752,1.752,0,0,0,.1-.7V-42.946a7.1,7.1,0,0,1-3.183.632v-.753a5.882,5.882,0,0,0,4.417-1.554q.461,0,.534.17h0v.024a2.119,2.119,0,0,1,.029.44Z" transform="translate(-5.963 44.622)"/>
        </g>
        <g id="Group_943" data-name="Group 943" transform="translate(85.241 4.086)">
          <path id="Path_647" data-name="Path 647" d="M9.457-38.1h0a17.425,17.425,0,0,1-1.53,7.408,12.378,12.378,0,0,1-3.207,4.325,1.734,1.734,0,0,1-.656.413.215.215,0,0,1-.182-.061A.215.215,0,0,1,3.82-26.2q0-.121.316-.413Q8.047-30.593,8.047-38.1q0-7.408-3.643-11.225l-.121-.121q-.461-.437-.461-.559a.215.215,0,0,1,.061-.182.215.215,0,0,1,.182-.061q.291,0,1.287,1a12.964,12.964,0,0,1,2.5,3.572A17.155,17.155,0,0,1,9.457-38.1Z" transform="translate(-3.818 50.252)"/>
        </g>
        <g id="Group_944" data-name="Group 944" transform="translate(28.852 46.341)">
          <path id="Path_648" data-name="Path 648" d="M-.27-15.91h0L2.452-26.719a5.6,5.6,0,0,0,.17-1.239q0-1.117-.753-1.117-1,0-1.627,2.307Q.169-26.5.1-26.185q-.267.534-.413.559-.291,0-.291-.243A6.53,6.53,0,0,1-.171-27.5q.17-.437.316-.729A2.194,2.194,0,0,1,1.6-29.585a2.4,2.4,0,0,1,.34-.024,2.049,2.049,0,0,1,1.92,1.069v.024a2.065,2.065,0,0,1,.267.729,4.258,4.258,0,0,1,3.183-1.822,2.915,2.915,0,0,1,2.649,1.554,5.766,5.766,0,0,1,.583,2.333A7.476,7.476,0,0,1,8.7-20.864a5.486,5.486,0,0,1-3.669,2.236,2.4,2.4,0,0,1-.34.024,2.337,2.337,0,0,1-2.236-1.554q-.9,3.2-1.171,4.71a1.215,1.215,0,0,0-.024.146q0,.267.316.34H1.6a5.78,5.78,0,0,0,.874.049q.534,0,.583.267,0,.486-.437.486L.236-14.235H.216l-1.993.073h-.049q-.316,0-.316-.291a.6.6,0,0,1,.559-.461q.9,0,1.093-.316l.024-.024a1.6,1.6,0,0,0,.1-.267q.024-.121.1-.389M4.005-26.455h0l-1.19,4.762a2.043,2.043,0,0,0-.073.389,2.464,2.464,0,0,0,.437,1.263,1.9,1.9,0,0,0,.68.7,1.677,1.677,0,0,0,.8.194A2.986,2.986,0,0,0,6.994-20.7a6.072,6.072,0,0,0,.559-.947,15.613,15.613,0,0,0,1.093-3.742A8.64,8.64,0,0,0,8.791-26.8q0-1.92-1.166-2.236a1.6,1.6,0,0,0-.389-.049,3.074,3.074,0,0,0-1.969.923A3.566,3.566,0,0,0,4-26.455Z" transform="translate(2.141 29.613)"/>
        </g>
        <g id="Group_945" data-name="Group 945" transform="translate(42.4 41.866)">
          <path id="Path_649" data-name="Path 649" d="M5.985-36.45l-1.8,7.165a5,5,0,0,0-.146,1.166Q4.041-27,4.794-27q1.6,0,2.819-2.357l.34-.753q.146-.316.364-.34.291,0,.291.243a4.031,4.031,0,0,1-.632,1.384q-1.406,2.357-3.228,2.357a2.049,2.049,0,0,1-1.993-1.166A2.357,2.357,0,0,1,2.513-28.7q0-.461,1.482-6.293l.364-1.457H2.221q-.607,0-.656-.194H1.541v-.1a.408.408,0,0,1,.092-.317.408.408,0,0,1,.3-.145H4.555L5.5-41.068a1,1,0,0,1,.972-.874.646.646,0,0,1,.5.171.646.646,0,0,1,.206.485q0,.146-1,4.082H8.321q.632,0,.68.267a.423.423,0,0,1-.088.328.423.423,0,0,1-.3.158H5.985Z" transform="translate(-1.537 41.945)"/>
        </g>
        <g id="Group_946" data-name="Group 946" transform="translate(51.323 46.327)">
          <path id="Path_650" data-name="Path 650" d="M3.376-20.305h0l1.409-5.613a11.028,11.028,0,0,0,.389-2.041q0-1.117-.753-1.117-1,0-1.627,2.307-.073.267-.146.583-.267.534-.413.559-.291,0-.291-.243A6.53,6.53,0,0,1,2.38-27.5q.17-.437.316-.729a2.194,2.194,0,0,1,1.457-1.36,2.4,2.4,0,0,1,.34-.024,2.065,2.065,0,0,1,1.969,1.166,2.283,2.283,0,0,1,.219.583.271.271,0,0,1,.024.121,4.43,4.43,0,0,1,3.11-1.871,1.879,1.879,0,0,1,1.847.947,1.233,1.233,0,0,1,.17.632,1.319,1.319,0,0,1-.8,1.312,1.283,1.283,0,0,1-.534.121.808.808,0,0,1-.9-.656.8.8,0,0,1-.024-.194,1.261,1.261,0,0,1,.826-1.19l.024-.024a3.075,3.075,0,0,1,.413-.121l-.486-.219q-.316-.049-.534-.073a2.93,2.93,0,0,0-1.943.8,5.7,5.7,0,0,0-1.287,1.8q-.049.121-.073.194l-.777,3.158-.972,3.839a.947.947,0,0,1-.9.68.793.793,0,0,1-.7-.656Q3.157-19.212,3.376-20.305Z" transform="translate(-1.943 29.625)"/>
        </g>
        <g id="Group_947" data-name="Group 947" transform="translate(64.659 38.863)">
          <path id="Path_651" data-name="Path 651" d="M12.271-26.2h0a.215.215,0,0,1-.061.182.215.215,0,0,1-.182.061q-.291,0-1.287-1a12.964,12.964,0,0,1-2.5-3.567,17.155,17.155,0,0,1-1.6-7.581,17.425,17.425,0,0,1,1.53-7.408,12.378,12.378,0,0,1,3.207-4.325,1.734,1.734,0,0,1,.656-.413.215.215,0,0,1,.182.061A.215.215,0,0,1,12.27-50q0,.121-.316.413Q8.042-45.6,8.042-38.095q0,7.483,3.815,11.371Q12.271-26.318,12.271-26.2Z" transform="translate(-6.63 50.245)"/>
        </g>
        <g id="Group_948" data-name="Group 948" transform="translate(72.914 40.892)">
          <path id="Path_652" data-name="Path 652" d="M13.046-32.667h0l-.68,4.227H3.352a1.336,1.336,0,0,1,.146-.777l.121-.121,4.665-5.2a8.38,8.38,0,0,0,2.55-5.37,4.07,4.07,0,0,0-1.312-3.279L9.5-43.211H9.474a2.839,2.839,0,0,0-1.895-.655A3.241,3.241,0,0,0,4.786-42.36a4.542,4.542,0,0,0-.486.972,1.257,1.257,0,0,1,.316-.024,1.166,1.166,0,0,1,1.239.874v.024a1.321,1.321,0,0,1,.049.364,1.173,1.173,0,0,1-.923,1.239,1.428,1.428,0,0,1-.34.049,1.151,1.151,0,0,1-1.19-.753,1.771,1.771,0,0,1-.1-.607A4.231,4.231,0,0,1,4.786-43.43,4.418,4.418,0,0,1,7.9-44.62a5.085,5.085,0,0,1,4.155,1.8,4.419,4.419,0,0,1,.972,2.479,3.957,3.957,0,0,1,.024.437,5.206,5.206,0,0,1-1.336,3.377,27.229,27.229,0,0,1-2.186,2.186L8.043-33.03l-.243.219-2.577,2.5H9.6A6.223,6.223,0,0,0,11.9-30.5a7.237,7.237,0,0,0,.534-2.163Z" transform="translate(-3.343 44.627)"/>
        </g>
        <g id="Group_949" data-name="Group 949" transform="translate(85.241 38.854)">
          <path id="Path_653" data-name="Path 653" d="M9.457-38.1h0a17.425,17.425,0,0,1-1.53,7.408,12.378,12.378,0,0,1-3.207,4.325,1.734,1.734,0,0,1-.656.413.215.215,0,0,1-.182-.061A.215.215,0,0,1,3.82-26.2q0-.121.316-.413Q8.047-30.593,8.047-38.1q0-7.408-3.643-11.225l-.121-.121q-.461-.437-.461-.559a.215.215,0,0,1,.061-.182.215.215,0,0,1,.182-.061q.291,0,1.287,1a12.964,12.964,0,0,1,2.5,3.572A17.155,17.155,0,0,1,9.457-38.1Z" transform="translate(-3.818 50.252)"/>
        </g>
        <g id="Group_950" data-name="Group 950" transform="translate(28.852 81.111)">
          <path id="Path_654" data-name="Path 654" d="M-.27-15.91h0L2.452-26.719a5.6,5.6,0,0,0,.17-1.239q0-1.117-.753-1.117-1,0-1.627,2.307Q.169-26.5.1-26.185q-.267.534-.413.559-.291,0-.291-.243A6.53,6.53,0,0,1-.171-27.5q.17-.437.316-.729A2.194,2.194,0,0,1,1.6-29.585a2.4,2.4,0,0,1,.34-.024,2.049,2.049,0,0,1,1.92,1.069v.024a2.065,2.065,0,0,1,.267.729,4.258,4.258,0,0,1,3.183-1.822,2.915,2.915,0,0,1,2.649,1.554,5.766,5.766,0,0,1,.583,2.333A7.476,7.476,0,0,1,8.7-20.864a5.486,5.486,0,0,1-3.669,2.236,2.4,2.4,0,0,1-.34.024,2.337,2.337,0,0,1-2.236-1.554q-.9,3.2-1.171,4.71a1.215,1.215,0,0,0-.024.146q0,.267.316.34H1.6a5.78,5.78,0,0,0,.874.049q.534,0,.583.267,0,.486-.437.486L.236-14.235H.216l-1.993.073h-.049q-.316,0-.316-.291a.6.6,0,0,1,.559-.461q.9,0,1.093-.316l.024-.024a1.6,1.6,0,0,0,.1-.267q.024-.121.1-.389M4.005-26.455h0l-1.19,4.762a2.043,2.043,0,0,0-.073.389,2.464,2.464,0,0,0,.437,1.263,1.9,1.9,0,0,0,.68.7,1.677,1.677,0,0,0,.8.194A2.986,2.986,0,0,0,6.994-20.7a6.072,6.072,0,0,0,.559-.947,15.613,15.613,0,0,0,1.093-3.742A8.64,8.64,0,0,0,8.791-26.8q0-1.92-1.166-2.236a1.6,1.6,0,0,0-.389-.049,3.074,3.074,0,0,0-1.969.923A3.566,3.566,0,0,0,4-26.455Z" transform="translate(2.141 29.613)"/>
        </g>
        <g id="Group_951" data-name="Group 951" transform="translate(42.4 76.635)">
          <path id="Path_655" data-name="Path 655" d="M5.985-36.45l-1.8,7.165a5,5,0,0,0-.146,1.166Q4.041-27,4.794-27q1.6,0,2.819-2.357l.34-.753q.146-.316.364-.34.291,0,.291.243a4.031,4.031,0,0,1-.632,1.384q-1.406,2.357-3.228,2.357a2.049,2.049,0,0,1-1.993-1.166A2.357,2.357,0,0,1,2.513-28.7q0-.461,1.482-6.293l.364-1.457H2.221q-.607,0-.656-.194H1.541v-.1a.408.408,0,0,1,.092-.317.408.408,0,0,1,.3-.145H4.555L5.5-41.068a1,1,0,0,1,.972-.874.646.646,0,0,1,.5.171.646.646,0,0,1,.206.485q0,.146-1,4.082H8.321q.632,0,.68.267a.423.423,0,0,1-.088.328.423.423,0,0,1-.3.158H5.985Z" transform="translate(-1.537 41.945)"/>
        </g>
        <g id="Group_952" data-name="Group 952" transform="translate(51.323 81.096)">
          <path id="Path_656" data-name="Path 656" d="M3.376-20.305h0l1.409-5.613a11.028,11.028,0,0,0,.389-2.041q0-1.117-.753-1.117-1,0-1.627,2.307-.073.267-.146.583-.267.534-.413.559-.291,0-.291-.243A6.53,6.53,0,0,1,2.38-27.5q.17-.437.316-.729a2.194,2.194,0,0,1,1.457-1.36,2.4,2.4,0,0,1,.34-.024,2.065,2.065,0,0,1,1.969,1.166,2.283,2.283,0,0,1,.219.583.271.271,0,0,1,.024.121,4.43,4.43,0,0,1,3.11-1.871,1.879,1.879,0,0,1,1.847.947,1.233,1.233,0,0,1,.17.632,1.319,1.319,0,0,1-.8,1.312,1.283,1.283,0,0,1-.534.121.808.808,0,0,1-.9-.656.8.8,0,0,1-.024-.194,1.261,1.261,0,0,1,.826-1.19l.024-.024a3.075,3.075,0,0,1,.413-.121l-.486-.219q-.316-.049-.534-.073a2.93,2.93,0,0,0-1.943.8,5.7,5.7,0,0,0-1.287,1.8q-.049.121-.073.194l-.777,3.158-.972,3.839a.947.947,0,0,1-.9.68.793.793,0,0,1-.7-.656Q3.157-19.212,3.376-20.305Z" transform="translate(-1.943 29.625)"/>
        </g>
        <g id="Group_953" data-name="Group 953" transform="translate(64.659 73.632)">
          <path id="Path_657" data-name="Path 657" d="M12.271-26.2h0a.215.215,0,0,1-.061.182.215.215,0,0,1-.182.061q-.291,0-1.287-1a12.964,12.964,0,0,1-2.5-3.567,17.155,17.155,0,0,1-1.6-7.581,17.425,17.425,0,0,1,1.53-7.408,12.378,12.378,0,0,1,3.207-4.325,1.734,1.734,0,0,1,.656-.413.215.215,0,0,1,.182.061A.215.215,0,0,1,12.27-50q0,.121-.316.413Q8.042-45.6,8.042-38.095q0,7.483,3.815,11.371Q12.271-26.318,12.271-26.2Z" transform="translate(-6.63 50.245)"/>
        </g>
        <g id="Group_954" data-name="Group 954" transform="translate(72.719 75.661)">
          <path id="Path_658" data-name="Path 658" d="M8.842-36.992h0a4.874,4.874,0,0,1,3.5,2.382,3.906,3.906,0,0,1,.559,2.017,4.345,4.345,0,0,1-1.7,3.475A5.314,5.314,0,0,1,7.724-27.9a5.272,5.272,0,0,1-3.863-1.433,3.227,3.227,0,0,1-1.046-2.384,1.225,1.225,0,0,1,1.02-1.36,1.233,1.233,0,0,1,.34-.049,1.214,1.214,0,0,1,1.239.777,2.887,2.887,0,0,1,.121.583,1.2,1.2,0,0,1-.873,1.263,1.563,1.563,0,0,1-.729.073,3.972,3.972,0,0,0,3.115,1.8,4,4,0,0,0,.607.049,2.4,2.4,0,0,0,2.284-1.53,5.786,5.786,0,0,0,.461-2.479q0-3.232-1.943-3.886a2.979,2.979,0,0,0-.947-.146H6.442q-.534,0-.583-.267,0-.243.364-.291a7.974,7.974,0,0,0,.947-.073,2.465,2.465,0,0,0,1.943-.948v-.025l.024-.024.024-.024h.024l.146-.243a5.319,5.319,0,0,0,.68-2.77q0-2.26-1.749-2.649a2.4,2.4,0,0,0-.583-.073,3.959,3.959,0,0,0-2.77.972,2.881,2.881,0,0,0-.461.534q1.506,0,1.506,1.214A1.133,1.133,0,0,1,5.2-40.127a1.53,1.53,0,0,1-.486.073,1.109,1.109,0,0,1-1.19-.85h0v-.024a1.6,1.6,0,0,1-.049-.389,2.938,2.938,0,0,1,1.6-2.6,5.113,5.113,0,0,1,2.7-.7,4.929,4.929,0,0,1,3.572,1.312l.049.049a2.782,2.782,0,0,1,.85,1.993,4.146,4.146,0,0,1-1.725,3.377A5.766,5.766,0,0,1,8.842-36.992Z" transform="translate(-2.806 44.627)"/>
        </g>
        <g id="Group_955" data-name="Group 955" transform="translate(85.241 73.624)">
          <path id="Path_659" data-name="Path 659" d="M9.457-38.1h0a17.425,17.425,0,0,1-1.53,7.408,12.378,12.378,0,0,1-3.207,4.325,1.734,1.734,0,0,1-.656.413.215.215,0,0,1-.182-.061A.215.215,0,0,1,3.82-26.2q0-.121.316-.413Q8.047-30.593,8.047-38.1q0-7.408-3.643-11.225l-.121-.121q-.461-.437-.461-.559a.215.215,0,0,1,.061-.182.215.215,0,0,1,.182-.061q.291,0,1.287,1a12.964,12.964,0,0,1,2.5,3.572A17.155,17.155,0,0,1,9.457-38.1Z" transform="translate(-3.818 50.252)"/>
        </g>
      </g>
    </g>
  </g>
</svg>
