<svg xmlns="http://www.w3.org/2000/svg" width="120" height="120" viewBox="0 0 120 120">
  <g id="_23ptr3" data-name="23ptr3" transform="translate(12.518 28.64)">
    <path id="Path_71" data-name="Path 71" d="M0,0H120V120H0Z" transform="translate(-12.518 -28.64)" fill="none"/>
    <g id="Group_1063" data-name="Group 1063" transform="translate(-49.903 -62.933)">
      <g id="Group_956" data-name="Group 956" transform="translate(60.385 52.293)">
        <g id="Group_933" data-name="Group 933" transform="translate(4.279 0)">
          <path id="Path_637" data-name="Path 637" d="M25.714,18.07V9.131a9.178,9.178,0,0,1,.738-3.61,10.5,10.5,0,0,1,2.056-3.141A11.254,11.254,0,0,1,31.517.1a.145.145,0,0,1,.107-.039h.615a.149.149,0,0,1,.107.049A.172.172,0,0,1,32.4.241V.866a.169.169,0,0,1-.059.117,8.376,8.376,0,0,0-1.8,1.558,9.408,9.408,0,0,0-1.324,1.964A10.168,10.168,0,0,0,28.4,6.772a10.547,10.547,0,0,0-.283,2.4v8.9a.193.193,0,0,1-.054.122.145.145,0,0,1-.1.064H25.9a.2.2,0,0,1-.186-.186Z" transform="translate(-25.714 -0.065)"/>
        </g>
        <g id="Group_934" data-name="Group 934" transform="translate(4.279 17.791)">
          <path id="Path_638" data-name="Path 638" d="M25.714,5.559V-.478A.177.177,0,0,1,25.763-.6.175.175,0,0,1,25.9-.654h2.061a.144.144,0,0,1,.107.054.177.177,0,0,1,.049.122V5.559a.193.193,0,0,1-.054.122.145.145,0,0,1-.1.064H25.9A.164.164,0,0,1,25.714,5.559Z" transform="translate(-25.714 0.654)"/>
        </g>
        <g id="Group_935" data-name="Group 935" transform="translate(0 23.793)">
          <path id="Path_639" data-name="Path 639" d="M15.664,35.569V26.875a12.889,12.889,0,0,0-.264-2.569,11.594,11.594,0,0,0-.782-2.452A9.874,9.874,0,0,0,13.3,19.709a8.9,8.9,0,0,0-1.841-1.724.125.125,0,0,1-.078-.117v-.625a.14.14,0,0,1,.078-.137,9.15,9.15,0,0,0,1.851-1.749,9.877,9.877,0,0,0,1.314-2.139A11.554,11.554,0,0,0,15.4,10.79a12.723,12.723,0,0,0,.264-2.545V-.478A.177.177,0,0,1,15.712-.6a.175.175,0,0,1,.137-.054H17.91a.144.144,0,0,1,.107.054.177.177,0,0,1,.049.122V8.284a9.807,9.807,0,0,1-.4,2.779,11,11,0,0,1-1.128,2.574,10.847,10.847,0,0,1-1.749,2.2,11.611,11.611,0,0,1-2.242,1.7A10.843,10.843,0,0,1,14.77,19.24a11.265,11.265,0,0,1,1.768,2.227,10.93,10.93,0,0,1,1.128,2.564,9.824,9.824,0,0,1,.4,2.794v8.743a.192.192,0,0,1-.054.122.145.145,0,0,1-.1.064H15.849A.164.164,0,0,1,15.664,35.569Z" transform="translate(-11.385 0.654)"/>
        </g>
        <g id="Group_936" data-name="Group 936" transform="translate(4.279 59.806)">
          <path id="Path_640" data-name="Path 640" d="M25.714,5.559V-.478A.177.177,0,0,1,25.763-.6.175.175,0,0,1,25.9-.654h2.061a.144.144,0,0,1,.107.054.177.177,0,0,1,.049.122V5.559a.193.193,0,0,1-.054.122.145.145,0,0,1-.1.064H25.9A.164.164,0,0,1,25.714,5.559Z" transform="translate(-25.714 0.654)"/>
        </g>
        <g id="Group_937" data-name="Group 937" transform="translate(4.279 65.808)">
          <path id="Path_641" data-name="Path 641" d="M31.517,17.487a11.314,11.314,0,0,1-4.171-3.756,10.1,10.1,0,0,1-1.2-2.516,9.016,9.016,0,0,1-.43-2.755V-.478A.177.177,0,0,1,25.763-.6.175.175,0,0,1,25.9-.654h2.061a.144.144,0,0,1,.107.054.177.177,0,0,1,.049.122v8.9a10.372,10.372,0,0,0,1.1,4.674,8.673,8.673,0,0,0,3.121,3.512.187.187,0,0,1,.059.137v.625a.168.168,0,0,1-.156.156h-.615A.145.145,0,0,1,31.517,17.487Z" transform="translate(-25.714 0.654)"/>
        </g>
        <g id="Group_938" data-name="Group 938" transform="translate(23.75 9.524)">
          <path id="Path_642" data-name="Path 642" d="M-.6-18.33h0l2.241-8.9a4.614,4.614,0,0,0,.14-1.02q0-.92-.62-.92-.82,0-1.34,1.9-.06.22-.12.48-.22.44-.34.46-.24,0-.24-.2a5.377,5.377,0,0,1,.36-1.34q.14-.36.26-.6a1.807,1.807,0,0,1,1.2-1.12,1.979,1.979,0,0,1,.28-.02,1.687,1.687,0,0,1,1.581.88v.02a1.7,1.7,0,0,1,.22.6,3.506,3.506,0,0,1,2.621-1.5,2.4,2.4,0,0,1,2.181,1.28,4.748,4.748,0,0,1,.48,1.921,6.156,6.156,0,0,1-1.521,4,4.517,4.517,0,0,1-3.021,1.841,1.978,1.978,0,0,1-.28.02,1.924,1.924,0,0,1-1.841-1.28Q.9-19.19.677-17.95a1,1,0,0,0-.02.12q0,.22.26.28h.02a4.759,4.759,0,0,0,.72.04q.44,0,.48.22,0,.4-.36.4l-1.961-.06H-.2l-1.641.06h-.04q-.26,0-.26-.24a.492.492,0,0,1,.46-.38q.74,0,.9-.26l.02-.02a1.32,1.32,0,0,0,.08-.22q.02-.1.08-.32m3.521-8.683h0l-.98,3.921a1.682,1.682,0,0,0-.06.32,2.029,2.029,0,0,0,.36,1.04,1.563,1.563,0,0,0,.56.58,1.381,1.381,0,0,0,.66.16,2.459,2.459,0,0,0,1.921-1.28,5,5,0,0,0,.46-.78,12.856,12.856,0,0,0,.9-3.081,7.114,7.114,0,0,0,.12-1.16q0-1.581-.96-1.841a1.315,1.315,0,0,0-.32-.04,2.531,2.531,0,0,0-1.621.76A2.936,2.936,0,0,0,2.918-27.013Z" transform="translate(2.144 29.614)"/>
        </g>
        <g id="Group_939" data-name="Group 939" transform="translate(34.913 5.842)">
          <path id="Path_643" data-name="Path 643" d="M5.2-37.42l-1.481,5.9a4.114,4.114,0,0,0-.12.96q0,.92.62.92,1.32,0,2.321-1.941l.28-.62q.12-.26.3-.28.24,0,.24.2a3.319,3.319,0,0,1-.52,1.14Q5.682-29.2,4.182-29.2a1.687,1.687,0,0,1-1.641-.96,1.941,1.941,0,0,1-.2-.88q0-.38,1.22-5.182l.3-1.2H2.1q-.5,0-.54-.16h-.02v-.08a.336.336,0,0,1,.32-.38H4.022l.78-3.181a.823.823,0,0,1,.8-.72.532.532,0,0,1,.58.54q0,.12-.82,3.361H7.123q.52,0,.56.22a.348.348,0,0,1-.32.4H5.2Z" transform="translate(-1.541 41.942)"/>
        </g>
        <g id="Group_940" data-name="Group 940" transform="translate(42.256 9.524)">
          <path id="Path_644" data-name="Path 644" d="M3.123-21.951h0l1.16-4.622a9.081,9.081,0,0,0,.32-1.681q0-.92-.62-.92-.82,0-1.34,1.9-.06.22-.12.48-.22.44-.34.46-.24,0-.24-.2a5.377,5.377,0,0,1,.36-1.34q.14-.36.26-.6a1.807,1.807,0,0,1,1.2-1.12,1.979,1.979,0,0,1,.28-.02,1.7,1.7,0,0,1,1.621.96,1.88,1.88,0,0,1,.18.48.223.223,0,0,1,.02.1,3.648,3.648,0,0,1,2.561-1.541,1.547,1.547,0,0,1,1.521.78,1.015,1.015,0,0,1,.14.52,1.086,1.086,0,0,1-.66,1.08,1.056,1.056,0,0,1-.44.1.665.665,0,0,1-.74-.54.658.658,0,0,1-.02-.16,1.038,1.038,0,0,1,.68-.98l.02-.02a2.532,2.532,0,0,1,.34-.1l-.4-.18q-.26-.04-.44-.06a2.413,2.413,0,0,0-1.6.66,4.689,4.689,0,0,0-1.06,1.481q-.04.1-.06.16l-.64,2.6-.8,3.161a.78.78,0,0,1-.74.56.653.653,0,0,1-.58-.54Q2.943-21.051,3.123-21.951Z" transform="translate(-1.943 29.614)"/>
        </g>
        <g id="Group_941" data-name="Group 941" transform="translate(53.24 3.362)">
          <path id="Path_645" data-name="Path 645" d="M11.275-30.443h0a.177.177,0,0,1-.2.2q-.24,0-1.06-.82A10.675,10.675,0,0,1,7.953-34a14.126,14.126,0,0,1-1.32-6.242,14.348,14.348,0,0,1,1.26-6.1,10.192,10.192,0,0,1,2.641-3.561,1.428,1.428,0,0,1,.54-.34.177.177,0,0,1,.2.2q0,.1-.26.34-3.221,3.281-3.221,9.463,0,6.162,3.141,9.363Q11.275-30.543,11.275-30.443Z" transform="translate(-6.633 50.25)"/>
        </g>
        <g id="Group_942" data-name="Group 942" transform="translate(60.822 5.042)">
          <path id="Path_646" data-name="Path 646" d="M10.064-44.1v11.224q0,.6.24.76a3.965,3.965,0,0,0,1.621.2h.64v.62q-.7-.06-3.241-.06t-3.241.06v-.62h.64q1.541,0,1.761-.36l.02-.02a1.443,1.443,0,0,0,.08-.58V-43.242a5.842,5.842,0,0,1-2.621.52v-.62A4.843,4.843,0,0,0,9.6-44.622q.38,0,.44.14h0v.02A1.745,1.745,0,0,1,10.064-44.1Z" transform="translate(-5.963 44.622)"/>
        </g>
        <g id="Group_943" data-name="Group 943" transform="translate(70.186 3.362)">
          <path id="Path_647" data-name="Path 647" d="M8.461-40.247h0a14.348,14.348,0,0,1-1.26,6.1,10.192,10.192,0,0,1-2.641,3.561,1.428,1.428,0,0,1-.54.34.177.177,0,0,1-.2-.2q0-.1.26-.34Q7.3-34.064,7.3-40.247q0-6.1-3-9.243l-.1-.1q-.38-.36-.38-.46a.177.177,0,0,1,.2-.2q.24,0,1.06.82A10.675,10.675,0,0,1,7.14-46.489,14.126,14.126,0,0,1,8.461-40.247Z" transform="translate(-3.819 50.25)"/>
        </g>
        <g id="Group_944" data-name="Group 944" transform="translate(23.75 38.153)">
          <path id="Path_648" data-name="Path 648" d="M-.6-18.33h0l2.241-8.9a4.614,4.614,0,0,0,.14-1.02q0-.92-.62-.92-.82,0-1.34,1.9-.06.22-.12.48-.22.44-.34.46-.24,0-.24-.2a5.377,5.377,0,0,1,.36-1.34q.14-.36.26-.6a1.807,1.807,0,0,1,1.2-1.12,1.979,1.979,0,0,1,.28-.02,1.687,1.687,0,0,1,1.581.88v.02a1.7,1.7,0,0,1,.22.6,3.506,3.506,0,0,1,2.621-1.5,2.4,2.4,0,0,1,2.181,1.28,4.748,4.748,0,0,1,.48,1.921,6.156,6.156,0,0,1-1.521,4,4.517,4.517,0,0,1-3.021,1.841,1.978,1.978,0,0,1-.28.02,1.924,1.924,0,0,1-1.841-1.28Q.9-19.19.677-17.95a1,1,0,0,0-.02.12q0,.22.26.28h.02a4.759,4.759,0,0,0,.72.04q.44,0,.48.22,0,.4-.36.4l-1.961-.06H-.2l-1.641.06h-.04q-.26,0-.26-.24a.492.492,0,0,1,.46-.38q.74,0,.9-.26l.02-.02a1.32,1.32,0,0,0,.08-.22q.02-.1.08-.32m3.521-8.683h0l-.98,3.921a1.682,1.682,0,0,0-.06.32,2.029,2.029,0,0,0,.36,1.04,1.563,1.563,0,0,0,.56.58,1.381,1.381,0,0,0,.66.16,2.459,2.459,0,0,0,1.921-1.28,5,5,0,0,0,.46-.78,12.856,12.856,0,0,0,.9-3.081,7.114,7.114,0,0,0,.12-1.16q0-1.581-.96-1.841a1.315,1.315,0,0,0-.32-.04,2.531,2.531,0,0,0-1.621.76A2.936,2.936,0,0,0,2.918-27.013Z" transform="translate(2.144 29.614)"/>
        </g>
        <g id="Group_945" data-name="Group 945" transform="translate(34.913 34.472)">
          <path id="Path_649" data-name="Path 649" d="M5.2-37.42l-1.481,5.9a4.114,4.114,0,0,0-.12.96q0,.92.62.92,1.32,0,2.321-1.941l.28-.62q.12-.26.3-.28.24,0,.24.2a3.319,3.319,0,0,1-.52,1.14Q5.682-29.2,4.182-29.2a1.687,1.687,0,0,1-1.641-.96,1.941,1.941,0,0,1-.2-.88q0-.38,1.22-5.182l.3-1.2H2.1q-.5,0-.54-.16h-.02v-.08a.336.336,0,0,1,.32-.38H4.022l.78-3.181a.823.823,0,0,1,.8-.72.532.532,0,0,1,.58.54q0,.12-.82,3.361H7.123q.52,0,.56.22a.348.348,0,0,1-.32.4H5.2Z" transform="translate(-1.541 41.942)"/>
        </g>
        <g id="Group_946" data-name="Group 946" transform="translate(42.256 38.153)">
          <path id="Path_650" data-name="Path 650" d="M3.123-21.951h0l1.16-4.622a9.081,9.081,0,0,0,.32-1.681q0-.92-.62-.92-.82,0-1.34,1.9-.06.22-.12.48-.22.44-.34.46-.24,0-.24-.2a5.377,5.377,0,0,1,.36-1.34q.14-.36.26-.6a1.807,1.807,0,0,1,1.2-1.12,1.979,1.979,0,0,1,.28-.02,1.7,1.7,0,0,1,1.621.96,1.88,1.88,0,0,1,.18.48.223.223,0,0,1,.02.1,3.648,3.648,0,0,1,2.561-1.541,1.547,1.547,0,0,1,1.521.78,1.015,1.015,0,0,1,.14.52,1.086,1.086,0,0,1-.66,1.08,1.056,1.056,0,0,1-.44.1.665.665,0,0,1-.74-.54.658.658,0,0,1-.02-.16,1.038,1.038,0,0,1,.68-.98l.02-.02a2.532,2.532,0,0,1,.34-.1l-.4-.18q-.26-.04-.44-.06a2.413,2.413,0,0,0-1.6.66,4.689,4.689,0,0,0-1.06,1.481q-.04.1-.06.16l-.64,2.6-.8,3.161a.78.78,0,0,1-.74.56.653.653,0,0,1-.58-.54Q2.943-21.051,3.123-21.951Z" transform="translate(-1.943 29.614)"/>
        </g>
        <g id="Group_947" data-name="Group 947" transform="translate(53.24 31.991)">
          <path id="Path_651" data-name="Path 651" d="M11.275-30.443h0a.177.177,0,0,1-.2.2q-.24,0-1.06-.82A10.675,10.675,0,0,1,7.953-34a14.126,14.126,0,0,1-1.32-6.242,14.348,14.348,0,0,1,1.26-6.1,10.192,10.192,0,0,1,2.641-3.561,1.428,1.428,0,0,1,.54-.34.177.177,0,0,1,.2.2q0,.1-.26.34-3.221,3.281-3.221,9.463,0,6.162,3.141,9.363Q11.275-30.543,11.275-30.443Z" transform="translate(-6.633 50.25)"/>
        </g>
        <g id="Group_948" data-name="Group 948" transform="translate(60.042 33.672)">
          <path id="Path_652" data-name="Path 652" d="M11.333-34.779h0l-.56,3.481H3.35a1.1,1.1,0,0,1,.12-.64l.1-.1,3.841-4.281a6.9,6.9,0,0,0,2.1-4.422,3.351,3.351,0,0,0-1.08-2.7l-.02-.02h-.02A2.338,2.338,0,0,0,6.831-44a2.669,2.669,0,0,0-2.3,1.24,3.74,3.74,0,0,0-.4.8,1.035,1.035,0,0,1,.26-.02.96.96,0,0,1,1.02.72v.02a1.088,1.088,0,0,1,.04.3.966.966,0,0,1-.76,1.02,1.176,1.176,0,0,1-.28.04.948.948,0,0,1-.98-.62,1.458,1.458,0,0,1-.08-.5,3.484,3.484,0,0,1,1.18-2.641,3.638,3.638,0,0,1,2.561-.98,4.187,4.187,0,0,1,3.421,1.481,3.639,3.639,0,0,1,.8,2.041,3.259,3.259,0,0,1,.02.36,4.287,4.287,0,0,1-1.1,2.781,22.421,22.421,0,0,1-1.8,1.8l-1.22,1.08-.2.18L4.891-32.838h3.6a5.124,5.124,0,0,0,1.9-.16,5.959,5.959,0,0,0,.44-1.781Z" transform="translate(-3.35 44.622)"/>
        </g>
        <g id="Group_949" data-name="Group 949" transform="translate(70.186 31.991)">
          <path id="Path_653" data-name="Path 653" d="M8.461-40.247h0a14.348,14.348,0,0,1-1.26,6.1,10.192,10.192,0,0,1-2.641,3.561,1.428,1.428,0,0,1-.54.34.177.177,0,0,1-.2-.2q0-.1.26-.34Q7.3-34.064,7.3-40.247q0-6.1-3-9.243l-.1-.1q-.38-.36-.38-.46a.177.177,0,0,1,.2-.2q.24,0,1.06.82A10.675,10.675,0,0,1,7.14-46.489,14.126,14.126,0,0,1,8.461-40.247Z" transform="translate(-3.819 50.25)"/>
        </g>
        <g id="Group_950" data-name="Group 950" transform="translate(23.75 66.783)">
          <path id="Path_654" data-name="Path 654" d="M-.6-18.33h0l2.241-8.9a4.614,4.614,0,0,0,.14-1.02q0-.92-.62-.92-.82,0-1.34,1.9-.06.22-.12.48-.22.44-.34.46-.24,0-.24-.2a5.377,5.377,0,0,1,.36-1.34q.14-.36.26-.6a1.807,1.807,0,0,1,1.2-1.12,1.979,1.979,0,0,1,.28-.02,1.687,1.687,0,0,1,1.581.88v.02a1.7,1.7,0,0,1,.22.6,3.506,3.506,0,0,1,2.621-1.5,2.4,2.4,0,0,1,2.181,1.28,4.748,4.748,0,0,1,.48,1.921,6.156,6.156,0,0,1-1.521,4,4.517,4.517,0,0,1-3.021,1.841,1.978,1.978,0,0,1-.28.02,1.924,1.924,0,0,1-1.841-1.28Q.9-19.19.677-17.95a1,1,0,0,0-.02.12q0,.22.26.28h.02a4.759,4.759,0,0,0,.72.04q.44,0,.48.22,0,.4-.36.4l-1.961-.06H-.2l-1.641.06h-.04q-.26,0-.26-.24a.492.492,0,0,1,.46-.38q.74,0,.9-.26l.02-.02a1.32,1.32,0,0,0,.08-.22q.02-.1.08-.32m3.521-8.683h0l-.98,3.921a1.682,1.682,0,0,0-.06.32,2.029,2.029,0,0,0,.36,1.04,1.563,1.563,0,0,0,.56.58,1.381,1.381,0,0,0,.66.16,2.459,2.459,0,0,0,1.921-1.28,5,5,0,0,0,.46-.78,12.856,12.856,0,0,0,.9-3.081,7.114,7.114,0,0,0,.12-1.16q0-1.581-.96-1.841a1.315,1.315,0,0,0-.32-.04,2.531,2.531,0,0,0-1.621.76A2.936,2.936,0,0,0,2.918-27.013Z" transform="translate(2.144 29.614)"/>
        </g>
        <g id="Group_951" data-name="Group 951" transform="translate(34.913 63.102)">
          <path id="Path_655" data-name="Path 655" d="M5.2-37.42l-1.481,5.9a4.114,4.114,0,0,0-.12.96q0,.92.62.92,1.32,0,2.321-1.941l.28-.62q.12-.26.3-.28.24,0,.24.2a3.319,3.319,0,0,1-.52,1.14Q5.682-29.2,4.182-29.2a1.687,1.687,0,0,1-1.641-.96,1.941,1.941,0,0,1-.2-.88q0-.38,1.22-5.182l.3-1.2H2.1q-.5,0-.54-.16h-.02v-.08a.336.336,0,0,1,.32-.38H4.022l.78-3.181a.823.823,0,0,1,.8-.72.532.532,0,0,1,.58.54q0,.12-.82,3.361H7.123q.52,0,.56.22a.348.348,0,0,1-.32.4H5.2Z" transform="translate(-1.541 41.942)"/>
        </g>
        <g id="Group_952" data-name="Group 952" transform="translate(42.256 66.783)">
          <path id="Path_656" data-name="Path 656" d="M3.123-21.951h0l1.16-4.622a9.081,9.081,0,0,0,.32-1.681q0-.92-.62-.92-.82,0-1.34,1.9-.06.22-.12.48-.22.44-.34.46-.24,0-.24-.2a5.377,5.377,0,0,1,.36-1.34q.14-.36.26-.6a1.807,1.807,0,0,1,1.2-1.12,1.979,1.979,0,0,1,.28-.02,1.7,1.7,0,0,1,1.621.96,1.88,1.88,0,0,1,.18.48.223.223,0,0,1,.02.1,3.648,3.648,0,0,1,2.561-1.541,1.547,1.547,0,0,1,1.521.78,1.015,1.015,0,0,1,.14.52,1.086,1.086,0,0,1-.66,1.08,1.056,1.056,0,0,1-.44.1.665.665,0,0,1-.74-.54.658.658,0,0,1-.02-.16,1.038,1.038,0,0,1,.68-.98l.02-.02a2.532,2.532,0,0,1,.34-.1l-.4-.18q-.26-.04-.44-.06a2.413,2.413,0,0,0-1.6.66,4.689,4.689,0,0,0-1.06,1.481q-.04.1-.06.16l-.64,2.6-.8,3.161a.78.78,0,0,1-.74.56.653.653,0,0,1-.58-.54Q2.943-21.051,3.123-21.951Z" transform="translate(-1.943 29.614)"/>
        </g>
        <g id="Group_953" data-name="Group 953" transform="translate(53.24 60.621)">
          <path id="Path_657" data-name="Path 657" d="M11.275-30.443h0a.177.177,0,0,1-.2.2q-.24,0-1.06-.82A10.675,10.675,0,0,1,7.953-34a14.126,14.126,0,0,1-1.32-6.242,14.348,14.348,0,0,1,1.26-6.1,10.192,10.192,0,0,1,2.641-3.561,1.428,1.428,0,0,1,.54-.34.177.177,0,0,1,.2.2q0,.1-.26.34-3.221,3.281-3.221,9.463,0,6.162,3.141,9.363Q11.275-30.543,11.275-30.443Z" transform="translate(-6.633 50.25)"/>
        </g>
        <g id="Group_954" data-name="Group 954" transform="translate(59.882 62.302)">
          <path id="Path_658" data-name="Path 658" d="M7.776-38.34h0a4.013,4.013,0,0,1,2.881,1.961,3.216,3.216,0,0,1,.46,1.661,3.578,3.578,0,0,1-1.4,2.861,4.376,4.376,0,0,1-2.861,1,4.341,4.341,0,0,1-3.181-1.18A2.657,2.657,0,0,1,2.814-34a1.009,1.009,0,0,1,.84-1.12,1.015,1.015,0,0,1,.28-.04,1,1,0,0,1,1.02.64,2.377,2.377,0,0,1,.1.48A.992.992,0,0,1,4.335-33a1.287,1.287,0,0,1-.6.06A3.271,3.271,0,0,0,6.3-31.458a3.291,3.291,0,0,0,.5.04,1.974,1.974,0,0,0,1.881-1.26,4.764,4.764,0,0,0,.38-2.041q0-2.661-1.6-3.2a2.453,2.453,0,0,0-.78-.12H5.8q-.44,0-.48-.22,0-.2.3-.24a6.566,6.566,0,0,0,.78-.06A2.03,2.03,0,0,0,8-39.34v-.02l.02-.02.02-.02h.02l.12-.2a4.38,4.38,0,0,0,.56-2.281q0-1.861-1.44-2.181a1.973,1.973,0,0,0-.48-.06,3.26,3.26,0,0,0-2.281.8,2.372,2.372,0,0,0-.38.44q1.24,0,1.24,1a.933.933,0,0,1-.62.96,1.26,1.26,0,0,1-.4.06.913.913,0,0,1-.98-.7h0v-.02a1.315,1.315,0,0,1-.04-.32,2.419,2.419,0,0,1,1.32-2.141,4.21,4.21,0,0,1,2.221-.58,4.059,4.059,0,0,1,2.941,1.08l.04.04a2.291,2.291,0,0,1,.7,1.641,3.414,3.414,0,0,1-1.42,2.781A4.748,4.748,0,0,1,7.776-38.34Z" transform="translate(-2.814 44.622)"/>
        </g>
        <g id="Group_955" data-name="Group 955" transform="translate(70.186 60.621)">
          <path id="Path_659" data-name="Path 659" d="M8.461-40.247h0a14.348,14.348,0,0,1-1.26,6.1,10.192,10.192,0,0,1-2.641,3.561,1.428,1.428,0,0,1-.54.34.177.177,0,0,1-.2-.2q0-.1.26-.34Q7.3-34.064,7.3-40.247q0-6.1-3-9.243l-.1-.1q-.38-.36-.38-.46a.177.177,0,0,1,.2-.2q.24,0,1.06.82A10.675,10.675,0,0,1,7.14-46.489,14.126,14.126,0,0,1,8.461-40.247Z" transform="translate(-3.819 50.25)"/>
        </g>
      </g>
    </g>
  </g>
</svg>
