<svg xmlns="http://www.w3.org/2000/svg" width="120" height="120" viewBox="0 0 120 120">
  <g id="_24ptr4" data-name="24ptr4" transform="translate(12.518 28.64)">
    <path id="Path_71" data-name="Path 71" d="M0,0H120V120H0Z" transform="translate(-12.518 -28.64)" fill="none"/>
    <g id="Group_1061" data-name="Group 1061" transform="translate(-49.903 -80.705)">
      <g id="Group_993" data-name="Group 993" transform="translate(60.385 52.065)">
        <g id="Group_958" data-name="Group 958" transform="translate(4.279 0)">
          <path id="Path_661" data-name="Path 661" d="M25.714,18.07V9.131a9.178,9.178,0,0,1,.738-3.61,10.5,10.5,0,0,1,2.056-3.141A11.254,11.254,0,0,1,31.517.1a.145.145,0,0,1,.107-.039h.615a.149.149,0,0,1,.107.049A.172.172,0,0,1,32.4.241V.866a.169.169,0,0,1-.059.117,8.376,8.376,0,0,0-1.8,1.558,9.408,9.408,0,0,0-1.324,1.964A10.167,10.167,0,0,0,28.4,6.772a10.547,10.547,0,0,0-.283,2.4v8.9a.193.193,0,0,1-.054.122.145.145,0,0,1-.1.064H25.9a.2.2,0,0,1-.186-.186Z" transform="translate(-25.714 -0.065)"/>
        </g>
        <g id="Group_959" data-name="Group 959" transform="translate(4.279 17.791)">
          <path id="Path_662" data-name="Path 662" d="M25.714,5.559V-.478A.177.177,0,0,1,25.763-.6.175.175,0,0,1,25.9-.654h2.061a.144.144,0,0,1,.107.054.177.177,0,0,1,.049.122V5.559a.193.193,0,0,1-.054.122.145.145,0,0,1-.1.064H25.9A.164.164,0,0,1,25.714,5.559Z" transform="translate(-25.714 0.654)"/>
        </g>
        <g id="Group_960" data-name="Group 960" transform="translate(4.279 23.793)">
          <path id="Path_663" data-name="Path 663" d="M25.714,5.559V-.478A.177.177,0,0,1,25.763-.6.175.175,0,0,1,25.9-.654h2.061a.144.144,0,0,1,.107.054.177.177,0,0,1,.049.122V5.559a.193.193,0,0,1-.054.122.145.145,0,0,1-.1.064H25.9A.164.164,0,0,1,25.714,5.559Z" transform="translate(-25.714 0.654)"/>
        </g>
        <g id="Group_961" data-name="Group 961" transform="translate(4.279 29.795)">
          <path id="Path_664" data-name="Path 664" d="M25.714,5.559V-.478A.177.177,0,0,1,25.763-.6.175.175,0,0,1,25.9-.654h2.061a.144.144,0,0,1,.107.054.177.177,0,0,1,.049.122V5.559a.193.193,0,0,1-.054.122.145.145,0,0,1-.1.064H25.9A.164.164,0,0,1,25.714,5.559Z" transform="translate(-25.714 0.654)"/>
        </g>
        <g id="Group_962" data-name="Group 962" transform="translate(4.279 35.797)">
          <path id="Path_665" data-name="Path 665" d="M25.714,5.559V-.478A.177.177,0,0,1,25.763-.6.175.175,0,0,1,25.9-.654h2.061a.144.144,0,0,1,.107.054.177.177,0,0,1,.049.122V5.559a.193.193,0,0,1-.054.122.145.145,0,0,1-.1.064H25.9A.164.164,0,0,1,25.714,5.559Z" transform="translate(-25.714 0.654)"/>
        </g>
        <g id="Group_963" data-name="Group 963" transform="translate(0 41.799)">
          <path id="Path_666" data-name="Path 666" d="M15.664,35.569V26.875a12.888,12.888,0,0,0-.264-2.569,11.594,11.594,0,0,0-.782-2.452A9.874,9.874,0,0,0,13.3,19.709a8.9,8.9,0,0,0-1.841-1.724.125.125,0,0,1-.078-.117v-.625a.14.14,0,0,1,.078-.137,9.15,9.15,0,0,0,1.851-1.749,9.877,9.877,0,0,0,1.314-2.139A11.554,11.554,0,0,0,15.4,10.79a12.723,12.723,0,0,0,.264-2.545V-.478A.177.177,0,0,1,15.712-.6a.175.175,0,0,1,.137-.054H17.91a.144.144,0,0,1,.107.054.177.177,0,0,1,.049.122V8.284a9.807,9.807,0,0,1-.4,2.779,11,11,0,0,1-1.128,2.574,10.846,10.846,0,0,1-1.749,2.2,11.61,11.61,0,0,1-2.242,1.7A10.843,10.843,0,0,1,14.77,19.24a11.265,11.265,0,0,1,1.768,2.227,10.93,10.93,0,0,1,1.128,2.564,9.824,9.824,0,0,1,.4,2.794v8.743a.192.192,0,0,1-.054.122.145.145,0,0,1-.1.064H15.849A.164.164,0,0,1,15.664,35.569Z" transform="translate(-11.385 0.654)"/>
        </g>
        <g id="Group_964" data-name="Group 964" transform="translate(4.279 77.812)">
          <path id="Path_667" data-name="Path 667" d="M25.714,5.559V-.478A.177.177,0,0,1,25.763-.6.175.175,0,0,1,25.9-.654h2.061a.144.144,0,0,1,.107.054.177.177,0,0,1,.049.122V5.559a.193.193,0,0,1-.054.122.145.145,0,0,1-.1.064H25.9A.164.164,0,0,1,25.714,5.559Z" transform="translate(-25.714 0.654)"/>
        </g>
        <g id="Group_965" data-name="Group 965" transform="translate(4.279 83.814)">
          <path id="Path_668" data-name="Path 668" d="M25.714,5.559V-.478A.177.177,0,0,1,25.763-.6.175.175,0,0,1,25.9-.654h2.061a.144.144,0,0,1,.107.054.177.177,0,0,1,.049.122V5.559a.193.193,0,0,1-.054.122.145.145,0,0,1-.1.064H25.9A.164.164,0,0,1,25.714,5.559Z" transform="translate(-25.714 0.654)"/>
        </g>
        <g id="Group_966" data-name="Group 966" transform="translate(4.279 89.816)">
          <path id="Path_669" data-name="Path 669" d="M25.714,5.559V-.478A.177.177,0,0,1,25.763-.6.175.175,0,0,1,25.9-.654h2.061a.144.144,0,0,1,.107.054.177.177,0,0,1,.049.122V5.559a.193.193,0,0,1-.054.122.145.145,0,0,1-.1.064H25.9A.164.164,0,0,1,25.714,5.559Z" transform="translate(-25.714 0.654)"/>
        </g>
        <g id="Group_967" data-name="Group 967" transform="translate(4.279 95.818)">
          <path id="Path_670" data-name="Path 670" d="M25.714,5.559V-.478A.177.177,0,0,1,25.763-.6.175.175,0,0,1,25.9-.654h2.061a.144.144,0,0,1,.107.054.177.177,0,0,1,.049.122V5.559a.193.193,0,0,1-.054.122.145.145,0,0,1-.1.064H25.9A.164.164,0,0,1,25.714,5.559Z" transform="translate(-25.714 0.654)"/>
        </g>
        <g id="Group_968" data-name="Group 968" transform="translate(4.279 101.82)">
          <path id="Path_671" data-name="Path 671" d="M31.517,17.487a11.314,11.314,0,0,1-4.171-3.756,10.1,10.1,0,0,1-1.2-2.516,9.016,9.016,0,0,1-.43-2.755V-.478A.177.177,0,0,1,25.763-.6.175.175,0,0,1,25.9-.654h2.061a.144.144,0,0,1,.107.054.177.177,0,0,1,.049.122v8.9a10.372,10.372,0,0,0,1.1,4.674,8.673,8.673,0,0,0,3.121,3.512.187.187,0,0,1,.059.137v.625a.168.168,0,0,1-.156.156h-.615A.145.145,0,0,1,31.517,17.487Z" transform="translate(-25.714 0.654)"/>
        </g>
        <g id="Group_969" data-name="Group 969" transform="translate(23.75 13.215)">
          <path id="Path_672" data-name="Path 672" d="M-.6-18.33h0l2.241-8.9a4.614,4.614,0,0,0,.14-1.02q0-.92-.62-.92-.82,0-1.34,1.9-.06.22-.12.48-.22.44-.34.46-.24,0-.24-.2a5.377,5.377,0,0,1,.36-1.34q.14-.36.26-.6a1.807,1.807,0,0,1,1.2-1.12,1.978,1.978,0,0,1,.28-.02,1.687,1.687,0,0,1,1.581.88v.02a1.7,1.7,0,0,1,.22.6,3.506,3.506,0,0,1,2.621-1.5,2.4,2.4,0,0,1,2.181,1.28,4.748,4.748,0,0,1,.48,1.921,6.156,6.156,0,0,1-1.521,4,4.517,4.517,0,0,1-3.021,1.841,1.978,1.978,0,0,1-.28.02,1.924,1.924,0,0,1-1.841-1.28Q.9-19.19.677-17.95a1,1,0,0,0-.02.12q0,.22.26.28h.02a4.758,4.758,0,0,0,.72.04q.44,0,.48.22,0,.4-.36.4l-1.961-.06H-.2l-1.641.06h-.04q-.26,0-.26-.24a.492.492,0,0,1,.46-.38q.74,0,.9-.26l.02-.02a1.32,1.32,0,0,0,.08-.22q.02-.1.08-.32m3.521-8.683h0l-.98,3.921a1.682,1.682,0,0,0-.06.32,2.029,2.029,0,0,0,.36,1.04,1.563,1.563,0,0,0,.56.58,1.381,1.381,0,0,0,.66.16,2.459,2.459,0,0,0,1.921-1.28,5,5,0,0,0,.46-.78,12.856,12.856,0,0,0,.9-3.081,7.114,7.114,0,0,0,.12-1.16q0-1.581-.96-1.841a1.315,1.315,0,0,0-.32-.04,2.531,2.531,0,0,0-1.621.76A2.936,2.936,0,0,0,2.918-27.013Z" transform="translate(2.144 29.614)"/>
        </g>
        <g id="Group_970" data-name="Group 970" transform="translate(34.913 9.534)">
          <path id="Path_673" data-name="Path 673" d="M5.2-37.42l-1.481,5.9a4.114,4.114,0,0,0-.12.96q0,.92.62.92,1.32,0,2.321-1.941l.28-.62q.12-.26.3-.28.24,0,.24.2a3.319,3.319,0,0,1-.52,1.14Q5.682-29.2,4.182-29.2a1.687,1.687,0,0,1-1.641-.96,1.941,1.941,0,0,1-.2-.88q0-.38,1.22-5.182l.3-1.2H2.1q-.5,0-.54-.16h-.02v-.08a.336.336,0,0,1,.32-.38H4.022l.78-3.181a.823.823,0,0,1,.8-.72.532.532,0,0,1,.58.54q0,.12-.82,3.361H7.123q.52,0,.56.22a.348.348,0,0,1-.32.4H5.2Z" transform="translate(-1.541 41.942)"/>
        </g>
        <g id="Group_971" data-name="Group 971" transform="translate(42.256 13.215)">
          <path id="Path_674" data-name="Path 674" d="M3.123-21.951h0l1.16-4.622a9.081,9.081,0,0,0,.32-1.681q0-.92-.62-.92-.82,0-1.34,1.9-.06.22-.12.48-.22.44-.34.46-.24,0-.24-.2a5.377,5.377,0,0,1,.36-1.34q.14-.36.26-.6a1.807,1.807,0,0,1,1.2-1.12,1.978,1.978,0,0,1,.28-.02,1.7,1.7,0,0,1,1.621.96,1.88,1.88,0,0,1,.18.48.223.223,0,0,1,.02.1,3.648,3.648,0,0,1,2.561-1.541,1.547,1.547,0,0,1,1.521.78,1.015,1.015,0,0,1,.14.52,1.086,1.086,0,0,1-.66,1.08,1.056,1.056,0,0,1-.44.1.665.665,0,0,1-.74-.54.658.658,0,0,1-.02-.16,1.038,1.038,0,0,1,.68-.98l.02-.02a2.532,2.532,0,0,1,.34-.1l-.4-.18q-.26-.04-.44-.06a2.413,2.413,0,0,0-1.6.66,4.689,4.689,0,0,0-1.06,1.481q-.04.1-.06.16l-.64,2.6-.8,3.161a.78.78,0,0,1-.74.56.653.653,0,0,1-.58-.54Q2.943-21.051,3.123-21.951Z" transform="translate(-1.943 29.614)"/>
        </g>
        <g id="Group_972" data-name="Group 972" transform="translate(53.24 7.053)">
          <path id="Path_675" data-name="Path 675" d="M11.275-30.443h0a.177.177,0,0,1-.2.2q-.24,0-1.06-.82A10.675,10.675,0,0,1,7.953-34a14.126,14.126,0,0,1-1.32-6.242,14.348,14.348,0,0,1,1.26-6.1,10.192,10.192,0,0,1,2.641-3.561,1.428,1.428,0,0,1,.54-.34.177.177,0,0,1,.2.2q0,.1-.26.34-3.221,3.281-3.221,9.463,0,6.162,3.141,9.363Q11.275-30.543,11.275-30.443Z" transform="translate(-6.633 50.25)"/>
        </g>
        <g id="Group_973" data-name="Group 973" transform="translate(60.822 8.733)">
          <path id="Path_676" data-name="Path 676" d="M10.064-44.1v11.224q0,.6.24.76a3.965,3.965,0,0,0,1.621.2h.64v.62q-.7-.06-3.241-.06t-3.241.06v-.62h.64q1.541,0,1.761-.36l.02-.02a1.443,1.443,0,0,0,.08-.58V-43.242a5.842,5.842,0,0,1-2.621.52v-.62A4.843,4.843,0,0,0,9.6-44.622q.38,0,.44.14h0v.02A1.745,1.745,0,0,1,10.064-44.1Z" transform="translate(-5.963 44.622)"/>
        </g>
        <g id="Group_974" data-name="Group 974" transform="translate(70.186 7.053)">
          <path id="Path_677" data-name="Path 677" d="M8.461-40.247h0a14.348,14.348,0,0,1-1.26,6.1,10.192,10.192,0,0,1-2.641,3.561,1.428,1.428,0,0,1-.54.34.177.177,0,0,1-.2-.2q0-.1.26-.34Q7.3-34.064,7.3-40.247q0-6.1-3-9.243l-.1-.1q-.38-.36-.38-.46a.177.177,0,0,1,.2-.2q.24,0,1.06.82A10.675,10.675,0,0,1,7.14-46.489,14.126,14.126,0,0,1,8.461-40.247Z" transform="translate(-3.819 50.25)"/>
        </g>
        <g id="Group_975" data-name="Group 975" transform="translate(23.75 41.845)">
          <path id="Path_678" data-name="Path 678" d="M-.6-18.33h0l2.241-8.9a4.614,4.614,0,0,0,.14-1.02q0-.92-.62-.92-.82,0-1.34,1.9-.06.22-.12.48-.22.44-.34.46-.24,0-.24-.2a5.377,5.377,0,0,1,.36-1.34q.14-.36.26-.6a1.807,1.807,0,0,1,1.2-1.12,1.978,1.978,0,0,1,.28-.02,1.687,1.687,0,0,1,1.581.88v.02a1.7,1.7,0,0,1,.22.6,3.506,3.506,0,0,1,2.621-1.5,2.4,2.4,0,0,1,2.181,1.28,4.748,4.748,0,0,1,.48,1.921,6.156,6.156,0,0,1-1.521,4,4.517,4.517,0,0,1-3.021,1.841,1.978,1.978,0,0,1-.28.02,1.924,1.924,0,0,1-1.841-1.28Q.9-19.19.677-17.95a1,1,0,0,0-.02.12q0,.22.26.28h.02a4.758,4.758,0,0,0,.72.04q.44,0,.48.22,0,.4-.36.4l-1.961-.06H-.2l-1.641.06h-.04q-.26,0-.26-.24a.492.492,0,0,1,.46-.38q.74,0,.9-.26l.02-.02a1.32,1.32,0,0,0,.08-.22q.02-.1.08-.32m3.521-8.683h0l-.98,3.921a1.682,1.682,0,0,0-.06.32,2.029,2.029,0,0,0,.36,1.04,1.563,1.563,0,0,0,.56.58,1.381,1.381,0,0,0,.66.16,2.459,2.459,0,0,0,1.921-1.28,5,5,0,0,0,.46-.78,12.856,12.856,0,0,0,.9-3.081,7.114,7.114,0,0,0,.12-1.16q0-1.581-.96-1.841a1.315,1.315,0,0,0-.32-.04,2.531,2.531,0,0,0-1.621.76A2.936,2.936,0,0,0,2.918-27.013Z" transform="translate(2.144 29.614)"/>
        </g>
        <g id="Group_976" data-name="Group 976" transform="translate(34.913 38.164)">
          <path id="Path_679" data-name="Path 679" d="M5.2-37.42l-1.481,5.9a4.114,4.114,0,0,0-.12.96q0,.92.62.92,1.32,0,2.321-1.941l.28-.62q.12-.26.3-.28.24,0,.24.2a3.319,3.319,0,0,1-.52,1.14Q5.682-29.2,4.182-29.2a1.687,1.687,0,0,1-1.641-.96,1.941,1.941,0,0,1-.2-.88q0-.38,1.22-5.182l.3-1.2H2.1q-.5,0-.54-.16h-.02v-.08a.336.336,0,0,1,.32-.38H4.022l.78-3.181a.823.823,0,0,1,.8-.72.532.532,0,0,1,.58.54q0,.12-.82,3.361H7.123q.52,0,.56.22a.348.348,0,0,1-.32.4H5.2Z" transform="translate(-1.541 41.942)"/>
        </g>
        <g id="Group_977" data-name="Group 977" transform="translate(42.256 41.845)">
          <path id="Path_680" data-name="Path 680" d="M3.123-21.951h0l1.16-4.622a9.081,9.081,0,0,0,.32-1.681q0-.92-.62-.92-.82,0-1.34,1.9-.06.22-.12.48-.22.44-.34.46-.24,0-.24-.2a5.377,5.377,0,0,1,.36-1.34q.14-.36.26-.6a1.807,1.807,0,0,1,1.2-1.12,1.978,1.978,0,0,1,.28-.02,1.7,1.7,0,0,1,1.621.96,1.88,1.88,0,0,1,.18.48.223.223,0,0,1,.02.1,3.648,3.648,0,0,1,2.561-1.541,1.547,1.547,0,0,1,1.521.78,1.015,1.015,0,0,1,.14.52,1.086,1.086,0,0,1-.66,1.08,1.056,1.056,0,0,1-.44.1.665.665,0,0,1-.74-.54.658.658,0,0,1-.02-.16,1.038,1.038,0,0,1,.68-.98l.02-.02a2.532,2.532,0,0,1,.34-.1l-.4-.18q-.26-.04-.44-.06a2.413,2.413,0,0,0-1.6.66,4.689,4.689,0,0,0-1.06,1.481q-.04.1-.06.16l-.64,2.6-.8,3.161a.78.78,0,0,1-.74.56.653.653,0,0,1-.58-.54Q2.943-21.051,3.123-21.951Z" transform="translate(-1.943 29.614)"/>
        </g>
        <g id="Group_978" data-name="Group 978" transform="translate(53.24 35.683)">
          <path id="Path_681" data-name="Path 681" d="M11.275-30.443h0a.177.177,0,0,1-.2.2q-.24,0-1.06-.82A10.675,10.675,0,0,1,7.953-34a14.126,14.126,0,0,1-1.32-6.242,14.348,14.348,0,0,1,1.26-6.1,10.192,10.192,0,0,1,2.641-3.561,1.428,1.428,0,0,1,.54-.34.177.177,0,0,1,.2.2q0,.1-.26.34-3.221,3.281-3.221,9.463,0,6.162,3.141,9.363Q11.275-30.543,11.275-30.443Z" transform="translate(-6.633 50.25)"/>
        </g>
        <g id="Group_979" data-name="Group 979" transform="translate(60.042 37.363)">
          <path id="Path_682" data-name="Path 682" d="M11.333-34.779h0l-.56,3.481H3.35a1.1,1.1,0,0,1,.12-.64l.1-.1,3.841-4.281a6.9,6.9,0,0,0,2.1-4.422,3.351,3.351,0,0,0-1.08-2.7l-.02-.02h-.02A2.338,2.338,0,0,0,6.831-44a2.669,2.669,0,0,0-2.3,1.24,3.74,3.74,0,0,0-.4.8,1.035,1.035,0,0,1,.26-.02.96.96,0,0,1,1.02.72v.02a1.088,1.088,0,0,1,.04.3.966.966,0,0,1-.76,1.02,1.175,1.175,0,0,1-.28.04.948.948,0,0,1-.98-.62,1.458,1.458,0,0,1-.08-.5,3.484,3.484,0,0,1,1.18-2.641,3.638,3.638,0,0,1,2.561-.98,4.187,4.187,0,0,1,3.421,1.481,3.639,3.639,0,0,1,.8,2.041,3.259,3.259,0,0,1,.02.36,4.287,4.287,0,0,1-1.1,2.781,22.421,22.421,0,0,1-1.8,1.8l-1.22,1.08-.2.18L4.891-32.838h3.6a5.124,5.124,0,0,0,1.9-.16,5.959,5.959,0,0,0,.44-1.781Z" transform="translate(-3.35 44.622)"/>
        </g>
        <g id="Group_980" data-name="Group 980" transform="translate(70.186 35.683)">
          <path id="Path_683" data-name="Path 683" d="M8.461-40.247h0a14.348,14.348,0,0,1-1.26,6.1,10.192,10.192,0,0,1-2.641,3.561,1.428,1.428,0,0,1-.54.34.177.177,0,0,1-.2-.2q0-.1.26-.34Q7.3-34.064,7.3-40.247q0-6.1-3-9.243l-.1-.1q-.38-.36-.38-.46a.177.177,0,0,1,.2-.2q.24,0,1.06.82A10.675,10.675,0,0,1,7.14-46.489,14.126,14.126,0,0,1,8.461-40.247Z" transform="translate(-3.819 50.25)"/>
        </g>
        <g id="Group_981" data-name="Group 981" transform="translate(23.75 70.475)">
          <path id="Path_684" data-name="Path 684" d="M-.6-18.33h0l2.241-8.9a4.614,4.614,0,0,0,.14-1.02q0-.92-.62-.92-.82,0-1.34,1.9-.06.22-.12.48-.22.44-.34.46-.24,0-.24-.2a5.377,5.377,0,0,1,.36-1.34q.14-.36.26-.6a1.807,1.807,0,0,1,1.2-1.12,1.978,1.978,0,0,1,.28-.02,1.687,1.687,0,0,1,1.581.88v.02a1.7,1.7,0,0,1,.22.6,3.506,3.506,0,0,1,2.621-1.5,2.4,2.4,0,0,1,2.181,1.28,4.748,4.748,0,0,1,.48,1.921,6.156,6.156,0,0,1-1.521,4,4.517,4.517,0,0,1-3.021,1.841,1.978,1.978,0,0,1-.28.02,1.924,1.924,0,0,1-1.841-1.28Q.9-19.19.677-17.95a1,1,0,0,0-.02.12q0,.22.26.28h.02a4.758,4.758,0,0,0,.72.04q.44,0,.48.22,0,.4-.36.4l-1.961-.06H-.2l-1.641.06h-.04q-.26,0-.26-.24a.492.492,0,0,1,.46-.38q.74,0,.9-.26l.02-.02a1.32,1.32,0,0,0,.08-.22q.02-.1.08-.32m3.521-8.683h0l-.98,3.921a1.682,1.682,0,0,0-.06.32,2.029,2.029,0,0,0,.36,1.04,1.563,1.563,0,0,0,.56.58,1.381,1.381,0,0,0,.66.16,2.459,2.459,0,0,0,1.921-1.28,5,5,0,0,0,.46-.78,12.856,12.856,0,0,0,.9-3.081,7.114,7.114,0,0,0,.12-1.16q0-1.581-.96-1.841a1.315,1.315,0,0,0-.32-.04,2.531,2.531,0,0,0-1.621.76A2.936,2.936,0,0,0,2.918-27.013Z" transform="translate(2.144 29.614)"/>
        </g>
        <g id="Group_982" data-name="Group 982" transform="translate(34.913 66.793)">
          <path id="Path_685" data-name="Path 685" d="M5.2-37.42l-1.481,5.9a4.114,4.114,0,0,0-.12.96q0,.92.62.92,1.32,0,2.321-1.941l.28-.62q.12-.26.3-.28.24,0,.24.2a3.319,3.319,0,0,1-.52,1.14Q5.682-29.2,4.182-29.2a1.687,1.687,0,0,1-1.641-.96,1.941,1.941,0,0,1-.2-.88q0-.38,1.22-5.182l.3-1.2H2.1q-.5,0-.54-.16h-.02v-.08a.336.336,0,0,1,.32-.38H4.022l.78-3.181a.823.823,0,0,1,.8-.72.532.532,0,0,1,.58.54q0,.12-.82,3.361H7.123q.52,0,.56.22a.348.348,0,0,1-.32.4H5.2Z" transform="translate(-1.541 41.942)"/>
        </g>
        <g id="Group_983" data-name="Group 983" transform="translate(42.256 70.475)">
          <path id="Path_686" data-name="Path 686" d="M3.123-21.951h0l1.16-4.622a9.081,9.081,0,0,0,.32-1.681q0-.92-.62-.92-.82,0-1.34,1.9-.06.22-.12.48-.22.44-.34.46-.24,0-.24-.2a5.377,5.377,0,0,1,.36-1.34q.14-.36.26-.6a1.807,1.807,0,0,1,1.2-1.12,1.978,1.978,0,0,1,.28-.02,1.7,1.7,0,0,1,1.621.96,1.88,1.88,0,0,1,.18.48.223.223,0,0,1,.02.1,3.648,3.648,0,0,1,2.561-1.541,1.547,1.547,0,0,1,1.521.78,1.015,1.015,0,0,1,.14.52,1.086,1.086,0,0,1-.66,1.08,1.056,1.056,0,0,1-.44.1.665.665,0,0,1-.74-.54.658.658,0,0,1-.02-.16,1.038,1.038,0,0,1,.68-.98l.02-.02a2.532,2.532,0,0,1,.34-.1l-.4-.18q-.26-.04-.44-.06a2.413,2.413,0,0,0-1.6.66,4.689,4.689,0,0,0-1.06,1.481q-.04.1-.06.16l-.64,2.6-.8,3.161a.78.78,0,0,1-.74.56.653.653,0,0,1-.58-.54Q2.943-21.051,3.123-21.951Z" transform="translate(-1.943 29.614)"/>
        </g>
        <g id="Group_984" data-name="Group 984" transform="translate(53.24 64.312)">
          <path id="Path_687" data-name="Path 687" d="M11.275-30.443h0a.177.177,0,0,1-.2.2q-.24,0-1.06-.82A10.675,10.675,0,0,1,7.953-34a14.126,14.126,0,0,1-1.32-6.242,14.348,14.348,0,0,1,1.26-6.1,10.192,10.192,0,0,1,2.641-3.561,1.428,1.428,0,0,1,.54-.34.177.177,0,0,1,.2.2q0,.1-.26.34-3.221,3.281-3.221,9.463,0,6.162,3.141,9.363Q11.275-30.543,11.275-30.443Z" transform="translate(-6.633 50.25)"/>
        </g>
        <g id="Group_985" data-name="Group 985" transform="translate(59.882 65.993)">
          <path id="Path_688" data-name="Path 688" d="M7.776-38.34h0a4.013,4.013,0,0,1,2.881,1.961,3.216,3.216,0,0,1,.46,1.661,3.578,3.578,0,0,1-1.4,2.861,4.376,4.376,0,0,1-2.861,1,4.341,4.341,0,0,1-3.181-1.18A2.657,2.657,0,0,1,2.814-34a1.009,1.009,0,0,1,.84-1.12,1.016,1.016,0,0,1,.28-.04,1,1,0,0,1,1.02.64,2.377,2.377,0,0,1,.1.48A.992.992,0,0,1,4.335-33a1.286,1.286,0,0,1-.6.06A3.271,3.271,0,0,0,6.3-31.458a3.291,3.291,0,0,0,.5.04,1.974,1.974,0,0,0,1.881-1.26,4.764,4.764,0,0,0,.38-2.041q0-2.661-1.6-3.2a2.453,2.453,0,0,0-.78-.12H5.8q-.44,0-.48-.22,0-.2.3-.24a6.566,6.566,0,0,0,.78-.06A2.03,2.03,0,0,0,8-39.34v-.02l.02-.02.02-.02h.02l.12-.2a4.381,4.381,0,0,0,.56-2.281q0-1.861-1.44-2.181a1.973,1.973,0,0,0-.48-.06,3.26,3.26,0,0,0-2.281.8,2.371,2.371,0,0,0-.38.44q1.24,0,1.24,1a.933.933,0,0,1-.62.96,1.26,1.26,0,0,1-.4.06.913.913,0,0,1-.98-.7h0v-.02a1.315,1.315,0,0,1-.04-.32,2.419,2.419,0,0,1,1.32-2.141,4.21,4.21,0,0,1,2.221-.58,4.059,4.059,0,0,1,2.941,1.08l.04.04a2.291,2.291,0,0,1,.7,1.641,3.414,3.414,0,0,1-1.42,2.781A4.748,4.748,0,0,1,7.776-38.34Z" transform="translate(-2.814 44.622)"/>
        </g>
        <g id="Group_986" data-name="Group 986" transform="translate(70.186 64.312)">
          <path id="Path_689" data-name="Path 689" d="M8.461-40.247h0a14.348,14.348,0,0,1-1.26,6.1,10.192,10.192,0,0,1-2.641,3.561,1.428,1.428,0,0,1-.54.34.177.177,0,0,1-.2-.2q0-.1.26-.34Q7.3-34.064,7.3-40.247q0-6.1-3-9.243l-.1-.1q-.38-.36-.38-.46a.177.177,0,0,1,.2-.2q.24,0,1.06.82A10.675,10.675,0,0,1,7.14-46.489,14.126,14.126,0,0,1,8.461-40.247Z" transform="translate(-3.819 50.25)"/>
        </g>
        <g id="Group_987" data-name="Group 987" transform="translate(23.75 99.104)">
          <path id="Path_690" data-name="Path 690" d="M-.6-18.33h0l2.241-8.9a4.614,4.614,0,0,0,.14-1.02q0-.92-.62-.92-.82,0-1.34,1.9-.06.22-.12.48-.22.44-.34.46-.24,0-.24-.2a5.377,5.377,0,0,1,.36-1.34q.14-.36.26-.6a1.807,1.807,0,0,1,1.2-1.12,1.978,1.978,0,0,1,.28-.02,1.687,1.687,0,0,1,1.581.88v.02a1.7,1.7,0,0,1,.22.6,3.506,3.506,0,0,1,2.621-1.5,2.4,2.4,0,0,1,2.181,1.28,4.748,4.748,0,0,1,.48,1.921,6.156,6.156,0,0,1-1.521,4,4.517,4.517,0,0,1-3.021,1.841,1.978,1.978,0,0,1-.28.02,1.924,1.924,0,0,1-1.841-1.28Q.9-19.19.677-17.95a1,1,0,0,0-.02.12q0,.22.26.28h.02a4.758,4.758,0,0,0,.72.04q.44,0,.48.22,0,.4-.36.4l-1.961-.06H-.2l-1.641.06h-.04q-.26,0-.26-.24a.492.492,0,0,1,.46-.38q.74,0,.9-.26l.02-.02a1.32,1.32,0,0,0,.08-.22q.02-.1.08-.32m3.521-8.683h0l-.98,3.921a1.682,1.682,0,0,0-.06.32,2.029,2.029,0,0,0,.36,1.04,1.563,1.563,0,0,0,.56.58,1.381,1.381,0,0,0,.66.16,2.459,2.459,0,0,0,1.921-1.28,5,5,0,0,0,.46-.78,12.856,12.856,0,0,0,.9-3.081,7.114,7.114,0,0,0,.12-1.16q0-1.581-.96-1.841a1.315,1.315,0,0,0-.32-.04,2.531,2.531,0,0,0-1.621.76A2.936,2.936,0,0,0,2.918-27.013Z" transform="translate(2.144 29.614)"/>
        </g>
        <g id="Group_988" data-name="Group 988" transform="translate(34.913 95.423)">
          <path id="Path_691" data-name="Path 691" d="M5.2-37.42l-1.481,5.9a4.114,4.114,0,0,0-.12.96q0,.92.62.92,1.32,0,2.321-1.941l.28-.62q.12-.26.3-.28.24,0,.24.2a3.319,3.319,0,0,1-.52,1.14Q5.682-29.2,4.182-29.2a1.687,1.687,0,0,1-1.641-.96,1.941,1.941,0,0,1-.2-.88q0-.38,1.22-5.182l.3-1.2H2.1q-.5,0-.54-.16h-.02v-.08a.336.336,0,0,1,.32-.38H4.022l.78-3.181a.823.823,0,0,1,.8-.72.532.532,0,0,1,.58.54q0,.12-.82,3.361H7.123q.52,0,.56.22a.348.348,0,0,1-.32.4H5.2Z" transform="translate(-1.541 41.942)"/>
        </g>
        <g id="Group_989" data-name="Group 989" transform="translate(42.256 99.104)">
          <path id="Path_692" data-name="Path 692" d="M3.123-21.951h0l1.16-4.622a9.081,9.081,0,0,0,.32-1.681q0-.92-.62-.92-.82,0-1.34,1.9-.06.22-.12.48-.22.44-.34.46-.24,0-.24-.2a5.377,5.377,0,0,1,.36-1.34q.14-.36.26-.6a1.807,1.807,0,0,1,1.2-1.12,1.978,1.978,0,0,1,.28-.02,1.7,1.7,0,0,1,1.621.96,1.88,1.88,0,0,1,.18.48.223.223,0,0,1,.02.1,3.648,3.648,0,0,1,2.561-1.541,1.547,1.547,0,0,1,1.521.78,1.015,1.015,0,0,1,.14.52,1.086,1.086,0,0,1-.66,1.08,1.056,1.056,0,0,1-.44.1.665.665,0,0,1-.74-.54.658.658,0,0,1-.02-.16,1.038,1.038,0,0,1,.68-.98l.02-.02a2.532,2.532,0,0,1,.34-.1l-.4-.18q-.26-.04-.44-.06a2.413,2.413,0,0,0-1.6.66,4.689,4.689,0,0,0-1.06,1.481q-.04.1-.06.16l-.64,2.6-.8,3.161a.78.78,0,0,1-.74.56.653.653,0,0,1-.58-.54Q2.943-21.051,3.123-21.951Z" transform="translate(-1.943 29.614)"/>
        </g>
        <g id="Group_990" data-name="Group 990" transform="translate(53.24 92.942)">
          <path id="Path_693" data-name="Path 693" d="M11.275-30.443h0a.177.177,0,0,1-.2.2q-.24,0-1.06-.82A10.675,10.675,0,0,1,7.953-34a14.126,14.126,0,0,1-1.32-6.242,14.348,14.348,0,0,1,1.26-6.1,10.192,10.192,0,0,1,2.641-3.561,1.428,1.428,0,0,1,.54-.34.177.177,0,0,1,.2.2q0,.1-.26.34-3.221,3.281-3.221,9.463,0,6.162,3.141,9.363Q11.275-30.543,11.275-30.443Z" transform="translate(-6.633 50.25)"/>
        </g>
        <g id="Group_991" data-name="Group 991" transform="translate(59.602 94.403)">
          <path id="Path_694" data-name="Path 694" d="M1.876-35.115v-.62l6.142-9.383a.47.47,0,0,1,.4-.24q.28,0,.32.22v9.4h2v.62h-2v1.741q0,.62.24.76a2.828,2.828,0,0,0,1.28.18h.42v.62q-.82-.06-2.721-.06-1.881,0-2.7.06v-.62h.42q1.24,0,1.44-.34a1.428,1.428,0,0,0,.08-.6v-1.741H1.876m5.442-.62V-43.2L2.436-35.736Z" transform="translate(-1.876 45.359)"/>
        </g>
        <g id="Group_992" data-name="Group 992" transform="translate(70.186 92.942)">
          <path id="Path_695" data-name="Path 695" d="M8.461-40.247h0a14.348,14.348,0,0,1-1.26,6.1,10.192,10.192,0,0,1-2.641,3.561,1.428,1.428,0,0,1-.54.34.177.177,0,0,1-.2-.2q0-.1.26-.34Q7.3-34.064,7.3-40.247q0-6.1-3-9.243l-.1-.1q-.38-.36-.38-.46a.177.177,0,0,1,.2-.2q.24,0,1.06.82A10.675,10.675,0,0,1,7.14-46.489,14.126,14.126,0,0,1,8.461-40.247Z" transform="translate(-3.819 50.25)"/>
        </g>
      </g>
    </g>
  </g>
</svg>
