<svg id="Layer_1" data-name="Layer 1" xmlns="http://www.w3.org/2000/svg" viewBox="0 0 118.48 118.48"><defs><style>.cls-1{fill:none;stroke:#226bcf;stroke-miterlimit:10;}.cls-2{fill:#226bcf;}</style></defs><title>hgedu</title><rect class="cls-1" x="5.99" y="5.99" width="106.51" height="106.51" rx="9.5" ry="9.5"/><path class="cls-1" d="M23.8,62.82V89.9h14a4,4,0,0,1,0,8H19.81a4,4,0,0,1-4-4v-69a4,4,0,0,1,4-4H37.75a4,4,0,0,1,0,8h-14v26h14a4,4,0,0,1,4,4,4,4,0,0,1-4,4Z"/><path class="cls-1" d="M72.12,81.57a4.17,4.17,0,0,1-.08.8c.05.5.08,1,.08,1.52a14,14,0,1,1-8-12.63V63.63a4,4,0,1,1,8,0Z"/><path class="cls-2" d="M73,24.88V49a4,4,0,0,1-8,0V40.94H54.87V49a4,4,0,0,1-8,0V24.88a4,4,0,0,1,8,0V33H65V24.88a4,4,0,0,1,8,0Z"/><circle class="cls-1" cx="58.14" cy="83.88" r="5.99"/><path class="cls-1" d="M103.31,73.9V85.47a13.43,13.43,0,0,1-26.86,0V73.9a3.72,3.72,0,0,1,7.41-.44,3.14,3.14,0,0,1,0,.44V85.47a6,6,0,0,0,12,0V73.9a3.14,3.14,0,0,1,0-.44,3.71,3.71,0,0,1,7.4.44Z"/><path class="cls-2" d="M101.75,38.38V49c-.31.29-.63.57-1,.83A14.59,14.59,0,0,1,91.66,53c-8.4,0-15.21-7.19-15.21-16.06s6.81-16.06,15.21-16.06a14.66,14.66,0,0,1,9.26,3.32l0,0a3.37,3.37,0,0,1-4,5.38,3.64,3.64,0,0,1-.31-.24,8.39,8.39,0,0,0-4.94-1.62A9,9,0,0,0,83,36.95a9,9,0,0,0,8.71,9.2,8.21,8.21,0,0,0,3.78-.92v-3.3H92.66a3.55,3.55,0,0,1-3.54-3.54h0a3.55,3.55,0,0,1,3.54-3.54h5.55a3.53,3.53,0,0,1,3.54,3.54Z"/></svg>