<svg xmlns="http://www.w3.org/2000/svg" width="120" height="120" viewBox="0 0 120 120">
  <g id="_12approx" data-name="12approx" transform="translate(-10.741 7.82)">
    <path id="Path_71" data-name="Path 71" d="M0,0H120V120H0Z" transform="translate(10.741 -7.82)" fill="none"/>
    <g id="Group_968" data-name="Group 968" transform="translate(-110.518 -52.64)">
      <g id="Group_902" data-name="Group 902">
        <g id="Group_901" data-name="Group 901" transform="translate(155 123.361)">
          <path id="Path_612" data-name="Path 612" d="M48.307-30.284a10.276,10.276,0,0,1-4.422,8.777,11.1,11.1,0,0,1-6.7,2.144q-4.221,0-9.916-3.752-.268-.134-.8-.469-5.7-3.752-8.308-4.556a11.666,11.666,0,0,0-3.283-.469A9.765,9.765,0,0,0,7.973-26a2.2,2.2,0,0,1-.335.268,7.1,7.1,0,0,0-2.01,4.757q0,1.273-.938,1.541-.938,0-.938-2.01a10.276,10.276,0,0,1,4.422-8.777,11.1,11.1,0,0,1,6.7-2.144q4.221,0,9.916,3.752.268.134.8.469,5.7,3.752,8.308,4.556a11.666,11.666,0,0,0,3.283.469,9.56,9.56,0,0,0,7.236-2.948,6.749,6.749,0,0,0,2.01-4.422q.2-1.809.938-1.809.938,0,.938,2.01m0,15.678A10.177,10.177,0,0,1,44.086-6.1a10.758,10.758,0,0,1-6.9,2.345q-4.221,0-9.916-3.752-.268-.134-.8-.469-5.7-3.752-8.308-4.556A11.666,11.666,0,0,0,14.874-13a9.765,9.765,0,0,0-6.9,2.613A7.307,7.307,0,0,0,5.628-5.36q0,1.273-.938,1.541-.938,0-.938-2.01a10.276,10.276,0,0,1,4.422-8.777,11.1,11.1,0,0,1,6.7-2.144q4.221,0,9.916,3.752.268.134.8.469,5.7,3.752,8.308,4.556a11.666,11.666,0,0,0,3.283.469,9.475,9.475,0,0,0,7.5-3.216,6.651,6.651,0,0,0,1.742-3.819q.134-2.144.938-2.144Q48.307-16.683,48.307-14.606Z"/>
        </g>
      </g>
    </g>
  </g>
</svg>
