<svg version="1.1" xmlns="http://www.w3.org/2000/svg" xmlns:xlink="http://www.w3.org/1999/xlink" width="87" height="104"><defs><clipPath id="gbQpxVIaguyd"><path fill="none" stroke="none" d=" M 0 0 L 87 0 L 87 104 L 0 104 L 0 0 Z"/></clipPath></defs><g transform="scale(1,1)" clip-path="url(#gbQpxVIaguyd)"><g transform="translate(-136,-56)"><g transform="scale(67,67)"><g transform="translate(2.3134328358208953,1.8412089552238804)"><path fill="rgb(0,0,0)" stroke="none" paint-order="stroke fill markers" d=" M 0.721 -0.452 Q 0.721 -0.369 0.655 -0.321 Q 0.611 -0.289 0.555 -0.289 Q 0.492 -0.289 0.40700000000000003 -0.34500000000000003 Q 0.403 -0.34700000000000003 0.395 -0.352 Q 0.31 -0.40800000000000003 0.271 -0.42 Q 0.247 -0.427 0.222 -0.427 Q 0.161 -0.427 0.11900000000000001 -0.388 Q 0.117 -0.386 0.114 -0.384 Q 0.08600000000000001 -0.355 0.084 -0.313 Q 0.084 -0.294 0.07 -0.29 Q 0.056 -0.29 0.056 -0.32 Q 0.056 -0.403 0.122 -0.451 Q 0.166 -0.483 0.222 -0.483 Q 0.28500000000000003 -0.483 0.37 -0.427 Q 0.374 -0.425 0.382 -0.42 Q 0.467 -0.364 0.506 -0.352 Q 0.53 -0.34500000000000003 0.555 -0.34500000000000003 Q 0.621 -0.34500000000000003 0.663 -0.389 Q 0.6910000000000001 -0.418 0.6930000000000001 -0.455 Q 0.6960000000000001 -0.482 0.707 -0.482 Q 0.721 -0.482 0.721 -0.452 M 0.721 -0.218 Q 0.721 -0.139 0.658 -0.091 Q 0.614 -0.056 0.555 -0.056 Q 0.492 -0.056 0.40700000000000003 -0.112 Q 0.403 -0.114 0.395 -0.11900000000000001 Q 0.31 -0.17500000000000002 0.271 -0.187 Q 0.247 -0.194 0.222 -0.194 Q 0.161 -0.194 0.11900000000000001 -0.155 Q 0.08700000000000001 -0.125 0.084 -0.08 Q 0.084 -0.061 0.07 -0.057 Q 0.056 -0.057 0.056 -0.08700000000000001 Q 0.056 -0.17 0.122 -0.218 Q 0.166 -0.25 0.222 -0.25 Q 0.28500000000000003 -0.25 0.37 -0.194 Q 0.374 -0.192 0.382 -0.187 Q 0.467 -0.131 0.506 -0.11900000000000001 Q 0.53 -0.112 0.555 -0.112 Q 0.625 -0.112 0.667 -0.16 Q 0.6900000000000001 -0.186 0.6930000000000001 -0.217 Q 0.6950000000000001 -0.249 0.707 -0.249 Q 0.721 -0.249 0.721 -0.218 Z"/></g></g></g></g></svg>