<svg xmlns="http://www.w3.org/2000/svg" width="120" height="120" viewBox="0 0 120 120">
  <g id="_13eqa" data-name="13eqa" transform="translate(-10.741 7.82)">
    <path id="Path_71" data-name="Path 71" d="M0,0H120V120H0Z" transform="translate(10.741 -7.82)" fill="none"/>
    <g id="Group_968" data-name="Group 968" transform="translate(-110.518 -63.64)">
      <g id="Group_906" data-name="Group 906">
        <g id="Group_904" data-name="Group 904" transform="translate(168.658 99.214)">
          <path id="Path_614" data-name="Path 614" d="M17.494-17.728a2.155,2.155,0,0,1,1.454-1.97,1.377,1.377,0,0,1,.516-.094,1.246,1.246,0,0,1,1.36,1.266,10.418,10.418,0,0,1-.328,1.595l-1.688,6.566q-.7,2.955-1.032,4.221a16.658,16.658,0,0,0-.61,3.471q0,2.157,1.407,2.157,1.782,0,3-3.752.235-.8.563-2.064.375-.8.657-.844.563,0,.563.469a14.983,14.983,0,0,1-.844,3.283,12.028,12.028,0,0,1-.563,1.36Q20.636.516,18.479.516a3.975,3.975,0,0,1-3.8-2.251A4.082,4.082,0,0,1,14.211-3Q11.256.516,8.114.516A5.53,5.53,0,0,1,2.908-2.673,8.807,8.807,0,0,1,1.876-6.988a14.542,14.542,0,0,1,3.517-9.38q3.283-3.94,7.129-4.315a4.637,4.637,0,0,1,.657-.047,4.626,4.626,0,0,1,4.315,3M14.445-5.581h0l2.345-9.192q.141-.7.141-.8a4.9,4.9,0,0,0-.844-2.392A3.185,3.185,0,0,0,13.226-19.7q-2.439,0-4.643,3.189a13.3,13.3,0,0,0-.8,1.313,30.4,30.4,0,0,0-2.3,7.739,15.416,15.416,0,0,0-.281,2.533q0,3.189,1.782,4.127a2.509,2.509,0,0,0,1.219.281q2.626,0,5.3-3.33A4.137,4.137,0,0,0,14.4-5.393V-5.44A.36.36,0,0,0,14.445-5.581Z"/>
        </g>
        <g id="Group_905" data-name="Group 905" transform="translate(155 133.108)">
          <path id="Path_615" data-name="Path 615" d="M46.029-21.909h-40q-2.144,0-2.278-1.34,0-1.34,2.211-1.34H46.1q2.144,0,2.211,1.34,0,1.34-2.278,1.34m.067,13H5.963q-2.144,0-2.211-1.34,0-1.34,2.278-1.34h40q2.144,0,2.278,1.34Q48.307-8.911,46.1-8.911Z"/>
        </g>
      </g>
    </g>
  </g>
</svg>
