<svg xmlns="http://www.w3.org/2000/svg" width="120" height="120" viewBox="0 0 120 120">
  <g id="_14ne" data-name="14ne" transform="translate(-10.741 7.82)">
    <path id="Path_71" data-name="Path 71" d="M0,0H120V120H0Z" transform="translate(10.741 -7.82)" fill="none"/>
    <g id="Group_969" data-name="Group 969" transform="translate(-110.518 -54.64)">
      <g id="Group_910" data-name="Group 910">
        <g id="Group_908" data-name="Group 908" transform="translate(155 123.498)">
          <path id="Path_617" data-name="Path 617" d="M42.277-45.426,12.127,13.266q-.6,1.206-1.474,1.206-1.072,0-1.34-1.34a3.933,3.933,0,0,1,.469-1.206l30.15-58.692q.6-1.206,1.474-1.206,1.072,0,1.34,1.34A3.933,3.933,0,0,1,42.277-45.426Z"/>
        </g>
        <g id="Group_909" data-name="Group 909" transform="translate(155 123.498)">
          <path id="Path_618" data-name="Path 618" d="M46.029-21.909h-40q-2.144,0-2.278-1.34,0-1.34,2.211-1.34H46.1q2.144,0,2.211,1.34,0,1.34-2.278,1.34m.067,13H5.963q-2.144,0-2.211-1.34,0-1.34,2.278-1.34h40q2.144,0,2.278,1.34Q48.307-8.911,46.1-8.911Z"/>
        </g>
      </g>
    </g>
  </g>
</svg>
