<svg xmlns="http://www.w3.org/2000/svg" width="120" height="120" viewBox="0 0 120 120">
  <g id="_15equiv" data-name="15equiv" transform="translate(-10.741 7.82)">
    <path id="Path_71" data-name="Path 71" d="M0,0H120V120H0Z" transform="translate(10.741 -7.82)" fill="none"/>
    <g id="Group_970" data-name="Group 970" transform="translate(-110.518 -54.64)">
      <g id="Group_913" data-name="Group 913">
        <g id="Group_912" data-name="Group 912" transform="translate(155 123.088)">
          <path id="Path_620" data-name="Path 620" d="M46.029-28.408h-40q-2.144,0-2.278-1.34,0-1.34,2.211-1.34H46.1q2.144,0,2.211,1.34,0,1.34-2.278,1.34m.067,26H5.963q-2.144,0-2.211-1.34,0-1.34,2.278-1.34h40q2.144,0,2.278,1.34,0,1.34-2.211,1.34m0-13H5.963q-2.144,0-2.211-1.34,0-1.34,2.211-1.34H46.1q2.144,0,2.211,1.34Q48.307-15.41,46.1-15.41Z"/>
        </g>
      </g>
    </g>
  </g>
</svg>
