<svg xmlns="http://www.w3.org/2000/svg" width="120" height="120" viewBox="0 0 120 120">
  <g id="_16ge" data-name="16ge" transform="translate(-10.741 7.82)">
    <path id="Path_71" data-name="Path 71" d="M0,0H120V120H0Z" transform="translate(10.741 -7.82)" fill="none"/>
    <g id="Group_971" data-name="Group 971" transform="translate(-107.197 -49.44)">
      <g id="Group_916" data-name="Group 916" transform="translate(160.561 80)">
        <g id="Group_915" data-name="Group 915" transform="translate(0)">
          <path id="Path_622" data-name="Path 622" d="M38.791-25.155,7.638-10.448a2.235,2.235,0,0,1-.954.337.968.968,0,0,1-1.067-.842.923.923,0,0,1-.056-.281q0-.73,1.01-1.179L36.1-26.39,6.628-40.311a2.787,2.787,0,0,1-1.067-1.179A.968.968,0,0,1,6.4-42.556a.923.923,0,0,1,.281-.056,2.724,2.724,0,0,1,1.01.393l31.1,14.651a1.776,1.776,0,0,1,1.067,1.235q0,.73-1.067,1.179M38.005.778H7.413q-1.8,0-1.852-1.123,0-1.123,1.908-1.123h30.48q1.8,0,1.909,1.123Q39.858.778,38.005.778Z" transform="translate(-5.561 42.612)"/>
        </g>
      </g>
    </g>
  </g>
</svg>
