<svg version="1.1" xmlns="http://www.w3.org/2000/svg" xmlns:xlink="http://www.w3.org/1999/xlink" width="87" height="104"><defs><clipPath id="ifbNrARipKKI"><path fill="none" stroke="none" d=" M 0 0 L 87 0 L 87 104 L 0 104 L 0 0 Z"/></clipPath></defs><g transform="scale(1,1)" clip-path="url(#ifbNrARipKKI)"><g transform="translate(-136,-56)"><g transform="scale(67,67)"><g transform="translate(2.3134328358208953,1.8300298507462687)"><path fill="rgb(0,0,0)" stroke="none" paint-order="stroke fill markers" d=" M 0.675 -0.325 L 0.12 -0.063 Q 0.109 -0.057 0.10300000000000001 -0.057 Q 0.08700000000000001 -0.057 0.084 -0.07200000000000001 Q 0.083 -0.075 0.083 -0.077 Q 0.083 -0.09 0.101 -0.098 L 0.627 -0.34700000000000003 L 0.10200000000000001 -0.595 Q 0.085 -0.608 0.083 -0.616 Q 0.083 -0.632 0.098 -0.635 Q 0.101 -0.636 0.10300000000000001 -0.636 Q 0.108 -0.636 0.121 -0.629 L 0.675 -0.368 Q 0.6920000000000001 -0.359 0.6940000000000001 -0.34600000000000003 Q 0.6940000000000001 -0.333 0.675 -0.325 M 0.661 0.137 L 0.116 0.137 Q 0.084 0.137 0.083 0.117 Q 0.083 0.097 0.117 0.097 L 0.66 0.097 Q 0.6920000000000001 0.097 0.6940000000000001 0.117 Q 0.6940000000000001 0.137 0.661 0.137 Z"/></g></g></g></g></svg>