<svg id="_17le" data-name="17le" xmlns="http://www.w3.org/2000/svg" width="120" height="120" viewBox="0 0 120 120">
  <path id="Path_71" data-name="Path 71" d="M120,0H0V120H120Z" fill="none"/>
  <g id="Group_971" data-name="Group 971" transform="translate(43.081 38.38)">
    <g id="Group_916" data-name="Group 916" transform="translate(0)">
      <g id="Group_915" data-name="Group 915">
        <path id="Path_622" data-name="Path 622" d="M6.628-25.155,37.781-10.448a2.235,2.235,0,0,0,.954.337.968.968,0,0,0,1.067-.842.923.923,0,0,0,.056-.281q0-.73-1.01-1.179L9.322-26.39,38.791-40.311a2.787,2.787,0,0,0,1.067-1.179.968.968,0,0,0-.842-1.067.923.923,0,0,0-.281-.056,2.724,2.724,0,0,0-1.01.393L6.628-27.569a1.776,1.776,0,0,0-1.067,1.235q0,.73,1.067,1.179M7.413.778H38.005q1.8,0,1.852-1.123,0-1.123-1.908-1.123H7.469q-1.8,0-1.909,1.123Q5.561.778,7.413.778Z" transform="translate(-5.561 42.612)"/>
      </g>
    </g>
  </g>
</svg>
