<svg id="_18pm" data-name="18pm" xmlns="http://www.w3.org/2000/svg" width="120" height="120" viewBox="0 0 120 120">
  <path id="Path_71" data-name="Path 71" d="M120,0H0V120H120Z" fill="none"/>
  <g id="Group_972" data-name="Group 972" transform="translate(-115.258 -35.134)">
    <g id="Group_922" data-name="Group 922" transform="translate(158.752 78.439)">
      <g id="Group_921" data-name="Group 921" transform="translate(0)">
        <path id="Path_626" data-name="Path 626" d="M21.739-26.635v13.911H35.955q1.631,0,1.682,1.019,0,1.019-1.682,1.019H5.434q-1.631,0-1.682-1.019,0-1.019,1.682-1.019H19.7V-26.635H5.434q-1.631,0-1.682-1.019,0-1.019,1.682-1.019H19.7V-42.991q0-1.529,1.019-1.631,1.019,0,1.019,1.834v14.114H35.955q1.631,0,1.682,1.019,0,1.019-1.682,1.019Z" transform="translate(-3.752 44.622)"/>
      </g>
    </g>
  </g>
</svg>
