<svg version="1.1" xmlns="http://www.w3.org/2000/svg" xmlns:xlink="http://www.w3.org/1999/xlink" width="87" height="104"><defs><clipPath id="orHBOmfnfvyT"><path fill="none" stroke="none" d=" M 0 0 L 87 0 L 87 104 L 0 104 L 0 0 Z"/></clipPath></defs><g transform="scale(1,1)" clip-path="url(#orHBOmfnfvyT)"><g transform="translate(-136,-56)"><g transform="scale(67,67)"><g transform="translate(2.3134328358208953,1.8367313432835821)"><path fill="rgb(0,0,0)" stroke="none" paint-order="stroke fill markers" d=" M 0.40900000000000003 -0.313 L 0.40900000000000003 -0.04 L 0.6880000000000001 -0.04 Q 0.72 -0.04 0.721 -0.02 Q 0.721 0 0.6880000000000001 0 L 0.089 0 Q 0.057 0 0.056 -0.02 Q 0.056 -0.04 0.089 -0.04 L 0.369 -0.04 L 0.369 -0.313 L 0.089 -0.313 Q 0.057 -0.313 0.056 -0.333 Q 0.056 -0.353 0.089 -0.353 L 0.369 -0.353 L 0.369 -0.634 Q 0.369 -0.664 0.389 -0.666 Q 0.40900000000000003 -0.666 0.40900000000000003 -0.63 L 0.40900000000000003 -0.353 L 0.6880000000000001 -0.353 Q 0.72 -0.353 0.721 -0.333 Q 0.721 -0.313 0.6880000000000001 -0.313 L 0.40900000000000003 -0.313 Z"/></g></g></g></g></svg>