<svg xmlns="http://www.w3.org/2000/svg" width="120" height="120" viewBox="0 0 120 120">
  <g id="_21in" data-name="21in" transform="translate(-10.741 7.82)">
    <path id="Path_71" data-name="Path 71" d="M0,0H120V120H0Z" transform="translate(10.741 -7.82)" fill="none"/>
    <g id="Group_973" data-name="Group 973" transform="translate(-106.518 -54.64)">
      <g id="Group_925" data-name="Group 925">
        <g id="Group_924" data-name="Group 924" transform="translate(155 123.113)">
          <path id="Path_628" data-name="Path 628" d="M36.85-15.41H8.308A15.784,15.784,0,0,0,15.142-3.484,18.21,18.21,0,0,0,26.2,0H36.85q2.144,0,2.211,1.34,0,1.34-2.211,1.34H26A20.23,20.23,0,0,1,11.591-2.948a18.285,18.285,0,0,1-6.03-13.8,18.194,18.194,0,0,1,6.432-14.2A20.482,20.482,0,0,1,25.929-36.18H36.85q2.144,0,2.211,1.34,0,1.34-2.211,1.34H26.13a17.726,17.726,0,0,0-13.065,5.226A16.008,16.008,0,0,0,8.308-18.09H36.85q2.144,0,2.211,1.34Q39.061-15.41,36.85-15.41Z"/>
        </g>
      </g>
    </g>
  </g>
</svg>
