<svg xmlns="http://www.w3.org/2000/svg" width="120" height="120" viewBox="0 0 120 120">
  <g id="_22notin" data-name="22notin" transform="translate(0.001 0)">
    <path id="Path_71" data-name="Path 71" d="M0,0H120V120H0Z" transform="translate(-0.001 0)" fill="none"/>
    <g id="Group_974" data-name="Group 974" transform="translate(-117.258 -46.82)">
      <g id="Group_929" data-name="Group 929">
        <g id="Group_927" data-name="Group 927" transform="translate(155 123.498)">
          <path id="Path_630" data-name="Path 630" d="M42.277-45.426,12.127,13.266q-.6,1.206-1.474,1.206-1.072,0-1.34-1.34a3.933,3.933,0,0,1,.469-1.206l30.15-58.692q.6-1.206,1.474-1.206,1.072,0,1.34,1.34A3.933,3.933,0,0,1,42.277-45.426Z"/>
        </g>
        <g id="Group_928" data-name="Group 928" transform="translate(155 123.498)">
          <path id="Path_631" data-name="Path 631" d="M36.85-15.41H8.308A15.784,15.784,0,0,0,15.142-3.484,18.21,18.21,0,0,0,26.2,0H36.85q2.144,0,2.211,1.34,0,1.34-2.211,1.34H26A20.23,20.23,0,0,1,11.591-2.948a18.285,18.285,0,0,1-6.03-13.8,18.194,18.194,0,0,1,6.432-14.2A20.482,20.482,0,0,1,25.929-36.18H36.85q2.144,0,2.211,1.34,0,1.34-2.211,1.34H26.13a17.726,17.726,0,0,0-13.065,5.226A16.008,16.008,0,0,0,8.308-18.09H36.85q2.144,0,2.211,1.34Q39.061-15.41,36.85-15.41Z"/>
        </g>
      </g>
    </g>
  </g>
</svg>
