<svg id="_23ni" data-name="23ni" xmlns="http://www.w3.org/2000/svg" width="120" height="120" viewBox="0 0 120 120">
  <path id="Path_71" data-name="Path 71" d="M120,0H0V120H120Z" fill="none"/>
  <g id="Group_973" data-name="Group 973" transform="translate(43.198 40.113)">
    <g id="Group_925" data-name="Group 925">
      <g id="Group_924" data-name="Group 924" transform="translate(0)">
        <path id="Path_628" data-name="Path 628" d="M7.772-15.41H36.314A15.784,15.784,0,0,1,29.48-3.484,18.21,18.21,0,0,1,18.425,0H7.772Q5.628,0,5.561,1.34q0,1.34,2.211,1.34H18.626A20.23,20.23,0,0,0,33.031-2.948a18.285,18.285,0,0,0,6.03-13.8,18.194,18.194,0,0,0-6.432-14.2A20.482,20.482,0,0,0,18.693-36.18H7.772q-2.144,0-2.211,1.34,0,1.34,2.211,1.34h10.72a17.726,17.726,0,0,1,13.065,5.226A16.008,16.008,0,0,1,36.314-18.09H7.772q-2.144,0-2.211,1.34Q5.561-15.41,7.772-15.41Z" transform="translate(-5.561 36.18)"/>
      </g>
    </g>
  </g>
</svg>
