<svg version="1.1" xmlns="http://www.w3.org/2000/svg" xmlns:xlink="http://www.w3.org/1999/xlink" width="72" height="104"><defs><clipPath id="OXEXArOtJJuV"><path fill="none" stroke="none" d=" M 0 0 L 72 0 L 72 104 L 0 104 L 0 0 Z"/></clipPath></defs><g transform="scale(1,1)" clip-path="url(#OXEXArOtJJuV)"><g transform="translate(-136,-56)"><g transform="scale(67,67)"><g transform="translate(2.3134328358208953,1.9328059701492537)"><path fill="rgb(0,0,0)" stroke="none" paint-order="stroke fill markers" d=" M 0.499 -0.661 L 0.499 -0.033 Q 0.499 -0.006 0.487 -0.002 L 0.487 -0.002 Q 0.481 0 0.466 0 L 0.089 0 Q 0.057 0 0.056 -0.02 Q 0.056 -0.04 0.089 -0.04 L 0.459 -0.04 L 0.459 -0.327 L 0.10300000000000001 -0.327 Q 0.07100000000000001 -0.327 0.07 -0.34700000000000003 Q 0.07 -0.367 0.10300000000000001 -0.367 L 0.459 -0.367 L 0.459 -0.654 L 0.089 -0.654 Q 0.057 -0.654 0.056 -0.674 Q 0.056 -0.6940000000000001 0.089 -0.6940000000000001 L 0.466 -0.6940000000000001 Q 0.493 -0.6940000000000001 0.497 -0.682 Q 0.499 -0.676 0.499 -0.661 Z"/></g></g></g></g></svg>