<svg xmlns="http://www.w3.org/2000/svg" width="120" height="120" viewBox="0 0 120 120">
  <g id="_25exist" data-name="25exist" transform="translate(0.001 0)">
    <path id="Path_71" data-name="Path 71" d="M0,0H120V120H0Z" transform="translate(-0.001 0)" fill="none"/>
    <g id="Group_973" data-name="Group 973" transform="translate(-113.258 -46.82)">
      <g id="Group_932" data-name="Group 932">
        <g id="Group_931" data-name="Group 931" transform="translate(155 129.498)">
          <path id="Path_633" data-name="Path 633" d="M33.433-44.287V-2.211q0,1.809-.8,2.077h0A5.041,5.041,0,0,1,31.222,0H5.963Q3.819,0,3.752-1.34q0-1.34,2.211-1.34h24.79V-21.909H6.9q-2.144,0-2.211-1.34,0-1.34,2.211-1.34H30.753V-43.818H5.963q-2.144,0-2.211-1.34,0-1.34,2.211-1.34H31.222q1.809,0,2.077.8A5.041,5.041,0,0,1,33.433-44.287Z"/>
        </g>
      </g>
    </g>
  </g>
</svg>
