<svg version="1.1" xmlns="http://www.w3.org/2000/svg" xmlns:xlink="http://www.w3.org/1999/xlink" width="72" height="104"><defs><clipPath id="dfkTeITUSdbd"><path fill="none" stroke="none" d=" M 0 0 L 72 0 L 72 104 L 0 104 L 0 0 Z"/></clipPath></defs><g transform="scale(1,1)" clip-path="url(#dfkTeITUSdbd)"><g transform="translate(-136,-56)"><g transform="scale(67,67)"><g transform="translate(2.3134328358208953,1.9278059701492536)"><path fill="rgb(0,0,0)" stroke="none" paint-order="stroke fill markers" d=" M 0.404 -0.8190000000000001 L 0.376 -0.6940000000000001 L 0.464 -0.6940000000000001 Q 0.492 -0.6940000000000001 0.496 -0.684 Q 0.499 -0.677 0.499 -0.659 L 0.499 -0.035 Q 0.499 -0.007 0.489 -0.003 L 0.488 -0.002 Q 0.482 0 0.464 0 L 0.22 0 Q 0.21 0.047 0.188 0.14200000000000002 Q 0.183 0.166 0.167 0.166 Q 0.149 0.166 0.147 0.146 L 0.162 0.074 L 0.179 0 L 0.091 0 Q 0.06 0 0.057 -0.014 Q 0.056 -0.017 0.056 -0.02 Q 0.062 -0.04 0.091 -0.04 L 0.188 -0.04 L 0.252 -0.327 L 0.105 -0.327 Q 0.074 -0.327 0.07100000000000001 -0.341 Q 0.07 -0.34400000000000003 0.07 -0.34700000000000003 Q 0.076 -0.367 0.105 -0.367 L 0.261 -0.367 L 0.326 -0.654 L 0.091 -0.654 Q 0.06 -0.654 0.057 -0.668 Q 0.056 -0.671 0.056 -0.674 Q 0.062 -0.6940000000000001 0.091 -0.6940000000000001 L 0.335 -0.6940000000000001 L 0.366 -0.834 Q 0.371 -0.86 0.388 -0.86 Q 0.406 -0.86 0.40800000000000003 -0.84 Q 0.40800000000000003 -0.838 0.404 -0.8190000000000001 M 0.303 -0.367 L 0.459 -0.367 L 0.459 -0.654 L 0.367 -0.654 L 0.303 -0.367 M 0.229 -0.04 L 0.459 -0.04 L 0.459 -0.327 L 0.294 -0.327 L 0.229 -0.04 Z"/></g></g></g></g></svg>