<svg xmlns="http://www.w3.org/2000/svg" width="120" height="120" viewBox="0 0 120 120">
  <g id="_26nexists" data-name="26nexists" transform="translate(0.001 0)">
    <path id="Path_71" data-name="Path 71" d="M0,0H120V120H0Z" transform="translate(-0.001 0)" fill="none"/>
    <g id="Group_974" data-name="Group 974" transform="translate(-113.258 -45.82)">
      <g id="Group_935" data-name="Group 935">
        <g id="Group_934" data-name="Group 934" transform="translate(155 129.163)">
          <path id="Path_635" data-name="Path 635" d="M27.068-54.873,25.192-46.5h5.9q1.876,0,2.144.67a4.773,4.773,0,0,1,.2,1.675V-2.345q0,1.876-.67,2.144L32.7-.134A6.138,6.138,0,0,1,31.088,0H14.74Q14.07,3.149,12.6,9.514q-.335,1.608-1.407,1.608-1.206,0-1.34-1.34l1.005-4.824L11.993,0H6.1Q4.02,0,3.819-.938a1.265,1.265,0,0,1-.067-.4q.4-1.34,2.345-1.34h6.5l4.288-19.229H7.035q-2.077,0-2.278-.938a1.265,1.265,0,0,1-.067-.4q.4-1.34,2.345-1.34H17.487l4.355-19.229H6.1q-2.077,0-2.278-.938a1.265,1.265,0,0,1-.067-.4q.4-1.34,2.345-1.34H22.445l2.077-9.38Q24.857-57.62,26-57.62q1.206,0,1.34,1.34,0,.134-.268,1.407M20.3-24.589H30.753V-43.818H24.589L20.3-24.589M15.343-2.68h15.41V-21.909H19.7Z"/>
        </g>
      </g>
    </g>
  </g>
</svg>
