<svg version="1.1" xmlns="http://www.w3.org/2000/svg" xmlns:xlink="http://www.w3.org/1999/xlink" width="79" height="104"><defs><clipPath id="mNzDOZZSqUnZ"><path fill="none" stroke="none" d=" M 0 0 L 79 0 L 79 104 L 0 104 L 0 0 Z"/></clipPath></defs><g transform="scale(1,1)" clip-path="url(#mNzDOZZSqUnZ)"><g transform="translate(-136,-56)"><g transform="scale(67,67)"><g transform="translate(2.3134328358208953,1.8694328358208956)"><path fill="rgb(0,0,0)" stroke="none" paint-order="stroke fill markers" d=" M 0.61 -0.381 L 0.61 -0.011 Q 0.61 0.021 0.59 0.022 Q 0.5700000000000001 0.022 0.5700000000000001 -0.011 L 0.5700000000000001 -0.378 Q 0.5700000000000001 -0.486 0.456 -0.534 Q 0.399 -0.558 0.333 -0.558 Q 0.231 -0.558 0.162 -0.507 Q 0.096 -0.458 0.096 -0.378 L 0.096 -0.011 Q 0.096 0.021 0.076 0.022 Q 0.056 0.022 0.056 -0.011 L 0.056 -0.381 Q 0.056 -0.495 0.165 -0.556 Q 0.24 -0.598 0.333 -0.598 Q 0.453 -0.598 0.533 -0.535 Q 0.61 -0.47500000000000003 0.61 -0.381 Z"/></g></g></g></g></svg>