<svg id="_28cup" data-name="28cup" xmlns="http://www.w3.org/2000/svg" width="120" height="120" viewBox="0 0 120 120">
  <path id="Path_71" data-name="Path 71" d="M0,120H120V0H0Z" fill="none"/>
  <g id="Group_973" data-name="Group 973" transform="translate(45.875 43.998)">
    <g id="Group_938" data-name="Group 938" transform="translate(0 0)">
      <g id="Group_937" data-name="Group 937" transform="translate(0 0)">
        <path id="Path_637" data-name="Path 637" d="M32.106-19.44V-38.377q0-1.638-1.024-1.689-1.024,0-1.024,1.689v18.783q0,5.527-5.835,7.984a16.055,16.055,0,0,1-6.3,1.228,14.318,14.318,0,0,1-8.752-2.61,7.839,7.839,0,0,1-3.378-6.6V-38.377q0-1.638-1.024-1.689-1.024,0-1.024,1.689V-19.44q0,5.835,5.579,8.957a17.292,17.292,0,0,0,8.6,2.15,16.035,16.035,0,0,0,10.236-3.224A9.56,9.56,0,0,0,32.106-19.44Z" transform="translate(-3.752 40.066)"/>
      </g>
    </g>
  </g>
</svg>
