<svg version="1.1" xmlns="http://www.w3.org/2000/svg" xmlns:xlink="http://www.w3.org/1999/xlink" width="79" height="104"><defs><clipPath id="lMkMORkILWKJ"><path fill="none" stroke="none" d=" M 0 0 L 79 0 L 79 104 L 0 104 L 0 0 Z"/></clipPath></defs><g transform="scale(1,1)" clip-path="url(#lMkMORkILWKJ)"><g transform="translate(-136,-56)"><g transform="scale(67,67)"><g transform="translate(2.3134328358208953,1.8694328358208956)"><path fill="rgb(0,0,0)" stroke="none" paint-order="stroke fill markers" d=" M 0.61 -0.5650000000000001 L 0.61 -0.195 Q 0.61 -0.081 0.501 -0.02 Q 0.426 0.022 0.333 0.022 Q 0.213 0.022 0.133 -0.041 Q 0.056 -0.101 0.056 -0.195 L 0.056 -0.5650000000000001 Q 0.056 -0.597 0.076 -0.598 Q 0.096 -0.598 0.096 -0.5650000000000001 L 0.096 -0.198 Q 0.096 -0.09 0.21 -0.042 Q 0.267 -0.018000000000000002 0.333 -0.018000000000000002 Q 0.435 -0.018000000000000002 0.504 -0.069 Q 0.5700000000000001 -0.11800000000000001 0.5700000000000001 -0.198 L 0.5700000000000001 -0.5650000000000001 Q 0.5700000000000001 -0.597 0.59 -0.598 Q 0.61 -0.598 0.61 -0.5650000000000001 Z"/></g></g></g></g></svg>