<svg version="1.1" xmlns="http://www.w3.org/2000/svg" xmlns:xlink="http://www.w3.org/1999/xlink" width="87" height="104"><defs><clipPath id="udQdTqpFDEFM"><path fill="none" stroke="none" d=" M 0 0 L 87 0 L 87 104 L 0 104 L 0 0 Z"/></clipPath></defs><g transform="scale(1,1)" clip-path="url(#udQdTqpFDEFM)"><g transform="translate(-136,-56)"><g transform="scale(67,67)"><g transform="translate(2.3134328358208953,1.8375074626865673)"><path fill="rgb(0,0,0)" stroke="none" paint-order="stroke fill markers" d=" M 0.661 -0.5 L 0.661 -0.5 L 0.39 -0.5 Q 0.27 -0.5 0.191 -0.418 Q 0.123 -0.34700000000000003 0.123 -0.25 Q 0.123 -0.14 0.20800000000000002 -0.066 Q 0.28400000000000003 0 0.39 0 L 0.661 0 Q 0.6930000000000001 0 0.6940000000000001 0.02 Q 0.6940000000000001 0.04 0.661 0.04 L 0.387 0.04 Q 0.263 0.04 0.17400000000000002 -0.043000000000000003 Q 0.083 -0.127 0.083 -0.25 Q 0.083 -0.377 0.179 -0.462 Q 0.268 -0.54 0.387 -0.54 L 0.661 -0.54 Q 0.6930000000000001 -0.54 0.6940000000000001 -0.52 Q 0.6940000000000001 -0.5 0.661 -0.5 Z"/></g></g></g></g></svg>