<svg xmlns="http://www.w3.org/2000/svg" width="120" height="120" viewBox="0 0 120 120">
  <g id="_29-1supset" data-name="29-1supset" transform="translate(120) rotate(90)">
    <path id="Path_71" data-name="Path 71" d="M0,0H120V120H0Z" transform="translate(0 0)" fill="none"/>
    <g id="Group_973" data-name="Group 973" transform="translate(45.875 44.27)">
      <g id="Group_938" data-name="Group 938" transform="translate(0)">
        <g id="Group_937" data-name="Group 937">
          <path id="Path_637" data-name="Path 637" d="M28.354,11.106V30.043q0,1.638-1.024,1.689-1.024,0-1.024-1.689V11.26q0-5.527-5.835-7.984a16.055,16.055,0,0,0-6.3-1.228,14.318,14.318,0,0,0-8.752,2.61,7.839,7.839,0,0,0-3.378,6.6V30.043q0,1.638-1.024,1.689Q0,31.732,0,30.043V11.106Q0,5.272,5.579,2.15A17.292,17.292,0,0,1,14.177,0,16.035,16.035,0,0,1,24.413,3.224,9.56,9.56,0,0,1,28.354,11.106Z" transform="translate(0 0)"/>
        </g>
      </g>
    </g>
  </g>
</svg>
