<svg version="1.1" xmlns="http://www.w3.org/2000/svg" xmlns:xlink="http://www.w3.org/1999/xlink" width="87" height="104"><defs><clipPath id="szPJtuswrzin"><path fill="none" stroke="none" d=" M 0 0 L 87 0 L 87 104 L 0 104 L 0 0 Z"/></clipPath></defs><g transform="scale(1,1)" clip-path="url(#szPJtuswrzin)"><g transform="translate(-136,-56)"><g transform="scale(67,67)"><g transform="translate(2.3134328358208953,1.8375074626865673)"><path fill="rgb(0,0,0)" stroke="none" paint-order="stroke fill markers" d=" M 0.387 -0.5 L 0.116 -0.5 Q 0.084 -0.5 0.083 -0.52 Q 0.083 -0.54 0.116 -0.54 L 0.39 -0.54 Q 0.512 -0.54 0.601 -0.459 Q 0.6940000000000001 -0.374 0.6940000000000001 -0.25 Q 0.6940000000000001 -0.126 0.601 -0.041 L 0.6 -0.04 Q 0.511 0.04 0.39 0.04 L 0.116 0.04 Q 0.084 0.04 0.083 0.02 Q 0.083 0 0.116 0 L 0.387 0 Q 0.507 0 0.586 -0.082 Q 0.654 -0.153 0.654 -0.25 Q 0.654 -0.36 0.5690000000000001 -0.434 Q 0.493 -0.5 0.387 -0.5 Z"/></g></g></g></g></svg>