<svg xmlns="http://www.w3.org/2000/svg" width="120" height="120" viewBox="0 0 120 120">
  <g id="_29-2clock" data-name="29-2clock" transform="translate(120) rotate(90)">
    <path id="Path_71" data-name="Path 71" d="M0,0H120V120H0Z" transform="translate(0 0)" fill="none"/>
    <g id="Group_974" data-name="Group 974" transform="translate(-40.991 238.055) rotate(-90)">
      <g id="Group_950" data-name="Group 950" transform="translate(158.752 83.799)">
        <g id="Group_949" data-name="Group 949" transform="translate(0)">
          <path id="Path_645" data-name="Path 645" d="M41.094-36.786l-4.187,3.671-.631.574a17.465,17.465,0,0,1,3.384,10.21,16.314,16.314,0,0,1-4.818,11.816A16.293,16.293,0,0,1,22.8-5.524,16.208,16.208,0,0,1,11.553-9.769L11.5-9.826l-.574-.574L6.448-6.5q-1.033.975-1.549.975A1.046,1.046,0,0,1,3.752-6.671q0-.516.86-1.262a1.957,1.957,0,0,1,.4-.4Q8.341-11.2,9.373-12.178a17.646,17.646,0,0,1-3.327-8.489q-.057-.86-.057-1.721a16.135,16.135,0,0,1,5.22-12.218,16.4,16.4,0,0,1,11.644-4.589A16.478,16.478,0,0,1,34.1-34.95l.057.057.057.057.057.057.057.057.115.115a1.024,1.024,0,0,1,.287.287l4.417-3.843q1.147-1.033,1.606-1.033,1.033,0,1.147,1.147a1.841,1.841,0,0,1-.8,1.262m-30,23.117,21.855-19.1a12.989,12.989,0,0,0-7.17-3.843A15.177,15.177,0,0,0,22.8-36.9a13.969,13.969,0,0,0-10.612,4.589,14.011,14.011,0,0,0-3.9,9.981,14.641,14.641,0,0,0,2.811,8.662M34.5-31.05l-21.8,19.1a12.989,12.989,0,0,0,7.17,3.843,15.178,15.178,0,0,0,2.983.287,13.969,13.969,0,0,0,10.612-4.589,14.011,14.011,0,0,0,3.9-9.981A14.12,14.12,0,0,0,34.5-31.05Z" transform="translate(-3.752 39.195)"/>
        </g>
      </g>
    </g>
  </g>
</svg>
