<svg version="1.1" xmlns="http://www.w3.org/2000/svg" xmlns:xlink="http://www.w3.org/1999/xlink" width="87" height="104"><defs><clipPath id="zXKacgWoNvOl"><path fill="none" stroke="none" d=" M 0 0 L 87 0 L 87 104 L 0 104 L 0 0 Z"/></clipPath></defs><g transform="scale(1,1)" clip-path="url(#zXKacgWoNvOl)"><g transform="translate(-136,-56)"><g transform="scale(67,67)"><g transform="translate(2.3134328358208953,1.835731343283582)"><path fill="rgb(0,0,0)" stroke="none" paint-order="stroke fill markers" d=" M 0.707 -0.543 L 0.634 -0.47900000000000004 Q 0.634 -0.47900000000000004 0.623 -0.46900000000000003 Q 0.682 -0.385 0.682 -0.291 Q 0.682 -0.171 0.598 -0.085 Q 0.512 0.002 0.388 0.002 Q 0.274 0.002 0.192 -0.07200000000000001 L 0.191 -0.073 Q 0.185 -0.079 0.181 -0.083 L 0.10300000000000001 -0.015 Q 0.085 0.002 0.076 0.002 Q 0.057 0.002 0.056 -0.018000000000000002 Q 0.056 -0.027 0.07100000000000001 -0.04 Q 0.073 -0.043000000000000003 0.078 -0.047 Q 0.136 -0.097 0.154 -0.114 Q 0.10300000000000001 -0.187 0.096 -0.262 Q 0.095 -0.277 0.095 -0.292 Q 0.095 -0.419 0.186 -0.505 Q 0.271 -0.585 0.389 -0.585 Q 0.501 -0.585 0.585 -0.511 L 0.586 -0.51 L 0.587 -0.509 L 0.588 -0.508 L 0.589 -0.507 L 0.591 -0.505 Q 0.594 -0.503 0.596 -0.5 L 0.673 -0.5670000000000001 Q 0.6930000000000001 -0.585 0.7010000000000001 -0.585 Q 0.719 -0.585 0.721 -0.5650000000000001 Q 0.721 -0.555 0.707 -0.543 M 0.184 -0.14 L 0.5650000000000001 -0.47300000000000003 Q 0.518 -0.524 0.44 -0.54 Q 0.41500000000000004 -0.545 0.388 -0.545 Q 0.278 -0.545 0.203 -0.465 Q 0.135 -0.393 0.135 -0.291 Q 0.135 -0.209 0.184 -0.14 M 0.592 -0.443 L 0.212 -0.11 Q 0.259 -0.059000000000000004 0.337 -0.043000000000000003 Q 0.362 -0.038 0.389 -0.038 Q 0.499 -0.038 0.5740000000000001 -0.11800000000000001 Q 0.642 -0.19 0.642 -0.292 Q 0.642 -0.376 0.592 -0.443 Z"/></g></g></g></g></svg>