<svg version="1.1" xmlns="http://www.w3.org/2000/svg" xmlns:xlink="http://www.w3.org/1999/xlink" width="83" height="104"><defs><clipPath id="habFdGDNsBnc"><path fill="none" stroke="none" d=" M 0 0 L 83 0 L 83 104 L 0 104 L 0 0 Z"/></clipPath></defs><g transform="scale(1,1)" clip-path="url(#habFdGDNsBnc)"><g transform="translate(-136,-56)"><g transform="scale(67,67)"><g transform="translate(2.3134328358208953,1.9278059701492536)"><path fill="rgb(0,0,0)" stroke="none" paint-order="stroke fill markers" d=" M 0.112 -0.595 Q 0.112 -0.611 0.114 -0.619 Q 0.091 -0.646 0.058 -0.65 Q 0.037 -0.65 0.037 -0.667 Q 0.045 -0.684 0.07 -0.685 L 0.244 -0.685 Q 0.268 -0.685 0.275 -0.678 Q 0.277 -0.675 0.28 -0.671 L 0.582 -0.263 L 0.582 -0.5760000000000001 Q 0.582 -0.628 0.562 -0.641 Q 0.55 -0.648 0.527 -0.65 L 0.518 -0.65 Q 0.489 -0.65 0.489 -0.667 Q 0.497 -0.684 0.523 -0.685 L 0.669 -0.685 Q 0.6960000000000001 -0.685 0.7010000000000001 -0.675 L 0.7010000000000001 -0.674 Q 0.7020000000000001 -0.671 0.7020000000000001 -0.667 Q 0.7020000000000001 -0.65 0.679 -0.65 Q 0.638 -0.649 0.629 -0.626 Q 0.624 -0.612 0.624 -0.579 L 0.624 -0.014 Q 0.62 0.016 0.607 0.019 Q 0.597 0.019 0.586 0.004 L 0.154 -0.5670000000000001 L 0.154 -0.109 Q 0.154 -0.057 0.17500000000000002 -0.044 Q 0.188 -0.036000000000000004 0.217 -0.035 Q 0.247 -0.035 0.247 -0.018000000000000002 Q 0.23900000000000002 -0.001 0.214 0 L 0.059000000000000004 0 Q 0.029 0 0.026000000000000002 -0.012 Q 0.025 -0.015 0.025 -0.018000000000000002 Q 0.025 -0.035 0.053 -0.035 Q 0.098 -0.036000000000000004 0.107 -0.062 Q 0.11 -0.07100000000000001 0.111 -0.083 Q 0.112 -0.093 0.112 -0.107 L 0.112 -0.595 M 0.589 -0.051000000000000004 L 0.589 -0.195 L 0.252 -0.65 L 0.133 -0.65 Q 0.137 -0.646 0.154 -0.626 L 0.589 -0.051000000000000004 Z"/></g></g></g></g></svg>