<svg xmlns="http://www.w3.org/2000/svg" width="120" height="120" viewBox="0 0 120 120">
  <g id="_31N" data-name="31N" transform="translate(-10.741 7.82)">
    <path id="Path_71" data-name="Path 71" d="M0,0H120V120H0Z" transform="translate(10.741 -7.82)" fill="none"/>
    <g id="Group_967" data-name="Group 967" transform="translate(-108.518 -54.64)">
      <g id="Group_953" data-name="Group 953">
        <g id="Group_952" data-name="Group 952" transform="translate(155 129.163)">
          <path id="Path_647" data-name="Path 647" d="M7.5-39.865a7.143,7.143,0,0,1,.134-1.608A5.7,5.7,0,0,0,3.886-43.55q-1.407,0-1.407-1.139A2.3,2.3,0,0,1,4.69-45.9H16.348a3.12,3.12,0,0,1,2.077.469q.134.2.335.469L38.994-17.621V-38.592q0-3.484-1.34-4.355a5.738,5.738,0,0,0-2.345-.6h-.6q-1.943,0-1.943-1.139A2.364,2.364,0,0,1,35.041-45.9h9.782q1.809,0,2.144.67v.067a1.485,1.485,0,0,1,.067.469q0,1.139-1.541,1.139-2.747.067-3.35,1.608a10.377,10.377,0,0,0-.335,3.149V-.938q-.268,2.01-1.139,2.211-.67,0-1.407-1L10.318-37.989V-7.3q0,3.484,1.407,4.355a5.986,5.986,0,0,0,2.814.6q2.01,0,2.01,1.139A2.3,2.3,0,0,1,14.338,0H3.953Q1.943,0,1.742-.8a1.265,1.265,0,0,1-.067-.4q0-1.139,1.876-1.139,3.015-.067,3.618-1.809a6.06,6.06,0,0,0,.268-1.407q.067-.67.067-1.608v-32.7M39.463-3.417v-9.648L16.884-43.55H8.911q.268.268,1.407,1.608Z"/>
        </g>
      </g>
    </g>
  </g>
</svg>
