<svg version="1.1" xmlns="http://www.w3.org/2000/svg" xmlns:xlink="http://www.w3.org/1999/xlink" width="79" height="104"><defs><clipPath id="myNVVdkzwpsX"><path fill="none" stroke="none" d=" M 0 0 L 79 0 L 79 104 L 0 104 L 0 0 Z"/></clipPath></defs><g transform="scale(1,1)" clip-path="url(#myNVVdkzwpsX)"><g transform="translate(-136,-56)"><g transform="scale(67,67)"><g transform="translate(2.3134328358208953,1.9278059701492536)"><path fill="rgb(0,0,0)" stroke="none" paint-order="stroke fill markers" d=" M 0.596 -0.649 L 0.22 -0.035 L 0.362 -0.035 Q 0.49 -0.035 0.56 -0.128 Q 0.59 -0.168 0.599 -0.213 Q 0.603 -0.23900000000000002 0.613 -0.242 Q 0.615 -0.243 0.619 -0.243 Q 0.633 -0.243 0.636 -0.225 L 0.609 -0.028 Q 0.605 -0.005 0.598 -0.002 L 0.598 -0.002 L 0.597 -0.002 Q 0.592 0 0.5750000000000001 0 L 0.062 0 Q 0.032 0 0.029 -0.012 Q 0.028 -0.015 0.028 -0.018000000000000002 Q 0.028 -0.023 0.037 -0.036000000000000004 L 0.41300000000000003 -0.65 L 0.332 -0.65 Q 0.233 -0.65 0.171 -0.61 Q 0.108 -0.5710000000000001 0.097 -0.504 Q 0.093 -0.489 0.08 -0.489 Q 0.065 -0.493 0.062 -0.508 L 0.064 -0.521 L 0.079 -0.656 Q 0.082 -0.679 0.089 -0.682 Q 0.093 -0.684 0.10300000000000001 -0.685 L 0.114 -0.685 L 0.5720000000000001 -0.685 Q 0.599 -0.685 0.604 -0.675 L 0.604 -0.674 Q 0.605 -0.671 0.605 -0.667 Q 0.605 -0.662 0.596 -0.649 M 0.113 -0.65 L 0.108 -0.605 Q 0.14100000000000001 -0.635 0.166 -0.649 L 0.166 -0.65 L 0.113 -0.65 M 0.454 -0.65 L 0.077 -0.035 L 0.179 -0.035 L 0.556 -0.65 L 0.454 -0.65 M 0.507 -0.036000000000000004 L 0.507 -0.036000000000000004 L 0.507 -0.035 L 0.5750000000000001 -0.035 Q 0.583 -0.094 0.584 -0.10200000000000001 Q 0.55 -0.061 0.507 -0.036000000000000004 Z"/></g></g></g></g></svg>