<svg xmlns="http://www.w3.org/2000/svg" width="120" height="120" viewBox="0 0 120 120">
  <g id="_32Z" data-name="32Z" transform="translate(-10.741 7.82)">
    <path id="Path_71" data-name="Path 71" d="M0,0H120V120H0Z" transform="translate(10.741 -7.82)" fill="none"/>
    <g id="Group_968" data-name="Group 968" transform="translate(-106.518 -53.64)">
      <g id="Group_956" data-name="Group 956">
        <g id="Group_955" data-name="Group 955" transform="translate(155 129.163)">
          <path id="Path_649" data-name="Path 649" d="M39.932-43.483,14.74-2.345h9.514q8.576,0,13.266-6.231a14.009,14.009,0,0,0,2.613-5.695q.268-1.742.938-1.943a.933.933,0,0,1,.4-.067q.938,0,1.139,1.206L40.8-1.876q-.268,1.541-.737,1.742H40A4.964,4.964,0,0,1,38.525,0H4.154Q2.144,0,1.943-.8a1.265,1.265,0,0,1-.067-.4,2.843,2.843,0,0,1,.6-1.206L27.671-43.55H22.244q-6.633,0-10.787,2.68a10.028,10.028,0,0,0-4.958,7.1A1.141,1.141,0,0,1,5.36-32.763a1.546,1.546,0,0,1-1.206-1.273l.134-.871,1.005-9.045q.2-1.541.67-1.742a2.973,2.973,0,0,1,.938-.2H38.324q1.809,0,2.144.67v.067a1.485,1.485,0,0,1,.067.469,2.843,2.843,0,0,1-.6,1.206M7.571-43.55l-.335,3.015a22.236,22.236,0,0,1,3.886-2.948v-.067H7.571m22.847,0L5.159-2.345h6.834l25.259-41.2H30.418M33.969-2.412h0v.067h4.556q.536-3.953.6-4.489A19.281,19.281,0,0,1,33.969-2.412Z"/>
        </g>
      </g>
    </g>
  </g>
</svg>
