<svg xmlns="http://www.w3.org/2000/svg" width="120" height="120" viewBox="0 0 120 120">
  <g id="_33Q" data-name="33Q" transform="translate(-10.741 7.82)">
    <path id="Path_71" data-name="Path 71" d="M0,0H120V120H0Z" transform="translate(10.741 -7.82)" fill="none"/>
    <g id="Group_967" data-name="Group 967" transform="translate(-110.518 -53.64)">
      <g id="Group_959" data-name="Group 959">
        <g id="Group_958" data-name="Group 958" transform="translate(155 123.163)">
          <path id="Path_651" data-name="Path 651" d="M32.026.6a11.947,11.947,0,0,0,6.566,6.3,13.225,13.225,0,0,0,4.958.938,15.157,15.157,0,0,0,3.685-.469,2.839,2.839,0,0,1,.67-.134q.938,0,1.139,1.206,0,.8-1.407,1.34l-.067.067H47.5a.824.824,0,0,1-.335.134,29.1,29.1,0,0,1-10.519,2.01A18.553,18.553,0,0,1,22.11,5.561,18.876,18.876,0,0,1,18.693.268,20.858,20.858,0,0,1,5.628-9.313,26.309,26.309,0,0,1,2.211-22.981q0-13.132,9.045-19.7a24.655,24.655,0,0,1,14.807-4.489q10.318,0,16.951,6.231a21.561,21.561,0,0,1,6.1,10.988,29.508,29.508,0,0,1,.8,7.035q0,13-8.911,19.564A22.043,22.043,0,0,1,32.026.6M16.817-42.947l-.067-.067a17.653,17.653,0,0,0-9.715,8.777A24.46,24.46,0,0,0,4.556-22.914q0,12.261,8.509,18.09a16.467,16.467,0,0,0,3.819,2.01q-5.226-6.164-5.226-20.167,0-13.936,5.159-19.966m18.559-.067-.067.067q5.159,6.03,5.159,20.033,0,13.936-5.226,20.1a18.051,18.051,0,0,0,10.184-9.514A24.781,24.781,0,0,0,47.57-22.981q0-12.06-8.241-17.956a17.707,17.707,0,0,0-3.953-2.077M26.063-1.072q10.117,0,11.792-15.879.268-2.814.268-6.03,0-18.224-8.576-21.239a9.844,9.844,0,0,0-3.484-.6q-10.117,0-11.792,15.879Q14-26.13,14-22.914,14-4.69,22.579-1.675a9.844,9.844,0,0,0,3.484.6M21.641.938h0A16.462,16.462,0,0,0,33.7,9.38a16.448,16.448,0,0,0,2.948.268,6.163,6.163,0,0,0,2.077-.134q0-.067-.737-.335a14.678,14.678,0,0,1-8.308-8.107,33.982,33.982,0,0,1-3.618.2A25.478,25.478,0,0,1,21.641.938Z"/>
        </g>
      </g>
    </g>
  </g>
</svg>
