<svg version="1.1" xmlns="http://www.w3.org/2000/svg" xmlns:xlink="http://www.w3.org/1999/xlink" width="87" height="104"><defs><clipPath id="yWgfmwVsTgox"><path fill="none" stroke="none" d=" M 0 0 L 87 0 L 87 104 L 0 104 L 0 0 Z"/></clipPath></defs><g transform="scale(1,1)" clip-path="url(#yWgfmwVsTgox)"><g transform="translate(-136,-56)"><g transform="scale(67,67)"><g transform="translate(2.3134328358208953,1.8382537313432836)"><path fill="rgb(0,0,0)" stroke="none" paint-order="stroke fill markers" d=" M 0.47800000000000004 0.009000000000000001 Q 0.508 0.075 0.5760000000000001 0.10300000000000001 Q 0.611 0.117 0.65 0.117 Q 0.677 0.117 0.705 0.11 Q 0.712 0.108 0.715 0.108 Q 0.729 0.108 0.732 0.126 Q 0.732 0.138 0.711 0.146 L 0.71 0.147 L 0.709 0.147 Q 0.708 0.148 0.704 0.149 Q 0.626 0.179 0.547 0.179 Q 0.41500000000000004 0.179 0.33 0.083 Q 0.298 0.048 0.279 0.004 Q 0.15 -0.03 0.084 -0.139 Q 0.033 -0.225 0.033 -0.343 Q 0.033 -0.539 0.168 -0.637 Q 0.261 -0.704 0.389 -0.704 Q 0.543 -0.704 0.642 -0.611 Q 0.71 -0.546 0.733 -0.447 Q 0.745 -0.398 0.745 -0.342 Q 0.745 -0.148 0.612 -0.05 Q 0.553 -0.006 0.47800000000000004 0.009000000000000001 M 0.251 -0.641 L 0.25 -0.642 Q 0.153 -0.605 0.105 -0.511 Q 0.068 -0.439 0.068 -0.342 Q 0.068 -0.159 0.195 -0.07200000000000001 Q 0.222 -0.053 0.252 -0.042 Q 0.17400000000000002 -0.134 0.17400000000000002 -0.343 Q 0.17400000000000002 -0.551 0.251 -0.641 M 0.528 -0.642 L 0.527 -0.641 Q 0.604 -0.551 0.604 -0.342 Q 0.604 -0.134 0.526 -0.042 Q 0.63 -0.082 0.678 -0.184 Q 0.71 -0.252 0.71 -0.343 Q 0.71 -0.523 0.587 -0.611 Q 0.558 -0.631 0.528 -0.642 M 0.389 -0.016 Q 0.54 -0.016 0.5650000000000001 -0.253 Q 0.5690000000000001 -0.295 0.5690000000000001 -0.343 Q 0.5690000000000001 -0.615 0.441 -0.66 Q 0.417 -0.669 0.389 -0.669 Q 0.23800000000000002 -0.669 0.213 -0.432 Q 0.209 -0.39 0.209 -0.342 Q 0.209 -0.07 0.337 -0.025 Q 0.361 -0.016 0.389 -0.016 M 0.323 0.014 L 0.323 0.014 Q 0.384 0.12 0.503 0.14 Q 0.525 0.14400000000000002 0.547 0.14400000000000002 Q 0.578 0.14400000000000002 0.578 0.14200000000000002 Q 0.578 0.14100000000000001 0.5670000000000001 0.137 Q 0.48 0.10200000000000001 0.443 0.016 Q 0.41500000000000004 0.019 0.389 0.019 Q 0.35100000000000003 0.019 0.323 0.014 Z"/></g></g></g></g></svg>