<svg xmlns="http://www.w3.org/2000/svg" width="120" height="120" viewBox="0 0 120 120">
  <g id="_34R" data-name="34R" transform="translate(-10.741 7.82)">
    <path id="Path_71" data-name="Path 71" d="M0,0H120V120H0Z" transform="translate(10.741 -7.82)" fill="none"/>
    <g id="Group_967" data-name="Group 967" transform="translate(-108.518 -53.64)">
      <g id="Group_962" data-name="Group 962">
        <g id="Group_961" data-name="Group 961" transform="translate(155 129.163)">
          <path id="Path_653" data-name="Path 653" d="M17.956-21.038h0V-6.164q0,2.747.8,3.283a6.42,6.42,0,0,0,3.283.536q1.876,0,1.876,1.139A2.4,2.4,0,0,1,21.708,0H3.35Q1.34,0,1.139-.8a1.265,1.265,0,0,1-.067-.4q0-1.139,1.809-1.139,3.149,0,3.752-.938a4.178,4.178,0,0,0,.4-1.876V-39.731q0-2.814-.871-3.35a7.223,7.223,0,0,0-3.283-.469q-1.809,0-1.809-1.139A2.364,2.364,0,0,1,3.35-45.9H24.388q8.71,0,13.735,4.02l.067.067a10.641,10.641,0,0,1,3.618,5.561,11.852,11.852,0,0,1,.335,2.881q0,8.643-9.38,11.055a16.5,16.5,0,0,1-2.345.536q2.747,4.422,8.308,12.328,4.958,6.566,7.37,7.1A1.084,1.084,0,0,1,47.1-1.206,2.4,2.4,0,0,1,44.89,0H35.644Q34.036,0,33.7-.469A2.2,2.2,0,0,1,33.433-.8l-3.015-4.69L20.368-21.038H17.956m12.931-3.283h0q8.174-1.474,8.844-7.7.067-.67.067-1.34,0-6.5-7.5-8.911a14.788,14.788,0,0,0-1.876-.536q2.546,3.283,2.546,9.514t-2.077,8.978M17.956-39.932v16.549q7.839,0,10.184-1.608a5.226,5.226,0,0,0,1.072-1.139q1.407-1.943,1.407-7.169,0-7.772-4.154-9.514a10.915,10.915,0,0,0-4.355-.737q-3.953,0-4.154,2.881v.737M8.844-2.345h7.3a9.564,9.564,0,0,1-.536-3.685v-34.1a5.406,5.406,0,0,1,.871-3.417H8.844a9.564,9.564,0,0,1,.536,3.685V-6.03a9.564,9.564,0,0,1-.536,3.685M23.115-21.038,35.175-2.345h6.5Q36.716-7.3,27.872-21.44a26.86,26.86,0,0,1-3.484.268A11.019,11.019,0,0,0,23.115-21.038Z"/>
        </g>
      </g>
    </g>
  </g>
</svg>
