<svg version="1.1" xmlns="http://www.w3.org/2000/svg" xmlns:xlink="http://www.w3.org/1999/xlink" width="83" height="104"><defs><clipPath id="JOxmwGIflTiq"><path fill="none" stroke="none" d=" M 0 0 L 83 0 L 83 104 L 0 104 L 0 0 Z"/></clipPath></defs><g transform="scale(1,1)" clip-path="url(#JOxmwGIflTiq)"><g transform="translate(-136,-56)"><g transform="scale(67,67)"><g transform="translate(2.3134328358208953,1.9278059701492536)"><path fill="rgb(0,0,0)" stroke="none" paint-order="stroke fill markers" d=" M 0.657 -0.671 L 0.657 -0.504 Q 0.653 -0.47400000000000003 0.64 -0.47100000000000003 Q 0.627 -0.47100000000000003 0.621 -0.49 Q 0.594 -0.5760000000000001 0.504 -0.631 Q 0.443 -0.669 0.392 -0.669 Q 0.303 -0.669 0.254 -0.561 Q 0.213 -0.47400000000000003 0.213 -0.341 Q 0.213 -0.064 0.368 -0.033 Q 0.386 -0.029 0.40700000000000003 -0.029 Q 0.523 -0.029 0.613 -0.105 Q 0.629 -0.11900000000000001 0.643 -0.135 Q 0.656 -0.149 0.664 -0.149 Q 0.678 -0.149 0.684 -0.136 L 0.684 -0.135 Q 0.685 -0.132 0.685 -0.129 Q 0.685 -0.113 0.63 -0.067 Q 0.609 -0.049 0.588 -0.036000000000000004 Q 0.497 0.019 0.391 0.019 Q 0.242 0.019 0.14400000000000002 -0.07100000000000001 Q 0.037 -0.169 0.037 -0.343 Q 0.037 -0.543 0.178 -0.641 Q 0.269 -0.704 0.389 -0.704 Q 0.448 -0.704 0.499 -0.682 Q 0.552 -0.658 0.589 -0.658 Q 0.619 -0.658 0.622 -0.686 Q 0.624 -0.704 0.64 -0.704 Q 0.657 -0.6980000000000001 0.657 -0.671 M 0.622 -0.5680000000000001 L 0.622 -0.63 Q 0.611 -0.623 0.59 -0.623 Q 0.577 -0.623 0.5720000000000001 -0.624 Q 0.611 -0.583 0.622 -0.5680000000000001 M 0.267 -0.646 L 0.267 -0.647 Q 0.151 -0.608 0.10200000000000001 -0.496 Q 0.07200000000000001 -0.429 0.07200000000000001 -0.342 Q 0.07200000000000001 -0.154 0.20400000000000001 -0.069 Q 0.23900000000000002 -0.046 0.28300000000000003 -0.032 Q 0.178 -0.116 0.178 -0.341 Q 0.178 -0.534 0.254 -0.632 Q 0.261 -0.64 0.267 -0.646 Z"/></g></g></g></g></svg>