<svg xmlns="http://www.w3.org/2000/svg" width="120" height="120" viewBox="0 0 120 120">
  <g id="_35C" data-name="35C" transform="translate(-10.741 7.82)">
    <path id="Path_71" data-name="Path 71" d="M0,0H120V120H0Z" transform="translate(10.741 -7.82)" fill="none"/>
    <g id="Group_968" data-name="Group 968" transform="translate(-108.518 -53.64)">
      <g id="Group_965" data-name="Group 965">
        <g id="Group_964" data-name="Group 964" transform="translate(155 129.163)">
          <path id="Path_655" data-name="Path 655" d="M44.019-44.957v11.189q-.268,2.01-1.139,2.211-.871,0-1.273-1.273a17.012,17.012,0,0,0-7.839-9.447,14.458,14.458,0,0,0-7.5-2.546q-5.963,0-9.246,7.236-2.747,5.829-2.747,14.74,0,18.559,10.385,20.636a12.039,12.039,0,0,0,2.613.268,20.785,20.785,0,0,0,13.8-5.092,21.343,21.343,0,0,0,2.01-2.01q.871-.938,1.407-.938a1.377,1.377,0,0,1,1.34.871v.067a1.265,1.265,0,0,1,.067.4q0,1.072-3.685,4.154A22.707,22.707,0,0,1,39.4-2.412,25.061,25.061,0,0,1,26.2,1.273q-9.983,0-16.549-6.03Q2.479-11.323,2.479-22.981q0-13.4,9.447-19.966a24.222,24.222,0,0,1,14.137-4.221,18.406,18.406,0,0,1,7.37,1.474,15.2,15.2,0,0,0,6.03,1.608,1.941,1.941,0,0,0,2.211-1.876q.134-1.206,1.206-1.206,1.139.4,1.139,2.211m-2.345,6.9V-42.21a4.019,4.019,0,0,1-2.144.469,7.2,7.2,0,0,1-1.206-.067,49.528,49.528,0,0,1,3.35,3.752M17.889-43.282v-.067A17.743,17.743,0,0,0,6.834-33.232a25.017,25.017,0,0,0-2.01,10.318q0,12.6,8.844,18.291a21.389,21.389,0,0,0,5.293,2.479q-7.035-5.628-7.035-20.7,0-12.931,5.092-19.5Q17.487-42.88,17.889-43.282Z"/>
        </g>
      </g>
    </g>
  </g>
</svg>
